<svg width="28" height="18" fill="none" xmlns="http://www.w3.org/2000/svg"><path d="M24.216 7.92a3.25 3.25 0 001.363-2.647c0-1.79-1.43-3.237-3.197-3.237-1.767 0-3.196 1.447-3.196 3.237 0 1.093.537 2.064 1.363 2.647a5.524 5.524 0 00-1.89 1.122 7.14 7.14 0 00-2.592-1.43A4.12 4.12 0 0018.022 4.1c0-2.266-1.811-4.1-4.05-4.1-2.238 0-4.05 1.84-4.05 4.1a4.11 4.11 0 001.956 3.512 7.2 7.2 0 00-2.565 1.413 5.568 5.568 0 00-1.867-1.1 3.25 3.25 0 001.363-2.647c0-1.79-1.43-3.236-3.197-3.236-1.767 0-3.196 1.447-3.196 3.236 0 1.094.537 2.064 1.362 2.648A5.676 5.676 0 000 13.294v.37c0 .011.011.023.022.023h6.776a7.582 7.582 0 00-.061.947v.382C6.737 16.665 8.055 18 9.684 18h8.588c1.628 0 2.947-1.335 2.947-2.984v-.382c0-.32-.022-.639-.061-.947h6.82c.01 0 .022-.012.022-.023v-.37c-.011-2.49-1.584-4.605-3.784-5.374zm-4.144-2.653c0-1.29 1.036-2.339 2.31-2.339s2.31 1.049 2.31 2.34a2.333 2.333 0 01-2.265 2.338h-.089c-1.258-.022-2.266-1.06-2.266-2.339zM10.798 4.1c0-1.767 1.418-3.203 3.163-3.203 1.745 0 3.164 1.436 3.164 3.203 0 1.706-1.324 3.102-2.981 3.198h-.366c-1.656-.096-2.98-1.492-2.98-3.198zM3.285 5.267c0-1.29 1.036-2.339 2.31-2.339 1.275 0 2.31 1.049 2.31 2.34A2.333 2.333 0 015.64 7.605h-.09C4.3 7.584 3.285 6.546 3.285 5.267zm3.668 7.516H.898c.249-2.39 2.243-4.263 4.664-4.28h.067a4.65 4.65 0 013.02 1.14 7.392 7.392 0 00-1.696 3.14zm13.368 2.233c0 1.15-.925 2.086-2.06 2.086H9.672c-1.136 0-2.06-.936-2.06-2.086v-.382c0-3.483 2.747-6.332 6.165-6.433.061.005.128.005.189.005.06 0 .127 0 .188-.005 3.418.1 6.166 2.95 6.166 6.433v.382zm.66-2.233a7.372 7.372 0 00-1.68-3.118 4.674 4.674 0 013.048-1.161h.067c2.42.016 4.415 1.89 4.664 4.28h-6.1z" fill="#000"/></svg>