<svg width="18" height="18" fill="none" xmlns="http://www.w3.org/2000/svg"><path d="M17.473 8.473a.527.527 0 00-.528.527c0 4.381-3.564 7.945-7.945 7.945-4.38 0-7.945-3.564-7.945-7.945S4.619 1.055 9 1.055c1.336 0 2.636.331 3.796.963l-.66.66a.527.527 0 00.373.9h2.523a.527.527 0 00.528-.527V.527a.527.527 0 00-.9-.372l-1.091 1.09A8.965 8.965 0 009 0a8.941 8.941 0 00-6.364 2.636A8.941 8.941 0 000 9a8.94 8.94 0 002.636 6.364A8.941 8.941 0 009 18a8.941 8.941 0 006.364-2.636A8.94 8.94 0 0018 9a.527.527 0 00-.527-.527z" fill="#000"/><path d="M12.389 8.473H9.527V5.61a.527.527 0 00-1.054 0V9c0 .291.236.527.527.527h3.389a.527.527 0 000-1.054z" fill="#000"/></svg>