<svg width="120" height="40" viewBox="0 0 120 40" fill="none" xmlns="http://www.w3.org/2000/svg">
<path d="M7.70569 39.998C7.39531 39.998 7.09306 39.9939 6.78573 39.9878C6.14798 39.979 5.51181 39.9217 4.88271 39.8164C4.29523 39.712 3.727 39.5186 3.19748 39.243C2.66943 38.968 2.18932 38.609 1.77581 38.18C1.35331 37.7528 1.00275 37.2598 0.737801 36.7201C0.467682 36.1734 0.281063 35.5891 0.184196 34.9867C0.0796471 34.3382 0.0231821 33.6828 0.0152648 33.0259C0.00814124 32.8055 0 32.072 0 32.072V7.91471C0 7.91471 0.00915889 7.19241 0.0152648 6.98021C0.0223884 6.32422 0.0793771 5.66925 0.183178 5.02142C0.280174 4.41784 0.466778 3.83221 0.736783 3.28402C1.00137 2.74332 1.35043 2.24954 1.7697 1.82208C2.18615 1.39258 2.66767 1.03175 3.19646 0.752907C3.72494 0.478463 4.29225 0.286822 4.87864 0.184656C5.50959 0.0785553 6.14868 0.0214242 6.78777 0.0122424L7.70569 0H112.289L113.218 0.0132626C113.852 0.0211494 114.484 0.07811 115.109 0.183636C115.7 0.285656 116.274 0.479494 116.81 0.755968C117.872 1.32167 118.731 2.20633 119.267 3.28606C119.532 3.82983 119.716 4.41134 119.812 5.0102C119.918 5.66313 119.977 6.3232 119.989 6.98429C119.992 7.28015 119.992 7.59845 119.992 7.91471C120 8.30749 120 8.67986 120 9.05733V30.9416C120 31.3222 120 31.6925 119.992 32.0659C119.992 32.4066 119.992 32.7188 119.988 33.0382C119.976 33.6876 119.918 34.3354 119.815 34.9765C119.72 35.5831 119.535 36.1719 119.265 36.7231C118.998 37.2571 118.649 37.7459 118.231 38.1718C117.817 38.6031 117.336 38.9642 116.807 39.241C116.274 39.5188 115.701 39.7129 115.109 39.8164C114.48 39.9214 113.844 39.9796 113.207 39.9867C112.909 39.9939 112.597 39.998 112.294 39.998L111.191 40L7.70569 39.998V39.998Z" fill="black"/>
<path d="M24.3183 20.3134C24.3407 18.5393 25.2454 16.9008 26.7159 15.9714C26.2641 15.3015 25.6608 14.748 24.9552 14.356C24.2496 13.9641 23.4617 13.7447 22.6555 13.7158C20.9458 13.5311 19.2891 14.7666 18.418 14.7666C17.5306 14.7666 16.1893 13.7341 14.7463 13.7647C12.8463 13.827 11.1183 14.9104 10.1943 16.6172C8.22614 20.1185 9.69462 25.2644 11.5793 28.0945C12.5227 29.4809 13.6248 31.0285 15.0678 30.9735C16.4793 30.9133 17.0065 30.0492 18.7111 30.0492C20.3983 30.0492 20.8929 30.9735 22.3644 30.9388C23.8797 30.9133 24.8333 29.5472 25.7431 28.1475C26.423 27.1565 26.9449 26.0655 27.2899 24.9135C25.4897 24.132 24.3204 22.3211 24.3183 20.3134ZM21.5381 11.8539C22.3668 10.8267 22.7727 9.5209 22.6728 8.20361C21.4037 8.34362 20.2358 8.96439 19.4081 9.93897C18.5785 10.9143 18.1608 12.1755 18.2439 13.4546C18.8788 13.4593 19.5062 13.3174 20.0775 13.0398C20.6487 12.7622 21.1486 12.3564 21.5381 11.8539V11.8539Z" fill="white"/>
<path d="M42.1615 27.4648H37.3459L36.1888 30.9743H34.1484L38.7116 17.9892H40.8314L45.3935 30.9754H43.3185L42.1625 27.4659L42.1615 27.4648ZM37.8435 25.8458H41.6618L39.7791 20.149H39.7272L37.8446 25.8458H37.8435ZM55.2465 26.2416C55.2465 29.1839 53.7139 31.0743 51.4008 31.0743C50.8105 31.1029 50.2244 30.9623 49.7111 30.6688C49.1977 30.3754 48.7785 29.9413 48.5025 29.4175H48.4587V34.1063H46.5659V21.5069H48.3977V23.0821H48.4312C48.7207 22.5607 49.1473 22.129 49.6647 21.8339C50.182 21.5389 50.7702 21.3919 51.3651 21.4089C53.7037 21.4089 55.2455 23.3075 55.2455 26.2416H55.2465ZM53.3028 26.2416C53.3028 24.3247 52.338 23.0647 50.8675 23.0647C49.4224 23.0647 48.4506 24.3512 48.4506 26.2416C48.4506 28.1494 49.4224 29.4267 50.8675 29.4267C52.338 29.4267 53.3028 28.1759 53.3028 26.2416ZM65.3874 26.2416C65.3874 29.1839 63.8548 31.0743 61.5417 31.0743C60.9515 31.1029 60.3653 30.9623 59.852 30.6688C59.3387 30.3754 58.9194 29.9413 58.6434 29.4175H58.5997V34.1063H56.7078V21.5069H58.5386V23.0821H58.5732C58.8626 22.5607 59.2893 22.129 59.8066 21.8339C60.324 21.5389 60.9122 21.3919 61.5071 21.4089C63.8457 21.4089 65.3874 23.3075 65.3874 26.2416ZM63.4437 26.2416C63.4437 24.3247 62.479 23.0647 61.0085 23.0647C59.5634 23.0647 58.5915 24.3512 58.5915 26.2416C58.5915 28.1494 59.5634 29.4267 61.0085 29.4267C62.479 29.4267 63.4427 28.1759 63.4427 26.2416H63.4437ZM72.0887 27.3567C72.2291 28.6442 73.4463 29.4899 75.1111 29.4899C76.7048 29.4899 77.8517 28.6442 77.8517 27.4832C77.8517 26.4753 77.1597 25.8713 75.5213 25.4581L73.8838 25.0531C71.5636 24.4767 70.4859 23.3616 70.4859 21.5518C70.4859 19.3114 72.3859 17.7729 75.0847 17.7729C77.755 17.7729 79.5858 19.3114 79.6468 21.5518H77.7377C77.6237 20.2561 76.5817 19.4736 75.0572 19.4736C73.5338 19.4736 72.4917 20.2653 72.4917 21.4171C72.4917 22.3353 73.1572 22.876 74.7865 23.2892L76.1787 23.6401C78.7716 24.2706 79.8483 25.3408 79.8483 27.2404C79.8483 29.6695 77.9657 31.1916 74.9707 31.1916C72.1681 31.1916 70.2752 29.7052 70.1531 27.3557L72.0887 27.3567V27.3567ZM83.9302 19.2665V21.5069H85.6826V23.0464H83.9302V28.2657C83.9302 29.0768 84.2812 29.4542 85.0516 29.4542C85.2592 29.4502 85.4668 29.4359 85.6734 29.4093V30.9396C85.3274 31.006 84.9753 31.0355 84.6232 31.0294C82.7578 31.0294 82.0302 30.3092 82.0302 28.4728V23.0453H80.691V21.5069H82.0302V19.2665H83.9302V19.2665ZM86.6972 26.2416C86.6972 23.2626 88.4048 21.3906 91.067 21.3906C93.7383 21.3906 95.4378 23.2626 95.4378 26.2416C95.4378 29.2288 93.7475 31.0927 91.067 31.0927C88.3875 31.0927 86.6972 29.2288 86.6972 26.2416ZM93.5104 26.2416C93.5104 24.1982 92.5996 22.9923 91.067 22.9923C89.5344 22.9923 88.6246 24.2073 88.6246 26.2416C88.6246 28.2922 89.5344 29.4899 91.067 29.4899C92.5996 29.4899 93.5104 28.2932 93.5104 26.2416ZM96.9969 21.5069H98.8012V23.1188H98.8449C99.0963 22.0813 100.021 21.3671 101.06 21.4079C101.279 21.4071 101.496 21.4314 101.709 21.4804V23.2984C101.434 23.2121 101.147 23.1724 100.859 23.181C100.583 23.1703 100.308 23.2205 100.053 23.3283C99.7988 23.436 99.5711 23.5985 99.3863 23.8044C99.1982 24.0134 99.0565 24.2601 98.9705 24.5281C98.8846 24.7961 98.8563 25.0794 98.8877 25.3592V30.9743H96.9969V21.5069V21.5069ZM110.428 28.1943C110.173 29.9123 108.545 31.0917 106.461 31.0917C103.781 31.0917 102.117 29.2471 102.117 26.2865C102.117 23.3177 103.79 21.3906 106.381 21.3906C108.931 21.3906 110.533 23.1902 110.533 26.0611V26.7262H104.026V26.8446C103.965 27.5485 104.202 28.2463 104.677 28.7595C104.909 29.0118 105.192 29.2108 105.507 29.3431C105.823 29.4753 106.163 29.5376 106.505 29.5257C106.956 29.5659 107.407 29.4576 107.791 29.2174C108.175 28.9771 108.47 28.6179 108.632 28.1943H110.428ZM104.035 25.3683H108.641C108.658 25.0564 108.613 24.7441 108.506 24.4503C108.4 24.1566 108.235 23.8876 108.022 23.6595C107.812 23.4351 107.558 23.2573 107.275 23.1378C106.993 23.0183 106.688 22.9597 106.382 22.9658C106.072 22.9645 105.766 23.0257 105.48 23.1457C105.195 23.2658 104.937 23.4423 104.721 23.6646C104.278 24.1205 104.032 24.7323 104.035 25.3683V25.3683Z" fill="white"/>
<path d="M36.4985 10.8529H37.3106C37.4508 10.8707 37.5932 10.8585 37.7285 10.8172C37.8637 10.7758 37.9887 10.7063 38.0952 10.6131C38.313 10.4244 38.4432 10.15 38.4554 9.8582C38.4554 9.2828 38.0341 8.91043 37.3197 8.91043C37.176 8.89 37.0296 8.89928 36.8896 8.9377C36.7496 8.97613 36.6189 9.04288 36.5056 9.13386C36.2756 9.31749 36.127 9.58988 36.0945 9.8888H35.203C35.2335 9.34606 35.4829 8.84208 35.8889 8.49623C36.296 8.14936 36.8252 7.99327 37.3482 8.06366C38.544 8.06366 39.3856 8.75128 39.3856 9.74087C39.3914 10.0693 39.2852 10.3898 39.0846 10.6495C38.884 10.9092 38.601 11.0926 38.2824 11.1692V11.2416C39.0599 11.2773 39.6634 11.9516 39.6329 12.7515C39.5786 13.305 39.3074 13.8143 38.8788 14.1675C38.4514 14.5164 37.9069 14.6746 37.3655 14.6062C37.0963 14.6435 36.8224 14.6248 36.5606 14.5515C36.2989 14.4781 36.055 14.3516 35.8441 14.1798C35.6301 14.0052 35.4528 13.7898 35.3224 13.5461C35.1921 13.3023 35.1114 13.035 35.085 12.7596H35.9907C36.0446 13.3565 36.5779 13.7411 37.3645 13.7411C38.1522 13.7411 38.6671 13.3085 38.6671 12.6995C38.6671 12.0802 38.1827 11.6997 37.337 11.6997H36.4985V10.8529V10.8529ZM40.6627 13.1228C40.6627 12.2761 41.2774 11.7864 42.3663 11.717L43.6078 11.6435V11.2375C43.6078 10.7396 43.2883 10.4591 42.6696 10.4591C42.1648 10.4591 41.8147 10.6499 41.714 10.9825H40.8388C40.9304 10.1734 41.6733 9.65518 42.7113 9.65518C43.8612 9.65518 44.5085 10.2428 44.5085 11.2365V14.4542H43.6373V13.7931H43.5661C43.271 14.2757 42.7438 14.5583 42.1892 14.5317C41.996 14.552 41.8007 14.5306 41.6164 14.4691C41.4321 14.4075 41.2631 14.3071 41.1207 14.1747C40.9764 14.0402 40.8613 13.8775 40.7825 13.6965C40.7038 13.5156 40.663 13.3203 40.6627 13.1228V13.1228ZM43.6078 12.7209V12.3271L42.4884 12.4005C41.8575 12.4434 41.5715 12.6637 41.5715 13.079C41.5715 13.5034 41.9287 13.7503 42.4212 13.7503C42.7123 13.7809 43.0033 13.688 43.2262 13.4932C43.4501 13.2993 43.5875 13.0208 43.6078 12.7209V12.7209ZM46.9091 10.5274V14.4552H46.0044V9.74598H49.0218V10.5274H46.9091ZM54.5029 12.0975C54.5029 13.5942 53.7661 14.5317 52.61 14.5317C52.3239 14.5504 52.0385 14.4857 51.7882 14.3455C51.5379 14.2052 51.3335 13.9953 51.1995 13.7411H51.1283V16.0202H50.2226V9.74598H51.0937V10.5234H51.1619C51.4468 9.98266 52.0025 9.65212 52.6009 9.66742C53.7661 9.66742 54.5029 10.6019 54.5029 12.0975ZM53.5727 12.0975C53.5727 11.1028 53.1148 10.5019 52.3485 10.5019C51.5873 10.5019 51.111 11.1161 51.111 12.1016C51.111 13.083 51.5863 13.6972 52.3444 13.6972C53.1138 13.6972 53.5727 13.0963 53.5727 12.0975ZM55.7067 16.1406V15.3408C55.8044 15.354 55.9032 15.3591 56.0019 15.3581C56.1968 15.3712 56.3896 15.3112 56.5428 15.1898C56.6961 15.0684 56.7989 14.8942 56.8313 14.7011L56.8984 14.4715L55.2396 9.74598H56.2247L57.3737 13.486H57.4449L58.5898 9.74598H59.5494L57.8408 14.6491C57.449 15.7947 57.0165 16.162 56.0812 16.162C56.0059 16.162 55.7912 16.1539 55.7067 16.1416V16.1406ZM60.2536 13.1177H61.1543C61.2428 13.533 61.6214 13.7503 62.1516 13.7503C62.753 13.7503 63.1224 13.4768 63.1224 13.0535C63.1224 12.5995 62.7907 12.3832 62.1505 12.3832H61.4646V11.6609H62.1394C62.6858 11.6609 62.9637 11.4446 62.9637 11.0508C62.9637 10.706 62.695 10.4418 62.1394 10.4418C61.6336 10.4418 61.2642 10.6621 61.2051 11.0335H60.333C60.4684 10.1459 61.2723 9.53173 62.1394 9.65518C63.2282 9.65518 63.8511 10.1612 63.8511 10.9559C63.8581 11.1751 63.7903 11.3901 63.6589 11.5654C63.5276 11.7407 63.3404 11.8658 63.1285 11.92V11.9935C63.6445 12.0628 64.0302 12.5179 64.0241 13.0535C64.0241 13.9482 63.2832 14.5409 62.1516 14.5409C61.1502 14.5409 60.3371 14.0696 60.2536 13.1177V13.1177ZM65.3267 14.4542V9.74598H66.2222V12.9841H66.2944L68.4061 9.74598H69.3026V14.4542H68.4071V11.1987H68.3389L66.2222 14.4542H65.3267ZM74.2413 10.5274H72.7983V14.4552H71.8926V10.5274H70.4495V9.74598H74.2413V10.5274ZM79.1128 13.183C78.8584 14.0706 78.0219 14.645 77.1264 14.545C76.823 14.5525 76.5216 14.4927 76.244 14.3698C75.9664 14.2468 75.7193 14.0638 75.5205 13.8339C75.3183 13.6003 75.1682 13.3261 75.0801 13.0296C74.992 12.7332 74.968 12.4214 75.0097 12.1149C74.969 11.8076 74.9933 11.4952 75.0809 11.198C75.1686 10.9008 75.3177 10.6254 75.5185 10.3897C75.7163 10.1576 75.9624 9.97159 76.2394 9.84471C76.5164 9.71783 76.8177 9.65315 77.1223 9.65518C78.3974 9.65518 79.1678 10.5499 79.1678 12.0282V12.3526H75.9317V12.4046C75.9021 12.7545 76.0182 13.1004 76.2512 13.3575C76.4832 13.6136 76.8109 13.7584 77.1518 13.7533C77.5945 13.8084 78.0239 13.5829 78.2407 13.182L79.1128 13.183V13.183ZM75.9317 11.666H78.2448C78.2567 11.5085 78.2361 11.3503 78.1845 11.2012C78.1328 11.052 78.0512 10.915 77.9446 10.7988C77.8397 10.6846 77.7118 10.5941 77.5693 10.5332C77.4268 10.4723 77.2731 10.4426 77.1182 10.4458C76.8028 10.4418 76.4975 10.5683 76.2736 10.7978C76.0497 11.0284 75.9276 11.3405 75.9317 11.665V11.666ZM82.9464 9.74598H85.0122C85.9098 9.74598 86.4349 10.2122 86.4349 10.9427C86.4382 11.172 86.3634 11.3956 86.2228 11.5764C86.0821 11.7573 85.8841 11.8846 85.6615 11.9374V12.0108C86.2171 12.0475 86.6476 12.525 86.6405 13.0963C86.6405 13.9186 86.04 14.4542 85.0336 14.4542H82.9474V9.74598H82.9464ZM83.8429 10.4591V11.6782H84.7395C85.2859 11.6782 85.5475 11.462 85.5475 11.0641C85.5475 10.6968 85.3195 10.4591 84.8402 10.4591H83.8429ZM83.8429 12.3618V13.7411H84.9155C85.4498 13.7411 85.7368 13.4983 85.7368 13.0535C85.7368 12.5821 85.4121 12.3618 84.8026 12.3618H83.8429Z" fill="white"/>
</svg>
