<svg width="19" height="16" viewBox="0 0 19 16" fill="none" xmlns="http://www.w3.org/2000/svg">
<path d="M18.2083 7.20011H2.41498L8.46252 1.37938C8.77919 1.07458 8.79146 0.568188 8.48983 0.248192C8.1886 -0.0714041 7.68748 -0.084204 7.37042 0.220592L0.463917 6.86851C0.165062 7.17091 0 7.5725 0 8.0001C0 8.42729 0.165062 8.82929 0.477771 9.14488L7.37081 15.7792C7.524 15.9268 7.72033 16 7.91667 16C8.12567 16 8.33467 15.9168 8.49023 15.7516C8.79185 15.4316 8.77958 14.9256 8.46292 14.6208L2.39004 8.80009H18.2083C18.6453 8.80009 19 8.44169 19 8.0001C19 7.5585 18.6453 7.20011 18.2083 7.20011V7.20011Z" fill="white"/>
</svg>
