<svg width="18" height="36" viewBox="0 0 18 36" fill="none" xmlns="http://www.w3.org/2000/svg">
<path d="M9.90002 8L17.0999 8C17.5967 8 18 8.40325 18 8.89994C18 9.3968 17.5967 9.80005 17.0999 9.80005H9.90002H0.899942C0.403252 9.80005 0 9.3968 0 8.89994C0 8.40325 0.403252 8 0.899942 8H9.90002Z" fill="#D62631"/>
<path d="M17.0999 26.1H9.90002V18.8999C9.90002 18.4033 9.49677 18 8.99992 18C8.50323 18 8.09998 18.4033 8.09998 18.8999V26.1H0.899942C0.403252 26.1 0 26.5032 0 26.9999C0 27.4968 0.403252 27.9 0.899942 27.9H8.09998V35.0999C8.09998 35.5967 8.50323 36 8.99992 36C9.49677 36 9.90002 35.5967 9.90002 35.0999V27.9H17.0999C17.5967 27.9 18 27.4968 18 26.9999C18 26.5032 17.5967 26.1 17.0999 26.1V26.1Z" fill="black"/>
</svg>
