<svg width="21" height="70" viewBox="0 0 21 70" fill="none" xmlns="http://www.w3.org/2000/svg">
<path fill-rule="evenodd" clip-rule="evenodd" d="M15.2008 17.848H5.81805C5.3046 17.848 4.86675 17.4682 4.78275 16.9485L3.52905 9.24034H17.6599L16.233 16.9721C16.1385 17.48 15.7059 17.848 15.2008 17.848ZM17.85 7.08831L14.1466 0.537884C13.8579 0.0278842 13.2216 -0.148488 12.7218 0.144175C12.2167 0.438986 12.0435 1.09856 12.3344 1.61287L15.4245 7.08831H5.57445L8.66985 1.61699C8.9586 1.10483 8.78955 0.450754 8.29185 0.151628L8.2824 0.146231C7.78155 -0.152885 7.1379 0.0215125 6.8481 0.535828L3.15 7.08831H1.05C0.46935 7.08831 0 7.5704 0 8.16432C0 8.75826 0.46935 9.24034 1.05 9.24034H1.39965L2.85705 18.2021C3.0261 19.2393 3.9018 20 4.9287 20H16.0702C17.0971 20 17.9739 19.2393 18.1419 18.2021L19.5993 9.24034H19.95C20.5296 9.24034 21 8.75826 21 8.16432C21 7.5704 20.5296 7.08831 19.95 7.08831H17.85Z" fill="#D62631"/>
<path fill-rule="evenodd" clip-rule="evenodd" d="M15.2008 42.848H5.81805C5.3046 42.848 4.86675 42.4682 4.78275 41.9485L3.52905 34.2403H17.6599L16.233 41.9721C16.1385 42.48 15.7059 42.848 15.2008 42.848ZM17.85 32.0883L14.1466 25.5379C13.8579 25.0279 13.2216 24.8515 12.7218 25.1442C12.2167 25.439 12.0435 26.0986 12.3344 26.6129L15.4245 32.0883H5.57445L8.66985 26.617C8.9586 26.1048 8.78955 25.4508 8.29185 25.1516L8.2824 25.1462C7.78155 24.8471 7.1379 25.0215 6.8481 25.5358L3.15 32.0883H1.05C0.46935 32.0883 0 32.5704 0 33.1643C0 33.7583 0.46935 34.2403 1.05 34.2403H1.39965L2.85705 43.2021C3.0261 44.2393 3.9018 45 4.9287 45H16.0702C17.0971 45 17.9739 44.2393 18.1419 43.2021L19.5993 34.2403H19.95C20.5296 34.2403 21 33.7583 21 33.1643C21 32.5704 20.5296 32.0883 19.95 32.0883H17.85Z" fill="white"/>
<path fill-rule="evenodd" clip-rule="evenodd" d="M15.2008 67.848H5.81805C5.3046 67.848 4.86675 67.4682 4.78275 66.9485L3.52905 59.2403H17.6599L16.233 66.9721C16.1385 67.48 15.7059 67.848 15.2008 67.848ZM17.85 57.0883L14.1466 50.5379C13.8579 50.0279 13.2216 49.8515 12.7218 50.1442C12.2167 50.439 12.0435 51.0986 12.3344 51.6129L15.4245 57.0883H5.57445L8.66985 51.617C8.9586 51.1048 8.78955 50.4508 8.29185 50.1516L8.2824 50.1462C7.78155 49.8471 7.1379 50.0215 6.8481 50.5358L3.15 57.0883H1.05C0.46935 57.0883 0 57.5704 0 58.1643C0 58.7583 0.46935 59.2403 1.05 59.2403H1.39965L2.85705 68.2021C3.0261 69.2393 3.9018 70 4.9287 70H16.0702C17.0971 70 17.9739 69.2393 18.1419 68.2021L19.5993 59.2403H19.95C20.5296 59.2403 21 58.7583 21 58.1643C21 57.5704 20.5296 57.0883 19.95 57.0883H17.85Z" fill="black"/>
</svg>
