<svg width="20" height="31" viewBox="0 0 20 31" fill="none" xmlns="http://www.w3.org/2000/svg">
<path d="M14.9497 24.8592L10.99 20.8995L14.9498 16.9397C15.223 16.6665 15.223 16.223 14.9497 15.9497C14.6765 15.6765 14.233 15.6765 13.9598 15.9497L10 19.9095L6.04018 15.9497C5.76702 15.6765 5.32346 15.6765 5.0503 15.9497C4.77704 16.223 4.77704 16.6665 5.05021 16.9397L9.01002 20.8995L5.0503 24.8592C4.77704 25.1325 4.77704 25.576 5.05021 25.8492C5.32346 26.1225 5.76702 26.1225 6.04027 25.8492L10 21.8895L13.9597 25.8492C14.233 26.1225 14.6765 26.1225 14.9498 25.8492C15.223 25.576 15.223 25.1325 14.9497 24.8592V24.8592Z" fill="#D6AA26"/>
<path d="M10.7 6.29999L16.2999 6.29999C16.6864 6.29999 17 6.61363 17 6.99994C17 7.38639 16.6864 7.70003 16.2999 7.70003L10.7 7.70003H3.69996C3.31364 7.70003 3 7.38639 3 6.99994C3 6.61363 3.31364 6.29999 3.69996 6.29999H10.7Z" fill="#D62631"/>
</svg>
