<svg width="20" height="20" viewBox="0 0 20 20" fill="none" xmlns="http://www.w3.org/2000/svg">
<path d="M9.96679 18.3334H2.49168C2.0332 18.3334 1.66113 17.96 1.66113 17.5001V2.50002C1.66113 2.04002 2.03324 1.66671 2.49168 1.66671H9.96679C10.4261 1.66671 10.7973 1.29422 10.7973 0.833394C10.7973 0.372566 10.4261 0 9.96679 0H2.49168C1.11793 0 0 1.1217 0 2.50002V17.5C0 18.8783 1.11793 20 2.49168 20H9.96679C10.4261 20 10.7973 19.6275 10.7973 19.1667C10.7973 18.7059 10.4261 18.3334 9.96679 18.3334Z" fill="#D62631"/>
<path d="M19.7525 9.40667L14.7027 4.40666C14.3771 4.08332 13.8505 4.08751 13.5282 4.41501C13.206 4.7425 13.2093 5.27 13.5366 5.59334L17.1453 9.16665H7.47508C7.01578 9.16665 6.64453 9.53914 6.64453 9.99997C6.64453 10.4608 7.01578 10.8333 7.47508 10.8333H17.1453L13.5366 14.4066C13.2093 14.73 13.2068 15.2575 13.5282 15.585C13.691 15.75 13.9053 15.8333 14.1196 15.8333C14.3306 15.8333 14.5415 15.7533 14.7027 15.5933L19.7525 10.5933C19.9103 10.4366 20 10.2232 20 9.99993C20 9.77669 19.9111 9.56418 19.7525 9.40667Z" fill="#D62631"/>
</svg>
