<svg width="9" height="41" viewBox="0 0 9 41" fill="none" xmlns="http://www.w3.org/2000/svg">
<path d="M7.3575 2.98875H9.00075V0.12675C8.71725 0.08775 7.74225 0 6.60675 0C4.2375 0 2.6145 1.49025 2.6145 4.22925V6.75H0V9.9495H2.6145V18H5.82V9.95025H8.32875L8.727 6.75075H5.81925V4.5465C5.82 3.62175 6.069 2.98875 7.3575 2.98875V2.98875Z" fill="white"/>
<path d="M7.3575 25.9887H9.00075V23.1267C8.71725 23.0877 7.74225 23 6.60675 23C4.2375 23 2.6145 24.4902 2.6145 27.2292V29.75H0V32.9495H2.6145V41H5.82V32.9503H8.32875L8.727 29.7508H5.81925V27.5465C5.82 26.6217 6.069 25.9887 7.3575 25.9887V25.9887Z" fill="black"/>
</svg>
