<svg width="136" height="40" viewBox="0 0 136 40" fill="none" xmlns="http://www.w3.org/2000/svg">
<path d="M8.73263 39.998C8.38189 39.998 8.03832 39.9939 7.68962 39.9878C6.96807 39.979 6.24792 39.9217 5.53408 39.8164C4.87369 39.7141 4.23058 39.5215 3.62292 39.244C3.03402 38.9748 2.49069 38.6158 2.01239 38.18C1.0706 37.3464 0.435601 36.2222 0.208602 34.9867C0.0903818 34.3399 0.0264209 33.6844 0.0173835 33.0269C0.00920301 32.8045 0 32.072 0 32.072V7.91573C0 7.91573 0.0102256 7.19139 0.0173835 6.98021C0.0255639 6.32422 0.0889624 5.66925 0.207579 5.02142C0.435151 3.7855 1.06742 2.65987 2.00523 1.82106C2.48728 1.38579 3.03271 1.02599 3.62292 0.753928C4.22911 0.476951 4.87093 0.285362 5.52999 0.184656C6.24577 0.0785554 6.9677 0.0214242 7.69269 0.0132626L8.73365 0H127.261L128.314 0.0132626C129.032 0.0214242 129.749 0.0775352 130.458 0.183636C131.128 0.285656 131.777 0.479494 132.384 0.755968C133.581 1.31504 134.555 2.20057 135.17 3.28606C135.47 3.82983 135.679 4.41134 135.787 5.0102C135.907 5.66313 135.973 6.3232 135.988 6.98429C135.991 7.28015 135.991 7.59845 135.991 7.91573C136 8.30749 136 8.68088 136 9.05733V30.9427C136 31.3222 136 31.6925 135.991 32.0669C135.991 32.4067 135.991 32.7178 135.987 33.0392C135.973 33.6895 135.907 34.3377 135.789 34.9776C135.68 35.5898 135.469 36.1797 135.166 36.7231C134.856 37.2658 134.461 37.755 133.995 38.1718C133.524 38.6054 132.979 38.9665 132.381 39.242C131.77 39.5216 131.123 39.7149 130.458 39.8164C129.744 39.9225 129.024 39.9796 128.301 39.9867C127.964 39.9939 127.61 39.998 127.266 39.998L126.017 40L8.73263 39.998Z" fill="black"/>
<path d="M68.6139 21.7508C66.1598 21.7508 64.2169 23.633 64.2169 26.2478C64.2169 28.7575 66.1598 30.7438 68.6139 30.7438C71.068 30.7438 73.0109 28.8616 73.0109 26.2478C73.0109 23.528 71.068 21.7508 68.6139 21.7508ZM68.6139 28.8616C67.2846 28.8616 66.1598 27.7108 66.1598 26.1427C66.1598 24.5747 67.2846 23.4239 68.6139 23.4239C69.9432 23.4239 71.068 24.4696 71.068 26.1427C71.068 27.7118 69.9432 28.8616 68.6139 28.8616ZM59.1041 21.7508C56.65 21.7508 54.7071 23.633 54.7071 26.2478C54.7071 28.7575 56.65 30.7438 59.1041 30.7438C61.5583 30.7438 63.5011 28.8616 63.5011 26.2478C63.5011 23.528 61.5583 21.7508 59.1041 21.7508ZM59.1041 28.8616C57.7748 28.8616 56.65 27.7108 56.65 26.1427C56.65 24.5747 57.7748 23.4239 59.1041 23.4239C60.4335 23.4239 61.5583 24.4696 61.5583 26.1427C61.5583 27.7118 60.4335 28.8616 59.1041 28.8616ZM47.7538 23.1097V24.993H52.1507C52.0485 26.0377 51.6395 26.8752 51.1282 27.3976C50.5147 28.025 49.4921 28.7565 47.7538 28.7565C44.9929 28.7565 42.9477 26.561 42.9477 23.7371C42.9477 20.9142 45.0951 18.7177 47.7538 18.7177C49.1853 18.7177 50.3101 19.3462 51.1282 20.0776L52.4575 18.7187C51.3327 17.672 49.9011 16.8354 47.856 16.8354C44.1748 16.8354 41.0049 19.9726 41.0049 23.7371C41.0049 27.5016 44.1748 30.6388 47.856 30.6388C49.9011 30.6388 51.3327 30.0124 52.5598 28.6524C53.7868 27.3976 54.1959 25.6194 54.1959 24.2605C54.1959 23.8422 54.1959 23.4239 54.0936 23.1097H47.7538ZM94.1778 24.5747C93.7688 23.528 92.7462 21.7508 90.4966 21.7508C88.247 21.7508 86.4064 23.528 86.4064 26.2478C86.4064 28.7575 88.247 30.7438 90.7011 30.7438C92.644 30.7438 93.871 29.489 94.2801 28.7565L92.8485 27.7118C92.3372 28.4433 91.7237 28.9666 90.7011 28.9666C89.6786 28.9666 89.065 28.5484 88.5538 27.6067L94.3823 25.097L94.1778 24.5747V24.5747ZM88.247 26.0377C88.247 24.3645 89.5763 23.4239 90.4966 23.4239C91.2124 23.4239 91.9282 23.8422 92.1327 24.3645L88.247 26.0377ZM83.441 30.3256H85.3838V17.2537H83.441V30.3256ZM80.3733 22.6914C79.862 22.1691 79.044 21.6467 78.0214 21.6467C75.8741 21.6467 73.8289 23.633 73.8289 26.1427C73.8289 28.6524 75.7718 30.5347 78.0214 30.5347C79.044 30.5347 79.862 30.0124 80.271 29.489H80.3733V30.1164C80.3733 31.7895 79.453 32.7312 78.0214 32.7312C76.8966 32.7312 76.0786 31.8946 75.8741 31.1621L74.238 31.8946C74.7492 33.0444 75.9763 34.5084 78.1237 34.5084C80.3733 34.5084 82.2139 33.1484 82.2139 29.9073V21.9599H80.3733V22.6914V22.6914ZM78.1237 28.8616C76.7944 28.8616 75.6695 27.7108 75.6695 26.1427C75.6695 24.5747 76.7944 23.4239 78.1237 23.4239C79.453 23.4239 80.4756 24.5747 80.4756 26.1427C80.4756 27.7118 79.453 28.8616 78.1237 28.8616ZM103.074 17.2537H98.4726V30.3256H100.415V25.4113H103.074C105.221 25.4113 107.267 23.8422 107.267 21.3325C107.267 18.8228 105.221 17.2548 103.074 17.2548V17.2537ZM103.176 23.528H100.415V19.0319H103.176C104.608 19.0319 105.426 20.2868 105.426 21.2274C105.324 22.3782 104.506 23.528 103.176 23.528V23.528ZM114.936 21.6457C113.504 21.6457 112.073 22.2741 111.561 23.633L113.3 24.3645C113.709 23.633 114.322 23.4239 115.038 23.4239C116.061 23.4239 116.981 24.0513 117.083 25.097V25.2011C116.776 24.993 115.958 24.6787 115.14 24.6787C113.3 24.6787 111.459 25.7245 111.459 27.6067C111.459 29.3839 112.993 30.5347 114.629 30.5347C115.958 30.5347 116.572 29.9073 117.083 29.2798H117.185V30.3256H119.026V25.3062C118.821 23.0056 117.083 21.6467 114.936 21.6467V21.6457ZM114.731 28.8616C114.118 28.8616 113.197 28.5473 113.197 27.7108C113.197 26.6661 114.322 26.3519 115.242 26.3519C116.061 26.3519 116.47 26.561 116.981 26.7702C116.776 28.025 115.754 28.8616 114.731 28.8616ZM125.468 21.9599L123.321 27.6067H123.218L120.969 21.9599H118.924L122.298 29.9073L120.355 34.2992H122.298L127.513 21.9599H125.468ZM108.289 30.3256H110.232V17.2537H108.289V30.3256V30.3256Z" fill="white"/>
<path d="M9.61186 6.79639C9.3051 7.11061 9.10059 7.63295 9.10059 8.26037V31.371C9.10059 31.9984 9.3051 32.5207 9.61186 32.835L9.71412 32.939L22.3938 19.9723V19.7641L9.61186 6.79639Z" fill="url(#paint0_linear)"/>
<path d="M26.587 24.3656L22.3945 20.0777V19.7645L26.587 15.4766L26.6893 15.5816L31.6998 18.5096C33.1314 19.3462 33.1314 20.7051 31.6998 21.5417L26.587 24.3656V24.3656Z" fill="url(#paint1_linear)"/>
<path d="M26.689 24.2604L22.3943 19.8684L9.6123 32.9402C10.1236 33.4626 10.8394 33.4626 11.7597 33.0443L26.689 24.2604" fill="url(#paint2_linear)"/>
<path d="M26.689 15.4765L11.7597 6.79662C10.8394 6.27428 10.1236 6.37834 9.6123 6.9017L22.3943 19.8684L26.689 15.4765V15.4765Z" fill="url(#paint3_linear)"/>
<path opacity="0.2" d="M26.5858 24.1562L11.7587 32.731C10.9407 33.2534 10.2249 33.1493 9.71358 32.731L9.61133 32.8351L9.71358 32.9402C10.2249 33.3585 10.9407 33.4625 11.7587 32.9402L26.5858 24.1562V24.1562Z" fill="black"/>
<path opacity="0.12" d="M9.61215 32.7311C9.30538 32.4169 9.20312 31.8945 9.20312 31.2671V31.3711C9.20312 31.9986 9.40764 32.5219 9.7144 32.8351V32.7311H9.61215V32.7311Z" fill="black"/>
<path opacity="0.12" d="M31.6987 21.2273L26.5859 24.1553L26.6882 24.2604L31.6987 21.3324C32.4145 20.9141 32.7213 20.3918 32.7213 19.8684C32.7213 20.3918 32.3123 20.8101 31.6987 21.2283V21.2273Z" fill="black"/>
<path opacity="0.25" d="M11.7595 6.90177L31.6994 18.5086C32.3129 18.9269 32.7219 19.3451 32.7219 19.8685C32.7219 19.3462 32.4152 18.8228 31.6994 18.4045L11.7595 6.79669C10.3279 5.96012 9.20312 6.69263 9.20312 8.36678V8.47186C9.20312 6.79873 10.3279 6.06622 11.7595 6.90279V6.90177Z" fill="white"/>
<path d="M42.0273 13.9084H41.3115V11.817H41.9251C42.4363 11.3987 42.7431 10.5622 42.7431 9.41139V6.27427H46.8333V11.817H47.5491V13.9084H46.8333V12.5485H42.1296V13.9084H42.0273V13.9084ZM43.4589 9.41139C43.4589 10.352 43.2544 11.1886 42.8454 11.816H45.913V7.11083H43.3566V9.41139H43.4589ZM53.5822 11.7119C52.9687 12.3394 52.2529 12.6526 51.3326 12.6526C50.4123 12.6526 49.6965 12.3394 49.0829 11.7119C48.4694 11.0845 48.1626 10.352 48.1626 9.41139C48.1626 8.47076 48.4694 7.73826 49.0829 7.11083C49.6965 6.48341 50.4123 6.16919 51.3326 6.16919C52.2529 6.16919 52.9687 6.48341 53.5822 7.11083C54.1957 7.73826 54.5025 8.47076 54.5025 9.41139C54.5025 10.352 54.1957 11.0845 53.5822 11.7119V11.7119ZM49.6965 11.1886C50.1055 11.6069 50.719 11.9211 51.3326 11.9211C51.9461 11.9211 52.5596 11.7119 52.9687 11.1886C53.3777 10.7703 53.6845 10.1429 53.6845 9.41139C53.6845 8.6799 53.4799 8.05248 52.9687 7.6342C52.5596 7.21591 51.9461 6.90169 51.3326 6.90169C50.719 6.90169 50.1055 7.11083 49.6965 7.6342C49.2875 8.05248 48.9807 8.6799 48.9807 9.41139C48.9807 10.1429 49.1852 10.7703 49.6965 11.1886ZM58.4905 12.6536C57.5702 12.6536 56.8544 12.3394 56.2408 11.7119C55.6273 11.0845 55.3205 10.352 55.3205 9.41139C55.3205 8.47076 55.6273 7.73826 56.2408 7.11083C56.8544 6.48341 57.5702 6.16919 58.4905 6.16919C59.4108 6.16919 60.1266 6.48341 60.7401 7.21591L60.2288 7.73826C59.8198 7.21489 59.2063 6.90169 58.4905 6.90169C57.7747 6.90169 57.2634 7.11083 56.7521 7.6342C56.2408 8.05248 56.0363 8.6799 56.0363 9.41139C56.0363 10.1429 56.2408 10.7703 56.7521 11.1886C57.1611 11.6069 57.7747 11.9211 58.4905 11.9211C59.2063 11.9211 59.8198 11.6069 60.3311 10.9794L60.8423 11.5028C60.5356 11.816 60.2288 12.1302 59.8198 12.3394C59.4108 12.5485 59.0017 12.6536 58.4905 12.6536ZM64.1145 12.5485H63.2965V7.00677H61.5581V6.27427H65.7506V7.00677H64.0123V12.5485H64.1145ZM71.1702 6.27427L68.8183 11.6079C68.5115 12.3394 68.0002 12.7576 67.3867 12.7576C67.1822 12.7576 66.9777 12.7576 66.7732 12.6536L66.9777 11.9211C67.0799 12.0251 67.2845 12.0251 67.3867 12.0251C67.5912 12.0251 67.6935 12.0251 67.7957 11.9211C67.898 11.816 68.0002 11.7119 68.1025 11.5028L68.307 10.9794L66.2619 6.37833H67.1822L68.716 9.93373L70.1476 6.37833H71.1702V6.27427V6.27427ZM72.0905 12.5485V6.27427H76.4875V12.5485H75.6694V7.00677H72.8063V12.5485H72.0905ZM77.919 12.5485V6.27427H78.7371V8.9931H81.8048V6.27427H82.6228V12.5485H81.8048V9.72459H78.7371V12.5485H77.919ZM89.0649 11.7119C88.4514 12.3394 87.7356 12.6526 86.8153 12.6526C85.895 12.6526 85.1792 12.3394 84.5657 11.7119C83.9521 11.0845 83.6454 10.352 83.6454 9.41139C83.6454 8.47076 83.9521 7.73826 84.5657 7.11083C85.1792 6.48341 85.895 6.16919 86.8153 6.16919C87.7356 6.16919 88.4514 6.48341 89.0649 7.11083C89.6784 7.73826 89.9852 8.47076 89.9852 9.41139C89.8829 10.352 89.5762 11.0845 89.0649 11.7119V11.7119ZM85.0769 11.1886C85.486 11.6069 86.0995 11.9211 86.713 11.9211C87.3266 11.9211 87.9401 11.7119 88.3491 11.1886C88.7581 10.7703 89.0649 10.1429 89.0649 9.41139C89.0649 8.6799 88.8604 8.05248 88.3491 7.6342C87.9401 7.21591 87.3266 6.90169 86.713 6.90169C86.0995 6.90169 85.486 7.11083 85.0769 7.6342C84.6679 8.05248 84.3611 8.6799 84.3611 9.41139C84.3611 10.1429 84.6679 10.7703 85.0769 11.1886ZM93.1551 12.5485V6.27427H95.4048C95.916 6.27427 96.3251 6.48341 96.6318 6.79763C96.9386 7.11083 97.1431 7.52912 97.1431 8.05248C97.1431 8.36568 97.0408 8.57482 96.9386 8.88904C96.8363 9.09818 96.6318 9.30732 96.325 9.41139C96.6318 9.51545 96.8363 9.72459 97.0408 9.93373C97.2454 10.1429 97.3476 10.4571 97.3476 10.8754C97.3476 11.3977 97.1431 11.816 96.8363 12.1302C96.4273 12.4444 96.0183 12.6536 95.507 12.6536H93.1551V12.5485V12.5485ZM93.9732 8.9931H95.4048C95.7115 8.9931 95.916 8.88904 96.1205 8.6799C96.3251 8.47076 96.4273 8.26162 96.4273 8.05248C96.4273 7.84334 96.3251 7.6342 96.1205 7.42506C95.916 7.21591 95.7115 7.11083 95.4048 7.11083H93.9732V8.9931ZM93.9732 11.817H95.6093C95.916 11.817 96.1205 11.7119 96.325 11.5028C96.5296 11.2937 96.6318 11.0845 96.6318 10.7703C96.6318 10.5612 96.5296 10.2479 96.325 10.0388C96.1205 9.82967 95.916 9.72459 95.6093 9.72459H94.0754V11.816H93.9732V11.817Z" fill="white" stroke="white" stroke-width="0.2"/>
<defs>
<linearGradient id="paint0_linear" x1="21.2687" y1="8.06143" x2="0.892136" y2="13.4492" gradientUnits="userSpaceOnUse">
<stop stop-color="#00A0FF"/>
<stop offset="0.00657" stop-color="#00A1FF"/>
<stop offset="0.2601" stop-color="#00BEFF"/>
<stop offset="0.5122" stop-color="#00D2FF"/>
<stop offset="0.7604" stop-color="#00DFFF"/>
<stop offset="1" stop-color="#00E3FF"/>
</linearGradient>
<linearGradient id="paint1_linear" x1="33.5756" y1="19.8702" x2="8.83288" y2="19.8702" gradientUnits="userSpaceOnUse">
<stop stop-color="#FFE000"/>
<stop offset="0.4087" stop-color="#FFBD00"/>
<stop offset="0.7754" stop-color="#FFA500"/>
<stop offset="1" stop-color="#FF9C00"/>
</linearGradient>
<linearGradient id="paint2_linear" x1="24.3647" y1="22.2695" x2="7.49388" y2="49.9669" gradientUnits="userSpaceOnUse">
<stop stop-color="#FF3A44"/>
<stop offset="1" stop-color="#C31162"/>
</linearGradient>
<linearGradient id="paint3_linear" x1="6.43963" y1="-0.861845" x2="13.9151" y2="11.5253" gradientUnits="userSpaceOnUse">
<stop stop-color="#32A071"/>
<stop offset="0.0685" stop-color="#2DA771"/>
<stop offset="0.4762" stop-color="#15CF74"/>
<stop offset="0.8009" stop-color="#06E775"/>
<stop offset="1" stop-color="#00F076"/>
</linearGradient>
</defs>
</svg>
