<svg width="19" height="41" viewBox="0 0 19 41" fill="none" xmlns="http://www.w3.org/2000/svg">
<path d="M17.9824 5.29205C17.9402 4.33564 17.7855 3.67812 17.564 3.10836C17.3354 2.50359 16.9838 1.96213 16.5231 1.51201C16.073 1.05489 15.528 0.699691 14.9302 0.474702C14.3571 0.253147 13.7031 0.0984842 12.7466 0.0563159C11.7831 0.0105764 11.4772 0 9.03337 0C6.58953 0 6.28364 0.0105764 5.32366 0.0527447C4.36725 0.0949129 3.70973 0.249713 3.14012 0.471131C2.5352 0.699691 1.99374 1.05132 1.54363 1.51201C1.08651 1.96213 0.731444 2.50716 0.506318 3.10493C0.284763 3.67812 0.1301 4.33207 0.0879321 5.28848C0.0421926 6.25203 0.0316162 6.55792 0.0316162 9.00176C0.0316162 11.4456 0.0421926 11.7515 0.0843609 12.7115C0.126529 13.6679 0.281329 14.3254 0.502884 14.8952C0.731444 15.4999 1.08651 16.0414 1.54363 16.4915C1.99374 16.9486 2.53877 17.3038 3.13654 17.5288C3.70973 17.7504 4.36368 17.905 5.32023 17.9472C6.28007 17.9895 6.5861 17.9999 9.02993 17.9999C11.4738 17.9999 11.7797 17.9895 12.7396 17.9472C13.696 17.905 14.3536 17.7504 14.9232 17.5288C16.1329 17.0611 17.0893 16.1047 17.557 14.8952C17.7784 14.322 17.9332 13.6679 17.9754 12.7115C18.0175 11.7515 18.0281 11.4456 18.0281 9.00176C18.0281 6.55792 18.0245 6.25203 17.9824 5.29205ZM16.3614 12.6411C16.3227 13.5202 16.175 13.9949 16.052 14.3114C15.7495 15.0956 15.1272 15.7179 14.343 16.0204C14.0265 16.1434 13.5484 16.2911 12.6727 16.3297C11.7233 16.372 11.4386 16.3824 9.03694 16.3824C6.63527 16.3824 6.34696 16.372 5.40099 16.3297C4.52192 16.2911 4.04721 16.1434 3.73075 16.0204C3.34052 15.8761 2.98532 15.6476 2.69701 15.3487C2.39812 15.0568 2.16956 14.7052 2.02534 14.315C1.90227 13.9985 1.75461 13.5202 1.71601 12.6447C1.67371 11.6953 1.66327 11.4104 1.66327 9.00876C1.66327 6.60709 1.67371 6.31878 1.71601 5.37295C1.75461 4.49387 1.90227 4.01917 2.02534 3.7027C2.16956 3.31234 2.39812 2.95727 2.70058 2.66883C2.99232 2.36994 3.34395 2.14138 3.73432 1.99729C4.05079 1.87422 4.52906 1.72656 5.40456 1.68783C6.35397 1.64566 6.63884 1.63508 9.04037 1.63508C11.4456 1.63508 11.7303 1.64566 12.6763 1.68783C13.5554 1.72656 14.0301 1.87422 14.3466 1.99729C14.7368 2.14138 15.092 2.36994 15.3803 2.66883C15.6792 2.96071 15.9078 3.31234 16.052 3.7027C16.175 4.01917 16.3227 4.49731 16.3614 5.37295C16.4036 6.32236 16.4142 6.60709 16.4142 9.00876C16.4142 11.4104 16.4036 11.6917 16.3614 12.6411Z" fill="white"/>
<path d="M9.03337 4.37781C6.48061 4.37781 4.40942 6.44886 4.40942 9.00176C4.40942 11.5547 6.48061 13.6257 9.03337 13.6257C11.5863 13.6257 13.6573 11.5547 13.6573 9.00176C13.6573 6.44886 11.5863 4.37781 9.03337 4.37781ZM9.03337 12.0012C7.37727 12.0012 6.03393 10.658 6.03393 9.00176C6.03393 7.34552 7.37727 6.00232 9.03337 6.00232C10.6896 6.00232 12.0328 7.34552 12.0328 9.00176C12.0328 10.658 10.6896 12.0012 9.03337 12.0012V12.0012Z" fill="white"/>
<path d="M14.9198 4.19499C14.9198 4.79112 14.4364 5.27447 13.8401 5.27447C13.244 5.27447 12.7607 4.79112 12.7607 4.19499C12.7607 3.59873 13.244 3.11551 13.8401 3.11551C14.4364 3.11551 14.9198 3.59873 14.9198 4.19499V4.19499Z" fill="white"/>
<path d="M17.9824 28.292C17.9402 27.3356 17.7855 26.6781 17.564 26.1084C17.3354 25.5036 16.9838 24.9621 16.5231 24.512C16.073 24.0549 15.528 23.6997 14.9302 23.4747C14.3571 23.2531 13.7031 23.0985 12.7466 23.0563C11.7831 23.0106 11.4772 23 9.03337 23C6.58953 23 6.28364 23.0106 5.32366 23.0527C4.36725 23.0949 3.70973 23.2497 3.14012 23.4711C2.5352 23.6997 1.99374 24.0513 1.54363 24.512C1.08651 24.9621 0.731444 25.5072 0.506318 26.1049C0.284763 26.6781 0.1301 27.3321 0.0879321 28.2885C0.0421926 29.252 0.0316162 29.5579 0.0316162 32.0018C0.0316162 34.4456 0.0421926 34.7515 0.0843609 35.7115C0.126529 36.6679 0.281329 37.3254 0.502884 37.8952C0.731444 38.4999 1.08651 39.0414 1.54363 39.4915C1.99374 39.9486 2.53877 40.3038 3.13654 40.5288C3.70973 40.7504 4.36368 40.905 5.32023 40.9472C6.28007 40.9895 6.5861 40.9999 9.02993 40.9999C11.4738 40.9999 11.7797 40.9895 12.7396 40.9472C13.696 40.905 14.3536 40.7504 14.9232 40.5288C16.1329 40.0611 17.0893 39.1047 17.557 37.8952C17.7784 37.322 17.9332 36.6679 17.9754 35.7115C18.0175 34.7515 18.0281 34.4456 18.0281 32.0018C18.0281 29.5579 18.0245 29.252 17.9824 28.292ZM16.3614 35.6411C16.3227 36.5202 16.175 36.9949 16.052 37.3114C15.7495 38.0956 15.1272 38.7179 14.343 39.0204C14.0265 39.1434 13.5484 39.2911 12.6727 39.3297C11.7233 39.372 11.4386 39.3824 9.03694 39.3824C6.63527 39.3824 6.34696 39.372 5.40099 39.3297C4.52192 39.2911 4.04721 39.1434 3.73075 39.0204C3.34052 38.8761 2.98532 38.6476 2.69701 38.3487C2.39812 38.0568 2.16956 37.7052 2.02534 37.315C1.90227 36.9985 1.75461 36.5202 1.71601 35.6447C1.67371 34.6953 1.66327 34.4104 1.66327 32.0088C1.66327 29.6071 1.67371 29.3188 1.71601 28.373C1.75461 27.4939 1.90227 27.0192 2.02534 26.7027C2.16956 26.3123 2.39812 25.9573 2.70058 25.6688C2.99232 25.3699 3.34395 25.1414 3.73432 24.9973C4.05079 24.8742 4.52906 24.7266 5.40456 24.6878C6.35397 24.6457 6.63884 24.6351 9.04037 24.6351C11.4456 24.6351 11.7303 24.6457 12.6763 24.6878C13.5554 24.7266 14.0301 24.8742 14.3466 24.9973C14.7368 25.1414 15.092 25.3699 15.3803 25.6688C15.6792 25.9607 15.9078 26.3123 16.052 26.7027C16.175 27.0192 16.3227 27.4973 16.3614 28.373C16.4036 29.3224 16.4142 29.6071 16.4142 32.0088C16.4142 34.4104 16.4036 34.6917 16.3614 35.6411Z" fill="black"/>
<path d="M9.03337 27.3778C6.48061 27.3778 4.40942 29.4489 4.40942 32.0018C4.40942 34.5547 6.48061 36.6257 9.03337 36.6257C11.5863 36.6257 13.6573 34.5547 13.6573 32.0018C13.6573 29.4489 11.5863 27.3778 9.03337 27.3778ZM9.03337 35.0012C7.37727 35.0012 6.03393 33.658 6.03393 32.0018C6.03393 30.3455 7.37727 29.0023 9.03337 29.0023C10.6896 29.0023 12.0328 30.3455 12.0328 32.0018C12.0328 33.658 10.6896 35.0012 9.03337 35.0012V35.0012Z" fill="black"/>
<path d="M14.9198 27.195C14.9198 27.7911 14.4364 28.2745 13.8401 28.2745C13.244 28.2745 12.7607 27.7911 12.7607 27.195C12.7607 26.5987 13.244 26.1155 13.8401 26.1155C14.4364 26.1155 14.9198 26.5987 14.9198 27.195V27.195Z" fill="black"/>
</svg>
