<svg width="12" height="29" viewBox="0 0 12 29" fill="none" xmlns="http://www.w3.org/2000/svg">
<path d="M11.3999 5.39998H6.60002V0.599962C6.60002 0.268835 6.33118 0 5.99995 0C5.66882 0 5.39998 0.268835 5.39998 0.599962V5.39998H0.599962C0.268835 5.39998 0 5.66882 0 5.99995C0 6.33118 0.268835 6.60002 0.599962 6.60002H5.39998V11.3999C5.39998 11.7312 5.66882 12 5.99995 12C6.33118 12 6.60002 11.7312 6.60002 11.3999V6.60002H11.3999C11.7312 6.60002 12 6.33118 12 5.99995C12 5.66882 11.7312 5.39998 11.3999 5.39998V5.39998Z" fill="black"/>
<path d="M11.3999 22.4H6.60002V17.6C6.60002 17.2688 6.33118 17 5.99994 17C5.66882 17 5.39998 17.2688 5.39998 17.6V22.4H0.599962C0.268835 22.4 0 22.6688 0 22.9999C0 23.3312 0.268835 23.6 0.599962 23.6H5.39998V28.3999C5.39998 28.7312 5.66882 29 5.99994 29C6.33118 29 6.60002 28.7312 6.60002 28.3999V23.6H11.3999C11.7312 23.6 12 23.3312 12 22.9999C12 22.6688 11.7312 22.4 11.3999 22.4V22.4Z" fill="white"/>
</svg>
