<svg width="16" height="45" viewBox="0 0 16 45" fill="none" xmlns="http://www.w3.org/2000/svg">
<path d="M7.87877 9.63406C9.1479 9.63406 10.2469 9.15936 11.1448 8.22278C12.0427 7.28635 12.4979 6.14057 12.4979 4.81688C12.4979 3.49364 12.0427 2.34771 11.1446 1.41097C10.2466 0.474699 9.14775 0 7.87877 0C6.6095 0 5.51083 0.474699 4.6129 1.41113C3.71497 2.34756 3.25964 3.49349 3.25964 4.81688C3.25964 6.14057 3.71497 7.2865 4.61305 8.22293C5.51112 9.1592 6.60994 9.63406 7.87877 9.63406V9.63406Z" fill="#D62631"/>
<path d="M15.9612 15.379C15.9353 14.9893 15.8829 14.5642 15.8058 14.1152C15.728 13.663 15.6278 13.2354 15.5078 12.8447C15.3839 12.4408 15.2153 12.0419 15.007 11.6597C14.7907 11.2629 14.5367 10.9175 14.2517 10.6332C13.9537 10.3358 13.5887 10.0967 13.1668 9.9223C12.7463 9.74881 12.2803 9.66092 11.7818 9.66092C11.586 9.66092 11.3967 9.74469 11.031 9.99295C10.806 10.146 10.5428 10.323 10.249 10.5188C9.99777 10.6857 9.65744 10.8421 9.23708 10.9837C8.82697 11.1221 8.41056 11.1923 7.99956 11.1923C7.58857 11.1923 7.1723 11.1221 6.76175 10.9837C6.34183 10.8423 6.0015 10.6858 5.75057 10.5189C5.45955 10.325 5.19619 10.148 4.96779 9.9928C4.60259 9.74454 4.41312 9.66077 4.21735 9.66077C3.71871 9.66077 3.25285 9.74881 2.83249 9.92245C2.41081 10.0966 2.04576 10.3357 1.74743 10.6334C1.46255 10.9178 1.20841 11.2631 0.992447 11.6597C0.784242 12.0419 0.615688 12.4406 0.491614 12.8448C0.371783 13.2356 0.271558 13.663 0.193719 14.1152C0.116612 14.5635 0.0642318 14.9888 0.0383342 15.3794C0.0128756 15.7621 0 16.1593 0 16.5605C0 17.6045 0.318233 18.4496 0.945772 19.073C1.56556 19.688 2.38565 20.0001 3.38292 20.0001H12.6171C13.6144 20.0001 14.4341 19.6882 15.0541 19.073C15.6818 18.4501 16 17.6048 16 16.5603C15.9999 16.1573 15.9868 15.7598 15.9612 15.379V15.379Z" fill="#D62631"/>
<path d="M7.87877 34.6341C9.1479 34.6341 10.2469 34.1594 11.1448 33.2228C12.0427 32.2863 12.4979 31.1406 12.4979 29.8169C12.4979 28.4936 12.0427 27.3477 11.1446 26.411C10.2466 25.4747 9.14775 25 7.87877 25C6.6095 25 5.51083 25.4747 4.6129 26.4111C3.71497 27.3476 3.25964 28.4935 3.25964 29.8169C3.25964 31.1406 3.71497 32.2865 4.61305 33.2229C5.51112 34.1592 6.60994 34.6341 7.87877 34.6341V34.6341Z" fill="white"/>
<path d="M15.9612 40.379C15.9353 39.9893 15.8829 39.5642 15.8058 39.1152C15.728 38.663 15.6278 38.2354 15.5078 37.8447C15.3839 37.4408 15.2153 37.0419 15.007 36.6597C14.7907 36.2629 14.5367 35.9175 14.2517 35.6332C13.9537 35.3358 13.5887 35.0967 13.1668 34.9223C12.7463 34.7488 12.2803 34.6609 11.7818 34.6609C11.586 34.6609 11.3967 34.7447 11.031 34.9929C10.806 35.146 10.5428 35.323 10.249 35.5188C9.99777 35.6857 9.65744 35.8421 9.23708 35.9837C8.82697 36.1221 8.41056 36.1923 7.99956 36.1923C7.58857 36.1923 7.1723 36.1221 6.76175 35.9837C6.34183 35.8423 6.0015 35.6858 5.75057 35.5189C5.45955 35.325 5.19619 35.148 4.96779 34.9928C4.60259 34.7445 4.41312 34.6608 4.21735 34.6608C3.71871 34.6608 3.25285 34.7488 2.83249 34.9225C2.41081 35.0966 2.04576 35.3357 1.74743 35.6334C1.46255 35.9178 1.20841 36.2631 0.992447 36.6597C0.784242 37.0419 0.615688 37.4406 0.491614 37.8448C0.371783 38.2356 0.271558 38.663 0.193719 39.1152C0.116612 39.5635 0.0642318 39.9888 0.0383342 40.3794C0.0128756 40.7621 0 41.1593 0 41.5605C0 42.6045 0.318233 43.4496 0.945772 44.073C1.56556 44.688 2.38565 45.0001 3.38292 45.0001H12.6171C13.6144 45.0001 14.4341 44.6882 15.0541 44.073C15.6818 43.4501 16 42.6048 16 41.5603C15.9999 41.1573 15.9868 40.7598 15.9612 40.379V40.379Z" fill="white"/>
</svg>
