<?xml version="1.0" standalone="no"?>
<!DOCTYPE svg PUBLIC "-//W3C//DTD SVG 20010904//EN"
 "http://www.w3.org/TR/2001/REC-SVG-20010904/DTD/svg10.dtd">
<svg version="1.0" xmlns="http://www.w3.org/2000/svg"
 width="700.000000pt" height="700.000000pt" viewBox="0 0 700.000000 700.000000"
 preserveAspectRatio="xMidYMid meet">
<metadata>
Created by potrace 1.11, written by Peter Selinger 2001-2013
</metadata>
<g transform="translate(0.000000,700.000000) scale(0.100000,-0.100000)"
fill="#000000" stroke="none">
<path d="M3445 6994 c-11 -3 -67 -14 -125 -25 -694 -137 -1315 -554 -1715
-1154 -171 -256 -301 -555 -373 -860 -49 -205 -63 -322 -69 -560 -6 -244 8
-406 52 -620 21 -101 89 -342 100 -353 7 -7 336 191 344 207 5 9 25 81 44 161
l36 146 -16 104 c-21 144 -21 441 1 585 44 293 138 561 280 799 31 51 56 99
56 108 0 8 12 25 26 39 15 13 52 56 83 94 46 57 64 90 94 176 36 103 37 108
37 255 l0 150 105 119 c58 66 109 121 113 123 5 1 59 -52 120 -119 98 -106
112 -125 112 -156 0 -19 3 -33 8 -31 4 2 63 31 132 65 276 136 515 201 823
222 506 37 1013 -116 1437 -432 125 -93 327 -298 415 -419 39 -54 77 -97 86
-98 11 0 19 -12 23 -34 4 -19 29 -74 56 -124 175 -313 262 -657 262 -1032 0
-171 -4 -216 -37 -426 -7 -40 -6 -42 31 -65 22 -13 122 -105 223 -203 l185
-180 14 34 c25 60 89 330 107 450 23 151 31 492 16 647 -43 427 -193 854 -425
1213 -104 159 -257 308 -524 507 -174 131 -303 211 -507 313 -470 238 -932
354 -1475 374 -74 3 -144 3 -155 0z"/>
<path d="M3105 6975 c-1489 -174 -2693 -1259 -3019 -2720 -103 -460 -108 -961
-15 -1440 12 -60 23 -111 24 -113 1 -2 19 7 39 19 l36 21 0 73 0 74 83 25 c45
14 188 59 317 100 l235 74 60 71 c60 71 62 72 240 156 99 46 181 89 183 94 2
5 -13 60 -32 123 -77 256 -106 441 -113 725 -7 288 11 473 73 721 241 973 990
1727 1969 1982 124 32 103 36 -80 15z"/>
<path d="M6161 5750 c202 -323 338 -722 385 -1126 13 -107 15 -192 11 -364 -7
-282 -32 -448 -106 -703 -18 -59 -29 -112 -25 -118 3 -5 43 -34 88 -63 45 -29
138 -106 207 -171 144 -136 226 -202 238 -189 5 5 16 124 25 264 13 205 14
287 6 420 -38 605 -214 1158 -528 1659 -74 118 -257 365 -293 396 l-23 20 15
-25z"/>
<path d="M2881 4194 c-32 -41 -57 -119 -131 -408 -143 -557 -185 -832 -211
-1377 -12 -264 -6 -340 37 -436 34 -79 59 -103 103 -103 57 0 855 203 1001
255 60 21 106 19 130 -5 22 -22 24 -26 70 -150 l28 -75 -137 0 c-141 0 -150
-2 -311 -60 -36 -13 -111 -38 -167 -55 -167 -50 -201 -99 -125 -180 l39 -40
628 0 628 0 43 25 c24 14 56 44 72 68 54 78 52 106 -7 137 -28 14 -131 40
-158 40 -4 0 26 38 82 106 13 16 37 27 68 33 27 5 53 13 58 18 14 14 -6 127
-31 176 -19 36 -20 45 -10 84 19 67 8 142 -24 170 -37 32 -79 30 -106 -4 -18
-23 -21 -36 -16 -78 10 -87 -19 -106 -223 -145 -107 -20 -131 -31 -131 -59 0
-31 22 -41 96 -41 53 0 73 -4 77 -14 10 -24 -5 -87 -21 -93 -8 -4 -43 0 -78 7
-76 15 -119 8 -168 -25 -26 -17 -38 -21 -41 -12 -2 6 -23 75 -46 152 -120 402
-294 822 -598 1445 -104 212 -211 433 -238 491 -80 167 -134 213 -182 153z"/>
<path d="M390 1883 c0 -15 117 -214 191 -326 126 -188 141 -208 164 -203 11 2
72 18 135 34 63 17 225 47 360 67 291 43 374 59 667 130 122 30 246 57 275 60
70 8 252 72 274 96 15 17 15 21 1 42 -44 68 -229 84 -1132 97 -842 12 -935 12
-935 3z"/>
<path d="M5770 1780 c-419 -6 -519 -10 -588 -24 -116 -24 -207 -53 -223 -72
-32 -39 45 -77 193 -95 51 -6 129 -18 173 -25 44 -8 163 -25 265 -39 311 -42
329 -47 511 -133 156 -75 146 -75 205 5 61 82 160 230 198 296 l28 47 -38 16
c-35 15 -166 35 -204 32 -8 -1 -242 -5 -520 -8z"/>
<path d="M2715 1425 c-169 -46 -284 -56 -605 -53 l-295 2 -134 -33 c-74 -18
-198 -41 -275 -52 -78 -11 -170 -31 -206 -44 -36 -13 -110 -40 -165 -60 -55
-19 -106 -38 -113 -40 -19 -7 51 -87 180 -206 92 -84 113 -99 141 -98 41 0
120 32 227 91 114 63 174 77 381 88 176 9 354 30 647 74 86 14 202 29 257 35
55 7 118 14 140 17 22 2 234 9 470 14 716 17 806 26 821 87 15 58 -46 79 -259
87 -91 4 -150 11 -175 22 -74 31 -285 54 -497 54 -170 0 -211 3 -270 20 -91
26 -159 25 -270 -5z"/>
<path d="M4955 1353 c-22 -2 -89 -10 -150 -18 -60 -8 -126 -15 -146 -15 -81 0
-133 -45 -98 -86 33 -40 90 -56 231 -65 112 -8 151 -14 201 -35 41 -17 104
-30 187 -40 183 -22 270 -45 460 -125 63 -26 137 -53 163 -59 48 -10 49 -10
97 30 61 51 235 239 227 246 -3 3 -64 10 -137 15 -73 5 -135 11 -139 14 -5 2
-79 14 -167 25 -87 11 -235 38 -329 60 -198 46 -313 61 -400 53z"/>
<path d="M3530 935 c-52 -7 -142 -23 -200 -35 -58 -12 -128 -26 -156 -31 -86
-16 -202 -87 -230 -141 -17 -33 -6 -62 28 -75 13 -4 217 -8 453 -8 577 -1 991
-35 1415 -115 113 -22 252 -46 310 -53 l105 -14 45 25 c60 34 210 134 288 193
l62 47 -32 6 c-18 3 -82 10 -143 16 -170 17 -346 46 -510 84 -314 73 -498 95
-915 106 -394 11 -401 11 -520 -5z"/>
<path d="M2395 794 c-38 -7 -137 -18 -220 -24 -420 -29 -415 -28 -568 -70 -81
-22 -150 -40 -153 -40 -15 0 15 -24 103 -82 114 -75 289 -178 304 -178 6 0 41
18 77 39 46 27 126 57 255 95 343 103 467 164 467 230 0 15 -8 30 -19 36 -27
14 -161 11 -246 -6z"/>
<path d="M2775 489 c-11 -7 -47 -36 -80 -65 -35 -30 -102 -72 -159 -100 -107
-52 -170 -102 -164 -131 4 -22 82 -50 276 -98 240 -61 343 -73 745 -85 202 -7
400 -9 440 -5 227 21 526 84 761 161 160 52 191 66 206 94 10 18 8 20 -27 20
-21 0 -162 18 -313 39 -488 70 -527 73 -970 76 -443 3 -443 3 -570 66 -72 36
-117 44 -145 28z"/>
</g>
</svg>
