<svg width="100" height="110" viewBox="0 0 100 110" fill="none" xmlns="http://www.w3.org/2000/svg">
<path fill-rule="evenodd" clip-rule="evenodd" d="M30.3211 54.2015L33.8018 52.3566C34.9632 51.7353 36.1921 51.1139 37.4055 50.6063C39.9362 49.5053 42.5727 48.4761 45.4207 47.7654C64.0182 43.134 72.8949 53.4804 89.8041 54.8124C91.6329 54.9717 98.6808 55.0434 99.9999 54.4396C98.1885 54.3153 96.4846 54.3695 94.6385 54.1735C76.041 52.1851 62.8759 39.1922 44.4015 45.5827C41.1843 46.7012 39.567 47.7479 36.8075 49.346C35.2474 50.2685 31.7113 52.8782 30.3211 54.2085V54.2015Z" fill="#D62631"/>
<path fill-rule="evenodd" clip-rule="evenodd" d="M95.9733 64.2136C94.4808 64.94 91.8964 65.5438 89.9619 65.7031C90.033 63.9283 90.1352 62.1709 90.156 60.3785C90.1734 59.3283 90.1387 58.8522 89.4349 58.4619C89.0961 58.2537 88.7196 58.1155 88.3274 58.0554C87.9352 57.9953 87.5351 58.0145 87.1503 58.1118C87.0619 58.7875 87.3081 60.7216 87.3427 61.5548C87.5369 65.7451 87.0983 69.0463 87.185 72.6311C87.6599 72.9514 88.381 73.536 89.2651 73.5902L89.8631 67.9278C91.9536 67.5778 93.8707 67.0054 95.8571 66.5958C95.7687 68.2289 95.715 69.8795 95.6977 71.5301C95.6977 72.4718 95.8918 72.8621 96.5765 73.2174C97.2293 73.5857 97.999 73.6813 98.7207 73.4835C98.8091 72.7028 98.563 70.963 98.511 70.0405C98.4572 68.8153 98.4572 67.5725 98.4572 66.3298C98.4746 63.916 98.7571 61.3062 98.686 58.9642C98.1938 58.6264 97.4917 58.0593 96.606 57.9875L95.9733 64.2136Z" fill="#D62631"/>
<path fill-rule="evenodd" clip-rule="evenodd" d="M43.3997 103.99H44.6477V106.191H46.8023V103.99H48.0503V109.847H46.8023V107.274H44.6477V109.847H43.3997V103.99ZM53.4897 103.847V104.93C52.9326 104.917 52.3917 105.12 51.9782 105.497C51.7782 105.678 51.6196 105.9 51.5133 106.148C51.4071 106.397 51.3557 106.666 51.3628 106.936C51.3558 107.236 51.4228 107.532 51.5578 107.798C51.6928 108.065 51.8915 108.293 52.1359 108.463C52.5247 108.76 53.0019 108.917 53.4897 108.905V109.989C53.0519 110.004 52.6155 109.932 52.2053 109.777C51.7951 109.622 51.4193 109.386 51.0994 109.084C50.7929 108.815 50.5477 108.482 50.3807 108.108C50.2138 107.735 50.129 107.329 50.1321 106.919C50.1292 106.369 50.2885 105.831 50.5898 105.373C50.8835 104.889 51.3105 104.501 51.8187 104.257C52.3316 103.977 52.9071 103.836 53.4897 103.847ZM41.1826 104.789L40.2865 105.517C39.971 105.107 39.6365 104.913 39.3019 104.913C39.1653 104.907 39.0303 104.945 38.9154 105.02C38.8706 105.049 38.8331 105.088 38.8057 105.134C38.7784 105.18 38.7619 105.232 38.7576 105.286C38.7577 105.39 38.7953 105.491 38.8634 105.569C39.147 105.836 39.4462 106.085 39.7595 106.315C40.2345 106.665 40.5153 106.901 40.6262 106.989C40.8361 107.175 41.012 107.398 41.1462 107.645C41.2964 107.958 41.3399 108.312 41.27 108.652C41.2001 108.993 41.0207 109.3 40.7597 109.527C40.3479 109.848 39.8371 110.011 39.3175 109.989C38.9001 109.996 38.4882 109.892 38.1232 109.688C37.7582 109.444 37.4567 109.115 37.2444 108.729L38.2844 108.162C38.5843 108.676 38.9518 108.925 39.3574 108.925C39.5435 108.93 39.7261 108.873 39.8774 108.764C39.9406 108.72 39.9928 108.662 40.0295 108.594C40.0663 108.526 40.0866 108.451 40.0889 108.373C40.0828 108.228 40.0263 108.09 39.9294 107.983C39.7158 107.752 39.4741 107.549 39.21 107.379C38.5063 106.854 38.066 106.457 37.8563 106.173C37.6605 105.932 37.549 105.632 37.5391 105.321C37.5404 105.117 37.588 104.917 37.6781 104.735C37.7683 104.552 37.8986 104.394 38.0591 104.271C38.4109 103.982 38.8538 103.83 39.3071 103.843C39.6287 103.836 39.9476 103.903 40.2397 104.039C40.5896 104.233 40.9044 104.485 41.1705 104.785L41.1826 104.789ZM53.4897 109.989V108.905H53.507C54.0582 108.923 54.5944 108.723 55.0012 108.347C55.1976 108.168 55.3541 107.949 55.4602 107.704C55.5663 107.459 55.6196 107.195 55.6166 106.928C55.62 106.661 55.5651 106.398 55.4557 106.156C55.3463 105.914 55.1852 105.699 54.9839 105.527C54.582 105.14 54.0449 104.93 53.4897 104.941V103.857C54.3577 103.843 55.1991 104.16 55.8454 104.745C56.1604 105.016 56.412 105.353 56.5819 105.734C56.7519 106.115 56.836 106.529 56.8282 106.947C56.835 107.357 56.752 107.764 56.5851 108.138C56.4182 108.513 56.1716 108.845 55.8627 109.112C55.217 109.698 54.3752 110.015 53.507 109.999L53.4897 109.989ZM60.8549 104.008V105.09C60.7492 105.09 60.6261 105.072 60.4857 105.072H60.1494V106.28H60.5359C60.642 106.284 60.7482 106.278 60.8532 106.262V107.344C60.659 107.362 60.4129 107.362 60.1494 107.362V109.847H58.9187V103.99H60.2205C60.4475 103.99 60.659 103.99 60.8532 104.008H60.8549ZM60.8549 107.344V106.262C60.9668 106.262 61.0783 106.25 61.1877 106.226C61.2988 106.182 61.3963 106.109 61.4702 106.014C61.5273 105.917 61.5572 105.806 61.5569 105.694C61.5641 105.592 61.5412 105.49 61.4913 105.402C61.4413 105.313 61.3664 105.242 61.2761 105.196C61.1446 105.132 61.0011 105.095 60.8549 105.09V104.008C61.1595 104.019 61.4611 104.072 61.751 104.167C62.0477 104.278 62.3049 104.475 62.4895 104.734C62.6701 105.02 62.7619 105.354 62.7529 105.694C62.765 106.062 62.6416 106.423 62.4063 106.705C62.1481 106.989 61.8109 107.187 61.439 107.274C61.2485 107.315 61.0548 107.338 60.8601 107.344H60.8549Z" fill="white"/>
<path fill-rule="evenodd" clip-rule="evenodd" d="M4.86983 27.7728L4.78143 35.8245C3.74139 36.1973 2.54882 36.4634 1.46025 36.8747C0.668093 37.1758 0.581423 37.0497 0.298881 37.9249C0.0910608 38.5604 -0.0097185 39.2266 0.000737588 39.8958C1.38745 39.6473 3.21791 38.6531 4.76409 38.422L4.39488 69.4891C3.8384 69.3445 3.31777 69.0846 2.86603 68.726C2.63421 68.575 2.42766 68.3877 2.25414 68.1711C2.008 67.8508 2.09641 67.744 1.65612 67.646C0.848365 68.3024 1.51572 70.219 2.17614 70.9997C3.79339 72.9706 7.20297 73.6795 9.84119 73.662C15.9757 73.6445 21.4549 70.5394 23.6736 65.2498C26.8735 57.634 21.1602 48.7246 10.3855 51.0859C9.1201 51.3519 8.61048 51.4937 8.29327 52.6612C8.08353 53.4419 8.1702 56.0866 9.73545 54.7739C10.2866 54.3407 10.8974 53.991 11.5486 53.7359C14.1157 52.6524 17.8252 53.2563 19.5828 55.9536C21.779 59.3441 20.4617 64.3676 17.9292 67.0649C14.9235 70.2593 10.5467 70.4903 6.38134 69.9932C6.34668 69.3194 6.83896 63.3734 6.92563 62.0781C7.40058 54.072 7.64672 45.6248 8.03326 37.5731C8.94849 36.9325 16.5945 35.6915 18.5619 35.4727C19.3176 35.3834 22.1136 35.3659 22.5001 35.2241C22.8468 34.0706 21.4098 32.2485 20.5483 32.1365C19.7406 32.0472 9.84466 34.692 8.15633 34.9371C8.19274 33.2865 8.67635 27.3405 8.40248 26.222C7.64672 26.1678 5.32744 27.2512 4.86983 27.7658V27.7728Z" fill="#D62631"/>
<path fill-rule="evenodd" clip-rule="evenodd" d="M41.5363 82.8671C42.5208 83.1874 43.5938 82.7253 44.3495 82.3C45.2977 81.7311 44.9996 80.6844 44.9112 79.3717C44.8418 78.2707 44.5073 73.0704 44.5957 72.3947C47.4072 72.8568 50.2015 71.8696 52.0649 70.5849C56.7589 67.3362 56.8993 60.1475 51.4495 58.5336C49.4821 57.9648 47.1958 58.1836 45.4381 59.225C44.7881 59.5979 44.4899 59.9532 43.9803 60.326L43.8555 57.7162C43.1344 57.8055 41.7755 58.2851 41.7113 59.1008C41.4825 61.9223 42.1325 72.0534 42.0268 76.4783C42.0095 77.5775 41.9575 78.7135 41.8535 79.804C41.7824 80.5146 41.4132 82.4138 41.5363 82.8741V82.8671ZM44.4189 69.9985C44.3669 68.4897 44.2785 66.9809 44.2455 65.4738C44.1745 62.864 43.7879 62.5805 44.8245 61.7805C46.6186 60.3803 50.1685 60.326 51.7581 61.8523C53.0754 63.1126 53.1118 65.3845 52.0562 67.0701C51.9331 67.2662 51.7095 67.5952 51.5812 67.7703C50.8082 68.6927 49.4544 69.5977 48.137 70.1123C46.9236 70.5568 45.3636 70.8229 44.4275 70.0055L44.4189 69.9985Z" fill="#D62631"/>
<path fill-rule="evenodd" clip-rule="evenodd" d="M36.9306 58.8697C33.3633 57.2016 25.4903 60.0057 25.0656 66.3245C24.8558 69.5731 26.6135 71.6141 29.0385 72.3772C33.7325 73.865 36.402 70.6741 36.7209 70.5393L36.7382 72.2599C37.0269 72.6497 37.3908 72.9764 37.8078 73.2204C38.2249 73.4643 38.6865 73.6205 39.165 73.6795C39.2187 72.2792 39.4822 58.1678 39.2534 57.9543C39.113 57.83 38.7958 57.865 38.586 57.9193C37.7419 58.0943 37.4611 58.5214 36.9324 58.8767L36.9306 58.8697ZM27.8078 66.9634C27.3519 63.0408 32.273 59.9882 35.2441 60.487C36.6308 60.7181 36.5614 61.9241 36.6845 63.7882C36.7556 64.7999 36.896 67.4447 36.5978 68.3146C35.9287 70.303 28.4058 71.9361 27.8078 66.9651V66.9634Z" fill="#D62631"/>
<path fill-rule="evenodd" clip-rule="evenodd" d="M82.0178 58.7629C78.4314 57.1123 70.5774 59.9182 70.1528 66.2177C69.924 69.4664 71.6989 71.5248 74.1257 72.2879C78.818 73.7617 81.4909 70.5673 81.8063 70.4431L81.8237 72.1637C82.1094 72.5566 82.4725 72.8856 82.8901 73.1302C83.3077 73.3748 83.7708 73.5296 84.2504 73.585C84.3024 72.1637 84.5659 58.0715 84.3198 57.8405C84.1967 57.7162 83.8812 57.7687 83.6697 57.823C82.8256 57.998 82.5448 58.4094 82.0178 58.7629ZM72.895 66.8636C72.4374 62.941 77.3602 59.8884 80.3295 60.403C81.7162 60.6341 81.6486 61.8418 81.7717 63.6867C81.8237 64.7159 81.9831 67.3624 81.6833 68.2376C80.9899 70.2085 73.4757 71.8416 72.895 66.8706V66.8636Z" fill="#D62631"/>
<path fill-rule="evenodd" clip-rule="evenodd" d="M57.376 59.0115C57.5164 59.3493 59.4144 61.7455 59.7143 62.1709C60.2933 62.9883 61.576 64.7807 61.9452 65.4738C61.524 66.237 58.8251 68.9343 58.3051 69.3596C56.9184 70.4956 55.6339 71.9169 53.8936 72.5365C54.2403 73.3364 55.5455 73.9035 56.7416 73.7968C59.4127 73.5675 61.9972 69.1286 63.4914 67.9226C63.8606 68.4022 64.8452 70.1053 65.1953 70.7441C67.1991 74.1696 66.6375 73.816 69.1821 73.2472L65.0878 65.6856C65.2612 65.2778 65.8436 64.5146 66.1417 64.035C66.9148 62.829 68.936 59.6154 69.059 58.3726C68.357 57.9823 67.7243 57.9298 66.8628 58.089C66.3705 58.994 64.4014 62.7748 63.6457 63.1826C63.5052 62.6855 61.7129 59.7396 61.3246 59.1568C60.9034 58.5371 60.5169 57.844 59.4976 57.8615C59.0822 57.8848 58.6769 57.9999 58.3104 58.1986C57.9438 58.3973 57.6248 58.6748 57.376 59.0115Z" fill="#D62631"/>
<path fill-rule="evenodd" clip-rule="evenodd" d="M73.6854 93.0735H74.3788C75.064 93.0735 75.5384 92.9848 75.8019 92.8074C75.9377 92.7181 76.0469 92.5933 76.118 92.4463C76.1892 92.2993 76.2195 92.1355 76.2058 91.9725C76.2085 91.7472 76.1345 91.5278 75.996 91.3511C75.8607 91.1851 75.6851 91.0573 75.4864 90.98C75.0942 90.8909 74.692 90.855 74.2904 90.8733H73.6924L73.6854 93.0735ZM71.5239 88.8726H73.8258C75.0739 88.8726 75.9706 88.9788 76.516 89.1912C77.04 89.4003 77.4878 89.7669 77.7988 90.2414C78.1358 90.7605 78.3076 91.3712 78.291 91.9917C78.3159 92.6288 78.1238 93.2552 77.7467 93.7666C77.4001 94.2445 76.8506 94.5998 76.1295 94.8483C76.5854 95.629 77.0257 96.4236 77.4833 97.2271C77.9409 98.0305 78.3794 98.8251 78.8353 99.6233H76.4623C76.0238 98.8601 75.5835 98.097 75.1623 97.3478C74.7411 96.5987 74.2956 95.8215 73.8796 95.0584H73.6854V99.6198H71.5239V88.8673V88.8726ZM63.1048 88.8726H69.345V90.8785H65.2663V92.8127H69.345V94.7836H65.2663V97.5999H69.345V99.6233C67.2649 99.6233 65.1953 99.6233 63.1048 99.6058V88.8673V88.8726ZM60.3088 90.623C59.7888 91.1008 59.2688 91.5629 58.78 92.0425C57.7954 91.0833 56.6878 90.6055 55.3878 90.6055C54.2628 90.6055 53.3302 90.9415 52.5745 91.6557C52.2113 91.972 51.9209 92.3645 51.7236 92.8059C51.5263 93.2473 51.4268 93.7269 51.4322 94.2112C51.4312 94.7085 51.5359 95.2002 51.7393 95.6532C51.9426 96.1061 52.2398 96.5097 52.6109 96.8367C53.4029 97.562 54.4421 97.9496 55.5108 97.9184C56.1713 97.9444 56.8266 97.7915 57.4089 97.4756C57.9566 97.1483 58.3921 96.6597 58.6569 96.0753H55.3531V94.1499H61.101C61.101 94.3092 61.1183 94.451 61.1183 94.6103C61.115 95.5537 60.847 96.4768 60.3452 97.2726C59.8545 98.0889 59.156 98.7574 58.3224 99.2085C57.4311 99.6676 56.4399 99.8933 55.4398 99.8648C54.3424 99.885 53.2566 99.6351 52.2763 99.1367C51.3586 98.6698 50.5906 97.95 50.061 97.0608C49.6205 96.3362 49.3517 95.5186 49.2756 94.6718C49.1995 93.825 49.3182 92.9719 49.6225 92.179C49.8907 91.5464 50.2721 90.969 50.7475 90.4759C51.9418 89.2157 53.4724 88.5943 55.3704 88.5943C56.3253 88.5899 57.2728 88.7643 58.1646 89.1089C58.971 89.464 59.6998 89.9768 60.3088 90.6177V90.623ZM42.8727 93.056H43.5574C44.2507 93.056 44.7361 92.9667 44.9995 92.8074C45.129 92.7089 45.2322 92.5794 45.2996 92.4306C45.3671 92.2818 45.3968 92.1183 45.3861 91.955C45.3864 91.738 45.3184 91.5265 45.192 91.3511C45.0619 91.175 44.8798 91.045 44.6719 90.98C44.2805 90.8899 43.8787 90.854 43.4776 90.8733H42.8796L42.8727 93.056ZM40.7111 88.8673H43.0131C44.2842 88.8673 45.1804 88.9735 45.7016 89.1859C46.2283 89.3992 46.681 89.7645 47.0033 90.2361C47.3252 90.7567 47.4902 91.3606 47.4783 91.9742C47.503 92.6075 47.3202 93.2313 46.9583 93.7491C46.5312 94.2652 45.9625 94.6422 45.3237 94.8326C45.7813 95.6132 46.2216 96.4079 46.6601 97.2113C47.0987 98.0147 47.565 98.8059 48.0156 99.5953H45.6496C45.211 98.8496 44.7829 98.0865 44.3495 97.3198C43.9162 96.5532 43.5054 95.811 43.0842 95.0444H42.8727V99.5953H40.7111V88.8673ZM30.3108 88.8673H32.5018V95.8075C32.5018 96.4108 32.5544 96.8367 32.6595 97.0853C32.7731 97.3354 32.9649 97.5408 33.2056 97.6699C33.4899 97.8276 33.8124 97.9016 34.1364 97.8834C34.4791 97.8962 34.8189 97.8164 35.121 97.6524C35.3753 97.5057 35.5777 97.2823 35.6999 97.0135C35.8056 96.765 35.8594 96.2679 35.8594 95.559V88.8673H38.0383V95.2562C38.0383 96.3396 37.9689 97.0853 37.8458 97.5106C37.6896 97.9626 37.4376 98.3748 37.1074 98.7184C36.7522 99.0978 36.3208 99.3962 35.8421 99.5935C35.3048 99.7803 34.7392 99.8704 34.1711 99.8596C33.4229 99.879 32.6831 99.6979 32.0269 99.3345C31.4655 99.0338 31.0065 98.5698 30.7095 98.0025C30.4443 97.4774 30.3039 96.5462 30.3039 95.2684V88.8796L30.3108 88.8673ZM23.3512 94.9026V97.6699C23.5246 97.6699 23.7205 97.6524 23.8955 97.6524C24.7917 97.6524 25.407 97.5474 25.7243 97.3338C25.8743 97.2303 25.9949 97.0889 26.0739 96.9237C26.153 96.7584 26.1878 96.5752 26.1749 96.3921C26.183 96.1799 26.1372 95.9692 26.042 95.7799C25.9467 95.5906 25.8051 95.429 25.6307 95.3104C25.2614 95.0444 24.6461 94.9026 23.8019 94.9026H23.3512ZM23.3512 90.819V93.0735H23.8245C24.3445 93.0735 24.7397 92.9667 25.0032 92.7724C25.1268 92.6687 25.2257 92.5382 25.2926 92.3907C25.3596 92.2431 25.3927 92.0822 25.3897 91.92C25.3959 91.7668 25.3657 91.6144 25.3014 91.4755C25.2372 91.3366 25.1408 91.2153 25.0205 91.1218C24.7744 90.9258 24.4051 90.819 23.9129 90.819H23.3512ZM21.1706 99.6233V88.8673H22.9647C24.0186 88.8673 24.7744 88.9374 25.2493 89.0616C25.8765 89.1999 26.4469 89.5285 26.8839 90.0033C27.2018 90.3778 27.4028 90.8389 27.4617 91.3285C27.5207 91.8182 27.4348 92.3144 27.215 92.7549C26.9826 93.127 26.677 93.4469 26.3171 93.6948C26.9178 93.9299 27.4419 94.3293 27.8303 94.8483C28.1657 95.3175 28.3381 95.8855 28.3209 96.4639C28.3201 97.0506 28.1496 97.6243 27.8303 98.1145C27.5037 98.5919 27.0616 98.977 26.5459 99.233C26.0259 99.4815 25.2978 99.6058 24.367 99.6058C23.3114 99.6058 22.2401 99.6233 21.1672 99.6233H21.1706Z" fill="white"/>
<path d="M70.0817 19.1646C69.8009 19.4831 69.449 19.0053 68.799 18.7743C68.1143 18.5257 67.0951 18.0461 66.1798 17.8151C65.2885 17.5724 64.3759 17.4177 63.4549 17.353C64.1587 17.1587 64.7914 16.7333 65.3894 15.9684C65.9874 15.2035 66.5144 14.2181 66.9893 12.8808C67.7582 13.0759 68.4466 13.5107 68.9567 14.1235C69.5374 14.7624 70.2412 15.8634 70.4509 16.7333C70.6242 17.5665 70.3278 18.8093 70.0817 19.1646ZM66.0741 23.1221C65.8321 22.8272 65.658 22.4816 65.5645 22.1104C65.4241 21.5767 65.3416 21.0291 65.3183 20.4773L66.5144 19.3064C66.5664 20.3356 66.6201 21.3823 66.6721 22.4115L66.0741 23.1221ZM64.9855 23.8853C64.703 24.0446 64.4048 24.2056 63.9836 24.3999C63.6369 23.9921 63.5433 23.6542 63.7201 23.4057C63.8605 23.1571 64.6336 22.8806 64.9491 22.8911C65.0997 22.8915 65.2454 22.9451 65.361 23.0426C65.4766 23.1401 65.5547 23.2754 65.5818 23.425C65.398 23.5973 65.1984 23.7514 64.9855 23.8853ZM64.1587 30.8867C63.1427 32.1276 61.9087 33.1684 60.5186 33.9569C58.7704 34.8975 56.8824 35.5449 54.9284 35.8735C52.5554 36.2463 49.3573 36.6542 46.5613 36.2638C43.7654 35.8735 40.3922 34.6307 38.2133 33.549C35.998 32.448 34.4519 31.116 33.4673 29.8033C32.5001 28.4537 32.1135 27.106 32.377 25.6497C33.1501 26.8924 34.2231 27.9934 35.5942 29.0926C37.0887 30.3457 38.7587 31.3685 40.5499 32.1277C42.5364 32.8909 44.9441 33.4072 47.4228 33.6908C49.9016 33.9744 52.8553 34.1704 55.1919 33.7608C57.4955 33.318 59.5253 32.217 61.2223 31.2228C62.9193 30.2286 64.1916 29.1469 65.1935 27.8971C65.2646 28.8913 64.9301 29.8488 64.1535 30.8727L64.1587 30.8867ZM31.3058 21.0987C30.6211 20.992 29.9537 20.8852 29.373 20.8327L29.2326 20.3356C30.6095 20.3825 31.9828 20.5069 33.346 20.7084C34.4536 20.8677 35.2527 21.0812 35.823 21.3298C35.8594 21.6308 35.894 21.9336 35.946 22.2347C35.1209 21.9511 34.3115 21.7376 33.5557 21.5346C32.7653 21.321 31.9956 21.2142 31.3023 21.09L31.3058 21.0987ZM30.7095 18.6132C31.2711 19.0578 31.7287 19.2889 32.1326 19.3414C32.5018 19.3956 32.7479 18.8618 33.0461 18.8985C33.3442 18.9353 33.521 19.4831 33.8902 19.4236C34.2595 19.3641 34.8921 18.4644 35.1556 18.5187C35.4191 18.573 35.4555 18.9615 35.329 19.7439C35.4508 19.9827 35.5506 20.2323 35.6271 20.4896C35.6715 20.6545 35.6593 20.8297 35.5924 20.9867C34.7099 20.6776 33.7959 20.4692 32.8675 20.3653C31.7184 20.2134 30.5595 20.1485 29.4008 20.171L29.3314 20.0993L30.7095 18.6132ZM29.9537 16.0402C29.5654 15.8266 29.0732 15.2595 29.2604 15.1878C29.4476 15.116 30.5257 15.5606 31.0891 15.6149C31.6524 15.6691 32.2314 15.6849 32.5469 15.5256C32.8623 15.3663 32.9871 15.011 32.9334 14.5664C33.3689 15.2221 33.8509 15.8451 34.3756 16.4305C34.7968 16.8751 35.1313 17.1762 35.4486 17.3057C34.6044 18.0514 33.9353 18.4767 33.443 18.6902C32.9525 18.832 32.8294 18.4242 32.4949 18.3892C32.1257 18.3524 31.6507 18.601 31.3526 18.4942C31.018 18.3524 30.6835 17.9796 30.6592 17.6435C30.6419 17.2707 30.8533 16.8611 31.2919 16.3658C30.8219 16.3734 30.3574 16.2633 29.9398 16.0454L29.9537 16.0402ZM33.4205 10.1835C33.5938 10.1835 33.8244 10.4495 34.0012 10.6088C34.1103 10.7264 34.1873 10.8705 34.2248 11.0272C34.2768 11.1514 34.3479 11.3125 34.2248 11.33C33.9295 11.2845 33.644 11.1886 33.3806 11.0464C33.1518 10.9029 32.9403 10.7261 32.9403 10.5843C32.9403 10.4425 33.2229 10.1765 33.4153 10.1765L33.4205 10.1835ZM34.0532 7.20788C34.0705 7.0836 34.1069 6.87006 34.2265 6.97683C34.4299 7.19649 34.5962 7.44839 34.7188 7.72249C34.8201 7.9261 34.8387 8.16158 34.7708 8.37887C34.6651 8.48564 34.2785 8.48564 34.1554 8.39637C33.9977 8.2721 33.9977 7.88177 33.963 7.69623C33.938 7.53108 33.9685 7.36222 34.0497 7.21663L34.0532 7.20788ZM35.0031 14.113C35.23 13.9142 35.5012 13.7737 35.7935 13.7035C36.005 13.6159 36.3135 13.5984 36.4262 13.7035C36.4682 13.8027 36.487 13.9105 36.481 14.0183C36.475 14.126 36.4444 14.231 36.3915 14.3248C36.2511 14.4316 35.8819 14.4684 35.6878 14.4684C35.524 14.444 35.3645 14.3957 35.2145 14.3248C35.0915 14.2548 34.8973 14.2198 35.0031 14.113ZM36.9479 6.12616C36.967 5.98438 36.9306 5.80759 37.0901 5.8601C37.3196 6.04761 37.5262 6.26209 37.7054 6.49899C37.8094 6.69503 37.9498 6.97858 37.8788 7.12036C37.7904 7.22713 37.4385 7.35141 37.2808 7.26214C37.123 7.17287 37.0173 6.8018 36.9653 6.62326C36.907 6.46377 36.9003 6.28972 36.9462 6.12616H36.9479ZM38.9708 10.467C39.0314 10.4087 39.103 10.3632 39.1813 10.3331C39.2596 10.3031 39.343 10.2891 39.4267 10.292C39.5324 10.2395 39.7266 10.187 39.7266 10.3113C39.6298 10.6005 39.5032 10.8786 39.3487 11.1409C39.1892 11.337 38.9604 11.5138 38.8391 11.5138C38.7425 11.4651 38.66 11.3922 38.5993 11.3021C38.5386 11.212 38.5018 11.1077 38.4924 10.9992C38.5097 10.7856 38.8079 10.5913 38.9847 10.474L38.9708 10.467ZM39.2689 3.50937C39.392 3.52688 39.5324 3.70366 39.6382 3.82794C39.6948 3.92791 39.7363 4.03588 39.7612 4.14825C39.7786 4.21827 39.8323 4.3618 39.7439 4.3618C39.5469 4.29759 39.3565 4.21435 39.1753 4.11325C39.0176 3.96972 38.8945 3.8647 38.9119 3.76318C38.9292 3.66165 39.1233 3.49712 39.2585 3.51462L39.2689 3.50937ZM40.2535 6.75804C40.3229 6.70378 40.465 6.68627 40.4459 6.77554C40.3936 6.9821 40.3043 7.17726 40.1824 7.35141C40.0594 7.47569 39.9554 7.61746 39.8496 7.61746C39.7439 7.58246 39.5671 7.36891 39.6035 7.26739C39.6306 7.18549 39.6742 7.11011 39.7314 7.04597C39.7887 6.98182 39.8584 6.93028 39.9363 6.89457C39.9775 6.85249 40.0271 6.81979 40.0818 6.79865C40.1365 6.77752 40.195 6.76845 40.2535 6.77204V6.75804ZM40.5621 16.6091C40.2636 16.6378 39.9629 16.6313 39.6659 16.5898C39.4371 16.5198 39.1216 16.4148 39.1043 16.2712C39.0505 16.1295 39.262 15.7741 39.4371 15.7461C39.6122 15.7181 39.9294 15.8511 40.1304 15.9754C40.2657 16.0654 40.3833 16.1799 40.4771 16.3132C40.5465 16.42 40.6869 16.5618 40.5638 16.6161L40.5621 16.6091ZM41.8638 5.62206C41.9441 5.54404 42.0506 5.49963 42.162 5.49778C42.2504 5.46102 42.3735 5.42602 42.3735 5.51528C42.3088 5.71798 42.2246 5.91379 42.1221 6.0999C41.999 6.22418 41.876 6.36596 41.7754 6.34845C41.7081 6.31638 41.65 6.26731 41.6069 6.206C41.5638 6.14468 41.5371 6.07317 41.5293 5.99838C41.5466 5.87411 41.7408 5.71482 41.876 5.62731L41.8638 5.62206ZM42.3839 2.95801C42.5069 2.923 42.7011 3.04728 42.8415 3.15405C42.9429 3.20905 43.0233 3.29646 43.0703 3.4026C43.1223 3.47437 43.2107 3.54438 43.1223 3.59689C42.9158 3.60413 42.7092 3.58651 42.5069 3.54438C42.3336 3.49187 42.1377 3.3851 42.1377 3.29583C42.1371 3.22023 42.1608 3.14647 42.2051 3.08558C42.2495 3.02469 42.3122 2.97993 42.3839 2.95801ZM43.3355 7.82226C43.3355 7.73299 43.3545 7.59121 43.4412 7.64722C43.5279 7.70323 43.7411 7.94828 43.8642 8.09006C43.9522 8.22015 43.9898 8.37838 43.9699 8.53465C43.9162 8.62217 43.6354 8.63967 43.5643 8.62217C43.4376 8.49933 43.3568 8.33611 43.3355 8.16008C43.3004 8.05026 43.3004 7.93207 43.3355 7.82226ZM44.4899 14.878C44.5957 14.8412 44.7881 14.7712 44.7881 14.913C44.6967 15.2014 44.5667 15.4759 44.4015 15.7286C44.2846 15.9176 44.1034 16.057 43.8919 16.1207C43.7937 16.0727 43.7105 15.9983 43.6515 15.9057C43.5924 15.813 43.5599 15.7057 43.5574 15.5956C43.5747 15.4013 43.8572 15.1878 44.0323 15.0705C44.1639 14.9669 44.3234 14.9058 44.4899 14.8955V14.878ZM44.3668 1.9253C44.3668 1.81853 44.3322 1.69425 44.4362 1.73101C44.6207 1.83232 44.7825 1.97119 44.9111 2.13884C45.0055 2.25426 45.0608 2.3972 45.0689 2.54668C45.0146 2.59679 44.9508 2.63521 44.8814 2.65958C44.812 2.68396 44.7383 2.69378 44.665 2.68845C44.5355 2.57784 44.4433 2.42914 44.4015 2.26312C44.3499 2.15846 44.3375 2.03843 44.3668 1.9253ZM45.2335 4.76613C45.2195 4.87833 45.1835 4.9866 45.1278 5.0847L45.0047 5.24398C44.8742 5.07957 44.7727 4.89363 44.7049 4.69437C44.6529 4.51933 44.6355 4.30404 44.7049 4.25152C44.7701 4.21484 44.8441 4.19706 44.9188 4.20014C44.9934 4.20323 45.0657 4.22707 45.1278 4.26903C45.2162 4.35655 45.2162 4.6051 45.2335 4.76613ZM45.9009 12.2927C46.1971 12.3453 46.4824 12.4476 46.7451 12.5955C46.9548 12.7373 47.1489 12.914 47.1489 13.0926C47.1143 13.1976 46.8508 13.4829 46.674 13.4829C46.4643 13.4462 46.2528 13.1801 46.1124 13.0383C45.9918 12.9187 45.9118 12.7637 45.8836 12.5955C45.8298 12.452 45.7432 12.2752 45.9009 12.2927ZM46.9912 5.72533C47.1139 5.84583 47.2097 5.99145 47.272 6.15241C47.3044 6.25729 47.3213 6.36639 47.3223 6.47623C47.3223 6.548 47.3223 6.67227 47.2529 6.67227C47.0723 6.56501 46.9067 6.43372 46.7607 6.28194C46.6549 6.14016 46.5145 5.96162 46.5873 5.87236C46.6304 5.80682 46.6925 5.75634 46.7651 5.72783C46.8378 5.69932 46.9173 5.69416 46.9929 5.71307L46.9912 5.72533ZM47.2841 1.61023C47.3188 1.52097 47.6187 1.52097 47.7054 1.61023C47.792 1.6995 47.7938 1.9463 47.8284 2.08983C47.8192 2.20433 47.7959 2.31722 47.7591 2.4259C47.7054 2.48016 47.7054 2.63944 47.6187 2.58518C47.4858 2.42844 47.3787 2.25115 47.3015 2.06008C47.2603 1.9943 47.237 1.91874 47.234 1.841C47.231 1.76326 47.2483 1.68608 47.2841 1.61724V1.61023ZM47.4072 10.4495C47.2841 10.5738 47.1437 10.7156 47.038 10.7156C46.9703 10.6791 46.9131 10.6256 46.8718 10.5603C46.8305 10.495 46.8066 10.4201 46.8023 10.3428C46.8196 10.2185 47.0137 10.0592 47.1368 9.9927C47.2241 9.9137 47.3368 9.86952 47.454 9.86843C47.5234 9.81591 47.6638 9.79841 47.6464 9.88593C47.5848 10.0839 47.5023 10.2746 47.4003 10.4548L47.4072 10.4495ZM51.609 19.6792C51.9071 20.7802 52.2052 21.8969 52.4878 23.0049C52.5571 23.8573 52.4167 24.2476 52.1012 24.2126C51.7667 24.1408 51.2744 23.6262 50.5707 22.667C50.1841 23.9991 49.834 24.7972 49.5514 25.2243C49.2359 25.5971 48.9534 25.3118 48.8303 25.0283C48.7073 24.7447 48.709 24.2476 48.813 23.5545C48.2248 23.6341 47.6306 23.6582 47.038 23.6262C46.6168 23.5737 46.388 23.4845 46.4053 23.2762C46.44 23.0276 46.6861 22.6548 47.1957 22.1577C46.6396 22.3979 46.0636 22.5883 45.4745 22.7266C44.9285 22.8508 44.3131 22.9751 43.9976 22.9016C43.6822 22.8281 43.4776 22.7773 43.6284 22.2277C43.7792 21.6781 44.2264 20.7539 44.9822 19.5304C45.8373 19.6583 46.7005 19.7232 47.565 19.7247C48.6726 19.7597 49.9917 19.7422 51.609 19.6897V19.6792ZM49.1475 5.44352C49.1591 5.27563 49.2194 5.1149 49.3209 4.98142C49.3746 4.85715 49.4093 4.68036 49.5324 4.78713C49.6917 5.04474 49.8088 5.32669 49.879 5.62206C49.9137 5.85135 49.9137 6.17167 49.808 6.26094C49.7022 6.3502 49.2983 6.29594 49.1926 6.17167C49.0869 6.04739 49.1059 5.64656 49.1406 5.44352H49.1475ZM50.2898 1.62774C50.4129 1.61023 50.6071 1.75201 50.7475 1.84128C50.8332 1.91459 50.9059 2.00221 50.9624 2.10033C50.9797 2.18785 51.0664 2.25962 50.9971 2.31213C50.7894 2.30527 50.5831 2.27593 50.3817 2.22461C50.2084 2.15284 50.0472 2.04957 50.035 1.9393C50.0396 1.86477 50.0676 1.79365 50.115 1.73634C50.1624 1.67902 50.2267 1.63852 50.2985 1.62074L50.2898 1.62774ZM51.5205 7.83976C51.6263 7.80475 51.8187 7.73299 51.8187 7.85726C51.7202 8.14891 51.5906 8.42886 51.4321 8.69218C51.2744 8.88647 51.0456 9.06501 50.9225 9.06501C50.8249 9.01774 50.7414 8.94523 50.6806 8.85485C50.6197 8.76447 50.5835 8.65944 50.5758 8.5504C50.6123 8.37537 50.8931 8.14082 51.0681 8.01655C51.1955 7.9056 51.3576 7.84362 51.5257 7.84151L51.5205 7.83976ZM52.0648 3.17155C52.1532 3.08229 52.5051 3.04728 52.6802 3.02977C52.8319 3.01312 52.984 3.0578 53.1031 3.15405C53.1097 3.22819 53.1006 3.3029 53.0764 3.37321C53.0522 3.44353 53.0134 3.50784 52.9627 3.56188C52.7985 3.59489 52.6285 3.5828 52.4704 3.52688C52.3649 3.48975 52.2685 3.43004 52.1879 3.35184C52.1012 3.29758 51.9955 3.22757 52.0648 3.1768V3.17155ZM53.6821 13.1118C53.835 13.1664 53.9724 13.2577 54.0825 13.3779C54.1692 13.4672 54.346 13.5722 54.2229 13.6439C54.0634 13.7332 53.6075 13.7682 53.3441 13.7857C53.0806 13.7507 52.7807 13.6965 52.7461 13.5722C52.7217 13.4628 52.7304 13.3485 52.7712 13.2443C52.8121 13.14 52.883 13.0505 52.9749 12.9876C53.1326 12.8983 53.4845 13.0401 53.6769 13.1118H53.6821ZM54.684 1.59273C54.8416 1.53181 55.0148 1.52565 55.1763 1.57523C55.2915 1.59796 55.4 1.64706 55.4935 1.71876L55.6165 1.89379C55.4242 1.97913 55.2238 2.0448 55.0185 2.08983C54.9463 2.10921 54.8706 2.11123 54.7974 2.09573C54.7243 2.08023 54.6557 2.04763 54.5973 2.00056C54.5089 1.9288 54.5782 1.65049 54.684 1.59273ZM56.0204 5.17746C55.9858 5.28424 55.7743 5.3735 55.6512 5.39101C55.5067 5.29782 55.3876 5.16967 55.3045 5.01818C55.2392 4.92504 55.2085 4.81161 55.2179 4.69787C55.1988 4.61035 55.1468 4.46682 55.2525 4.50358C55.4474 4.56912 55.631 4.66477 55.7968 4.78713C55.9199 4.91141 56.0603 5.05319 56.0256 5.17746H56.0204ZM56.478 9.49035C56.5474 9.57962 56.7242 9.66538 56.6184 9.7564C56.3336 9.8454 56.0377 9.89314 55.7396 9.89818C55.4761 9.89818 55.1936 9.82817 55.1243 9.70389C55.1023 9.59428 55.1122 9.48059 55.1528 9.37654C55.1934 9.27249 55.263 9.18253 55.3531 9.11752C55.5108 9.01075 55.8454 9.15253 56.0724 9.20679C56.2272 9.26905 56.3659 9.36601 56.478 9.49035ZM56.6704 2.07058C56.7242 2.00056 57.0171 2.05307 57.0934 2.15985C57.1421 2.32076 57.1539 2.49073 57.1281 2.65695C57.0929 2.76594 57.0519 2.87288 57.005 2.97726C56.9339 3.04728 56.8819 3.1523 56.8317 3.10154C56.7253 2.92138 56.6541 2.72235 56.6219 2.51517C56.5682 2.34013 56.5855 2.12484 56.6739 2.07058H56.6704ZM59.8703 24.1251C60.1934 23.4228 60.7051 22.8261 61.3471 22.4027C61.6106 23.1029 61.8204 23.4862 62.0145 23.5755C62.2086 23.6648 62.2606 22.6163 62.453 22.8648C62.6454 23.1134 62.8587 23.7873 63.1568 24.9408C62.349 25.4029 61.6453 25.7582 60.9953 26.0592C60.439 26.3277 59.8586 26.5417 59.2619 26.6981C59.3503 25.6864 59.508 24.8357 59.8772 24.1251H59.8703ZM56.9339 26.2553C55.5969 25.5418 54.2239 24.8991 52.8206 24.3299C52.891 24.1832 52.9974 24.0571 53.1297 23.9637C53.262 23.8703 53.4157 23.8125 53.5763 23.796C53.9109 23.7435 54.4205 24.0988 54.7897 24.0271C55.1069 23.9028 55.3704 23.6192 55.5628 23.1519C55.8454 23.502 56.1782 23.6665 56.4954 23.614C56.8126 23.5615 57.2165 22.8508 57.5146 22.8508C57.8127 22.8158 58.0589 23.0101 58.305 23.4547C58.4784 22.6548 58.7973 22.1769 59.2549 21.9459C59.7125 21.7149 60.3452 21.7866 61.101 22.1209C60.4683 22.317 59.9223 22.8666 59.4837 23.754C59.0452 24.6415 58.728 25.8842 58.4992 27.4648C58.3934 27.162 57.8838 26.7541 56.9391 26.2395L56.9339 26.2553ZM55.5472 26.5213C54.5639 25.9707 53.535 25.5074 52.4722 25.1368C52.5242 24.9233 52.5953 24.7115 52.6646 24.4804C53.3579 24.7815 53.9664 25.0475 54.5626 25.3328C55.1104 25.5273 55.64 25.7704 56.1452 26.0592C56.7953 26.4093 57.5683 26.9344 58.5009 27.5681L58.3778 28.3855C57.4897 27.6822 56.5426 27.0584 55.5472 26.5213ZM52.4722 26.5213C51.4165 26.1135 50.6781 25.6164 50.2032 25.0125C50.4493 24.5872 50.6781 24.1601 50.9243 23.7348L51.8204 25.1018C52.4184 25.4204 53.0685 25.7757 53.8606 26.1835C54.6528 26.5913 55.4952 26.9834 56.4798 27.4613C54.8452 27.232 53.5087 26.9362 52.4722 26.5213ZM48.5357 29.2466C50.5568 29.2817 53.0009 28.8738 54.3009 28.8966C55.6009 28.9193 57.0605 29.1276 56.218 29.3219C55.3392 29.518 51.4893 30.1026 49.151 30.0326C46.7953 29.9083 42.4723 28.8248 42.3492 28.7005C42.2261 28.5763 46.5319 29.2151 48.5357 29.2519V29.2466ZM35.8455 19.5374C35.7536 18.8833 35.7594 18.2189 35.8628 17.5665C37.5494 18.0811 39.0973 18.4889 40.5725 18.7918C41.9 19.0667 43.2459 19.2422 44.5991 19.3169C43.4742 21.8724 42.3839 23.5055 41.1878 24.2179C39.9918 24.9303 38.3052 23.9343 37.4974 23.5422C36.6879 23.0994 36.6533 22.443 36.3725 21.7674C36.1098 21.0464 35.9352 20.2958 35.8524 19.5322L35.8455 19.5374ZM37.0745 23.9133C37.6534 24.3084 38.2999 24.5915 38.9812 24.7482C39.5966 24.89 40.1755 25.0983 40.8446 24.855C41.5137 24.6117 42.1966 24.0568 42.9351 23.2394C43.4496 23.2937 43.9684 23.2937 44.483 23.2394C45.0326 23.1822 45.5765 23.0786 46.1089 22.9296C45.8801 23.4792 45.9685 23.852 46.3724 23.9938C46.7763 24.1356 47.4627 24.1006 48.4819 23.852L48.2358 25.6444C47.0744 26.2833 45.7744 26.6386 44.2108 26.8329C42.6473 27.0272 40.8879 27.4368 38.9535 26.6386C37.0207 25.7634 34.9823 24.1881 32.7323 21.7569C33.3559 21.8136 33.9731 21.9267 34.5767 22.0947C35.1476 22.2388 35.7064 22.4284 36.2477 22.6618C36.3628 23.1688 36.6559 23.6165 37.0727 23.9221L37.0745 23.9133ZM60.0627 18.9038C61.3645 18.5309 62.349 18.1756 63.1221 17.7503L66.549 18.4067C66.0679 18.8275 65.6373 19.3039 65.2663 19.8262C64.9898 20.1616 64.8292 20.5788 64.8087 21.0147C64.8126 21.5388 64.9518 22.0529 65.2126 22.506C64.9429 22.5107 64.6731 22.499 64.4048 22.471C64.1067 22.436 63.7011 22.1507 63.526 22.3467C63.3509 22.5428 63.3856 23.2342 63.3856 23.642C63.3509 24.0323 63.5589 24.8497 63.4029 24.6187C63.2469 24.3876 62.7702 22.541 62.4894 22.205C62.2086 21.8689 61.9972 22.7021 61.8204 22.5778C61.6106 22.436 61.7337 21.6536 61.3107 21.405C60.8185 21.1582 59.6588 20.9622 59.1319 21.139C58.6049 21.3158 58.2877 21.7604 58.182 22.4885C57.7615 22.3547 57.3144 22.33 56.8819 22.4167C56.5474 22.4885 56.478 22.8963 56.2146 22.9506C55.932 22.9681 55.6339 22.8613 55.2647 22.5778C55.2127 22.9138 55.1243 23.1449 54.918 23.2779C54.7872 23.3646 54.6388 23.4208 54.4838 23.4423C54.3288 23.4638 54.171 23.4501 54.0218 23.4022C53.5778 23.2193 53.2153 22.8788 53.0026 22.4447C52.668 21.8584 52.4219 21.0445 52.1584 19.9592C52.9679 20.066 53.9872 20.0485 55.3219 19.87C56.6566 19.6914 58.7141 19.2311 60.0679 18.895L60.0627 18.9038ZM58.676 14.1778C58.747 14.036 59.1336 14.0185 59.2913 14.1253C59.4144 14.2146 59.4647 14.6049 59.5201 14.8254C59.5184 14.9878 59.4945 15.1492 59.4491 15.305C59.3971 15.4293 59.3971 15.6254 59.2913 15.5536C59.0704 15.3437 58.8864 15.0975 58.747 14.8254C58.6413 14.5961 58.5737 14.3003 58.676 14.1866V14.1778ZM58.9221 2.80048C59.0105 2.80048 59.2913 3.04903 59.4144 3.1733C59.5375 3.29758 59.6085 3.49362 59.5721 3.59864C59.5233 3.6514 59.4629 3.69187 59.3958 3.7168C59.3286 3.74173 59.2567 3.75041 59.1856 3.74217C59.0569 3.62678 58.9602 3.47961 58.9048 3.31508C58.8558 3.21668 58.8377 3.10557 58.8528 2.99652C58.8337 2.87224 58.8337 2.76547 58.9221 2.80048ZM59.7143 11.1427C59.8547 11.1077 60.3279 11.232 60.5931 11.3387C60.8028 11.463 61.049 11.5873 61.0663 11.7641C61.0663 11.9058 60.8202 12.1719 60.6451 12.2262C60.451 12.2262 60.1702 11.9601 60.0124 11.8533C59.887 11.7463 59.7955 11.6045 59.7489 11.4455C59.6952 11.302 59.5548 11.1794 59.7143 11.1427ZM60.3106 4.87815C60.4769 4.82128 60.6581 4.8275 60.8202 4.89566C60.9315 4.9233 61.0344 4.97798 61.1201 5.05494L61.2258 5.22998C61.0402 5.30965 60.8449 5.36381 60.6451 5.39101C60.4336 5.39101 60.2586 5.37351 60.2048 5.30174C60.178 5.22834 60.1737 5.14846 60.1926 5.07257C60.2115 4.99668 60.2526 4.92831 60.3106 4.8764V4.87815ZM61.4355 7.98329C61.3445 8.27789 61.2145 8.55874 61.049 8.81821C60.9086 9.0125 60.6798 9.19104 60.5394 9.19104C60.4409 9.14636 60.357 9.07418 60.2978 8.98302C60.2385 8.89185 60.2063 8.78548 60.2048 8.67643C60.2239 8.5014 60.5047 8.24934 60.6798 8.14257C60.8071 8.03163 60.9692 7.96964 61.1374 7.96754C61.2431 7.91503 61.4355 7.86076 61.4355 7.98504V7.98329ZM69.7679 14.2496C69.0571 13.3406 68.0572 12.7074 66.9373 12.4572C67.1956 11.148 67.0986 9.7927 66.6565 8.53465C66.1798 7.17637 65.6355 5.79884 64.176 4.55084C62.7165 3.30283 60.0991 1.96556 57.8665 1.22515C55.5992 0.437494 53.3302 0.101425 50.7301 0.0296602C48.0936 -0.0578577 44.8938 0.0121566 42.2746 0.740306C39.6555 1.46845 36.9479 2.95801 35.2267 4.3968C33.6828 5.58912 32.5509 7.24296 31.9922 9.12277C31.5346 10.7734 31.675 12.4485 32.4671 14.2181C32.3961 14.8745 32.0806 15.2298 31.5172 15.3173C30.9192 15.3891 29.4372 14.5541 29.0385 14.6959C28.6398 14.8377 28.8461 15.8319 29.1269 16.1697C29.4077 16.5075 29.8826 16.6143 30.6384 16.5775C30.0941 16.8804 29.8306 17.1639 29.7942 17.43C29.7578 17.696 29.9884 17.9551 30.4876 18.1931L29.0107 20.164L29.1338 21.2458C29.6113 21.1782 30.0953 21.1723 30.5743 21.2283C31.1176 21.2852 31.6537 21.3984 32.1742 21.5661C31.0856 21.9389 30.5049 22.4412 30.4165 23.0031C30.3281 23.565 30.7337 24.2459 31.6992 25.009C31.5682 26.2458 31.7188 27.4965 32.1395 28.6655C32.5781 29.7297 32.6838 30.3511 34.1953 31.4661C35.7068 32.5811 38.3555 34.3419 41.0335 35.3169C43.7116 36.2918 46.6064 37.2335 50.016 37.0918C53.4255 36.8957 58.6292 35.8315 61.3177 34.2334C63.9368 32.6003 65.3963 30.3826 65.7118 27.435L67.0309 26.299C68.1212 25.0388 68.6135 24.0638 68.6135 23.4057C68.5944 22.7143 68.0502 22.4115 66.9425 22.3415C66.9978 21.8289 67.0215 21.3133 67.0136 20.7977C66.9963 20.1938 66.9425 19.4656 66.8732 18.6675C67.3445 18.6966 67.8078 18.8042 68.2443 18.986C68.7002 19.1611 69.2098 19.9802 69.7385 19.8035C70.2481 19.5899 71.1616 18.8268 71.1963 17.9043C71.1963 16.9801 70.4769 15.1353 69.7731 14.2478L69.7679 14.2496Z" fill="white"/>
</svg>
