<svg width="16" height="37" fill="none" xmlns="http://www.w3.org/2000/svg"><g clip-path="url(#clip0)"><path d="M14.977 7.689c-.05-.01-.097-.02-.14-.032-.478-.124-.696-.192-.857-.504l-.611-1.237c-.197-.38-.704-.688-1.13-.688H11.15V3.8a.466.466 0 00-.465-.466l-7.579.008c-.25 0-.438.198-.438.461v.423H.728a.728.728 0 000 1.454h1.94v.697h-1.27a.728.728 0 000 1.454h1.27v.697h-.6a.728.728 0 000 1.454h.6v.729c0 .256.21.465.466.465h.788c.123.841.849 1.49 1.724 1.49s1.601-.649 1.724-1.49h3.19a.785.785 0 00.05-.002 1.745 1.745 0 001.725 1.492c.875 0 1.602-.649 1.724-1.49h1.133a.81.81 0 00.808-.808V8.996c0-1.093-.616-1.222-1.023-1.307zm-2.642 2.601a.634.634 0 11-.001 1.269.634.634 0 01.001-1.269zm-1.185-2.7V5.903h.832c.32 0 .713.24.86.522l.543 1.101.036.064H11.15zm-4.87 3.333a.634.634 0 11-1.269-.001.634.634 0 011.269.001z" fill="#005FF9"/></g><g clip-path="url(#clip1)"><path d="M14.977 28.689c-.05-.01-.097-.02-.14-.032-.478-.124-.696-.192-.857-.504l-.611-1.237c-.197-.38-.704-.688-1.13-.688H11.15V24.8a.466.466 0 00-.465-.465l-7.579.008c-.25 0-.438.198-.438.461v.423H.728a.728.728 0 000 1.454h1.94v.697h-1.27a.728.728 0 000 1.454h1.27v.697h-.6a.728.728 0 000 1.454h.6v.729c0 .256.21.465.466.465h.788c.123.841.849 1.49 1.724 1.49s1.601-.648 1.724-1.49h3.19a.785.785 0 00.05-.002 1.745 1.745 0 001.725 1.492c.875 0 1.602-.648 1.724-1.49h1.133a.81.81 0 00.808-.808v-1.372c0-1.093-.616-1.222-1.023-1.307zm-2.642 2.601a.634.634 0 11-.001 1.269.634.634 0 01.001-1.269zm-1.185-2.7v-1.687h.832c.32 0 .713.24.86.522l.543 1.101.036.064H11.15zm-4.87 3.333a.634.634 0 11-1.269-.001.634.634 0 011.269.001z" fill="#000"/></g><defs><clipPath id="clip0"><path fill="#fff" d="M0 0h16v16H0z"/></clipPath><clipPath id="clip1"><path fill="#fff" transform="translate(0 21)" d="M0 0h16v16H0z"/></clipPath></defs></svg>