<svg width="16" height="37" fill="none" xmlns="http://www.w3.org/2000/svg"><path d="M3.333 0H.667A.667.667 0 000 .667v2.666C0 3.701.299 4 .667 4h2.666A.667.667 0 004 3.333V.667A.667.667 0 003.333 0zm0 6H.667A.667.667 0 000 6.667v2.666c0 .368.299.667.667.667h2.666A.667.667 0 004 9.333V6.667A.667.667 0 003.333 6zm0 6H.667a.667.667 0 00-.667.667v2.666c0 .368.299.667.667.667h2.666A.667.667 0 004 15.333v-2.666A.667.667 0 003.333 12zm6-12H6.667A.667.667 0 006 .667v2.666c0 .368.299.667.667.667h2.666A.667.667 0 0010 3.333V.667A.667.667 0 009.333 0zm0 6H6.667A.667.667 0 006 6.667v2.666c0 .368.299.667.667.667h2.666A.667.667 0 0010 9.333V6.667A.667.667 0 009.333 6zm0 6H6.667a.667.667 0 00-.667.667v2.666c0 .368.299.667.667.667h2.666a.667.667 0 00.667-.667v-2.666A.667.667 0 009.333 12zm6-12h-2.666A.667.667 0 0012 .667v2.666c0 .368.299.667.667.667h2.666A.667.667 0 0016 3.333V.667A.667.667 0 0015.333 0zm0 6h-2.666a.667.667 0 00-.667.667v2.666c0 .368.299.667.667.667h2.666A.667.667 0 0016 9.333V6.667A.667.667 0 0015.333 6zm0 6h-2.666a.667.667 0 00-.667.667v2.666c0 .368.299.667.667.667h2.666a.667.667 0 00.667-.667v-2.666a.667.667 0 00-.667-.667z" fill="#005FF9"/><path d="M3.333 21H.667a.667.667 0 00-.667.667v2.666c0 .368.299.667.667.667h2.666A.667.667 0 004 24.333v-2.666A.667.667 0 003.333 21zm0 6H.667a.667.667 0 00-.667.667v2.666c0 .368.299.667.667.667h2.666A.667.667 0 004 30.333v-2.666A.667.667 0 003.333 27zm0 6H.667a.667.667 0 00-.667.667v2.666c0 .368.299.667.667.667h2.666A.667.667 0 004 36.333v-2.666A.667.667 0 003.333 33zm6-12H6.667a.667.667 0 00-.667.667v2.666c0 .368.299.667.667.667h2.666a.667.667 0 00.667-.667v-2.666A.667.667 0 009.333 21zm0 6H6.667a.667.667 0 00-.667.667v2.666c0 .368.299.667.667.667h2.666a.667.667 0 00.667-.667v-2.666A.667.667 0 009.333 27zm0 6H6.667a.667.667 0 00-.667.667v2.666c0 .368.299.667.667.667h2.666a.667.667 0 00.667-.667v-2.666A.667.667 0 009.333 33zm6-12h-2.666a.667.667 0 00-.667.667v2.666c0 .368.299.667.667.667h2.666a.667.667 0 00.667-.667v-2.666a.667.667 0 00-.667-.667zm0 6h-2.666a.667.667 0 00-.667.667v2.666c0 .368.299.667.667.667h2.666a.667.667 0 00.667-.667v-2.666a.667.667 0 00-.667-.667zm0 6h-2.666a.667.667 0 00-.667.667v2.666c0 .368.299.667.667.667h2.666a.667.667 0 00.667-.667v-2.666a.667.667 0 00-.667-.667z" fill="#000"/></svg>