<svg width="18" height="18" fill="none" xmlns="http://www.w3.org/2000/svg"><path d="M17.95 5.292c-.041-.956-.196-1.614-.418-2.184a4.393 4.393 0 00-1.04-1.596A4.43 4.43 0 0014.899.475c-.573-.222-1.227-.377-2.184-.419C11.752.011 11.445 0 9.002 0c-2.444 0-2.75.01-3.71.053C4.336.095 3.678.25 3.11.47a4.392 4.392 0 00-1.597 1.041c-.457.45-.812.995-1.037 1.593-.222.573-.377 1.227-.419 2.183C.011 6.252 0 6.558 0 9.002s.01 2.75.053 3.71c.042.956.197 1.613.418 2.183a4.44 4.44 0 001.041 1.597c.45.457.995.812 1.593 1.037.573.221 1.227.376 2.184.418.96.043 1.266.053 3.71.053 2.443 0 2.75-.01 3.71-.053.956-.042 1.613-.197 2.183-.418a4.604 4.604 0 002.633-2.634c.222-.573.377-1.227.419-2.184.042-.96.053-1.265.053-3.71 0-2.443-.004-2.749-.046-3.709zm-1.62 7.35c-.039.878-.186 1.353-.31 1.67a2.985 2.985 0 01-1.709 1.708c-.316.123-.794.271-1.67.31-.95.042-1.234.053-3.636.053-2.401 0-2.69-.01-3.636-.053-.879-.039-1.353-.186-1.67-.31a2.77 2.77 0 01-1.034-.671 2.798 2.798 0 01-.671-1.034c-.123-.316-.271-.795-.31-1.67-.042-.95-.052-1.234-.052-3.636s.01-2.69.052-3.636c.039-.88.187-1.354.31-1.67.144-.39.373-.746.675-1.034a2.794 2.794 0 011.034-.672c.316-.123.794-.27 1.67-.31.95-.041 1.234-.052 3.636-.052 2.405 0 2.69.01 3.636.053.879.039 1.354.186 1.67.31.39.143.745.372 1.034.67a2.8 2.8 0 01.671 1.035c.123.316.271.794.31 1.67.042.95.053 1.234.053 3.636s-.01 2.683-.053 3.632z" fill="#fff"/><path d="M9.002 4.378a4.625 4.625 0 000 9.248 4.625 4.625 0 000-9.248zm0 7.623a3 3 0 110-6 3 3 0 010 6zm5.887-7.806a1.08 1.08 0 11-2.16 0 1.08 1.08 0 012.16 0z" fill="#fff"/></svg>