<svg width="22" height="20" fill="none" xmlns="http://www.w3.org/2000/svg"><g clip-path="url(#clip0)"><path fill-rule="evenodd" clip-rule="evenodd" d="M15.239 17.848H5.833c-.515 0-.954-.38-1.038-.9L3.538 9.24h14.166l-1.43 7.732a1.06 1.06 0 01-1.035.876zm2.656-10.76L14.182.538a1.037 1.037 0 00-1.428-.394c-.507.295-.68.955-.389 1.469l3.098 5.475H5.588l3.104-5.471c.29-.512.12-1.166-.38-1.465L8.304.146a1.038 1.038 0 00-1.438.39L3.158 7.088H1.053C.47 7.088 0 7.57 0 8.164 0 8.758.47 9.24 1.053 9.24h.35l1.461 8.962C3.034 19.24 3.912 20 4.941 20h11.17c1.029 0 1.908-.76 2.076-1.798l1.461-8.962H20c.581 0 1.053-.482 1.053-1.076 0-.594-.472-1.076-1.053-1.076h-2.105z" fill="#000"/></g><defs><clipPath id="clip0"><path fill="#fff" d="M0 0h21.053v20H0z"/></clipPath></defs></svg>