<svg width="33" height="14" fill="none" xmlns="http://www.w3.org/2000/svg"><g clip-path="url(#clip0)" fill="#fff"><path d="M13.877 2.781L9.63 7l4.246 4.219c.076-.16.123-.338.123-.528V3.31c0-.19-.046-.367-.123-.528zm-1.107-.703H1.23c-.19 0-.366.047-.527.123l5.427 5.4c.48.48 1.26.48 1.74 0l5.426-5.4a1.216 1.216 0 00-.527-.123zM.123 2.781C.047 2.941 0 3.12 0 3.31v7.382c0 .19.047.367.123.528L4.37 7 .123 2.781z"/><path d="M9.05 7.58l-.6.6c-.8.8-2.1.8-2.9 0l-.601-.6-4.246 4.219c.16.076.338.123.527.123h11.54c.189 0 .366-.047.527-.123L9.05 7.58z"/></g><g clip-path="url(#clip1)" fill="#000"><path d="M32.877 2.781L28.63 7l4.246 4.219c.076-.16.123-.338.123-.528V3.31c0-.19-.047-.367-.123-.528zm-1.107-.703H20.23c-.19 0-.366.047-.527.123l5.427 5.4c.48.48 1.26.48 1.74 0l5.427-5.4a1.216 1.216 0 00-.528-.123zm-12.647.703c-.076.16-.123.338-.123.528v7.382c0 .19.047.367.123.528L23.37 7l-4.246-4.219z"/><path d="M28.05 7.58l-.6.6c-.8.8-2.1.8-2.9 0l-.601-.6-4.246 4.219c.16.076.338.123.527.123h11.54c.189 0 .366-.047.527-.123L28.05 7.58z"/></g><defs><clipPath id="clip0"><path fill="#fff" d="M0 0h14v14H0z"/></clipPath><clipPath id="clip1"><path fill="#fff" transform="translate(19)" d="M0 0h14v14H0z"/></clipPath></defs></svg>