<svg width="13" height="16" fill="none" xmlns="http://www.w3.org/2000/svg"><path d="M8.712 5.797a.375.375 0 00-.375.375v7.082a.375.375 0 00.75 0V6.172a.375.375 0 00-.375-.375zm-4.424 0a.375.375 0 00-.374.375v7.082a.375.375 0 00.75 0V6.172a.375.375 0 00-.376-.375z" fill="#FF453A"/><path d="M1.065 4.763v9.232c0 .546.2 1.058.55 1.426.348.369.832.578 1.339.579h7.092c.507 0 .992-.21 1.34-.579.35-.368.55-.88.55-1.426V4.763a1.431 1.431 0 00-.368-2.814h-1.92V1.48A1.472 1.472 0 008.165 0H4.836A1.473 1.473 0 003.35 1.48v.469H1.432a1.432 1.432 0 00-.367 2.814zm8.981 10.488H2.954c-.641 0-1.14-.55-1.14-1.256V4.796h9.372v9.2c0 .704-.499 1.255-1.14 1.255zM4.101 1.48a.721.721 0 01.735-.732h3.328a.722.722 0 01.735.731v.469H4.101V1.48zM1.432 2.697h10.136a.675.675 0 110 1.349H1.432a.675.675 0 110-1.35z" fill="#FF453A"/><path d="M6.5 5.797a.375.375 0 00-.375.375v7.082a.375.375 0 00.75 0V6.172a.375.375 0 00-.375-.375z" fill="#FF453A"/></svg>