<svg width="14" height="33" viewBox="0 0 14 33" fill="none" xmlns="http://www.w3.org/2000/svg">
<path d="M3.40062 3.72303L9.84464 1.08132L7.17641 0.0331922C7.06371 -0.0110641 6.93736 -0.0110641 6.82466 0.0331922L0.416016 2.55063L3.40062 3.72303Z" fill="black"/>
<path d="M11.0436 1.55249L4.59766 4.19343L7.00022 5.13722L13.5848 2.55069L11.0436 1.55249Z" fill="black"/>
<path d="M6.53717 5.91234L3.92948 4.888V6.82747C3.92948 7.07188 3.72225 7.27004 3.46665 7.27004C3.21105 7.27004 3.00381 7.07188 3.00381 6.82747V4.52438L0 3.34442V11.1354C0 11.3149 0.113336 11.4766 0.286956 11.5448L6.53717 14V5.91234Z" fill="black"/>
<path d="M7.46289 5.91234V14L13.7131 11.5448C13.8867 11.4766 14.0001 11.3149 14.0001 11.1354C14.0001 10.8376 14.0001 3.6704 14.0001 3.34442L7.46289 5.91234Z" fill="black"/>
<path d="M3.40062 22.723L9.84464 20.0813L7.17641 19.0332C7.06371 18.9889 6.93736 18.9889 6.82466 19.0332L0.416016 21.5506L3.40062 22.723Z" fill="#005FF9"/>
<path d="M11.0436 20.5525L4.59766 23.1934L7.00022 24.1372L13.5848 21.5507L11.0436 20.5525Z" fill="#005FF9"/>
<path d="M6.53717 24.9123L3.92948 23.888V25.8275C3.92948 26.0719 3.72225 26.27 3.46665 26.27C3.21105 26.27 3.00381 26.0719 3.00381 25.8275V23.5244L0 22.3444V30.1354C0 30.3149 0.113336 30.4766 0.286956 30.5448L6.53717 33V24.9123Z" fill="#005FF9"/>
<path d="M7.46289 24.9123V33L13.7131 30.5448C13.8867 30.4766 14.0001 30.3149 14.0001 30.1354C14.0001 29.8376 14.0001 22.6704 14.0001 22.3444L7.46289 24.9123Z" fill="#005FF9"/>
</svg>
