<svg width="10" height="10" fill="none" xmlns="http://www.w3.org/2000/svg"><path d="M8.755.067A.228.228 0 008.59 0a.238.238 0 00-.163.067l-3.302 3.3-.009.01-.004.005-.016.02c0 .003-.003.003-.003.005l-.011.019c-.003.002-.003.004-.005.006l-.007.019-.002.004-.588 1.773a.227.227 0 00.055.235.232.232 0 00.238.056l1.768-.59c.002 0 .002 0 .004-.003a.082.082 0 00.021-.009.008.008 0 00.005-.002l.023-.014.02-.016c.003-.002.005-.002.005-.005.003-.002.007-.004.01-.009l3.303-3.303a.23.23 0 000-.325L8.755.067zM5.389 3.958l.653.652-.978.325.325-.977zm1.08.427l-.854-.853L8.591.556l.853.852-2.976 2.977z" fill="#fff"/><path d="M8.211 4.308a.231.231 0 00-.23.23v4.31a.694.694 0 01-.692.69H1.153a.694.694 0 01-.692-.69V2.71a.694.694 0 01.692-.692H5.46a.23.23 0 100-.46H1.153C.516 1.558 0 2.073 0 2.71v6.136C0 9.484.516 10 1.153 10h6.136c.637 0 1.153-.516 1.153-1.153V4.54a.231.231 0 00-.23-.23z" fill="#fff"/></svg>