<svg width="14" height="31" viewBox="0 0 14 31" fill="none" xmlns="http://www.w3.org/2000/svg">
<path d="M13.7649 5.77565L7.48352 0.184094C7.20782 -0.0613736 6.79206 -0.0613469 6.51646 0.184067L0.235102 5.77568C0.0142472 5.97229 -0.0587056 6.27521 0.0491924 6.5474C0.157118 6.81958 0.41989 6.99543 0.718675 6.99543H1.72191V12.5978C1.72191 12.8199 1.90626 13 2.13363 13H5.57658C5.80394 13 5.98829 12.8199 5.98829 12.5978V9.1962H8.01177V12.5978C8.01177 12.8199 8.19612 13 8.42349 13H11.8663C12.0936 13 12.278 12.8199 12.278 12.5978V6.99543H13.2814C13.5802 6.99543 13.843 6.81955 13.9509 6.5474C14.0587 6.27519 13.9857 5.97229 13.7649 5.77565Z" fill="black"/>
<path d="M12.1712 0.802795H9.40625L12.5829 3.62467V1.20499C12.5829 0.982869 12.3986 0.802795 12.1712 0.802795Z" fill="black"/>
<path d="M13.7649 23.7757L7.48352 18.1841C7.20782 17.9386 6.79206 17.9387 6.51646 18.1841L0.235102 23.7757C0.0142472 23.9723 -0.0587056 24.2752 0.0491924 24.5474C0.157118 24.8196 0.41989 24.9954 0.718675 24.9954H1.72191V30.5978C1.72191 30.8199 1.90626 31 2.13363 31H5.57658C5.80394 31 5.98829 30.8199 5.98829 30.5978V27.1962H8.01177V30.5978C8.01177 30.8199 8.19612 31 8.42349 31H11.8663C12.0936 31 12.278 30.8199 12.278 30.5978V24.9954H13.2814C13.5802 24.9954 13.843 24.8195 13.9509 24.5474C14.0587 24.2752 13.9857 23.9723 13.7649 23.7757Z" fill="#005FF9"/>
<path d="M12.1712 18.8029H9.40625L12.5829 21.6247V19.2051C12.5829 18.9829 12.3986 18.8029 12.1712 18.8029Z" fill="#005FF9"/>
</svg>
