<svg width="15" height="14" viewBox="0 0 15 14" fill="none" xmlns="http://www.w3.org/2000/svg">
<path d="M6.97676 12.8334H1.74418C1.42324 12.8334 1.16279 12.572 1.16279 12.25V1.75002C1.16279 1.42801 1.42327 1.1667 1.74418 1.1667H6.97676C7.29827 1.1667 7.55814 0.905955 7.55814 0.583376C7.55814 0.260796 7.29827 0 6.97676 0H1.74418C0.782551 0 0 0.785187 0 1.75002V12.25C0 13.2148 0.782551 14 1.74418 14H6.97676C7.29827 14 7.55814 13.7393 7.55814 13.4167C7.55814 13.0941 7.29827 12.8334 6.97676 12.8334Z" fill="black"/>
<path d="M14.1756 6.66795L10.6407 3.16794C10.4128 2.9416 10.0442 2.94454 9.8186 3.17378C9.59301 3.40303 9.59534 3.77227 9.82442 3.99861L12.3506 6.49993H5.58138C5.25987 6.49993 5 6.76068 5 7.08325C5 7.40583 5.25987 7.6666 5.58138 7.6666H12.3506L9.82442 10.1679C9.59536 10.3943 9.59361 10.7635 9.8186 10.9928C9.93254 11.1083 10.0825 11.1666 10.2326 11.1666C10.3802 11.1666 10.5279 11.1106 10.6407 10.9986L14.1756 7.49856C14.286 7.38891 14.3488 7.23955 14.3488 7.08323C14.3488 6.92696 14.2866 6.77821 14.1756 6.66795Z" fill="black"/>
</svg>
