<svg width="22" height="41" fill="none" xmlns="http://www.w3.org/2000/svg"><path d="M22 2.13a9.321 9.321 0 01-2.599.718 4.51 4.51 0 001.984-2.51 8.976 8.976 0 01-2.86 1.1A4.505 4.505 0 0015.231 0c-2.497 0-4.507 2.04-4.507 4.543 0 .36.03.706.104 1.036-3.75-.185-7.067-1.994-9.296-4.751a4.597 4.597 0 00-.618 2.296c0 1.573.805 2.967 2.004 3.774a4.43 4.43 0 01-2.038-.56v.05a4.555 4.555 0 003.614 4.463c-.368.101-.768.15-1.183.15-.289 0-.58-.017-.854-.078.585 1.799 2.243 3.121 4.215 3.164a9.023 9.023 0 01-5.593 1.937c-.37 0-.724-.017-1.079-.062A12.633 12.633 0 006.919 18c8.3 0 12.837-6.923 12.837-12.924 0-.2-.007-.395-.017-.587A9.034 9.034 0 0022 2.13z" fill="#fff"/><path d="M22 25.13a9.321 9.321 0 01-2.599.718 4.511 4.511 0 001.984-2.51 8.976 8.976 0 01-2.86 1.1A4.505 4.505 0 0015.231 23c-2.497 0-4.507 2.04-4.507 4.543 0 .36.03.706.104 1.036-3.75-.184-7.067-1.994-9.296-4.751a4.597 4.597 0 00-.618 2.296c0 1.573.805 2.967 2.004 3.774a4.431 4.431 0 01-2.038-.56v.05a4.555 4.555 0 003.614 4.463c-.368.101-.768.15-1.183.15-.289 0-.58-.017-.854-.078.585 1.799 2.243 3.121 4.215 3.164a9.023 9.023 0 01-5.593 1.937c-.37 0-.724-.017-1.079-.062A12.633 12.633 0 006.919 41c8.3 0 12.837-6.923 12.837-12.924 0-.2-.007-.395-.017-.587A9.034 9.034 0 0022 25.13z" fill="#03A9F4"/></svg>