<svg width="16" height="37" viewBox="0 0 16 37" fill="none" xmlns="http://www.w3.org/2000/svg">
<path d="M3.66975 28.3333H0.333622C0.149468 28.3333 0 28.4826 0 28.6666V36.6666C0 36.8505 0.149468 36.9999 0.333622 36.9999H3.66975C3.8539 36.9999 4.00337 36.8505 4.00337 36.6665V28.6666C4.00334 28.4826 3.85456 28.3333 3.66975 28.3333Z" fill="black"/>
<path d="M9.66193 21H6.32581C6.14166 21 5.99219 21.1493 5.99219 21.3333V36.6667C5.99219 36.8507 6.14166 37 6.32581 37H9.66193C9.84609 37 9.99556 36.8507 9.99556 36.6667V21.3333C9.99556 21.1493 9.84609 21 9.66193 21Z" fill="black"/>
<path d="M15.6658 24.3333H12.3297C12.1456 24.3333 11.9961 24.4826 11.9961 24.6666V36.6666C11.9961 36.8506 12.1456 36.9999 12.3297 36.9999H15.6658C15.85 36.9999 15.9995 36.8506 15.9995 36.6666V24.6666C15.9995 24.4826 15.85 24.3333 15.6658 24.3333Z" fill="black"/>
<path d="M3.66975 7.33325H0.333622C0.149468 7.33325 0 7.4826 0 7.66659V15.6666C0 15.8505 0.149468 15.9999 0.333622 15.9999H3.66975C3.8539 15.9999 4.00337 15.8505 4.00337 15.6665V7.66656C4.00334 7.48256 3.85456 7.33325 3.66975 7.33325Z" fill="#005FF9"/>
<path d="M9.66193 0H6.32581C6.14166 0 5.99219 0.149343 5.99219 0.333343V15.6667C5.99219 15.8507 6.14166 16 6.32581 16H9.66193C9.84609 16 9.99556 15.8507 9.99556 15.6667V0.333343C9.99556 0.149343 9.84609 0 9.66193 0Z" fill="#005FF9"/>
<path d="M15.6658 3.33325H12.3297C12.1456 3.33325 11.9961 3.4826 11.9961 3.6666V15.6666C11.9961 15.8506 12.1456 15.9999 12.3297 15.9999H15.6658C15.85 15.9999 15.9995 15.8506 15.9995 15.6666V3.6666C15.9995 3.48256 15.85 3.33325 15.6658 3.33325Z" fill="#005FF9"/>
</svg>
