<svg width="16" height="37" viewBox="0 0 16 37" fill="none" xmlns="http://www.w3.org/2000/svg">
<g clip-path="url(#clip0)">
<path d="M1.39125 23.4233C0.623022 23.4233 0 24.0463 0 24.8151C0 25.5833 0.623022 26.2058 1.39125 26.2058C2.15947 26.2058 2.78249 25.5833 2.78249 24.8151C2.78249 24.0463 2.15947 23.4233 1.39125 23.4233Z" fill="black"/>
<path d="M1.39125 27.6091C0.623022 27.6091 0 28.2316 0 29.0004C0 29.7686 0.623022 30.3916 1.39125 30.3916C2.15947 30.3916 2.78249 29.7686 2.78249 29.0004C2.78249 28.2316 2.15947 27.6091 1.39125 27.6091Z" fill="black"/>
<path d="M1.39125 31.7942C0.623022 31.7942 0 32.4172 0 33.1854C0 33.9536 0.623022 34.5766 1.39125 34.5766C2.15947 34.5766 2.78249 33.9536 2.78249 33.1854C2.78249 32.4172 2.15947 31.7942 1.39125 31.7942Z" fill="black"/>
<path d="M14.9543 23.7683H5.05789C4.48019 23.7683 4.01172 24.2368 4.01172 24.815C4.01172 25.3927 4.48015 25.8612 5.05789 25.8612H14.9543C15.5319 25.8612 16.0004 25.3927 16.0004 24.815C16.0004 24.2368 15.5319 23.7683 14.9543 23.7683Z" fill="black"/>
<path d="M14.9543 27.9536H5.05789C4.48019 27.9536 4.01172 28.422 4.01172 29.0003C4.01172 29.578 4.48015 30.0465 5.05789 30.0465H14.9543C15.5319 30.0465 16.0004 29.578 16.0004 29.0003C16.0004 28.422 15.5319 27.9536 14.9543 27.9536Z" fill="black"/>
<path d="M14.9543 32.1392H5.05789C4.48019 32.1392 4.01172 32.6076 4.01172 33.1853C4.01172 33.763 4.48015 34.2315 5.05789 34.2315H14.9543C15.5319 34.2315 16.0004 33.763 16.0004 33.1853C16.0004 32.6076 15.5319 32.1392 14.9543 32.1392Z" fill="black"/>
</g>
<g clip-path="url(#clip1)">
<path d="M1.39125 2.42334C0.623022 2.42334 0 3.04633 0 3.81511C0 4.58333 0.623022 5.2058 1.39125 5.2058C2.15947 5.2058 2.78249 4.58333 2.78249 3.81511C2.78249 3.04633 2.15947 2.42334 1.39125 2.42334Z" fill="#005FF9"/>
<path d="M1.39125 6.60913C0.623022 6.60913 0 7.2316 0 8.00038C0 8.76861 0.623022 9.3916 1.39125 9.3916C2.15947 9.3916 2.78249 8.76861 2.78249 8.00038C2.78249 7.2316 2.15947 6.60913 1.39125 6.60913Z" fill="#005FF9"/>
<path d="M1.39125 10.7942C0.623022 10.7942 0 11.4172 0 12.1854C0 12.9536 0.623022 13.5766 1.39125 13.5766C2.15947 13.5766 2.78249 12.9536 2.78249 12.1854C2.78249 11.4172 2.15947 10.7942 1.39125 10.7942Z" fill="#005FF9"/>
<path d="M14.9543 2.76831H5.05789C4.48019 2.76831 4.01172 3.23678 4.01172 3.81501C4.01172 4.39275 4.48015 4.86118 5.05789 4.86118H14.9543C15.5319 4.86118 16.0004 4.39275 16.0004 3.81501C16.0004 3.23678 15.5319 2.76831 14.9543 2.76831Z" fill="#005FF9"/>
<path d="M14.9543 6.95361H5.05789C4.48019 6.95361 4.01172 7.42205 4.01172 8.00031C4.01172 8.57805 4.48015 9.04648 5.05789 9.04648H14.9543C15.5319 9.04648 16.0004 8.57805 16.0004 8.00031C16.0004 7.42205 15.5319 6.95361 14.9543 6.95361Z" fill="#005FF9"/>
<path d="M14.9543 11.1392H5.05789C4.48019 11.1392 4.01172 11.6076 4.01172 12.1853C4.01172 12.763 4.48015 13.2315 5.05789 13.2315H14.9543C15.5319 13.2315 16.0004 12.763 16.0004 12.1853C16.0004 11.6076 15.5319 11.1392 14.9543 11.1392Z" fill="#005FF9"/>
</g>
<defs>
<clipPath id="clip0">
<rect width="16" height="16" fill="white" transform="translate(0 21)"/>
</clipPath>
<clipPath id="clip1">
<rect width="16" height="16" fill="white"/>
</clipPath>
</defs>
</svg>
