<svg width="14" height="14" viewBox="0 0 14 14" fill="none" xmlns="http://www.w3.org/2000/svg">
<path d="M7.77345 7.00003L13.8398 0.933604C14.0534 0.720022 14.0534 0.373741 13.8398 0.160186C13.6263 -0.0533681 13.28 -0.0533955 13.0664 0.160186L7 6.22661L0.933604 0.160186C0.720022 -0.0533955 0.373741 -0.0533955 0.160186 0.160186C-0.0533681 0.373768 -0.0533955 0.720049 0.160186 0.933604L6.22658 7L0.160186 13.0664C-0.0533955 13.28 -0.0533955 13.6263 0.160186 13.8398C0.266964 13.9466 0.406936 14 0.546909 14C0.686881 14 0.826827 13.9466 0.933631 13.8398L7 7.77345L13.0664 13.8398C13.1732 13.9466 13.3132 14 13.4531 14C13.5931 14 13.733 13.9466 13.8398 13.8398C14.0534 13.6263 14.0534 13.28 13.8398 13.0664L7.77345 7.00003Z" fill="#FB0D0D"/>
</svg>
