<svg width="10" height="10" viewBox="0 0 10 10" fill="none" xmlns="http://www.w3.org/2000/svg">
<path d="M8.75491 0.0668476C8.71153 0.0234699 8.65256 -0.000636785 8.59121 1.27957e-05C8.53008 0.000445856 8.47154 0.024336 8.42759 0.0668476L5.12641 3.36788L5.11725 3.37719L5.11263 3.38181C5.10808 3.38874 5.10115 3.39567 5.09653 3.40252C5.09653 3.40483 5.09422 3.40483 5.09422 3.40714C5.0896 3.414 5.08722 3.41869 5.08268 3.42555C5.08029 3.42786 5.08029 3.43024 5.07806 3.43248C5.07575 3.4394 5.07351 3.44402 5.07113 3.45095C5.07113 3.45326 5.06882 3.45326 5.06882 3.4555L4.48095 5.22828C4.4528 5.31078 4.47423 5.40223 4.53638 5.46343C4.5799 5.50637 4.63872 5.53041 4.69993 5.53027C4.72497 5.52976 4.74987 5.52593 4.77376 5.51872L6.54193 4.92861C6.54416 4.92861 6.54416 4.92861 6.54647 4.9263C6.55376 4.92421 6.56084 4.9211 6.56719 4.91713C6.56899 4.91684 6.57065 4.91605 6.57188 4.91475C6.57873 4.9102 6.58797 4.90558 6.5949 4.90089C6.60176 4.89627 6.60869 4.88934 6.61562 4.8848C6.618 4.88256 6.62024 4.88256 6.62024 4.88018C6.62255 4.87787 6.62716 4.87556 6.62955 4.87101L9.93282 1.5676C9.97605 1.52444 10.0003 1.46598 10.0003 1.40506C10.0003 1.34407 9.97605 1.28554 9.93282 1.24252L8.75491 0.0668476ZM5.38928 3.95806L6.04167 4.61046L5.0642 4.93546L5.38928 3.95806ZM6.46816 4.38455L5.61519 3.53165L8.59121 0.55555L9.44411 1.40845L6.46816 4.38455Z" fill="white"/>
<path d="M8.21122 4.30829C8.08405 4.30865 7.98105 4.41165 7.98069 4.53882V8.84735C7.97961 9.2288 7.6707 9.53771 7.2891 9.53894H1.15265C0.771198 9.53771 0.462142 9.2288 0.461059 8.84735V2.71075C0.462142 2.3293 0.771198 2.02032 1.15265 2.01916H5.46104C5.58843 2.01916 5.69157 1.91595 5.69157 1.78863C5.69157 1.66132 5.58843 1.55811 5.46104 1.55811H1.15265C0.516129 1.55839 0.000288703 2.07431 0 2.71075V8.84735C0.000288703 9.4838 0.516129 9.99971 1.15265 9.99993H7.2891C7.92562 9.99971 8.44153 9.4838 8.44175 8.84735V4.53882C8.44139 4.41165 8.3384 4.30865 8.21122 4.30829Z" fill="white"/>
</svg>
