<svg width="12" height="29" viewBox="0 0 12 29" fill="none" xmlns="http://www.w3.org/2000/svg">
<path d="M11.2805 5.28035L6.61371 5.29446V0.719523C6.61371 0.3209 6.29281 0 5.89419 0C5.49569 0 5.17467 0.3209 5.17467 0.719523L5.18877 5.28048H0.719523C0.3209 5.28048 0 5.60138 0 6C0 6.39849 0.3209 6.71939 0.719523 6.71939H5.18172V11.2805C5.18172 11.6788 5.50262 12 5.90124 12C6.29987 12 6.62076 11.6788 6.62076 11.2805V6.71952H11.2805C11.6791 6.71952 12 6.39837 12 6C12 5.60125 11.6755 5.28035 11.2805 5.28035Z" fill="black"/>
<path d="M11.2805 22.2803L6.61371 22.2945V17.7195C6.61371 17.3209 6.29281 17 5.89419 17C5.49569 17 5.17467 17.3209 5.17467 17.7195L5.18877 22.2805H0.719523C0.3209 22.2805 0 22.6014 0 23C0 23.3985 0.3209 23.7194 0.719523 23.7194H5.18172V28.2805C5.18172 28.6788 5.50262 29 5.90124 29C6.29987 29 6.62076 28.6788 6.62076 28.2805V23.7195H11.2805C11.6791 23.7195 12 23.3984 12 23C12 22.6012 11.6755 22.2803 11.2805 22.2803Z" fill="white"/>
</svg>
