<svg width="13" height="16" viewBox="0 0 13 16" fill="none" xmlns="http://www.w3.org/2000/svg">
<path d="M8.71177 5.79688C8.50472 5.79688 8.33691 5.96462 8.33691 6.17158V13.2535C8.33691 13.4604 8.50472 13.6283 8.71177 13.6283C8.91882 13.6283 9.08662 13.4604 9.08662 13.2535V6.17158C9.08662 5.96462 8.91882 5.79688 8.71177 5.79688Z" fill="#FF453A"/>
<path d="M4.28843 5.79688C4.08138 5.79688 3.91357 5.96462 3.91357 6.17158V13.2535C3.91357 13.4604 4.08138 13.6283 4.28843 13.6283C4.49548 13.6283 4.66328 13.4604 4.66328 13.2535V6.17158C4.66328 5.96462 4.49548 5.79688 4.28843 5.79688Z" fill="#FF453A"/>
<path d="M1.06464 4.76335V13.9953C1.06464 14.541 1.26481 15.0534 1.61447 15.4211C1.96253 15.7898 2.44691 15.9991 2.95384 16H10.0462C10.5532 15.9991 11.0376 15.7898 11.3855 15.4211C11.7352 15.0534 11.9354 14.541 11.9354 13.9953V4.76335C12.6304 4.57893 13.0809 3.90768 12.9879 3.19471C12.8947 2.48189 12.2872 1.94867 11.568 1.94852H9.64876V1.48014C9.65096 1.08626 9.49516 0.708039 9.21622 0.42979C8.93727 0.151688 8.55832 -0.0031709 8.16429 4.92333e-05H4.83571C4.44168 -0.0031709 4.06273 0.151688 3.78379 0.42979C3.50484 0.708039 3.34904 1.08626 3.35124 1.48014V1.94852H1.43203C0.712778 1.94867 0.105254 2.48189 0.0121267 3.19471C-0.0808542 3.90768 0.369554 4.57893 1.06464 4.76335ZM10.0462 15.2506H2.95384C2.31293 15.2506 1.81435 14.7002 1.81435 13.9953V4.79629H11.1857V13.9953C11.1857 14.7002 10.6871 15.2506 10.0462 15.2506ZM4.10095 1.48014C4.09846 1.28503 4.17518 1.09724 4.3137 0.959502C4.45208 0.821768 4.64038 0.746095 4.83571 0.749461H8.16429C8.35962 0.746095 8.54792 0.821768 8.6863 0.959502C8.82482 1.09709 8.90154 1.28503 8.89905 1.48014V1.94852H4.10095V1.48014ZM1.43203 2.69793H11.568C11.9406 2.69793 12.2427 2.99989 12.2427 3.3724C12.2427 3.74492 11.9406 4.04688 11.568 4.04688H1.43203C1.05937 4.04688 0.757292 3.74492 0.757292 3.3724C0.757292 2.99989 1.05937 2.69793 1.43203 2.69793Z" fill="#FF453A"/>
<path d="M6.49985 5.79688C6.29281 5.79688 6.125 5.96462 6.125 6.17158V13.2535C6.125 13.4604 6.29281 13.6283 6.49985 13.6283C6.7069 13.6283 6.87471 13.4604 6.87471 13.2535V6.17158C6.87471 5.96462 6.7069 5.79688 6.49985 5.79688Z" fill="#FF453A"/>
</svg>
