<svg width="16" height="37" viewBox="0 0 16 37" fill="none" xmlns="http://www.w3.org/2000/svg">
<g clip-path="url(#clip0)">
<path d="M14.9773 7.68872C14.9271 7.67817 14.8796 7.66824 14.8375 7.65728C14.3594 7.53295 14.1411 7.4648 13.9798 7.15329L13.3687 5.91597C13.1722 5.5368 12.6651 5.2283 12.2381 5.2283H11.15V3.7995C11.15 3.54296 10.9413 3.33423 10.6847 3.33423L3.10641 3.34184C2.85672 3.34184 2.66843 3.54026 2.66843 3.80341V4.22572H0.727075C0.326177 4.22576 0 4.5519 0 4.95283C0 5.35376 0.326177 5.67991 0.727075 5.67991H2.6684V6.37678H1.39735C0.99645 6.37678 0.670273 6.70296 0.670273 7.10386C0.670273 7.50475 0.99645 7.83093 1.39735 7.83093H2.6684V8.52781H2.06762C1.66672 8.52781 1.34055 8.85398 1.34055 9.25488C1.34055 9.65578 1.66672 9.98196 2.06762 9.98196H2.6684V10.7108C2.6684 10.9674 2.87713 11.1761 3.13367 11.1761H3.92198C4.04475 12.0175 4.77096 12.6658 5.64598 12.6658C6.52108 12.6658 7.24733 12.0175 7.37013 11.1761H10.5604C10.577 11.1761 10.594 11.175 10.6109 11.1739C10.7328 12.0164 11.4594 12.6658 12.3352 12.6658C13.2103 12.6658 13.9366 12.0175 14.0594 11.1761H15.1917C15.6374 11.1761 16 10.8135 16 10.3678V8.99626C16 7.9033 15.3845 7.77416 14.9773 7.68872ZM12.3352 10.29C12.6846 10.29 12.9689 10.5742 12.9689 10.9235C12.9689 11.2728 12.6846 11.5569 12.3352 11.5569C11.986 11.5569 11.7018 11.2728 11.7018 10.9235C11.7018 10.5742 11.986 10.29 12.3352 10.29ZM11.15 7.5902V5.9031H11.9815C12.3011 5.9031 12.6953 6.1429 12.8416 6.42525L13.3855 7.52631C13.397 7.54858 13.409 7.56982 13.4214 7.59016H11.15V7.5902ZM6.27962 10.9234C6.27962 11.2727 5.99537 11.5569 5.64598 11.5569C5.29673 11.5569 5.01262 11.2727 5.01262 10.9234C5.01262 10.5742 5.29673 10.29 5.64598 10.29C5.99537 10.29 6.27962 10.5742 6.27962 10.9234Z" fill="#005FF9"/>
</g>
<g clip-path="url(#clip1)">
<path d="M14.9773 28.6887C14.9271 28.6782 14.8796 28.6682 14.8375 28.6573C14.3594 28.5329 14.1411 28.4648 13.9798 28.1533L13.3687 26.916C13.1722 26.5368 12.6651 26.2283 12.2381 26.2283H11.15V24.7995C11.15 24.543 10.9413 24.3342 10.6847 24.3342L3.10641 24.3418C2.85672 24.3418 2.66843 24.5403 2.66843 24.8034V25.2257H0.727075C0.326177 25.2258 0 25.5519 0 25.9528C0 26.3538 0.326177 26.6799 0.727075 26.6799H2.6684V27.3768H1.39735C0.99645 27.3768 0.670273 27.703 0.670273 28.1039C0.670273 28.5048 0.99645 28.8309 1.39735 28.8309H2.6684V29.5278H2.06762C1.66672 29.5278 1.34055 29.854 1.34055 30.2549C1.34055 30.6558 1.66672 30.982 2.06762 30.982H2.6684V31.7108C2.6684 31.9674 2.87713 32.1761 3.13367 32.1761H3.92198C4.04475 33.0175 4.77096 33.6658 5.64598 33.6658C6.52108 33.6658 7.24733 33.0175 7.37013 32.1761H10.5604C10.577 32.1761 10.594 32.175 10.6109 32.1739C10.7328 33.0164 11.4594 33.6658 12.3352 33.6658C13.2103 33.6658 13.9366 33.0175 14.0594 32.1761H15.1917C15.6374 32.1761 16 31.8135 16 31.3678V29.9963C16 28.9033 15.3845 28.7742 14.9773 28.6887ZM12.3352 31.29C12.6846 31.29 12.9689 31.5742 12.9689 31.9235C12.9689 32.2728 12.6846 32.5569 12.3352 32.5569C11.986 32.5569 11.7018 32.2728 11.7018 31.9235C11.7018 31.5742 11.986 31.29 12.3352 31.29ZM11.15 28.5902V26.9031H11.9815C12.3011 26.9031 12.6953 27.1429 12.8416 27.4252L13.3855 28.5263C13.397 28.5486 13.409 28.5698 13.4214 28.5902H11.15V28.5902ZM6.27962 31.9234C6.27962 32.2727 5.99537 32.5569 5.64598 32.5569C5.29673 32.5569 5.01262 32.2727 5.01262 31.9234C5.01262 31.5742 5.29673 31.29 5.64598 31.29C5.99537 31.29 6.27962 31.5742 6.27962 31.9234Z" fill="black"/>
</g>
<defs>
<clipPath id="clip0">
<rect width="16" height="16" fill="white"/>
</clipPath>
<clipPath id="clip1">
<rect width="16" height="16" fill="white" transform="translate(0 21)"/>
</clipPath>
</defs>
</svg>
