<svg width="16" height="16" viewBox="0 0 16 16" fill="none" xmlns="http://www.w3.org/2000/svg">
<path d="M14.7674 10.0409C14.5473 10.0409 14.3689 10.2202 14.3689 10.4414V13.9973C14.3681 14.6607 13.8334 15.1982 13.1734 15.1988H1.99241C1.33243 15.1982 0.797743 14.6607 0.796965 13.9973V3.56083C0.797743 2.89766 1.33243 2.36012 1.99241 2.35934H5.5305C5.7506 2.35934 5.92898 2.18006 5.92898 1.95885C5.92898 1.73779 5.7506 1.55835 5.5305 1.55835H1.99241C0.892538 1.5596 0.00124526 2.4554 0 3.56083V13.9975C0.00124526 15.1029 0.892538 15.9987 1.99241 16H13.1734C14.2733 15.9987 15.1646 15.1029 15.1658 13.9975V10.4414C15.1658 10.2202 14.9875 10.0409 14.7674 10.0409Z" fill="#005FF9"/>
<path d="M15.0079 0.52788C14.3076 -0.17596 13.1722 -0.17596 12.4719 0.52788L5.36272 7.67297C5.314 7.72194 5.27882 7.78264 5.26045 7.84929L4.32558 11.2415C4.28713 11.3805 4.3262 11.5295 4.42769 11.6316C4.52933 11.7336 4.67752 11.7729 4.8159 11.7344L8.19101 10.7947C8.25732 10.7762 8.31772 10.7408 8.36644 10.6919L15.4755 3.54662C16.1747 2.84231 16.1747 1.70215 15.4755 0.997837L15.0079 0.52788ZM6.23098 7.9333L12.0493 2.08543L13.9257 3.97136L8.10727 9.81922L6.23098 7.9333ZM5.85615 8.68923L7.35529 10.1961L5.28162 10.7735L5.85615 8.68923ZM14.912 2.98029L14.4894 3.40504L12.6128 1.51895L13.0355 1.09421C13.4245 0.703253 14.0552 0.703253 14.4442 1.09421L14.912 1.56416C15.3003 1.95558 15.3003 2.58902 14.912 2.98029Z" fill="#005FF9"/>
</svg>
