<svg width="14" height="14" viewBox="0 0 14 14" fill="none" xmlns="http://www.w3.org/2000/svg">
<path d="M6.97676 12.8334H1.74418C1.42324 12.8334 1.16279 12.572 1.16279 12.25V1.75002C1.16279 1.42801 1.42327 1.1667 1.74418 1.1667H6.97676C7.29827 1.1667 7.55814 0.905955 7.55814 0.583376C7.55814 0.260796 7.29827 0 6.97676 0H1.74418C0.782551 0 0 0.785187 0 1.75002V12.25C0 13.2148 0.782551 14 1.74418 14H6.97676C7.29827 14 7.55814 13.7393 7.55814 13.4167C7.55814 13.0941 7.29827 12.8334 6.97676 12.8334Z" fill="black"/>
<path d="M13.8268 6.58469L10.2919 3.08469C10.064 2.85835 9.6954 2.86128 9.46981 3.09053C9.24423 3.31978 9.24655 3.68902 9.47564 3.91536L12.0018 6.41668H5.2326C4.91109 6.41668 4.65121 6.67742 4.65121 7C4.65121 7.32258 4.91109 7.58335 5.2326 7.58335H12.0018L9.47564 10.0847C9.24658 10.311 9.24483 10.6803 9.46981 10.9095C9.58375 11.025 9.73376 11.0833 9.88377 11.0833C10.0315 11.0833 10.1791 11.0273 10.2919 10.9153L13.8268 7.41531C13.9373 7.30566 14 7.1563 14 6.99998C14 6.84371 13.9378 6.69495 13.8268 6.58469Z" fill="black"/>
</svg>
