<svg width="18" height="41" viewBox="0 0 18 41" fill="none" xmlns="http://www.w3.org/2000/svg">
<path d="M9 7.2V10.8H14.0922C13.3488 12.8952 11.3472 14.4 9 14.4C6.0228 14.4 3.6 11.9772 3.6 9C3.6 6.0228 6.0228 3.6 9 3.6C10.2906 3.6 11.5326 4.0626 12.4974 4.9032L14.8626 2.1888C13.2426 0.7776 11.1618 0 9 0C4.0374 0 0 4.0374 0 9C0 13.9626 4.0374 18 9 18C13.9626 18 18 13.9626 18 9V7.2H9Z" fill="white"/>
<path d="M9 30.2V33.8H14.0922C13.3488 35.8952 11.3472 37.4 9 37.4C6.0228 37.4 3.6 34.9772 3.6 32C3.6 29.0228 6.0228 26.6 9 26.6C10.2906 26.6 11.5326 27.0626 12.4974 27.9032L14.8626 25.1888C13.2426 23.7776 11.1618 23 9 23C4.0374 23 0 27.0374 0 32C0 36.9626 4.0374 41 9 41C13.9626 41 18 36.9626 18 32V30.2H9Z" fill="#F44335"/>
</svg>
