<svg width="16" height="38" viewBox="0 0 16 38" fill="none" xmlns="http://www.w3.org/2000/svg">
<path d="M12.6666 8.03064C12.298 8.03064 12 8.32935 12 8.69727V14.0306C12 14.3979 11.7013 14.6973 11.3334 14.6973H2C1.63196 14.6973 1.33337 14.3979 1.33337 14.0306V4.69727C1.33337 4.32996 1.63196 4.03064 2 4.03064H7.33337C7.70203 4.03064 8 3.73193 8 3.36401C8 2.99597 7.70203 2.69727 7.33337 2.69727H2C0.897339 2.69727 0 3.5946 0 4.69727V14.0306C0 15.1333 0.897339 16.0306 2 16.0306H11.3334C12.436 16.0306 13.3334 15.1333 13.3334 14.0306V8.69727C13.3334 8.32861 13.0353 8.03064 12.6666 8.03064Z" fill="#005FF9"/>
<path d="M6.25075 7.42358C6.20412 7.47021 6.17275 7.52954 6.15944 7.59351L5.68813 9.95093C5.66616 10.0602 5.70082 10.1729 5.77944 10.2522C5.84279 10.3156 5.92812 10.3495 6.01552 10.3495C6.03676 10.3495 6.05886 10.3475 6.08083 10.3429L8.43752 9.87158C8.50283 9.85815 8.56215 9.8269 8.60817 9.78015L13.8828 4.50549L11.5261 2.14893L6.25075 7.42358Z" fill="#005FF9"/>
<path d="M15.5117 0.518768C14.8618 -0.131256 13.8044 -0.131256 13.155 0.518768L12.2324 1.44138L14.5891 3.79807L15.5117 2.87534C15.8264 2.56137 15.9998 2.14267 15.9998 1.69736C15.9998 1.25204 15.8264 0.833344 15.5117 0.518768Z" fill="#005FF9"/>
<path d="M12.6666 29.0306C12.298 29.0306 12 29.3293 12 29.6973V35.0306C12 35.3979 11.7013 35.6973 11.3334 35.6973H2C1.63196 35.6973 1.33337 35.3979 1.33337 35.0306V25.6973C1.33337 25.33 1.63196 25.0306 2 25.0306H7.33337C7.70203 25.0306 8 24.7319 8 24.364C8 23.996 7.70203 23.6973 7.33337 23.6973H2C0.897339 23.6973 0 24.5946 0 25.6973V35.0306C0 36.1333 0.897339 37.0306 2 37.0306H11.3334C12.436 37.0306 13.3334 36.1333 13.3334 35.0306V29.6973C13.3334 29.3286 13.0353 29.0306 12.6666 29.0306Z" fill="black"/>
<path d="M6.25075 28.4236C6.20412 28.4702 6.17275 28.5295 6.15944 28.5935L5.68813 30.9509C5.66616 31.0602 5.70082 31.1729 5.77944 31.2522C5.84279 31.3156 5.92812 31.3495 6.01552 31.3495C6.03676 31.3495 6.05886 31.3475 6.08083 31.3429L8.43752 30.8716C8.50283 30.8582 8.56215 30.8269 8.60817 30.7802L13.8828 25.5055L11.5261 23.1489L6.25075 28.4236Z" fill="black"/>
<path d="M15.5117 21.5188C14.8618 20.8687 13.8044 20.8687 13.155 21.5188L12.2324 22.4414L14.5891 24.7981L15.5117 23.8753C15.8264 23.5614 15.9998 23.1427 15.9998 22.6974C15.9998 22.252 15.8264 21.8333 15.5117 21.5188Z" fill="black"/>
</svg>
