<svg width="17" height="14" viewBox="0 0 17 14" fill="none" xmlns="http://www.w3.org/2000/svg">
<path d="M16.2917 6.30009H2.16077L7.57173 1.20696C7.85506 0.940259 7.86604 0.497165 7.59617 0.217168C7.32665 -0.0624786 6.87827 -0.0736785 6.59458 0.193018L0.415083 6.00995C0.147687 6.27454 0 6.62594 0 7.00009C0 7.37388 0.147687 7.72563 0.427479 8.00177L6.59494 13.8068C6.732 13.936 6.90767 14 7.08333 14C7.27033 14 7.45733 13.9272 7.59652 13.7827C7.8664 13.5027 7.85542 13.0599 7.57208 12.7932L2.13846 7.70008H16.2917C16.6827 7.70008 17 7.38648 17 7.00009C17 6.61369 16.6827 6.30009 16.2917 6.30009V6.30009Z" fill="black"/>
</svg>
