<svg width="24" height="48" viewBox="0 0 24 48" fill="none" xmlns="http://www.w3.org/2000/svg">
<path d="M19.9999 8.18V3C19.9999 2.73478 19.8946 2.48043 19.707 2.29289C19.5195 2.10536 19.2651 2 18.9999 2C18.7347 2 18.4803 2.10536 18.2928 2.29289C18.1053 2.48043 17.9999 2.73478 17.9999 3V8.18C17.4208 8.3902 16.9204 8.77363 16.5668 9.27816C16.2131 9.7827 16.0234 10.3839 16.0234 11C16.0234 11.6161 16.2131 12.2173 16.5668 12.7218C16.9204 13.2264 17.4208 13.6098 17.9999 13.82V21C17.9999 21.2652 18.1053 21.5196 18.2928 21.7071C18.4803 21.8946 18.7347 22 18.9999 22C19.2651 22 19.5195 21.8946 19.707 21.7071C19.8946 21.5196 19.9999 21.2652 19.9999 21V13.82C20.5791 13.6098 21.0795 13.2264 21.4331 12.7218C21.7867 12.2173 21.9764 11.6161 21.9764 11C21.9764 10.3839 21.7867 9.7827 21.4331 9.27816C21.0795 8.77363 20.5791 8.3902 19.9999 8.18V8.18ZM18.9999 12C18.8021 12 18.6088 11.9414 18.4443 11.8315C18.2799 11.7216 18.1517 11.5654 18.076 11.3827C18.0003 11.2 17.9805 10.9989 18.0191 10.8049C18.0577 10.6109 18.153 10.4327 18.2928 10.2929C18.4327 10.153 18.6108 10.0578 18.8048 10.0192C18.9988 9.98063 19.1999 10.0004 19.3826 10.0761C19.5653 10.1518 19.7215 10.28 19.8314 10.4444C19.9413 10.6089 19.9999 10.8022 19.9999 11C19.9999 11.2652 19.8946 11.5196 19.707 11.7071C19.5195 11.8946 19.2651 12 18.9999 12ZM12.9999 14.18V3C12.9999 2.73478 12.8946 2.48043 12.707 2.29289C12.5195 2.10536 12.2651 2 11.9999 2C11.7347 2 11.4803 2.10536 11.2928 2.29289C11.1053 2.48043 10.9999 2.73478 10.9999 3V14.18C10.4208 14.3902 9.92037 14.7736 9.56676 15.2782C9.21314 15.7827 9.02344 16.3839 9.02344 17C9.02344 17.6161 9.21314 18.2173 9.56676 18.7218C9.92037 19.2264 10.4208 19.6098 10.9999 19.82V21C10.9999 21.2652 11.1053 21.5196 11.2928 21.7071C11.4803 21.8946 11.7347 22 11.9999 22C12.2651 22 12.5195 21.8946 12.707 21.7071C12.8946 21.5196 12.9999 21.2652 12.9999 21V19.82C13.5791 19.6098 14.0795 19.2264 14.4331 18.7218C14.7867 18.2173 14.9764 17.6161 14.9764 17C14.9764 16.3839 14.7867 15.7827 14.4331 15.2782C14.0795 14.7736 13.5791 14.3902 12.9999 14.18ZM11.9999 18C11.8021 18 11.6088 17.9414 11.4443 17.8315C11.2799 17.7216 11.1517 17.5654 11.076 17.3827C11.0003 17.2 10.9805 16.9989 11.0191 16.8049C11.0577 16.6109 11.153 16.4327 11.2928 16.2929C11.4327 16.153 11.6108 16.0578 11.8048 16.0192C11.9988 15.9806 12.1999 16.0004 12.3826 16.0761C12.5653 16.1518 12.7215 16.28 12.8314 16.4444C12.9413 16.6089 12.9999 16.8022 12.9999 17C12.9999 17.2652 12.8946 17.5196 12.707 17.7071C12.5195 17.8946 12.2651 18 11.9999 18ZM5.99991 6.18V3C5.99991 2.73478 5.89456 2.48043 5.70702 2.29289C5.51948 2.10536 5.26513 2 4.99991 2C4.7347 2 4.48034 2.10536 4.29281 2.29289C4.10527 2.48043 3.99991 2.73478 3.99991 3V6.18C3.42076 6.3902 2.92037 6.77363 2.56676 7.27817C2.21314 7.7827 2.02344 8.38388 2.02344 9C2.02344 9.61612 2.21314 10.2173 2.56676 10.7218C2.92037 11.2264 3.42076 11.6098 3.99991 11.82V21C3.99991 21.2652 4.10527 21.5196 4.29281 21.7071C4.48034 21.8946 4.7347 22 4.99991 22C5.26513 22 5.51948 21.8946 5.70702 21.7071C5.89456 21.5196 5.99991 21.2652 5.99991 21V11.82C6.57907 11.6098 7.07945 11.2264 7.43307 10.7218C7.78669 10.2173 7.97639 9.61612 7.97639 9C7.97639 8.38388 7.78669 7.7827 7.43307 7.27817C7.07945 6.77363 6.57907 6.3902 5.99991 6.18V6.18ZM4.99991 10C4.80213 10 4.60879 9.94135 4.44434 9.83147C4.27989 9.72159 4.15172 9.56541 4.07603 9.38268C4.00035 9.19996 3.98054 8.99889 4.01913 8.80491C4.05771 8.61093 4.15296 8.43275 4.29281 8.29289C4.43266 8.15304 4.61084 8.0578 4.80482 8.01921C4.9988 7.98063 5.19987 8.00043 5.3826 8.07612C5.56532 8.15181 5.7215 8.27998 5.83138 8.44443C5.94127 8.60888 5.99991 8.80222 5.99991 9C5.99991 9.26522 5.89456 9.51957 5.70702 9.70711C5.51948 9.89464 5.26513 10 4.99991 10Z" fill="black"/>
<path d="M19.9999 32.18V27C19.9999 26.7348 19.8946 26.4804 19.707 26.2929C19.5195 26.1054 19.2651 26 18.9999 26C18.7347 26 18.4803 26.1054 18.2928 26.2929C18.1053 26.4804 17.9999 26.7348 17.9999 27V32.18C17.4208 32.3902 16.9204 32.7736 16.5668 33.2782C16.2131 33.7827 16.0234 34.3839 16.0234 35C16.0234 35.6161 16.2131 36.2173 16.5668 36.7218C16.9204 37.2264 17.4208 37.6098 17.9999 37.82V45C17.9999 45.2652 18.1053 45.5196 18.2928 45.7071C18.4803 45.8946 18.7347 46 18.9999 46C19.2651 46 19.5195 45.8946 19.707 45.7071C19.8946 45.5196 19.9999 45.2652 19.9999 45V37.82C20.5791 37.6098 21.0795 37.2264 21.4331 36.7218C21.7867 36.2173 21.9764 35.6161 21.9764 35C21.9764 34.3839 21.7867 33.7827 21.4331 33.2782C21.0795 32.7736 20.5791 32.3902 19.9999 32.18V32.18ZM18.9999 36C18.8021 36 18.6088 35.9414 18.4443 35.8315C18.2799 35.7216 18.1517 35.5654 18.076 35.3827C18.0003 35.2 17.9805 34.9989 18.0191 34.8049C18.0577 34.6109 18.153 34.4327 18.2928 34.2929C18.4327 34.153 18.6108 34.0578 18.8048 34.0192C18.9988 33.9806 19.1999 34.0004 19.3826 34.0761C19.5653 34.1518 19.7215 34.28 19.8314 34.4444C19.9413 34.6089 19.9999 34.8022 19.9999 35C19.9999 35.2652 19.8946 35.5196 19.707 35.7071C19.5195 35.8946 19.2651 36 18.9999 36ZM12.9999 38.18V27C12.9999 26.7348 12.8946 26.4804 12.707 26.2929C12.5195 26.1054 12.2651 26 11.9999 26C11.7347 26 11.4803 26.1054 11.2928 26.2929C11.1053 26.4804 10.9999 26.7348 10.9999 27V38.18C10.4208 38.3902 9.92037 38.7736 9.56676 39.2782C9.21314 39.7827 9.02344 40.3839 9.02344 41C9.02344 41.6161 9.21314 42.2173 9.56676 42.7218C9.92037 43.2264 10.4208 43.6098 10.9999 43.82V45C10.9999 45.2652 11.1053 45.5196 11.2928 45.7071C11.4803 45.8946 11.7347 46 11.9999 46C12.2651 46 12.5195 45.8946 12.707 45.7071C12.8946 45.5196 12.9999 45.2652 12.9999 45V43.82C13.5791 43.6098 14.0795 43.2264 14.4331 42.7218C14.7867 42.2173 14.9764 41.6161 14.9764 41C14.9764 40.3839 14.7867 39.7827 14.4331 39.2782C14.0795 38.7736 13.5791 38.3902 12.9999 38.18ZM11.9999 42C11.8021 42 11.6088 41.9414 11.4443 41.8315C11.2799 41.7216 11.1517 41.5654 11.076 41.3827C11.0003 41.2 10.9805 40.9989 11.0191 40.8049C11.0577 40.6109 11.153 40.4327 11.2928 40.2929C11.4327 40.153 11.6108 40.0578 11.8048 40.0192C11.9988 39.9806 12.1999 40.0004 12.3826 40.0761C12.5653 40.1518 12.7215 40.28 12.8314 40.4444C12.9413 40.6089 12.9999 40.8022 12.9999 41C12.9999 41.2652 12.8946 41.5196 12.707 41.7071C12.5195 41.8946 12.2651 42 11.9999 42ZM5.99991 30.18V27C5.99991 26.7348 5.89456 26.4804 5.70702 26.2929C5.51948 26.1054 5.26513 26 4.99991 26C4.7347 26 4.48034 26.1054 4.29281 26.2929C4.10527 26.4804 3.99991 26.7348 3.99991 27V30.18C3.42076 30.3902 2.92037 30.7736 2.56676 31.2782C2.21314 31.7827 2.02344 32.3839 2.02344 33C2.02344 33.6161 2.21314 34.2173 2.56676 34.7218C2.92037 35.2264 3.42076 35.6098 3.99991 35.82V45C3.99991 45.2652 4.10527 45.5196 4.29281 45.7071C4.48034 45.8946 4.7347 46 4.99991 46C5.26513 46 5.51948 45.8946 5.70702 45.7071C5.89456 45.5196 5.99991 45.2652 5.99991 45V35.82C6.57907 35.6098 7.07945 35.2264 7.43307 34.7218C7.78669 34.2173 7.97639 33.6161 7.97639 33C7.97639 32.3839 7.78669 31.7827 7.43307 31.2782C7.07945 30.7736 6.57907 30.3902 5.99991 30.18V30.18ZM4.99991 34C4.80213 34 4.60879 33.9414 4.44434 33.8315C4.27989 33.7216 4.15172 33.5654 4.07603 33.3827C4.00035 33.2 3.98054 32.9989 4.01913 32.8049C4.05771 32.6109 4.15296 32.4327 4.29281 32.2929C4.43266 32.153 4.61084 32.0578 4.80482 32.0192C4.9988 31.9806 5.19987 32.0004 5.3826 32.0761C5.56532 32.1518 5.7215 32.28 5.83138 32.4444C5.94127 32.6089 5.99991 32.8022 5.99991 33C5.99991 33.2652 5.89456 33.5196 5.70702 33.7071C5.51948 33.8946 5.26513 34 4.99991 34Z" fill="#003894"/>
</svg>
