<svg width="16" height="37" viewBox="0 0 16 37" fill="none" xmlns="http://www.w3.org/2000/svg">
<path d="M14.8386 26.9567L14.0583 26.8243C13.9889 26.631 13.9104 26.4413 13.8236 26.2568L14.2831 25.614C14.6829 25.0524 14.6187 24.2938 14.132 23.8119L13.1943 22.8741C12.9293 22.6091 12.578 22.4631 12.2052 22.4631C11.9116 22.4631 11.6309 22.5536 11.3953 22.7231L10.75 23.1827C10.5504 23.0884 10.3479 23.005 10.144 22.933L10.015 22.1685C9.90149 21.4913 9.32068 21 8.63391 21H7.3092C6.62256 21 6.04175 21.4913 5.92847 22.1671L5.79285 22.9615C5.60132 23.0315 5.41248 23.111 5.22754 23.1997L4.59399 22.7434C4.35645 22.5724 4.07458 22.4821 3.77881 22.4821C3.40234 22.4821 3.0509 22.6283 2.78882 22.8939L1.849 23.8307C1.36365 24.316 1.30005 25.074 1.69788 25.6328L2.16479 26.2888C2.07874 26.474 2.00134 26.6646 1.93298 26.859L1.16833 26.988C0.491333 27.1017 0 27.6825 0 28.3691V29.6938C0 30.3805 0.491333 30.9613 1.16711 31.0747L1.96155 31.2102C2.03149 31.4019 2.11108 31.5908 2.19971 31.7756L1.74512 32.408C1.34534 32.9696 1.40955 33.7283 1.89624 34.2101L2.83386 35.1478C3.09888 35.4128 3.4502 35.5588 3.823 35.5588C4.11658 35.5588 4.39734 35.4684 4.63281 35.299L5.28882 34.832C5.46118 34.9121 5.63989 34.9855 5.82336 35.0515L5.95337 35.8317C6.06702 36.5087 6.64783 37 7.33447 37H8.66223C9.34888 37 9.92981 36.5087 10.0432 35.8325L10.1755 35.0521C10.3689 34.9827 10.5586 34.9042 10.743 34.8174L11.3838 35.2754C11.6213 35.4464 11.9032 35.5369 12.199 35.5369C12.5717 35.5369 12.923 35.3909 13.188 35.1259L14.1256 34.1881C14.6111 33.7028 14.6746 32.9448 14.2767 32.386L13.8168 31.7401C13.9059 31.5514 13.9846 31.3618 14.0524 31.1733L14.8315 31.0435C15.5085 30.9298 15.9999 30.349 15.9999 29.6624V28.3403C16.0076 27.653 15.5198 27.0714 14.8386 26.9567V26.9567ZM15.0624 29.6624C15.0624 29.8893 14.9 30.0813 14.6769 30.1188L13.6434 30.291C13.4528 30.3228 13.299 30.4573 13.2417 30.6422C13.1499 30.9397 13.0238 31.2438 12.8672 31.5455C12.7786 31.7157 12.7927 31.9185 12.9041 32.0745L13.5131 32.9297C13.6444 33.1143 13.6233 33.3647 13.4628 33.5253L12.5251 34.4629C12.4359 34.5521 12.3231 34.5994 12.199 34.5994C12.1011 34.5994 12.0087 34.5701 11.9303 34.5137L11.0787 33.905C10.9221 33.7926 10.7185 33.7784 10.5475 33.8679C10.2611 34.0178 9.95679 34.1439 9.64294 34.2424C9.45984 34.2998 9.32617 34.4531 9.29431 34.6418L9.11877 35.6764C9.0813 35.9001 8.88928 36.0625 8.66223 36.0625H7.33447C7.10742 36.0625 6.91553 35.9001 6.87805 35.677L6.70581 34.6436C6.67432 34.4541 6.54102 34.3005 6.35791 34.2427C6.04858 34.145 5.75403 34.0239 5.48218 33.8827C5.40808 33.8442 5.32788 33.8253 5.24805 33.8253C5.14478 33.8253 5.04199 33.8571 4.95398 33.9197L4.08716 34.5366C4.00903 34.5929 3.92017 34.6213 3.823 34.6213C3.69885 34.6213 3.58606 34.5742 3.49683 34.4849L2.5575 33.5457C2.39722 33.387 2.37683 33.1372 2.50757 32.9535L3.11292 32.1115C3.22681 31.9534 3.24072 31.7483 3.14893 31.5758C2.995 31.2871 2.86743 30.9844 2.76965 30.6759C2.71179 30.494 2.55908 30.3611 2.37109 30.329L1.32349 30.1504C1.09985 30.1128 0.9375 29.9208 0.9375 29.6938V28.3691C0.9375 28.1422 1.09985 27.9502 1.32385 27.9126L2.3446 27.7404C2.5354 27.7083 2.68909 27.5734 2.74585 27.3878C2.84216 27.0726 2.96606 26.7678 3.11414 26.4822C3.20227 26.3124 3.18811 26.1101 3.07715 25.954L2.46167 25.0892C2.3302 24.9047 2.35132 24.6542 2.51135 24.4941L3.45215 23.5565L3.45557 23.553C3.54016 23.4669 3.65491 23.4196 3.77881 23.4196C3.87671 23.4196 3.96924 23.4489 4.04614 23.5043L4.89185 24.113C5.05017 24.2271 5.25549 24.2407 5.42737 24.1489C5.71606 23.995 6.0188 23.8674 6.3269 23.7698C6.50879 23.712 6.64172 23.5596 6.67407 23.3711L6.85278 22.3235C6.89026 22.0999 7.08228 21.9375 7.30933 21.9375H8.63403C8.86096 21.9375 9.05298 22.0999 9.09058 22.3239L9.26282 23.345C9.29504 23.5359 9.43018 23.6895 9.61584 23.7461C9.93237 23.8423 10.248 23.9722 10.5543 24.1323C10.7245 24.2212 10.9272 24.2073 11.084 24.0958L11.9412 23.4854C12.0192 23.4291 12.108 23.4006 12.2053 23.4006C12.3293 23.4006 12.4421 23.4478 12.5315 23.5371L13.4707 24.4763C13.631 24.635 13.6515 24.8848 13.5199 25.0695L12.9106 25.9219C12.7988 26.0786 12.7849 26.282 12.8741 26.4524C13.0242 26.7388 13.1501 27.0431 13.2488 27.3571C13.3063 27.5402 13.4595 27.6737 13.6482 27.7056L14.6819 27.881L14.6827 27.8811C14.9058 27.9186 15.0656 28.1078 15.0624 28.3311V29.6624Z" fill="black"/>
<path d="M7.99756 25.8894C6.28223 25.8894 4.88672 27.2849 4.88672 29.0002C4.88672 30.7156 6.28223 32.1111 7.99756 32.1111C9.71289 32.1111 11.1084 30.7156 11.1084 29.0002C11.1084 27.2849 9.71289 25.8894 7.99756 25.8894ZM7.99756 31.1736C6.79919 31.1736 5.82422 30.1986 5.82422 29.0002C5.82422 27.8019 6.79919 26.8269 7.99756 26.8269C9.19592 26.8269 10.1709 27.8019 10.1709 29.0002C10.1709 30.1986 9.19592 31.1736 7.99756 31.1736Z" fill="black"/>
<path d="M14.8386 5.95667L14.0583 5.82434C13.9889 5.63098 13.9104 5.44128 13.8236 5.25684L14.2831 4.61401C14.6829 4.05237 14.6187 3.29382 14.132 2.81189L13.1943 1.87415C12.9293 1.60913 12.578 1.46313 12.2052 1.46313C11.9116 1.46313 11.6309 1.55359 11.3953 1.72314L10.75 2.18274C10.5504 2.08838 10.3479 2.005 10.144 1.93298L10.015 1.16846C9.90149 0.491333 9.32068 0 8.63391 0H7.3092C6.62256 0 6.04175 0.491333 5.92847 1.16711L5.79285 1.96155C5.60132 2.03149 5.41248 2.11096 5.22754 2.19971L4.59399 1.74341C4.35645 1.57239 4.07458 1.48206 3.77881 1.48206C3.40234 1.48206 3.0509 1.6283 2.78882 1.89392L1.849 2.83069C1.36365 3.31604 1.30005 4.07397 1.69788 4.63281L2.16479 5.28882C2.07874 5.474 2.00134 5.66455 1.93298 5.85901L1.16833 5.98804C0.491333 6.10168 0 6.6825 0 7.36914V8.69385C0 9.38049 0.491333 9.9613 1.16711 10.0747L1.96155 10.2102C2.03149 10.4019 2.11108 10.5908 2.19971 10.7756L1.74512 11.408C1.34534 11.9696 1.40955 12.7283 1.89624 13.2101L2.83386 14.1478C3.09888 14.4128 3.4502 14.5588 3.823 14.5588C4.11658 14.5588 4.39734 14.4684 4.63281 14.299L5.28882 13.832C5.46118 13.9121 5.63989 13.9855 5.82336 14.0515L5.95337 14.8317C6.06702 15.5087 6.64783 16 7.33447 16H8.66223C9.34888 16 9.92981 15.5087 10.0432 14.8325L10.1755 14.0521C10.3689 13.9827 10.5586 13.9042 10.743 13.8174L11.3838 14.2754C11.6213 14.4464 11.9032 14.5369 12.199 14.5369C12.5717 14.5369 12.923 14.3909 13.188 14.1259L14.1256 13.1881C14.6111 12.7028 14.6746 11.9448 14.2767 11.386L13.8168 10.7401C13.9059 10.5514 13.9846 10.3618 14.0524 10.1733L14.8315 10.0435C15.5085 9.92981 15.9999 9.349 15.9999 8.66235V7.34033C16.0076 6.65295 15.5198 6.07141 14.8386 5.95667V5.95667ZM15.0624 8.66235C15.0624 8.88928 14.9 9.0813 14.6769 9.11877L13.6434 9.29102C13.4528 9.32275 13.299 9.45728 13.2417 9.64221C13.1499 9.9397 13.0238 10.2438 12.8672 10.5455C12.7786 10.7157 12.7927 10.9185 12.9041 11.0745L13.5131 11.9297C13.6444 12.1143 13.6233 12.3647 13.4628 12.5253L12.5251 13.4629C12.4359 13.5521 12.3231 13.5994 12.199 13.5994C12.1011 13.5994 12.0087 13.5701 11.9303 13.5137L11.0787 12.905C10.9221 12.7926 10.7185 12.7784 10.5475 12.8679C10.2611 13.0178 9.95679 13.1439 9.64294 13.2424C9.45984 13.2998 9.32617 13.4531 9.29431 13.6418L9.11877 14.6764C9.0813 14.9001 8.88928 15.0625 8.66223 15.0625H7.33447C7.10742 15.0625 6.91553 14.9001 6.87805 14.677L6.70581 13.6436C6.67432 13.4541 6.54102 13.3005 6.35791 13.2427C6.04858 13.145 5.75403 13.0239 5.48218 12.8827C5.40808 12.8442 5.32788 12.8253 5.24805 12.8253C5.14478 12.8253 5.04199 12.8571 4.95398 12.9197L4.08716 13.5366C4.00903 13.5929 3.92017 13.6213 3.823 13.6213C3.69885 13.6213 3.58606 13.5742 3.49683 13.4849L2.5575 12.5457C2.39722 12.387 2.37683 12.1372 2.50757 11.9535L3.11292 11.1115C3.22681 10.9534 3.24072 10.7483 3.14893 10.5758C2.995 10.2871 2.86743 9.98438 2.76965 9.6759C2.71179 9.49402 2.55908 9.36108 2.37109 9.32898L1.32349 9.15039C1.09985 9.11279 0.9375 8.92078 0.9375 8.69385V7.36914C0.9375 7.14221 1.09985 6.9502 1.32385 6.9126L2.3446 6.74036C2.5354 6.70825 2.68909 6.57336 2.74585 6.38782C2.84216 6.07263 2.96606 5.76782 3.11414 5.48218C3.20227 5.31238 3.18811 5.11011 3.07715 4.95398L2.46167 4.08923C2.3302 3.90466 2.35132 3.65417 2.51135 3.49414L3.45215 2.55652L3.45557 2.55298C3.54016 2.46692 3.65491 2.41956 3.77881 2.41956C3.87671 2.41956 3.96924 2.44885 4.04614 2.50427L4.89185 3.11304C5.05017 3.22705 5.25549 3.24072 5.42737 3.14893C5.71606 2.995 6.0188 2.86743 6.3269 2.76978C6.50879 2.71204 6.64172 2.55957 6.67407 2.37109L6.85278 1.32349C6.89026 1.09985 7.08228 0.9375 7.30933 0.9375H8.63403C8.86096 0.9375 9.05298 1.09985 9.09058 1.32385L9.26282 2.34497C9.29504 2.53589 9.43018 2.68945 9.61584 2.74609C9.93237 2.84229 10.248 2.97217 10.5543 3.13232C10.7245 3.22119 10.9272 3.20728 11.084 3.09583L11.9412 2.48535C12.0192 2.42908 12.108 2.40063 12.2053 2.40063C12.3293 2.40063 12.4421 2.44775 12.5315 2.53711L13.4707 3.47632C13.631 3.63501 13.6515 3.88477 13.5199 4.06946L12.9106 4.92188C12.7988 5.07861 12.7849 5.28198 12.8741 5.45239C13.0242 5.73877 13.1501 6.04309 13.2488 6.35706C13.3063 6.54016 13.4595 6.67371 13.6482 6.70557L14.6819 6.88098L14.6827 6.8811C14.9058 6.91858 15.0656 7.10779 15.0624 7.33105V8.66235Z" fill="#005FF9"/>
<path d="M7.99756 4.8894C6.28223 4.8894 4.88672 6.28491 4.88672 8.00024C4.88672 9.71558 6.28223 11.1111 7.99756 11.1111C9.71289 11.1111 11.1084 9.71558 11.1084 8.00024C11.1084 6.28491 9.71289 4.8894 7.99756 4.8894ZM7.99756 10.1736C6.79919 10.1736 5.82422 9.19861 5.82422 8.00024C5.82422 6.80188 6.79919 5.8269 7.99756 5.8269C9.19592 5.8269 10.1709 6.80188 10.1709 8.00024C10.1709 9.19861 9.19592 10.1736 7.99756 10.1736Z" fill="#005FF9"/>
</svg>
