<svg width="14" height="33" viewBox="0 0 14 33" fill="none" xmlns="http://www.w3.org/2000/svg">
<path d="M4.53905 28.2032H11.9493C12.1328 28.2032 12.2938 28.0819 12.3434 27.9056L13.9842 22.1634C14.0194 22.0396 13.9953 21.9066 13.9176 21.8037C13.8398 21.7012 13.7189 21.6406 13.5899 21.6406H3.59217L3.29897 20.3213C3.25731 20.1334 3.09069 20 2.89843 20H0.410155C0.183502 20 0 20.1835 0 20.4102C0 20.6369 0.183502 20.8203 0.410155 20.8203H2.56924L4.05039 27.4853C3.6146 27.6748 3.30858 28.1086 3.30858 28.6134C3.30858 29.2918 3.86058 29.8438 4.53905 29.8438H11.9493C12.1761 29.8438 12.3594 29.6604 12.3594 29.4337C12.3594 29.207 12.1761 29.0235 11.9493 29.0235H4.53905C4.31314 29.0235 4.12889 28.8397 4.12889 28.6134C4.12889 28.387 4.31314 28.2032 4.53905 28.2032V28.2032Z" fill="#005FF9"/>
<path d="M4.12695 31.0742C4.12695 31.7528 4.67895 32.3047 5.35753 32.3047C6.03599 32.3047 6.58799 31.7528 6.58799 31.0742C6.58799 30.3958 6.03599 29.8438 5.35753 29.8438C4.67895 29.8438 4.12695 30.3958 4.12695 31.0742Z" fill="#005FF9"/>
<path d="M9.89844 31.0742C9.89844 31.7528 10.4504 32.3047 11.1289 32.3047C11.8075 32.3047 12.3594 31.7528 12.3594 31.0742C12.3594 30.3958 11.8075 29.8438 11.1289 29.8438C10.4504 29.8438 9.89844 30.3958 9.89844 31.0742Z" fill="#005FF9"/>
<path d="M4.53905 9.20321H11.9493C12.1328 9.20321 12.2938 9.08187 12.3434 8.90563L13.9842 3.16335C14.0194 3.03956 13.9953 2.90658 13.9176 2.80372C13.8398 2.70118 13.7189 2.64062 13.5899 2.64062H3.59217L3.29897 1.32129C3.25731 1.13341 3.09069 1 2.89843 1H0.410155C0.183502 1 0 1.1835 0 1.41016C0 1.63692 0.183502 1.82031 0.410155 1.82031H2.56924L4.05039 8.48533C3.6146 8.67481 3.30858 9.10857 3.30858 9.61336C3.30858 10.2918 3.86058 10.8438 4.53905 10.8438H11.9493C12.1761 10.8438 12.3594 10.6604 12.3594 10.4337C12.3594 10.207 12.1761 10.0235 11.9493 10.0235H4.53905C4.31314 10.0235 4.12889 9.8397 4.12889 9.61336C4.12889 9.38703 4.31314 9.20321 4.53905 9.20321V9.20321Z" fill="black"/>
<path d="M4.12695 12.0742C4.12695 12.7528 4.67895 13.3047 5.35753 13.3047C6.03599 13.3047 6.58799 12.7528 6.58799 12.0742C6.58799 11.3958 6.03599 10.8438 5.35753 10.8438C4.67895 10.8438 4.12695 11.3958 4.12695 12.0742Z" fill="black"/>
<path d="M9.89844 12.0742C9.89844 12.7528 10.4504 13.3047 11.1289 13.3047C11.8075 13.3047 12.3594 12.7528 12.3594 12.0742C12.3594 11.3958 11.8075 10.8438 11.1289 10.8438C10.4504 10.8438 9.89844 11.3958 9.89844 12.0742Z" fill="black"/>
</svg>
