<svg width="12" height="12" viewBox="0 0 12 12" fill="none" xmlns="http://www.w3.org/2000/svg">
<path d="M11.3999 5.39998H6.60002V0.599962C6.60002 0.268835 6.33118 0 5.99995 0C5.66882 0 5.39998 0.268835 5.39998 0.599962V5.39998H0.599962C0.268835 5.39998 0 5.66882 0 5.99995C0 6.33118 0.268835 6.60002 0.599962 6.60002H5.39998V11.3999C5.39998 11.7312 5.66882 12 5.99995 12C6.33118 12 6.60002 11.7312 6.60002 11.3999V6.60002H11.3999C11.7312 6.60002 12 6.33118 12 5.99995C12 5.66882 11.7312 5.39998 11.3999 5.39998Z" fill="#005FF9"/>
</svg>
