<svg width="16" height="37" viewBox="0 0 16 37" fill="none" xmlns="http://www.w3.org/2000/svg">
<path d="M3.33333 0H0.666667C0.298667 0 0 0.298667 0 0.666667V3.33333C0 3.70133 0.298667 4 0.666667 4H3.33333C3.70133 4 4 3.70133 4 3.33333V0.666667C4 0.298667 3.70133 0 3.33333 0Z" fill="#005FF9"/>
<path d="M3.33333 6H0.666667C0.298667 6 0 6.29867 0 6.66667V9.33333C0 9.70133 0.298667 10 0.666667 10H3.33333C3.70133 10 4 9.70133 4 9.33333V6.66667C4 6.29867 3.70133 6 3.33333 6Z" fill="#005FF9"/>
<path d="M3.33333 12H0.666667C0.298667 12 0 12.2987 0 12.6667V15.3333C0 15.7013 0.298667 16 0.666667 16H3.33333C3.70133 16 4 15.7013 4 15.3333V12.6667C4 12.2987 3.70133 12 3.33333 12Z" fill="#005FF9"/>
<path d="M9.33333 0H6.66667C6.29867 0 6 0.298667 6 0.666667V3.33333C6 3.70133 6.29867 4 6.66667 4H9.33333C9.70133 4 10 3.70133 10 3.33333V0.666667C10 0.298667 9.70133 0 9.33333 0Z" fill="#005FF9"/>
<path d="M9.33333 6H6.66667C6.29867 6 6 6.29867 6 6.66667V9.33333C6 9.70133 6.29867 10 6.66667 10H9.33333C9.70133 10 10 9.70133 10 9.33333V6.66667C10 6.29867 9.70133 6 9.33333 6Z" fill="#005FF9"/>
<path d="M9.33333 12H6.66667C6.29867 12 6 12.2987 6 12.6667V15.3333C6 15.7013 6.29867 16 6.66667 16H9.33333C9.70133 16 10 15.7013 10 15.3333V12.6667C10 12.2987 9.70133 12 9.33333 12Z" fill="#005FF9"/>
<path d="M15.3333 0H12.6667C12.2987 0 12 0.298667 12 0.666667V3.33333C12 3.70133 12.2987 4 12.6667 4H15.3333C15.7013 4 16 3.70133 16 3.33333V0.666667C16 0.298667 15.7013 0 15.3333 0Z" fill="#005FF9"/>
<path d="M15.3333 6H12.6667C12.2987 6 12 6.29867 12 6.66667V9.33333C12 9.70133 12.2987 10 12.6667 10H15.3333C15.7013 10 16 9.70133 16 9.33333V6.66667C16 6.29867 15.7013 6 15.3333 6Z" fill="#005FF9"/>
<path d="M15.3333 12H12.6667C12.2987 12 12 12.2987 12 12.6667V15.3333C12 15.7013 12.2987 16 12.6667 16H15.3333C15.7013 16 16 15.7013 16 15.3333V12.6667C16 12.2987 15.7013 12 15.3333 12Z" fill="#005FF9"/>
<path d="M3.33333 21H0.666667C0.298667 21 0 21.2987 0 21.6667V24.3333C0 24.7013 0.298667 25 0.666667 25H3.33333C3.70133 25 4 24.7013 4 24.3333V21.6667C4 21.2987 3.70133 21 3.33333 21Z" fill="black"/>
<path d="M3.33333 27H0.666667C0.298667 27 0 27.2987 0 27.6667V30.3333C0 30.7013 0.298667 31 0.666667 31H3.33333C3.70133 31 4 30.7013 4 30.3333V27.6667C4 27.2987 3.70133 27 3.33333 27Z" fill="black"/>
<path d="M3.33333 33H0.666667C0.298667 33 0 33.2987 0 33.6667V36.3333C0 36.7013 0.298667 37 0.666667 37H3.33333C3.70133 37 4 36.7013 4 36.3333V33.6667C4 33.2987 3.70133 33 3.33333 33Z" fill="black"/>
<path d="M9.33333 21H6.66667C6.29867 21 6 21.2987 6 21.6667V24.3333C6 24.7013 6.29867 25 6.66667 25H9.33333C9.70133 25 10 24.7013 10 24.3333V21.6667C10 21.2987 9.70133 21 9.33333 21Z" fill="black"/>
<path d="M9.33333 27H6.66667C6.29867 27 6 27.2987 6 27.6667V30.3333C6 30.7013 6.29867 31 6.66667 31H9.33333C9.70133 31 10 30.7013 10 30.3333V27.6667C10 27.2987 9.70133 27 9.33333 27Z" fill="black"/>
<path d="M9.33333 33H6.66667C6.29867 33 6 33.2987 6 33.6667V36.3333C6 36.7013 6.29867 37 6.66667 37H9.33333C9.70133 37 10 36.7013 10 36.3333V33.6667C10 33.2987 9.70133 33 9.33333 33Z" fill="black"/>
<path d="M15.3333 21H12.6667C12.2987 21 12 21.2987 12 21.6667V24.3333C12 24.7013 12.2987 25 12.6667 25H15.3333C15.7013 25 16 24.7013 16 24.3333V21.6667C16 21.2987 15.7013 21 15.3333 21Z" fill="black"/>
<path d="M15.3333 27H12.6667C12.2987 27 12 27.2987 12 27.6667V30.3333C12 30.7013 12.2987 31 12.6667 31H15.3333C15.7013 31 16 30.7013 16 30.3333V27.6667C16 27.2987 15.7013 27 15.3333 27Z" fill="black"/>
<path d="M15.3333 33H12.6667C12.2987 33 12 33.2987 12 33.6667V36.3333C12 36.7013 12.2987 37 12.6667 37H15.3333C15.7013 37 16 36.7013 16 36.3333V33.6667C16 33.2987 15.7013 33 15.3333 33Z" fill="black"/>
</svg>
