<svg width="16" height="37" viewBox="0 0 16 37" fill="none" xmlns="http://www.w3.org/2000/svg">
<path d="M3.55846 10.119C3.55846 9.85383 3.47125 9.65107 3.29681 9.5107C3.12238 9.3672 2.80839 9.21747 2.35487 9.0615C1.90134 8.90241 1.54229 8.74643 1.27773 8.59358C0.556737 8.17558 0.196239 7.61252 0.196239 6.90441C0.196239 6.53632 0.292178 6.20878 0.484056 5.92179C0.678841 5.63168 0.956482 5.40553 1.31698 5.24332C1.68039 5.08111 2.0874 5 2.53802 5C2.99155 5 3.39566 5.0889 3.75034 5.26671C4.10502 5.4414 4.37976 5.68939 4.57454 6.0107C4.77224 6.332 4.87108 6.69697 4.87108 7.10561H3.56282C3.56282 6.79367 3.47125 6.55192 3.28809 6.38035C3.10493 6.20566 2.84764 6.11832 2.51622 6.11832C2.19642 6.11832 1.94785 6.19162 1.77051 6.33824C1.59317 6.48173 1.5045 6.67201 1.5045 6.90909C1.5045 7.13057 1.6077 7.31618 1.81412 7.46591C2.02344 7.61564 2.33015 7.75602 2.73426 7.88703C3.47851 8.12723 4.02071 8.42513 4.36086 8.78075C4.70101 9.13636 4.87108 9.57932 4.87108 10.1096C4.87108 10.6992 4.66321 11.1624 4.24748 11.4993C3.83174 11.8331 3.2721 12 2.56855 12C2.08013 12 1.63532 11.9049 1.23412 11.7146C0.832924 11.5212 0.526211 11.2576 0.313982 10.9238C0.104661 10.59 0 10.2032 0 9.76337H1.31262C1.31262 10.5152 1.73126 10.891 2.56855 10.891C2.87962 10.891 3.12238 10.824 3.29681 10.6898C3.47125 10.5526 3.55846 10.3623 3.55846 10.119Z" fill="#005FF9"/>
<path d="M9.58081 8.95388H7.06896V10.7787H10.0169V11.9064H5.7607V5.09358H10.0082V6.23061H7.06896V7.85428H9.58081V8.95388Z" fill="#005FF9"/>
<path d="M16 8.65441C16 9.32509 15.8895 9.9131 15.6686 10.4184C15.4476 10.9238 15.1307 11.3137 14.7179 11.5882C14.308 11.8627 13.837 12 13.305 12C12.7788 12 12.3093 11.8643 11.8964 11.5929C11.4836 11.3215 11.1638 10.9347 10.937 10.4325C10.7103 9.92714 10.5954 9.34693 10.5925 8.69184V8.35495C10.5925 7.68427 10.7045 7.0947 10.9283 6.58623C11.1551 6.07464 11.4734 5.68316 11.8833 5.41176C12.2962 5.13725 12.7671 5 13.2963 5C13.8254 5 14.2949 5.13725 14.7048 5.41176C15.1177 5.68316 15.436 6.07464 15.6599 6.58623C15.8866 7.0947 16 7.68271 16 8.35027V8.65441ZM14.6743 8.34559C14.6743 7.63124 14.5551 7.08846 14.3167 6.71725C14.0783 6.34603 13.7382 6.16043 13.2963 6.16043C12.8573 6.16043 12.5186 6.34447 12.2802 6.71257C12.0418 7.07754 11.9211 7.61408 11.9182 8.32219V8.65441C11.9182 9.35004 12.0374 9.88971 12.2758 10.2734C12.5142 10.6571 12.8573 10.8489 13.305 10.8489C13.744 10.8489 14.0812 10.6649 14.3167 10.2968C14.5522 9.92558 14.6714 9.38592 14.6743 8.67781V8.34559Z" fill="#005FF9"/>
<path d="M3.55846 31.119C3.55846 30.8538 3.47125 30.6511 3.29681 30.5107C3.12238 30.3672 2.80839 30.2175 2.35487 30.0615C1.90134 29.9024 1.54229 29.7464 1.27773 29.5936C0.556737 29.1756 0.196239 28.6125 0.196239 27.9044C0.196239 27.5363 0.292178 27.2088 0.484056 26.9218C0.678841 26.6317 0.956482 26.4055 1.31698 26.2433C1.68039 26.0811 2.0874 26 2.53802 26C2.99155 26 3.39566 26.0889 3.75034 26.2667C4.10502 26.4414 4.37976 26.6894 4.57454 27.0107C4.77224 27.332 4.87108 27.697 4.87108 28.1056H3.56282C3.56282 27.7937 3.47125 27.5519 3.28809 27.3803C3.10493 27.2057 2.84764 27.1183 2.51622 27.1183C2.19642 27.1183 1.94785 27.1916 1.77051 27.3382C1.59317 27.4817 1.5045 27.672 1.5045 27.9091C1.5045 28.1306 1.6077 28.3162 1.81412 28.4659C2.02344 28.6156 2.33015 28.756 2.73426 28.887C3.47851 29.1272 4.02071 29.4251 4.36086 29.7807C4.70101 30.1364 4.87108 30.5793 4.87108 31.1096C4.87108 31.6992 4.66321 32.1624 4.24748 32.4993C3.83174 32.8331 3.2721 33 2.56855 33C2.08013 33 1.63532 32.9049 1.23412 32.7146C0.832924 32.5212 0.526211 32.2576 0.313982 31.9238C0.104661 31.59 0 31.2032 0 30.7634H1.31262C1.31262 31.5152 1.73126 31.891 2.56855 31.891C2.87962 31.891 3.12238 31.824 3.29681 31.6898C3.47125 31.5526 3.55846 31.3623 3.55846 31.119Z" fill="black"/>
<path d="M9.58081 29.9539H7.06896V31.7787H10.0169V32.9064H5.7607V26.0936H10.0082V27.2306H7.06896V28.8543H9.58081V29.9539Z" fill="black"/>
<path d="M16 29.6544C16 30.3251 15.8895 30.9131 15.6686 31.4184C15.4476 31.9238 15.1307 32.3137 14.7179 32.5882C14.308 32.8627 13.837 33 13.305 33C12.7788 33 12.3093 32.8643 11.8964 32.5929C11.4836 32.3215 11.1638 31.9347 10.937 31.4325C10.7103 30.9271 10.5954 30.3469 10.5925 29.6918V29.3549C10.5925 28.6843 10.7045 28.0947 10.9283 27.5862C11.1551 27.0746 11.4734 26.6832 11.8833 26.4118C12.2962 26.1373 12.7671 26 13.2963 26C13.8254 26 14.2949 26.1373 14.7048 26.4118C15.1177 26.6832 15.436 27.0746 15.6599 27.5862C15.8866 28.0947 16 28.6827 16 29.3503V29.6544ZM14.6743 29.3456C14.6743 28.6312 14.5551 28.0885 14.3167 27.7172C14.0783 27.346 13.7382 27.1604 13.2963 27.1604C12.8573 27.1604 12.5186 27.3445 12.2802 27.7126C12.0418 28.0775 11.9211 28.6141 11.9182 29.3222V29.6544C11.9182 30.35 12.0374 30.8897 12.2758 31.2734C12.5142 31.6571 12.8573 31.8489 13.305 31.8489C13.744 31.8489 14.0812 31.6649 14.3167 31.2968C14.5522 30.9256 14.6714 30.3859 14.6743 29.6778V29.3456Z" fill="black"/>
</svg>
