<svg width="14" height="33" viewBox="0 0 14 33" fill="none" xmlns="http://www.w3.org/2000/svg">
<path d="M11.5 0H7.5V6.50001H14V2.49999C13.9983 1.11996 12.88 0.00164062 11.5 0Z" fill="black"/>
<path d="M2.49999 0C1.11996 0.00164062 0.00164062 1.11996 0 2.49999V11.5C0.00164062 12.88 1.11996 13.9983 2.49999 14H6.49998V0H2.49999Z" fill="black"/>
<path d="M7.5 7.5V14H11.5C12.88 13.9984 13.9983 12.88 14 11.5V7.5H7.5Z" fill="black"/>
<path d="M11.5 19H7.5V25.5H14V21.5C13.9983 20.12 12.88 19.0016 11.5 19Z" fill="#005FF9"/>
<path d="M2.49999 19C1.11996 19.0016 0.00164062 20.12 0 21.5V30.5C0.00164062 31.88 1.11996 32.9983 2.49999 33H6.49998V19H2.49999Z" fill="#005FF9"/>
<path d="M7.5 26.5V33H11.5C12.88 32.9984 13.9983 31.88 14 30.5V26.5H7.5Z" fill="#005FF9"/>
</svg>
