<svg width="30" height="41" viewBox="0 0 30 41" fill="none" xmlns="http://www.w3.org/2000/svg">
<path d="M29.7326 16.0549C29.652 15.9129 29.1532 14.7732 26.753 12.4306C24.2403 9.97766 24.5778 10.376 27.6043 6.13455C29.4476 3.55145 30.1845 1.97398 29.9539 1.29961C29.7345 0.656789 28.3788 0.826367 28.3788 0.826367L23.8709 0.853973C23.8709 0.853973 23.5371 0.806649 23.2878 0.962424C23.0459 1.11623 22.8902 1.47116 22.8902 1.47116C22.8902 1.47116 22.1758 3.4706 21.2232 5.17032C19.215 8.7571 18.4105 8.94639 18.0824 8.72358C17.3192 8.20498 17.5105 6.63737 17.5105 5.52526C17.5105 2.04891 18.0111 0.599606 16.5335 0.224956C16.0422 0.100731 15.6822 0.0179136 14.4277 0.00411071C12.8189 -0.0136358 11.4556 0.0100262 10.685 0.406366C10.1712 0.670592 9.77551 1.26017 10.0174 1.29369C10.3156 1.3351 10.9906 1.48496 11.3488 1.99764C11.8119 2.6582 11.795 4.14497 11.795 4.14497C11.795 4.14497 12.0613 8.23653 11.1744 8.74527C10.5649 9.09428 9.73051 8.38245 7.93975 5.12694C7.02281 3.46074 6.32901 1.61707 6.32901 1.61707C6.32901 1.61707 6.19587 1.27397 5.95773 1.09059C5.66896 0.867776 5.26393 0.79679 5.26393 0.79679L0.977365 0.824395C0.977365 0.824395 0.334193 0.844114 0.0979258 1.13792C-0.11209 1.40017 0.0810495 1.94045 0.0810495 1.94045C0.0810495 1.94045 3.43755 10.1965 7.23658 14.3591C10.7225 18.1746 14.679 17.9242 14.679 17.9242H16.4716C16.4716 17.9242 17.0135 17.8611 17.2892 17.5475C17.5442 17.2597 17.5348 16.7194 17.5348 16.7194C17.5348 16.7194 17.4992 14.1895 18.6168 13.8168C19.7175 13.4501 21.1313 16.2619 22.6296 17.3444C23.7622 18.1628 24.6229 17.9833 24.6229 17.9833L28.63 17.9242C28.63 17.9242 30.7264 17.7881 29.7326 16.0549Z" fill="white"/>
<path d="M29.7326 39.0549C29.652 38.9129 29.1532 37.7732 26.753 35.4306C24.2403 32.9777 24.5778 33.376 27.6043 29.1346C29.4476 26.5514 30.1845 24.974 29.9539 24.2996C29.7345 23.6568 28.3788 23.8264 28.3788 23.8264L23.8709 23.854C23.8709 23.854 23.5371 23.8066 23.2878 23.9624C23.0459 24.1162 22.8902 24.4712 22.8902 24.4712C22.8902 24.4712 22.1758 26.4706 21.2232 28.1703C19.215 31.7571 18.4105 31.9464 18.0824 31.7236C17.3192 31.205 17.5105 29.6374 17.5105 28.5253C17.5105 25.0489 18.0111 23.5996 16.5335 23.225C16.0422 23.1007 15.6822 23.0179 14.4277 23.0041C12.8189 22.9864 11.4556 23.01 10.685 23.4064C10.1712 23.6706 9.77551 24.2602 10.0174 24.2937C10.3156 24.3351 10.9906 24.485 11.3488 24.9976C11.8119 25.6582 11.795 27.145 11.795 27.145C11.795 27.145 12.0613 31.2365 11.1744 31.7453C10.5649 32.0943 9.73051 31.3824 7.93975 28.1269C7.02281 26.4607 6.32901 24.6171 6.32901 24.6171C6.32901 24.6171 6.19587 24.274 5.95773 24.0906C5.66896 23.8678 5.26393 23.7968 5.26393 23.7968L0.977365 23.8244C0.977365 23.8244 0.334193 23.8441 0.0979258 24.1379C-0.11209 24.4002 0.0810495 24.9405 0.0810495 24.9405C0.0810495 24.9405 3.43755 33.1965 7.23658 37.3591C10.7225 41.1746 14.679 40.9242 14.679 40.9242H16.4716C16.4716 40.9242 17.0135 40.8611 17.2892 40.5475C17.5442 40.2597 17.5348 39.7194 17.5348 39.7194C17.5348 39.7194 17.4992 37.1895 18.6168 36.8168C19.7175 36.4501 21.1313 39.2619 22.6296 40.3444C23.7622 41.1628 24.6229 40.9833 24.6229 40.9833L28.63 40.9242C28.63 40.9242 30.7264 40.7881 29.7326 39.0549Z" fill="#4B729F"/>
</svg>
