<svg width="14" height="33" viewBox="0 0 14 33" fill="none" xmlns="http://www.w3.org/2000/svg">
<g clip-path="url(#clip0)">
<path d="M13.3644 0H8.27354C7.92209 0 7.63717 0.284922 7.63717 0.636371C7.63717 0.98782 7.92209 1.27274 8.27354 1.27274H11.8281L5.27815 7.82277C5.02968 8.07125 5.02968 8.47418 5.27815 8.72271C5.40237 8.84693 5.56523 8.90909 5.72809 8.90909C5.89095 8.90909 6.05384 8.84693 6.17803 8.72268L12.7281 2.17268V5.72729C12.7281 6.07873 13.013 6.36366 13.3645 6.36366C13.7159 6.36366 14.0008 6.07873 14.0008 5.72729V0.636371C14.0008 0.284922 13.7159 0 13.3644 0Z" fill="black"/>
<path d="M10.8182 6.36364C10.4667 6.36364 10.1818 6.64856 10.1818 7.00001V12.7273H1.27271V3.81819H7C7.35145 3.81819 7.63637 3.53326 7.63637 3.18181C7.63637 2.83037 7.35145 2.54547 7 2.54547H0.636371C0.284922 2.54547 0 2.83039 0 3.18184V13.3637C0 13.7151 0.284922 14 0.636371 14H10.8182C11.1696 14 11.4546 13.7151 11.4546 13.3636V7.00001C11.4545 6.64856 11.1696 6.36364 10.8182 6.36364Z" fill="black"/>
</g>
<g clip-path="url(#clip1)">
<path d="M13.3644 19H8.27354C7.92209 19 7.63717 19.2849 7.63717 19.6364C7.63717 19.9878 7.92209 20.2727 8.27354 20.2727H11.8281L5.27815 26.8228C5.02968 27.0712 5.02968 27.4742 5.27815 27.7227C5.40237 27.8469 5.56523 27.9091 5.72809 27.9091C5.89095 27.9091 6.05384 27.8469 6.17803 27.7227L12.7281 21.1727V24.7273C12.7281 25.0787 13.013 25.3637 13.3645 25.3637C13.7159 25.3637 14.0008 25.0787 14.0008 24.7273V19.6364C14.0008 19.2849 13.7159 19 13.3644 19Z" fill="#005FF9"/>
<path d="M10.8182 25.3636C10.4667 25.3636 10.1818 25.6486 10.1818 26V31.7273H1.27271V22.8182H7C7.35145 22.8182 7.63637 22.5333 7.63637 22.1818C7.63637 21.8304 7.35145 21.5455 7 21.5455H0.636371C0.284922 21.5455 0 21.8304 0 22.1818V32.3637C0 32.7151 0.284922 33 0.636371 33H10.8182C11.1696 33 11.4546 32.7151 11.4546 32.3636V26C11.4545 25.6486 11.1696 25.3636 10.8182 25.3636Z" fill="#005FF9"/>
</g>
<defs>
<clipPath id="clip0">
<rect width="14" height="14" fill="white"/>
</clipPath>
<clipPath id="clip1">
<rect width="14" height="14" fill="white" transform="translate(0 19)"/>
</clipPath>
</defs>
</svg>
