<svg width="18" height="18" viewBox="0 0 18 18" fill="none" xmlns="http://www.w3.org/2000/svg">
<path d="M9.17715 18C9.11755 18 9.05795 18 8.99794 17.9997C7.58702 18.0031 6.28336 17.9673 5.01553 17.8901C3.85318 17.8194 2.79218 17.4177 1.94705 16.7286C1.13159 16.0636 0.574722 15.1645 0.291962 14.0566C0.045868 13.092 0.0328217 12.1451 0.0203247 11.2292C0.011261 10.5721 0.00192261 9.79345 0 9.00161C0.00192261 8.20648 0.011261 7.42782 0.0203247 6.7707C0.0328217 5.85499 0.045868 4.9081 0.291962 3.94336C0.574722 2.83539 1.13159 1.93629 1.94705 1.27134C2.79218 0.582226 3.85318 0.180538 5.01567 0.109813C6.28349 0.0327712 7.58743 -0.00320907 9.00137 0.000224161C10.4127 -0.00279708 11.716 0.0327712 12.9838 0.109813C14.1461 0.180538 15.2071 0.582226 16.0523 1.27134C16.8679 1.93629 17.4246 2.83539 17.7074 3.94336C17.9534 4.90796 17.9665 5.85499 17.979 6.7707C17.9881 7.42782 17.9975 8.20648 17.9993 8.99832V9.00161C17.9975 9.79345 17.9881 10.5721 17.979 11.2292C17.9665 12.1449 17.9536 13.0918 17.7074 14.0566C17.4246 15.1645 16.8679 16.0636 16.0523 16.7286C15.2071 17.4177 14.1461 17.8194 12.9838 17.8901C11.7697 17.964 10.5224 18 9.17715 18ZM8.99794 16.5935C10.3859 16.5967 11.6603 16.5617 12.8984 16.4865C13.7773 16.4331 14.5393 16.1478 15.1636 15.6387C15.7407 15.1681 16.1381 14.5188 16.3448 13.7088C16.5497 12.9059 16.5615 12.0437 16.5729 11.21C16.5818 10.5573 16.5911 9.78411 16.5931 8.99996C16.5911 8.21568 16.5818 7.44265 16.5729 6.78992C16.5615 5.9562 16.5497 5.09404 16.3448 4.29094C16.1381 3.48097 15.7407 2.83168 15.1636 2.36105C14.5393 1.85211 13.7773 1.56688 12.8984 1.51346C11.6603 1.43806 10.3859 1.40332 9.00124 1.40634C7.61353 1.40304 6.33897 1.43806 5.10095 1.51346C4.22205 1.56688 3.46001 1.85211 2.83571 2.36105C2.25865 2.83168 1.86122 3.48097 1.65454 4.29094C1.44965 5.09404 1.43784 5.95606 1.42644 6.78992C1.41751 7.4432 1.40817 8.21677 1.40625 9.00161C1.40817 9.78302 1.41751 10.5567 1.42644 11.21C1.43784 12.0437 1.44965 12.9059 1.65454 13.7088C1.86122 14.5188 2.25865 15.1681 2.83571 15.6387C3.46001 16.1477 4.22205 16.4329 5.10095 16.4863C6.33897 16.5617 7.6138 16.5969 8.99794 16.5935ZM8.96443 13.3945C6.5414 13.3945 4.5699 11.4231 4.5699 8.99996C4.5699 6.57679 6.5414 4.60543 8.96443 4.60543C11.3876 4.60543 13.359 6.57679 13.359 8.99996C13.359 11.4231 11.3876 13.3945 8.96443 13.3945ZM8.96443 6.01168C7.31676 6.01168 5.97615 7.35229 5.97615 8.99996C5.97615 10.6476 7.31676 11.9882 8.96443 11.9882C10.6122 11.9882 11.9527 10.6476 11.9527 8.99996C11.9527 7.35229 10.6122 6.01168 8.96443 6.01168ZM13.8512 3.19917C13.2687 3.19917 12.7965 3.67131 12.7965 4.25386C12.7965 4.83641 13.2687 5.30855 13.8512 5.30855C14.4337 5.30855 14.9058 4.83641 14.9058 4.25386C14.9058 3.67131 14.4337 3.19917 13.8512 3.19917Z" fill="black"/>
</svg>
