<svg width="18" height="9" viewBox="0 0 18 9" fill="none" xmlns="http://www.w3.org/2000/svg">
<path d="M17.25 5H0.75C0.335999 5 0 4.776 0 4.5C0 4.224 0.335999 4 0.75 4H17.25C17.664 4 18 4.224 18 4.5C18 4.776 17.664 5 17.25 5Z" fill="black"/>
<path d="M17.25 1H0.75C0.335999 1 0 0.776001 0 0.5C0 0.223999 0.335999 0 0.75 0H17.25C17.664 0 18 0.223999 18 0.5C18 0.776001 17.664 1 17.25 1Z" fill="black"/>
<path d="M17.25 9H0.75C0.335999 9 0 8.776 0 8.5C0 8.224 0.335999 8 0.75 8H17.25C17.664 8 18 8.224 18 8.5C18 8.776 17.664 9 17.25 9Z" fill="black"/>
</svg>
