<svg width="18" height="18" viewBox="0 0 18 18" fill="none" xmlns="http://www.w3.org/2000/svg">
<path d="M2.84736 10.7298C3.24024 10.3226 3.71413 10.1048 4.21636 10.1048C4.71455 10.1048 5.19249 10.3185 5.60157 10.7258L6.88146 11.996C6.98677 11.9395 7.09208 11.8871 7.19333 11.8347C7.33914 11.7621 7.47685 11.6935 7.59431 11.621C8.7932 10.8629 9.88273 9.875 10.9277 8.59677C11.434 7.95968 11.7742 7.42339 12.0213 6.87903C11.6892 6.57661 11.3813 6.2621 11.0816 5.95968C10.9682 5.84677 10.8548 5.72984 10.7414 5.61693C9.89083 4.77016 9.89083 3.67339 10.7414 2.82661L11.8471 1.72581C11.9727 1.60081 12.1023 1.47177 12.2238 1.34274C12.4668 1.09274 12.722 0.834677 12.9853 0.592742C13.3781 0.205645 13.848 0 14.3421 0C14.8363 0 15.3142 0.205645 15.7192 0.592742C15.7233 0.596774 15.7233 0.596774 15.7273 0.600806L17.1044 1.98387C17.6229 2.5 17.9185 3.12903 17.9833 3.85887C18.0805 5.03629 17.7322 6.13306 17.4649 6.85081C16.8087 8.6129 15.8286 10.246 14.3664 11.996C12.5924 14.1048 10.4579 15.7702 8.0196 16.9435C7.08803 17.3831 5.84458 17.9032 4.45533 17.9919C4.37027 17.996 4.28117 18 4.20016 18C3.26454 18 2.47878 17.6653 1.86314 17C1.85909 16.9919 1.85099 16.9879 1.84694 16.9798C1.63632 16.7258 1.3933 16.496 1.13813 16.25C0.963972 16.0847 0.785759 15.9113 0.611595 15.7298C0.210615 15.3145 0 14.8306 0 14.3347C0 13.8347 0.214666 13.3548 0.623747 12.9516L2.84736 10.7298ZM1.39735 14.9758C1.4014 14.9758 1.4014 14.9798 1.39735 14.9758C1.55532 15.1452 1.71733 15.2984 1.89149 15.4677C2.15476 15.7177 2.42208 15.9798 2.6732 16.2742C3.08228 16.7097 3.56426 16.9153 4.19611 16.9153C4.25687 16.9153 4.32167 16.9153 4.38243 16.9113C5.58536 16.8347 6.70325 16.3669 7.54166 15.9677C9.83413 14.8629 11.8471 13.2944 13.5199 11.3065C14.9011 9.64919 15.8245 8.11693 16.4361 6.47177C16.8128 5.46774 16.9505 4.68548 16.8898 3.94758C16.8492 3.47581 16.667 3.08468 16.3308 2.75L14.9497 1.375C14.7512 1.18952 14.5406 1.08871 14.334 1.08871C14.0788 1.08871 13.8723 1.24194 13.7427 1.37097C13.7386 1.375 13.7346 1.37903 13.7305 1.38306C13.4834 1.6129 13.2485 1.85081 13.0015 2.10484C12.8759 2.23387 12.7463 2.3629 12.6167 2.49597L11.511 3.59677C11.0816 4.02419 11.0816 4.41935 11.511 4.84677C11.6284 4.96371 11.7418 5.08064 11.8593 5.19355C12.1995 5.54032 12.5235 5.8629 12.8759 6.17742C12.884 6.18548 12.8921 6.18952 12.8962 6.19758C13.2445 6.54435 13.1797 6.88306 13.1068 7.1129C13.1027 7.125 13.0987 7.1371 13.0946 7.14919C12.807 7.84274 12.402 8.49597 11.7864 9.27419L11.7823 9.27823C10.6644 10.6492 9.4858 11.7177 8.18566 12.5363C8.01959 12.6411 7.84948 12.7258 7.68747 12.8065C7.54166 12.879 7.40395 12.9476 7.28649 13.0202C7.27029 13.0282 7.25409 13.0403 7.23789 13.0484C7.10018 13.1169 6.97057 13.1492 6.83691 13.1492C6.50073 13.1492 6.29012 12.9395 6.22126 12.871L4.83606 11.4919C4.69835 11.3548 4.47963 11.1895 4.22446 11.1895C3.97334 11.1895 3.76678 11.3468 3.64122 11.4839C3.63717 11.4879 3.63717 11.4879 3.63312 11.4919L1.4014 13.7137C0.984222 14.125 0.984222 14.5484 1.39735 14.9758Z" fill="black"/>
</svg>
