<svg width="16" height="37" fill="none" xmlns="http://www.w3.org/2000/svg"><path d="M7.864 21.492a5.22 5.22 0 00-5.214 5.214c0 3.614 5.22 9.786 5.22 9.786s5.208-6.35 5.208-9.786a5.22 5.22 0 00-5.214-5.214zm1.573 6.74a2.218 2.218 0 01-1.573.651c-.57 0-1.14-.217-1.573-.65a2.227 2.227 0 011.573-3.798 2.21 2.21 0 011.573.652 2.227 2.227 0 010 3.146z" fill="#000"/><path d="M7.864.492A5.22 5.22 0 002.65 5.706c0 3.614 5.22 9.786 5.22 9.786s5.208-6.35 5.208-9.786A5.22 5.22 0 007.864.492zm1.573 6.74a2.218 2.218 0 01-1.573.651c-.57 0-1.14-.217-1.573-.65a2.227 2.227 0 011.573-3.798 2.227 2.227 0 011.573 3.798z" fill="#005FF9"/></svg>