<svg width="12" height="29" fill="none" xmlns="http://www.w3.org/2000/svg"><path d="M11.28 5.28l-4.666.014V.72c0-.4-.321-.72-.72-.72-.398 0-.72.32-.72.72l.015 4.56H.719A.719.719 0 000 6c0 .398.32.72.72.72h4.462v4.56c0 .399.32.72.72.72a.718.718 0 00.719-.72V6.72h4.66a.72.72 0 000-1.44z" fill="#000"/><path d="M11.28 22.28l-4.666.014V17.72a.718.718 0 00-.72-.719c-.398 0-.72.32-.72.72l.015 4.56H.719a.718.718 0 00-.719.72c0 .398.32.72.72.72h4.462v4.56c0 .399.32.72.72.72a.718.718 0 00.719-.72v-4.56h4.66a.72.72 0 000-1.44z" fill="#fff"/></svg>