<svg width="16" height="16" viewBox="0 0 16 16" fill="none" xmlns="http://www.w3.org/2000/svg">
<path d="M14.7674 10.0409C14.5473 10.0409 14.3689 10.2202 14.3689 10.4414V13.9973C14.3681 14.6607 13.8334 15.1982 13.1734 15.1988H1.99241C1.33243 15.1982 0.797743 14.6607 0.796965 13.9973V3.56083C0.797743 2.89766 1.33243 2.36012 1.99241 2.35934H5.5305C5.7506 2.35934 5.92898 2.18006 5.92898 1.95885C5.92898 1.73779 5.7506 1.55835 5.5305 1.55835H1.99241C0.892538 1.5596 0.00124526 2.4554 0 3.56083V13.9975C0.00124526 15.1029 0.892538 15.9987 1.99241 16H13.1734C14.2733 15.9987 15.1646 15.1029 15.1658 13.9975V10.4414C15.1658 10.2202 14.9875 10.0409 14.7674 10.0409V10.0409Z" fill="black"/>
<path d="M15.0074 0.52788C14.3071 -0.17596 13.1717 -0.17596 12.4714 0.52788L5.36223 7.67297C5.31351 7.72194 5.27833 7.78264 5.25996 7.84929L4.32509 11.2415C4.28664 11.3805 4.32571 11.5295 4.4272 11.6316C4.52884 11.7336 4.67703 11.7729 4.81541 11.7344L8.19052 10.7947C8.25683 10.7762 8.31723 10.7408 8.36595 10.6919L15.475 3.54662C16.1742 2.84231 16.1742 1.70215 15.475 0.997837L15.0074 0.52788ZM6.23049 7.9333L12.0488 2.08543L13.9252 3.97136L8.10678 9.81922L6.23049 7.9333ZM5.85566 8.68923L7.3548 10.1961L5.28113 10.7735L5.85566 8.68923ZM14.9115 2.98029L14.4889 3.40503L12.6123 1.51895L13.035 1.09421C13.424 0.703253 14.0548 0.703253 14.4437 1.09421L14.9115 1.56416C15.2999 1.95558 15.2999 2.58902 14.9115 2.98029V2.98029Z" fill="black"/>
</svg>
