<svg width="14" height="33" viewBox="0 0 14 33" fill="none" xmlns="http://www.w3.org/2000/svg">
<path d="M9.0043 2.23945L13.2699 0C13.6423 0.139426 14 0.596367 14 1.12383V10.6859C14 11.1043 13.7949 11.4816 13.4504 11.7113L10.1692 13.793C9.38465 14.3264 8.25782 13.7734 8.25782 12.7677V3.37968C8.25782 2.89567 8.52855 2.47731 9.0043 2.23945ZM9.89844 7.82031C9.89844 8.04701 10.0819 8.23046 10.3086 8.23046C10.5353 8.23046 10.7188 8.04701 10.7188 7.82031V6.17968C10.7188 5.95297 10.5353 5.76953 10.3086 5.76953C10.0819 5.76953 9.89844 5.95297 9.89844 6.17968V7.82031Z" fill="black"/>
<path d="M0.162238 6.67324L3.04591 4.66003C3.3043 4.40163 3.7461 4.58462 3.7461 4.95001V6.17969H7.02734C7.25386 6.17969 7.4375 6.36327 7.4375 6.58984V7.41015C7.4375 7.63667 7.25386 7.82031 7.02734 7.82031H3.7461V9.04993C3.7461 9.41532 3.30436 9.59833 3.04596 9.33996L0.162238 7.32667C-0.0540237 7.16256 -0.0540237 6.83736 0.162238 6.67324Z" fill="black"/>
<path d="M7.4375 8.64062V12.3594H6.20703C5.52853 12.3594 4.97656 11.8074 4.97656 11.1289V8.64062C6.41498 8.64062 5.99643 8.64062 7.4375 8.64062Z" fill="black"/>
<path d="M6.20766 0H11.5059L8.63966 1.50483L8.6381 1.50563C8.63799 1.50568 8.63797 1.50576 8.63797 1.50576L8.62369 1.51323C7.8867 1.88136 7.4381 2.5819 7.4381 3.37979V5.35937C5.99703 5.35937 6.41558 5.35937 4.97716 5.35937V1.23047C4.97719 0.55196 5.52912 0 6.20766 0Z" fill="black"/>
<path d="M9.0043 21.2395L13.2699 19C13.6423 19.1394 14 19.5964 14 20.1238V29.6859C14 30.1043 13.7949 30.4816 13.4504 30.7113L10.1692 32.793C9.38465 33.3264 8.25782 32.7734 8.25782 31.7677V22.3797C8.25782 21.8957 8.52855 21.4773 9.0043 21.2395ZM9.89844 26.8203C9.89844 27.047 10.0819 27.2305 10.3086 27.2305C10.5353 27.2305 10.7188 27.047 10.7188 26.8203V25.1797C10.7188 24.953 10.5353 24.7695 10.3086 24.7695C10.0819 24.7695 9.89844 24.953 9.89844 25.1797V26.8203Z" fill="#005FF9"/>
<path d="M0.162238 25.6732L3.04591 23.66C3.3043 23.4016 3.7461 23.5846 3.7461 23.95V25.1797H7.02734C7.25386 25.1797 7.4375 25.3633 7.4375 25.5898V26.4102C7.4375 26.6367 7.25386 26.8203 7.02734 26.8203H3.7461V28.0499C3.7461 28.4153 3.30436 28.5983 3.04596 28.34L0.162238 26.3267C-0.0540237 26.1626 -0.0540237 25.8374 0.162238 25.6732Z" fill="#005FF9"/>
<path d="M7.4375 27.6406V31.3594H6.20703C5.52853 31.3594 4.97656 30.8074 4.97656 30.1289V27.6406C6.41498 27.6406 5.99643 27.6406 7.4375 27.6406Z" fill="#005FF9"/>
<path d="M6.20766 19H11.5059L8.63966 20.5048L8.6381 20.5056C8.63799 20.5057 8.63797 20.5058 8.63797 20.5058L8.62369 20.5132C7.8867 20.8814 7.4381 21.5819 7.4381 22.3798V24.3594C5.99703 24.3594 6.41558 24.3594 4.97716 24.3594V20.2305C4.97719 19.552 5.52912 19 6.20766 19Z" fill="#005FF9"/>
</svg>
