<svg width="24" height="48" fill="none" xmlns="http://www.w3.org/2000/svg"><path d="M20 8.18V3a1 1 0 10-2 0v5.18a3 3 0 000 5.64V21a1 1 0 002 0v-7.18a3 3 0 000-5.64zM19 12a1 1 0 110-2 1 1 0 010 2zm-6 2.18V3a1 1 0 10-2 0v11.18a3 3 0 000 5.64V21a1 1 0 002 0v-1.18a3 3 0 000-5.64zM12 18a1 1 0 110-2 1 1 0 010 2zM6 6.18V3a1 1 0 10-2 0v3.18a3 3 0 000 5.64V21a1 1 0 102 0v-9.18a3 3 0 000-5.64zM5 10a1 1 0 110-2 1 1 0 010 2z" fill="#000"/><path d="M20 32.18V27a1 1 0 10-2 0v5.18a3 3 0 000 5.64V45a1 1 0 002 0v-7.18a3 3 0 000-5.64zM19 36a1 1 0 110-2 1 1 0 010 2zm-6 2.18V27a1 1 0 10-2 0v11.18a3 3 0 000 5.64V45a1 1 0 002 0v-1.18a3 3 0 000-5.64zM12 42a1 1 0 110-2 1 1 0 010 2zM6 30.18V27a1 1 0 10-2 0v3.18a3 3 0 000 5.64V45a1 1 0 102 0v-9.18a3 3 0 000-5.64zM5 34a1 1 0 110-2 1 1 0 010 2z" fill="#003894"/></svg>