<svg width="14" height="33" fill="none" xmlns="http://www.w3.org/2000/svg"><path d="M4.539 28.203h7.41a.409.409 0 00.394-.297l1.641-5.743a.41.41 0 00-.394-.522H3.592L3.3 20.32a.41.41 0 00-.4-.321H.41a.41.41 0 100 .82h2.16l1.48 6.665a1.231 1.231 0 00.489 2.358h7.41a.41.41 0 100-.82H4.54a.41.41 0 010-.82zm-.412 2.871a1.231 1.231 0 102.462-.002 1.231 1.231 0 00-2.462.002zm5.771 0a1.231 1.231 0 102.46-.002 1.231 1.231 0 00-2.459.002z" fill="#005FF9"/><path d="M4.539 9.203h7.41a.409.409 0 00.394-.297l1.641-5.743a.41.41 0 00-.394-.522H3.592L3.3 1.32a.41.41 0 00-.4-.321H.41a.41.41 0 100 .82h2.16l1.48 6.665a1.231 1.231 0 00.489 2.358h7.41a.41.41 0 100-.82H4.54a.41.41 0 010-.82zm-.412 2.871a1.231 1.231 0 102.462-.002 1.231 1.231 0 00-2.462.002zm5.771 0a1.231 1.231 0 102.46-.002 1.231 1.231 0 00-2.459.002z" fill="#000"/></svg>