<svg width="18" height="18" fill="none" xmlns="http://www.w3.org/2000/svg"><path d="M2.847 10.73c.393-.407.867-.625 1.37-.625.498 0 .975.213 1.385.62l1.28 1.271c.105-.056.21-.109.311-.161a5.19 5.19 0 00.401-.214c1.2-.758 2.289-1.746 3.334-3.024.506-.637.846-1.174 1.093-1.718-.332-.302-.64-.617-.94-.92-.113-.112-.226-.23-.34-.342-.85-.847-.85-1.944 0-2.79l1.106-1.101c.126-.125.255-.254.377-.383.243-.25.498-.508.761-.75.393-.387.863-.593 1.357-.593s.972.206 1.377.593l.008.008 1.377 1.383c.519.516.815 1.145.88 1.875.096 1.177-.252 2.274-.52 2.992-.655 1.762-1.635 3.395-3.098 5.145a19.047 19.047 0 01-6.346 4.947c-.932.44-2.175.96-3.565 1.049A5.473 5.473 0 014.2 18c-.935 0-1.721-.335-2.337-1-.004-.008-.012-.012-.016-.02-.21-.254-.454-.484-.709-.73a15.852 15.852 0 01-.526-.52C.21 15.315 0 14.83 0 14.335c0-.5.215-.98.624-1.383l2.223-2.222zm-1.45 4.246c.004 0 .004.004 0 0 .158.17.32.322.494.492.264.25.531.512.782.806.41.436.891.641 1.523.641.06 0 .126 0 .186-.004 1.203-.076 2.321-.544 3.16-.943a17.98 17.98 0 005.978-4.662c1.381-1.657 2.305-3.19 2.916-4.834.377-1.004.515-1.787.454-2.524a1.848 1.848 0 00-.56-1.198l-1.38-1.375c-.199-.185-.41-.286-.616-.286-.255 0-.462.153-.591.282l-.013.012c-.247.23-.482.468-.729.722-.125.129-.255.258-.384.391l-1.106 1.1c-.43.428-.43.823 0 1.25.117.118.23.235.348.348.34.346.665.669 1.017.983.008.008.016.013.02.02.348.347.284.686.21.916l-.011.036c-.288.694-.693 1.347-1.309 2.125l-.004.004c-1.118 1.371-2.296 2.44-3.596 3.258-.166.105-.337.19-.499.27a5.121 5.121 0 00-.4.214c-.017.008-.033.02-.05.028a.882.882 0 01-.4.101c-.336 0-.547-.21-.616-.278l-1.385-1.38c-.138-.136-.356-.301-.612-.301-.25 0-.457.157-.583.294l-.008.008-2.232 2.222c-.417.411-.417.834-.004 1.262z" fill="#000"/></svg>