<svg width="37" height="32" fill="none" xmlns="http://www.w3.org/2000/svg"><path d="M21.012 0C12.2 0 5.032 7.18 5.032 16v.053l-3.164-4.77a1.02 1.02 0 00-1.7 1.127l4.592 6.916a1.022 1.022 0 001.533.188l6.382-5.751c.415-.378.453-1.02.075-1.444a1.024 1.024 0 00-1.442-.075l-4.237 3.832V16c0-7.701 6.253-13.96 13.941-13.96C28.7 2.04 34.961 8.3 34.961 16c0 7.701-6.253 13.96-13.941 13.96a13.823 13.823 0 01-9.855-4.09c-.4-.4-1.043-.4-1.443 0-.4.401-.4 1.044 0 1.444A15.863 15.863 0 0021.02 32C29.826 32 37 24.828 37 16S29.826 0 21.012 0z" fill="#F2B705"/></svg>