<svg width="16" height="37" fill="none" xmlns="http://www.w3.org/2000/svg"><path d="M3.558 10.119c0-.265-.087-.468-.261-.608-.175-.144-.489-.294-.942-.45a6.538 6.538 0 01-1.077-.467C.557 8.176.196 7.613.196 6.904c0-.368.096-.695.288-.982a1.93 1.93 0 01.833-.679C1.68 5.081 2.087 5 2.538 5c.454 0 .858.089 1.212.267.355.174.63.422.825.744.197.321.296.686.296 1.095H3.563c0-.312-.092-.554-.275-.726-.183-.174-.44-.262-.772-.262-.32 0-.568.074-.745.22a.698.698 0 00-.266.571c0 .222.103.407.31.557.208.15.515.29.92.421.744.24 1.286.538 1.626.894.34.355.51.798.51 1.329 0 .59-.208 1.052-.624 1.39-.415.333-.975.5-1.678.5-.489 0-.934-.095-1.335-.285a2.178 2.178 0 01-.92-.791A2.138 2.138 0 010 9.764h1.313c0 .751.418 1.127 1.256 1.127.31 0 .553-.067.728-.201a.686.686 0 00.261-.571zM9.58 8.954H7.07v1.825h2.948v1.127H5.76V5.094h4.247V6.23H7.07v1.623h2.512v1.1zm6.42-.3c0 .671-.11 1.26-.331 1.764-.221.506-.538.896-.951 1.17a2.48 2.48 0 01-1.413.412c-.526 0-.996-.136-1.409-.407-.412-.271-.732-.658-.959-1.16-.227-.506-.342-1.086-.345-1.741v-.337c0-.67.112-1.26.336-1.769.227-.511.545-.903.955-1.174A2.493 2.493 0 0113.296 5c.53 0 .999.137 1.409.412.413.271.731.663.955 1.174.227.509.34 1.097.34 1.764v.304zm-1.326-.308c0-.715-.119-1.258-.357-1.629a1.143 1.143 0 00-1.02-.557c-.44 0-.778.184-1.017.553-.238.365-.359.901-.362 1.61v.331c0 .696.12 1.236.358 1.62.238.383.581.575 1.029.575.439 0 .776-.184 1.012-.552.235-.371.354-.911.357-1.62v-.331z" fill="#005FF9"/><path d="M3.558 31.119c0-.265-.087-.468-.261-.608-.175-.144-.489-.293-.942-.45a6.544 6.544 0 01-1.077-.467c-.721-.418-1.082-.982-1.082-1.69 0-.368.096-.695.288-.982.195-.29.472-.517.833-.679.363-.162.77-.243 1.221-.243.454 0 .858.089 1.212.267.355.174.63.422.825.744.197.321.296.686.296 1.095H3.563c0-.312-.092-.554-.275-.726-.183-.174-.44-.262-.772-.262-.32 0-.568.074-.745.22a.698.698 0 00-.266.571c0 .222.103.407.31.557.208.15.515.29.92.421.744.24 1.286.538 1.626.894.34.355.51.798.51 1.329 0 .59-.208 1.052-.624 1.39-.415.333-.975.5-1.678.5-.489 0-.934-.095-1.335-.285a2.178 2.178 0 01-.92-.791A2.138 2.138 0 010 30.764h1.313c0 .751.418 1.127 1.256 1.127.31 0 .553-.067.728-.201a.686.686 0 00.261-.571zm6.022-1.165H7.07v1.825h2.948v1.127H5.76v-6.812h4.247v1.137H7.07v1.623h2.512v1.1zm6.42-.3c0 .671-.11 1.26-.331 1.764-.221.506-.538.896-.951 1.17a2.48 2.48 0 01-1.413.412c-.526 0-.996-.136-1.409-.407-.412-.272-.732-.658-.959-1.16-.227-.506-.342-1.086-.345-1.741v-.337c0-.67.112-1.26.336-1.769.227-.511.545-.903.955-1.174A2.494 2.494 0 0113.296 26c.53 0 .999.137 1.409.412.413.271.731.663.955 1.174.227.509.34 1.097.34 1.764v.304zm-1.326-.308c0-.715-.119-1.258-.357-1.629a1.143 1.143 0 00-1.02-.557c-.44 0-.778.184-1.017.553-.238.364-.359.901-.362 1.61v.331c0 .696.12 1.236.358 1.62.238.383.581.575 1.029.575.439 0 .776-.184 1.012-.552.235-.371.354-.911.357-1.62v-.331z" fill="#000"/></svg>