<svg width="16" height="16" viewBox="0 0 16 16" fill="none" xmlns="http://www.w3.org/2000/svg">
<path d="M14.7674 10.0409C14.5473 10.0409 14.3689 10.2202 14.3689 10.4414V13.9974C14.3681 14.6607 13.8334 15.1982 13.1734 15.1989H1.99241C1.33243 15.1982 0.797743 14.6607 0.796965 13.9974V3.56086C0.797743 2.89769 1.33243 2.36015 1.99241 2.35937H5.5305C5.7506 2.35937 5.92898 2.18009 5.92898 1.95888C5.92898 1.73782 5.7506 1.55838 5.5305 1.55838H1.99241C0.892538 1.55963 0.00124526 2.45543 0 3.56086V13.9975C0.00124526 15.103 0.892538 15.9988 1.99241 16H13.1734C14.2733 15.9988 15.1646 15.103 15.1658 13.9975V10.4414C15.1658 10.2202 14.9875 10.0409 14.7674 10.0409Z" fill="#E6C53F"/>
<path d="M15.0078 0.52788C14.3075 -0.17596 13.1721 -0.17596 12.4718 0.52788L5.36271 7.67297C5.31399 7.72194 5.27881 7.78264 5.26044 7.84929L4.32558 11.2415C4.28713 11.3805 4.3262 11.5295 4.42769 11.6316C4.52933 11.7336 4.67751 11.7729 4.81589 11.7344L8.19097 10.7946C8.25728 10.7762 8.31768 10.7408 8.3664 10.6919L15.4754 3.54662C16.1746 2.84231 16.1746 1.70215 15.4754 0.997837L15.0078 0.52788ZM6.23096 7.9333L12.0492 2.08543L13.9256 3.97136L8.10723 9.81922L6.23096 7.9333ZM5.85614 8.68923L7.35526 10.1961L5.28161 10.7735L5.85614 8.68923ZM14.9119 2.98029L14.4893 3.40503L12.6127 1.51895L13.0354 1.09421C13.4244 0.703253 14.0551 0.703253 14.4441 1.09421L14.9119 1.56416C15.3002 1.95558 15.3002 2.58902 14.9119 2.98029Z" fill="#E6C53F"/>
</svg>
