<svg width="26" height="18" viewBox="0 0 26 18" fill="none" xmlns="http://www.w3.org/2000/svg">
<path d="M25.496 1.49785C25.4943 1.49785 25.4926 1.49785 25.491 1.49785H23.7825V0.933741C23.7917 0.710468 23.642 0.509808 23.4197 0.447439C22.2336 0.147513 21.0122 -0.00287616 19.786 4.16532e-05C17.7701 4.16532e-05 15.0235 0.437713 12.9924 2.43155C10.9765 0.418261 8.20973 4.16532e-05 6.19888 4.16532e-05C4.97271 -0.00287616 3.75133 0.147513 2.56523 0.447439C2.34285 0.509808 2.19317 0.710468 2.20236 0.933741V1.49299H0.503974C0.225654 1.49299 0 1.71073 0 1.97929V17.5118C0 17.7803 0.225654 17.9981 0.503974 17.9981C0.590531 17.9978 0.675577 17.9761 0.750921 17.9349C0.801318 17.9105 5.84105 15.2505 12.8765 16.9622H12.9521H12.9975C13.0377 16.9669 13.0782 16.9669 13.1184 16.9622C20.1741 15.2359 25.2138 17.8911 25.244 17.9349C25.4 18.0217 25.5921 18.0217 25.748 17.9349C25.903 17.8485 25.9989 17.6893 26 17.5166V1.98415C26 1.71559 25.7744 1.49785 25.496 1.49785ZM1.00795 16.7385V2.47045H2.21244V14.6669C2.20929 14.9355 2.43237 15.1556 2.71069 15.1587C2.7379 15.159 2.76511 15.1572 2.79201 15.1532C3.83461 14.9996 4.88722 14.9183 5.94185 14.9101C7.40274 14.8856 8.85753 15.0976 10.2458 15.5374C7.11075 15.1716 3.93081 15.585 1.00795 16.7385ZM5.94185 13.9423C5.02518 13.9443 4.10959 14.0012 3.20023 14.1125V1.31792C4.18147 1.10699 5.1835 0.999331 6.1888 0.99696C8.07366 0.99696 10.6742 1.41518 12.4784 3.37984L12.4935 15.4936C11.4452 14.8322 9.39911 13.9423 5.94185 13.9423ZM13.5015 3.37984C15.3057 1.43463 17.9062 0.99696 19.791 0.99696C20.7963 0.999817 21.7983 1.10741 22.7796 1.31792V14.1125C21.8754 14.0001 20.9648 13.9416 20.0531 13.9375C16.616 13.9375 14.5648 14.8274 13.5015 15.4888V3.37984ZM24.987 16.7385C22.0579 15.5819 18.8707 15.1683 15.729 15.5374C17.1238 15.0961 18.5855 14.884 20.0531 14.9101C21.1144 14.9158 22.1738 14.9954 23.2231 15.1483C23.4983 15.1886 23.7552 15.006 23.797 14.7405C23.8011 14.7146 23.803 14.6883 23.8027 14.662V2.47045H25.0072L24.987 16.7385Z" fill="black"/>
</svg>
