<svg width="28" height="18" viewBox="0 0 28 18" fill="none" xmlns="http://www.w3.org/2000/svg">
<path d="M24.2161 7.92022C25.036 7.33686 25.5789 6.36647 25.5789 5.27267C25.5789 3.48333 24.1496 2.03615 22.3823 2.03615C20.615 2.03615 19.1856 3.48333 19.1856 5.27267C19.1856 6.36647 19.723 7.33686 20.5485 7.92022C19.8449 8.16703 19.2022 8.54846 18.6593 9.04207C17.9114 8.39701 17.0305 7.9034 16.0665 7.61172C17.2355 6.89374 18.0222 5.58679 18.0222 4.10034C18.0222 1.83422 16.2105 0 13.9723 0C11.7341 0 9.92244 1.83983 9.92244 4.10034C9.92244 5.58679 10.7036 6.89374 11.8781 7.61172C10.9252 7.9034 10.0554 8.3914 9.31302 9.02524C8.77008 8.54285 8.1385 8.16703 7.44598 7.92583C8.26593 7.34247 8.80886 6.37208 8.80886 5.27828C8.80886 3.48894 7.3795 2.04176 5.61219 2.04176C3.84488 2.04176 2.41551 3.48894 2.41551 5.27828C2.41551 6.37208 2.95291 7.34247 3.77839 7.92583C1.57895 8.6943 0 10.809 0 13.2939V13.6641C0 13.6753 0.0110803 13.6865 0.0221607 13.6865H6.79778C6.759 13.995 6.73684 14.3147 6.73684 14.6345V15.0159C6.73684 16.665 8.0554 18 9.68421 18H18.2715C19.9003 18 21.2188 16.665 21.2188 15.0159V14.6345C21.2188 14.3147 21.1967 13.995 21.1579 13.6865H27.9778C27.9889 13.6865 28 13.6753 28 13.6641V13.2939C27.9889 10.8034 26.4155 8.68869 24.2161 7.92022ZM20.072 5.26706C20.072 3.97694 21.108 2.92801 22.3823 2.92801C23.6565 2.92801 24.6925 3.97694 24.6925 5.26706C24.6925 6.54035 23.6787 7.57806 22.4266 7.60611C22.41 7.60611 22.3989 7.60611 22.3823 7.60611C22.3657 7.60611 22.3546 7.60611 22.338 7.60611C21.0803 7.58367 20.072 6.54596 20.072 5.26706ZM10.7978 4.10034C10.7978 2.33344 12.2161 0.897476 13.9612 0.897476C15.7064 0.897476 17.1247 2.33344 17.1247 4.10034C17.1247 5.80555 15.8006 7.20224 14.144 7.2976C14.0831 7.2976 14.0222 7.2976 13.9612 7.2976C13.9003 7.2976 13.8393 7.2976 13.7784 7.2976C12.1219 7.20224 10.7978 5.80555 10.7978 4.10034ZM3.28532 5.26706C3.28532 3.97694 4.32133 2.92801 5.59557 2.92801C6.86981 2.92801 7.90582 3.97694 7.90582 5.26706C7.90582 6.54035 6.89197 7.57806 5.63989 7.60611C5.62327 7.60611 5.61219 7.60611 5.59557 7.60611C5.57895 7.60611 5.56787 7.60611 5.55125 7.60611C4.29917 7.58367 3.28532 6.54596 3.28532 5.26706ZM6.95291 12.7834H0.897507C1.14681 10.3939 3.14127 8.52041 5.56233 8.50358C5.57341 8.50358 5.58449 8.50358 5.59557 8.50358C5.60665 8.50358 5.61773 8.50358 5.62881 8.50358C6.78116 8.50919 7.8338 8.9411 8.6482 9.64226C7.85042 10.5173 7.25762 11.5943 6.95291 12.7834ZM20.3213 15.0159C20.3213 16.1658 19.3961 17.1025 18.2604 17.1025H9.67313C8.5374 17.1025 7.61219 16.1658 7.61219 15.0159V14.6345C7.61219 11.1511 10.3601 8.30165 13.7784 8.20069C13.8393 8.2063 13.9058 8.2063 13.9668 8.2063C14.0277 8.2063 14.0942 8.2063 14.1551 8.20069C17.5734 8.30165 20.3213 11.1511 20.3213 14.6345V15.0159ZM20.9806 12.7834C20.6759 11.5999 20.0942 10.5397 19.3019 9.66469C20.1219 8.94671 21.1856 8.5148 22.349 8.50358C22.3601 8.50358 22.3712 8.50358 22.3823 8.50358C22.3934 8.50358 22.4044 8.50358 22.4155 8.50358C24.8366 8.52041 26.831 10.3939 27.0803 12.7834H20.9806Z" fill="black"/>
</svg>
