<svg width="18" height="18" viewBox="0 0 18 18" fill="none" xmlns="http://www.w3.org/2000/svg">
<path d="M17.4727 8.47264C17.1815 8.47264 16.9454 8.70875 16.9454 8.99998C16.9454 13.381 13.3811 16.9452 9.0001 16.9452C4.61906 16.9452 1.05484 13.381 1.05484 8.99998C1.05484 4.61894 4.61906 1.05471 9.0001 1.05471C10.336 1.05471 11.6355 1.38641 12.7955 2.01845L12.1362 2.67773C11.9854 2.82855 11.9403 3.05534 12.0219 3.25242C12.1035 3.44947 12.2958 3.57797 12.5091 3.57797H15.0324C15.3236 3.57797 15.5597 3.34186 15.5597 3.05063V0.527374C15.5597 0.314082 15.4312 0.121814 15.2341 0.0401812C15.037 -0.0414863 14.8102 0.00365407 14.6595 0.154509L13.569 1.24494C12.1878 0.429429 10.6174 6.81454e-05 9.00007 6.81454e-05C6.5961 6.81454e-05 4.33599 0.936239 2.63612 2.63607C0.936257 4.33597 0.00012207 6.59605 0.00012207 9.00002C0.00012207 11.404 0.936257 13.6641 2.63612 15.3639C4.33602 17.0638 6.5961 18 9.00007 18C11.404 18 13.6641 17.0638 15.364 15.3639C17.0639 13.6641 18 11.404 18 9.00002C18.0001 8.70875 17.7639 8.47264 17.4727 8.47264Z" fill="black"/>
<path d="M12.389 8.47265H9.52734V5.61094C9.52734 5.31971 9.29123 5.0836 9 5.0836C8.70876 5.0836 8.47266 5.31971 8.47266 5.61094V8.99999C8.47266 9.29122 8.70876 9.52733 9 9.52733H12.389C12.6802 9.52733 12.9164 9.29122 12.9164 8.99999C12.9164 8.70875 12.6802 8.47265 12.389 8.47265Z" fill="black"/>
</svg>
