<svg width="14" height="14" viewBox="0 0 14 14" fill="none" xmlns="http://www.w3.org/2000/svg">
<path d="M6.97676 12.8334H1.74418C1.42324 12.8334 1.16279 12.572 1.16279 12.25V1.75002C1.16279 1.42801 1.42327 1.1667 1.74418 1.1667H6.97676C7.29827 1.1667 7.55814 0.905955 7.55814 0.583376C7.55814 0.260796 7.29827 0 6.97676 0H1.74418C0.782551 0 0 0.785187 0 1.75002V12.25C0 13.2148 0.782551 14 1.74418 14H6.97676C7.29827 14 7.55814 13.7393 7.55814 13.4167C7.55814 13.0941 7.29827 12.8334 6.97676 12.8334Z" fill="#E6C53F"/>
<path d="M13.8268 6.58468L10.2919 3.08467C10.064 2.85833 9.69543 2.86127 9.46984 3.09051C9.24426 3.31976 9.24658 3.68901 9.47567 3.91534L12.0018 6.41667H5.23263C4.91112 6.41667 4.65125 6.67741 4.65125 6.99999C4.65125 7.32257 4.91112 7.58334 5.23263 7.58334H12.0018L9.47567 10.0847C9.24661 10.311 9.24486 10.6802 9.46984 10.9095C9.58378 11.025 9.73379 11.0833 9.8838 11.0833C10.0315 11.0833 10.1791 11.0273 10.2919 10.9153L13.8268 7.4153C13.9373 7.30564 14.0001 7.15628 14.0001 6.99996C14.0001 6.84369 13.9379 6.69494 13.8268 6.58468Z" fill="#E6C53F"/>
</svg>
