<svg width="20" height="14" viewBox="0 0 20 14" fill="none" xmlns="http://www.w3.org/2000/svg">
<path d="M19.1667 7.95456H0.833333C0.373332 7.95456 0 7.52693 0 7.00002C0 6.47311 0.373332 6.04547 0.833333 6.04547H19.1667C19.6267 6.04547 20 6.47311 20 7.00002C20 7.52693 19.6267 7.95456 19.1667 7.95456Z" fill="black"/>
<path d="M19.1667 1.90909H0.833333C0.373332 1.90909 0 1.48145 0 0.954544C0 0.427634 0.373332 0 0.833333 0H19.1667C19.6267 0 20 0.427634 20 0.954544C20 1.48145 19.6267 1.90909 19.1667 1.90909Z" fill="black"/>
<path d="M19.1667 14H0.833333C0.373332 14 0 13.5724 0 13.0455C0 12.5185 0.373332 12.0909 0.833333 12.0909H19.1667C19.6267 12.0909 20 12.5185 20 13.0455C20 13.5724 19.6267 14 19.1667 14Z" fill="black"/>
</svg>
