<svg width="37" height="32" viewBox="0 0 37 32" fill="none" xmlns="http://www.w3.org/2000/svg">
<path d="M21.0124 0C12.1991 0 5.03228 7.17997 5.03228 16V16.0529L1.86798 11.2839C1.55835 10.8153 0.923976 10.6868 0.455751 10.9967C-0.0124747 11.3066 -0.140859 11.9414 0.168774 12.41L4.7604 19.3255C4.92655 19.5749 5.19087 19.7336 5.4854 19.7714C5.53071 19.7789 5.56847 19.7789 5.61378 19.7789C5.863 19.7789 6.10467 19.6882 6.29347 19.5144L12.6749 13.7629C13.0903 13.385 13.128 12.7426 12.7504 12.3193C12.3728 11.9036 11.7309 11.8658 11.308 12.2437L7.07132 16.0756V16C7.07132 8.29854 13.3244 2.04062 21.0124 2.04062C28.7003 2.04062 34.961 8.29854 34.961 16C34.961 23.7015 28.7079 29.9594 21.0199 29.9594C17.2968 29.9594 13.7926 28.5083 11.1645 25.8706C10.7643 25.47 10.1223 25.47 9.72209 25.8706C9.32183 26.2711 9.32183 26.9136 9.72209 27.3141C12.7429 30.3373 16.753 32 21.0199 32C29.8256 32 37 24.8276 37 16C37 7.17241 29.8256 0 21.0124 0Z" fill="#F2B705"/>
</svg>
