<svg width="15" height="18" viewBox="0 0 15 18" fill="none" xmlns="http://www.w3.org/2000/svg">
<path fill-rule="evenodd" clip-rule="evenodd" d="M7.69209 8.20969C7.68835 8.21002 7.68458 8.21034 7.68079 8.21063C7.62179 8.21523 7.5584 8.21523 7.5 8.21523C7.49812 8.21523 7.49624 8.21523 7.49435 8.21523C7.43376 8.21523 7.36818 8.21507 7.30791 8.20969C7.29019 8.2102 7.27248 8.21077 7.25479 8.21142C7.08757 8.21755 6.92194 8.22993 6.75816 8.24833C3.53205 8.6108 1.01977 11.31 1.01977 14.571V14.9481C1.01977 16.0851 1.96328 17.0113 3.12147 17.0113H11.8785C13.0367 17.0113 13.9802 16.0851 13.9802 14.9481V14.571C13.9802 11.3077 11.4644 8.60698 8.235 8.24756C8.06975 8.22917 7.90263 8.21691 7.73389 8.21102C7.71997 8.21053 7.70603 8.21009 7.69209 8.20969ZM9.87465 7.59529C11.0015 6.84584 11.7401 5.58079 11.7401 4.15553C11.7401 1.87404 9.84909 0 7.49435 0C5.13961 0 3.24859 1.87404 3.24859 4.15553C3.24859 5.58236 3.98882 6.84863 5.11779 7.59777C2.13948 8.57738 0 11.3412 0 14.571V14.9481C0 16.6196 1.3882 18 3.12147 18H11.8785C13.6118 18 15 16.6196 15 14.9481V14.571C15 11.3385 12.8569 8.5727 9.87465 7.59529ZM8.18657 7.24869C8.0345 7.28146 7.87848 7.30364 7.71937 7.3144C7.70653 7.31526 7.69367 7.31606 7.68079 7.31678H7.30791C7.29882 7.31627 7.28973 7.31572 7.28066 7.31514C7.11878 7.30476 6.96008 7.28256 6.80546 7.24941C5.35864 6.93924 4.26836 5.67054 4.26836 4.15553C4.26836 2.40853 5.71469 0.988737 7.49435 0.988737C9.27401 0.988737 10.7203 2.40853 10.7203 4.15553C10.7203 5.66937 9.63173 6.9373 8.18657 7.24869Z" fill="black"/>
</svg>
