<svg width="18" height="18" fill="none" xmlns="http://www.w3.org/2000/svg"><path d="M9.177 18h-.18a62.577 62.577 0 01-3.981-.11c-1.163-.07-2.224-.472-3.069-1.161-.815-.665-1.372-1.564-1.655-2.672-.246-.965-.26-1.912-.272-2.828C.011 10.572.002 9.793 0 9.002c.002-.796.011-1.574.02-2.231.013-.916.026-1.863.272-2.828.283-1.108.84-2.007 1.655-2.672C2.792.582 3.853.181 5.016.11A62.712 62.712 0 019 0a62.969 62.969 0 013.983.11c1.162.07 2.223.472 3.068 1.161.816.665 1.373 1.564 1.655 2.672.246.965.26 1.912.272 2.828.01.657.018 1.435.02 2.227v.004c-.002.791-.01 1.57-.02 2.227-.012.916-.025 1.863-.272 2.828-.282 1.107-.84 2.007-1.655 2.672-.845.689-1.906 1.09-3.068 1.161a62.16 62.16 0 01-3.807.11zm-.18-1.407a61.496 61.496 0 003.901-.107c.88-.053 1.641-.338 2.266-.847.577-.47.974-1.12 1.18-1.93.206-.803.217-1.665.229-2.499.009-.653.018-1.426.02-2.21-.002-.784-.011-1.557-.02-2.21-.012-.834-.023-1.696-.228-2.5-.207-.809-.604-1.458-1.181-1.929-.625-.509-1.387-.794-2.266-.848a61.441 61.441 0 00-3.897-.107 61.268 61.268 0 00-3.9.107c-.879.054-1.641.34-2.265.848-.577.47-.975 1.12-1.181 1.93-.205.803-.217 1.665-.229 2.499a198.21 198.21 0 00-.02 2.212c.002.781.012 1.555.02 2.208.012.834.024 1.696.229 2.499.206.81.604 1.46 1.18 1.93.625.509 1.387.794 2.266.847 1.238.076 2.513.11 3.897.107zm-.033-3.198A4.4 4.4 0 014.57 9a4.4 4.4 0 014.394-4.395A4.4 4.4 0 0113.36 9a4.4 4.4 0 01-4.395 4.395zm0-7.383A2.992 2.992 0 005.976 9a2.992 2.992 0 002.988 2.988A2.992 2.992 0 0011.953 9a2.992 2.992 0 00-2.989-2.988zm4.887-2.813a1.055 1.055 0 100 2.11 1.055 1.055 0 000-2.11z" fill="#000"/></svg>