<svg width="170" height="40" viewBox="0 0 170 40" fill="none" xmlns="http://www.w3.org/2000/svg">
<path d="M0 0H165C167.761 0 170 2.23858 170 5V40H5C2.23858 40 0 37.7614 0 35V0Z" fill="#87B550"/>
<path d="M22.9766 26.3205V30.0553H7.72717V9.94479H22.6108V13.6796H12.257V18.0464H21.401V21.6663H12.257V26.3205H22.9766Z" fill="white"/>
<path d="M35.9736 30.4C33.9666 30.4 32.1472 29.9595 30.5153 29.0785C28.9022 28.1783 27.6268 26.943 26.6889 25.3724C25.7698 23.7827 25.3103 21.9919 25.3103 20C25.3103 18.0081 25.7698 16.2269 26.6889 14.6564C27.6268 13.0667 28.9022 11.8313 30.5153 10.9503C32.1472 10.0501 33.976 9.60004 36.0017 9.60004C37.7086 9.60004 39.2467 9.90648 40.6159 10.5194C42.004 11.1323 43.1669 12.0133 44.1047 13.1625L41.1787 15.9205C39.8469 14.3499 38.1963 13.5647 36.2268 13.5647C35.0076 13.5647 33.9197 13.8424 32.9631 14.3978C32.0065 14.9341 31.2562 15.6906 30.7123 16.6674C30.1871 17.6442 29.9245 18.7551 29.9245 20C29.9245 21.245 30.1871 22.3558 30.7123 23.3326C31.2562 24.3094 32.0065 25.0755 32.9631 25.631C33.9197 26.1673 35.0076 26.4354 36.2268 26.4354C38.1963 26.4354 39.8469 25.6406 41.1787 24.0509L44.1047 26.8089C43.1669 27.9772 42.004 28.8678 40.6159 29.4807C39.2279 30.0936 37.6805 30.4 35.9736 30.4Z" fill="white"/>
<path d="M56.3085 30.4C54.264 30.4 52.4164 29.95 50.7658 29.0498C49.1339 28.1496 47.8491 26.9142 46.9112 25.3437C45.9922 23.754 45.5326 21.9728 45.5326 20C45.5326 18.0273 45.9922 16.2557 46.9112 14.6851C47.8491 13.0954 49.1339 11.8505 50.7658 10.9503C52.4164 10.0501 54.264 9.60004 56.3085 9.60004C58.353 9.60004 60.1912 10.0501 61.823 10.9503C63.4549 11.8505 64.7397 13.0954 65.6776 14.6851C66.6154 16.2557 67.0843 18.0273 67.0843 20C67.0843 21.9728 66.6154 23.754 65.6776 25.3437C64.7397 26.9142 63.4549 28.1496 61.823 29.0498C60.1912 29.95 58.353 30.4 56.3085 30.4ZM56.3085 26.4354C57.4714 26.4354 58.5218 26.1673 59.4596 25.631C60.3975 25.0755 61.129 24.3094 61.6542 23.3326C62.1982 22.3558 62.4701 21.245 62.4701 20C62.4701 18.7551 62.1982 17.6442 61.6542 16.6674C61.129 15.6906 60.3975 14.9341 59.4596 14.3978C58.5218 13.8424 57.4714 13.5647 56.3085 13.5647C55.1455 13.5647 54.0952 13.8424 53.1573 14.3978C52.2195 14.9341 51.4786 15.6906 50.9346 16.6674C50.4094 17.6442 50.1468 18.7551 50.1468 20C50.1468 21.245 50.4094 22.3558 50.9346 23.3326C51.4786 24.3094 52.2195 25.0755 53.1573 25.631C54.0952 26.1673 55.1455 26.4354 56.3085 26.4354Z" fill="white"/>
<path d="M77.6844 22.1547L75.0396 24.9702V30.0553H70.5098V9.94479H75.0396V19.3393L83.7616 9.94479H88.826L80.6667 18.9083L89.3043 30.0553H83.9867L77.6844 22.1547Z" fill="white"/>
<path d="M109.145 9.94479L100.62 30.0553H96.1186L87.6217 9.94479H92.5454L98.5382 24.3094L104.615 9.94479H109.145Z" fill="white"/>
<path d="M126.039 26.3205V30.0553H110.79V9.94479H125.673V13.6796H115.319V18.0464H124.463V21.6663H115.319V26.3205H126.039Z" fill="white"/>
<path d="M136.137 30.4C134.58 30.4 133.07 30.1894 131.607 29.768C130.163 29.3275 129 28.7625 128.118 28.073L129.666 24.568C130.51 25.2 131.513 25.7076 132.676 26.0906C133.839 26.4737 135.002 26.6652 136.165 26.6652C137.459 26.6652 138.416 26.4737 139.035 26.0906C139.654 25.6884 139.963 25.1617 139.963 24.5105C139.963 24.0317 139.776 23.6391 139.4 23.3326C139.044 23.007 138.575 22.7485 137.994 22.5569C137.431 22.3654 136.662 22.1547 135.687 21.9249C134.186 21.561 132.957 21.1971 132.001 20.8332C131.044 20.4693 130.219 19.8851 129.525 19.0807C128.85 18.2763 128.512 17.2037 128.512 15.863C128.512 14.6947 128.822 13.6413 129.441 12.7028C130.06 11.7452 130.988 10.9886 132.226 10.4332C133.483 9.87775 135.011 9.60004 136.812 9.60004C138.069 9.60004 139.297 9.75326 140.498 10.0597C141.698 10.3662 142.749 10.8067 143.649 11.3813L142.242 14.915C140.423 13.8615 138.603 13.3348 136.784 13.3348C135.508 13.3348 134.561 13.5455 133.942 13.9669C133.342 14.3883 133.042 14.9437 133.042 15.6332C133.042 16.3227 133.389 16.8398 134.083 17.1846C134.796 17.5102 135.874 17.8358 137.318 18.1614C138.819 18.5253 140.048 18.8892 141.004 19.2531C141.961 19.617 142.777 20.1916 143.452 20.9768C144.146 21.7621 144.493 22.8251 144.493 24.1658C144.493 25.315 144.174 26.3684 143.536 27.326C142.917 28.2645 141.98 29.0115 140.723 29.5669C139.466 30.1223 137.937 30.4 136.137 30.4Z" fill="white"/>
<path d="M151.412 13.7371H145.11V9.94479H162.273V13.7371H155.97V30.0553H151.412V13.7371Z" fill="white"/>
</svg>
