<svg width="18" height="64" fill="none" xmlns="http://www.w3.org/2000/svg"><path d="M7.063 10.886l-.298 4.188c.426 0 .61-.183.832-.403l1.997-1.908 4.139 3.03c.759.423 1.293.2 1.498-.698l2.717-12.729c.241-1.123-.405-1.561-1.145-1.286L.836 7.193C-.254 7.616-.238 8.223.65 8.5l4.083 1.27 9.482-5.934c.446-.295.852-.132.518.164l-7.67 6.887zM16.418 25H1.582c-.244 0-.472.06-.678.159l8.06 8.06 1.807-1.736 6.325-6.324a1.563 1.563 0 00-.678-.159zm1.424.904l-5.952 5.952 5.951 5.95c.1-.206.159-.433.159-.677V26.582c0-.243-.06-.471-.158-.678zm-17.683 0a1.564 1.564 0 00-.159.678V37.13c0 .243.06.471.158.678l5.952-5.952-5.951-5.95z" fill="#000"/><path d="M11.145 32.601l-1.807 1.737a.526.526 0 01-.746 0L6.855 32.6.904 38.552c.206.099.434.159.678.159h14.836c.244 0 .472-.06.678-.159l-5.951-5.95z" fill="#000"/><path fill-rule="evenodd" clip-rule="evenodd" d="M15.377 48.616A8.926 8.926 0 009.037 46c-4.94 0-8.96 4.001-8.962 8.919 0 1.572.412 3.106 1.196 4.46L0 64l4.751-1.24a8.986 8.986 0 004.283 1.085h.004c4.94 0 8.96-4.001 8.962-8.919a8.843 8.843 0 00-2.623-6.31zm-6.34 13.723h-.002a7.468 7.468 0 01-3.792-1.033l-.272-.161-2.82.736.753-2.736-.177-.28a7.37 7.37 0 01-1.139-3.946c.002-4.087 3.344-7.413 7.453-7.413 1.99.001 3.86.773 5.266 2.175a7.352 7.352 0 012.18 5.244c-.002 4.088-3.343 7.414-7.45 7.414zm4.087-5.552c-.224-.112-1.325-.651-1.53-.725-.206-.075-.355-.112-.504.111-.15.223-.579.725-.71.874-.13.149-.26.167-.485.056-.224-.112-.945-.347-1.8-1.107-.666-.59-1.116-1.32-1.246-1.543-.13-.224-.001-.333.098-.455.242-.3.485-.614.56-.762.074-.15.037-.28-.019-.391-.056-.111-.504-1.209-.69-1.655-.182-.434-.367-.376-.504-.382a8.97 8.97 0 00-.43-.008.824.824 0 00-.597.279c-.205.223-.783.762-.783 1.859s.802 2.157.914 2.305c.112.15 1.58 2.4 3.826 3.366.534.23.95.366 1.276.47a3.08 3.08 0 001.41.087c.431-.064 1.325-.539 1.512-1.06.187-.52.187-.966.13-1.06-.055-.092-.204-.148-.428-.26z" fill="#000"/></svg>