<svg width="30" height="18" fill="none" xmlns="http://www.w3.org/2000/svg"><g clip-path="url(#clip0)"><path d="M29.733 16.055c-.081-.142-.58-1.282-2.98-3.624-2.513-2.453-2.175-2.055.851-6.296 1.844-2.584 2.58-4.161 2.35-4.835-.22-.643-1.575-.474-1.575-.474L23.87.854s-.334-.047-.583.108c-.242.154-.398.51-.398.51s-.714 1.999-1.667 3.698c-2.008 3.587-2.813 3.776-3.14 3.554-.764-.519-.572-2.087-.572-3.199 0-3.476.5-4.925-.977-5.3-.492-.124-.852-.207-2.106-.22-1.61-.019-2.972.005-3.743.401-.514.265-.91.854-.668.888.299.041.974.191 1.332.704.463.66.446 2.147.446 2.147s.266 4.092-.62 4.6c-.61.35-1.444-.363-3.235-3.618-.917-1.666-1.611-3.51-1.611-3.51s-.133-.343-.371-.526C5.669.868 5.264.797 5.264.797L.977.824s-.643.02-.88.314c-.21.262-.016.802-.016.802s3.357 8.257 7.156 12.42c3.486 3.815 7.442 3.564 7.442 3.564h1.793s.541-.063.817-.377c.255-.287.246-.828.246-.828s-.036-2.53 1.082-2.902c1.1-.367 2.514 2.445 4.013 3.527 1.132.819 1.993.64 1.993.64l4.007-.06s2.096-.136 1.103-1.87z" fill="#000"/></g><defs><clipPath id="clip0"><path fill="#fff" d="M0 0h30v18H0z"/></clipPath></defs></svg>