<svg width="1920" height="1080" viewBox="0 0 1920 1080" fill="none" xmlns="http://www.w3.org/2000/svg">
<g clip-path="url(#clip0)">
<path d="M970.158 230.842C1017.72 159.512 1036.72 90.1217 990.888 3.7717C952.618 -68.1083 984.768 -115.938 1025.7 -151.678C975.738 -175.318 918.868 -175.868 910.768 -55.7383C873.698 -61.7183 837.028 -66.7183 813.908 -43.6383C856.158 -34.8783 881.938 -21.8083 896.548 -5.81827C789.858 -9.15827 764.088 18.6516 760.898 54.9416C911.168 0.44162 992.748 116.122 932.688 207.622C878.608 290.072 805.938 234.312 804.868 204.982C804.078 184.402 821.618 154.502 851.378 178.002C876.888 198.162 888.448 201.222 891.368 152.282C882.998 106.672 838.488 74.1318 777.768 133.372C733.788 92.3518 694.728 93.4617 671.878 131.982C651.278 166.462 679.978 201.082 693.798 190.102C746.408 148.382 779.628 221.522 733.788 249.612C671.478 287.852 621.918 190.652 569.698 207.762C567.978 206.922 566.248 206.092 564.518 205.252C563.728 203.452 562.928 201.642 562.128 199.832C578.468 145.322 485.598 93.4617 522.138 28.1117C548.978 -19.8583 618.728 15.0416 579.008 69.9616C568.508 84.4216 601.588 114.462 634.538 92.9016C671.348 68.8516 672.408 27.9716 633.208 -17.9184C689.808 -81.4584 658.718 -128.178 615.138 -136.798C568.378 -133.598 571.298 -121.648 590.558 -94.9483C613.018 -63.7983 584.448 -45.4484 564.788 -46.2784C536.748 -47.3884 483.338 -123.588 562.258 -180.048C649.818 -242.888 760.368 -157.518 708.148 -0.258331C742.958 -3.58833 769.398 -30.5683 766.208 -142.218C781.488 -126.928 793.978 -99.8183 802.348 -55.7383C824.538 -79.9283 819.618 -118.308 813.908 -157.098C928.698 -165.578 928.168 -225.098 905.588 -277.378C871.438 -234.408 825.728 -200.898 757.038 -240.948C674.528 -289.058 608.238 -269.038 540.078 -219.258C570.238 -320.758 511.638 -321.318 485.868 -296.288C460.088 -321.318 401.368 -320.758 431.658 -219.258C363.498 -269.038 297.198 -288.918 214.688 -240.948C145.998 -200.898 100.288 -234.548 66.1483 -277.378C43.5583 -225.098 43.0283 -165.578 157.818 -157.098C152.108 -118.308 147.328 -79.9283 169.378 -55.7383C177.748 -99.9483 190.238 -126.928 205.518 -142.218C202.328 -30.5683 228.908 -3.58833 263.578 -0.258331C211.498 -157.518 322.048 -242.888 409.598 -180.048C488.388 -123.448 435.108 -47.3884 407.078 -46.2784C387.408 -45.4484 358.848 -63.7983 381.298 -94.9483C400.568 -121.648 403.488 -133.738 356.718 -136.798C313.138 -128.038 282.048 -81.4584 338.648 -17.9184C299.458 28.1116 300.518 68.9916 337.318 92.9016C370.268 114.462 403.358 84.4216 392.858 69.9616C352.998 14.9016 422.888 -19.8583 449.728 28.1117C486.268 93.3217 393.388 145.192 409.738 199.832C408.938 201.642 408.138 203.452 407.338 205.252C405.618 206.092 403.888 206.922 402.158 207.762C350.078 190.652 300.518 287.852 238.068 249.612C192.238 221.522 225.588 148.522 278.068 190.102C291.878 201.082 320.578 166.462 299.988 131.982C276.998 93.4617 237.938 92.3518 194.098 133.372C133.378 74.1318 88.7283 106.672 80.4983 152.282C83.5483 201.222 94.9783 198.162 120.488 178.002C150.248 154.502 167.788 184.402 166.988 204.982C165.928 234.312 93.1183 290.212 39.1783 207.622C-20.8817 115.992 60.6982 0.30162 210.968 54.9416C207.778 18.5116 182.008 -9.15827 75.3182 -5.81827C89.9282 -21.8083 115.838 -34.8783 157.958 -43.6383C134.838 -66.8583 98.1682 -61.7183 61.0982 -55.7383C52.9882 -175.868 -3.8717 -175.318 -53.8317 -151.678C-12.7717 -115.938 19.2482 -68.1083 -19.0218 3.7717C-64.9918 90.1217 -45.8618 159.512 1.70822 230.842C-95.2818 199.272 -95.8118 260.592 -71.9018 287.572C-95.8118 314.542 -95.2818 376.002 1.70822 344.302C-45.8618 415.632 -64.8618 485.022 -19.0218 571.362C19.2482 643.252 -12.9117 691.082 -53.8317 726.822C-3.8717 750.462 52.9882 751.012 61.0982 630.882C98.1682 636.862 134.838 641.862 157.958 618.782C115.708 610.022 89.9282 596.952 75.3182 580.962C182.008 584.302 207.778 556.492 210.968 520.202C60.9682 574.702 -20.6117 459.012 39.3083 367.382C93.3883 284.932 166.058 340.692 167.128 370.022C167.918 390.602 150.378 420.502 120.618 397.002C95.1083 376.842 83.5483 373.782 80.6283 422.722C88.9983 468.332 133.508 500.872 194.228 441.632C238.208 482.652 277.268 481.542 300.118 443.022C320.718 408.542 292.018 373.922 278.198 384.902C225.588 426.622 192.368 353.482 238.208 325.392C300.518 287.152 350.078 384.352 402.298 367.242C404.018 368.082 405.748 368.912 407.478 369.752C408.268 371.552 409.068 373.362 409.868 375.172C393.528 429.682 486.398 481.542 449.858 546.892C423.018 594.862 353.268 559.962 392.988 505.042C403.488 490.582 370.408 460.542 337.458 482.102C300.648 506.152 299.588 547.032 338.788 592.922C282.188 656.462 313.278 703.182 356.858 711.802C403.618 708.602 400.698 696.652 381.438 669.952C358.978 638.802 387.548 620.452 407.208 621.282C435.248 622.392 488.658 698.592 409.738 755.052C322.178 817.892 211.628 732.522 263.718 575.262C228.908 578.592 202.468 605.572 205.658 717.222C190.378 701.932 177.888 674.822 169.518 630.742C147.328 654.932 152.238 693.312 157.958 732.102C43.1582 740.582 43.6883 800.102 66.2783 852.382C100.428 809.412 146.128 775.902 214.818 815.952C297.328 864.062 363.628 844.042 431.788 794.262C401.628 895.762 460.218 896.322 485.998 871.292C511.778 896.322 570.498 895.762 540.208 794.262C608.368 844.042 674.668 863.922 757.178 815.952C825.868 775.902 871.568 809.552 905.718 852.382C928.308 800.102 928.838 740.582 814.038 732.102C819.758 693.312 824.538 654.932 802.478 630.742C794.108 674.952 781.618 701.932 766.338 717.222C769.528 605.572 742.958 578.592 708.278 575.262C760.368 732.522 649.818 817.892 562.398 755.052C483.608 698.452 536.888 622.392 564.918 621.282C584.588 620.452 613.148 638.802 590.698 669.952C571.428 696.652 568.508 708.742 615.278 711.802C658.858 703.042 689.948 656.462 633.348 592.922C672.538 546.892 671.478 506.012 634.678 482.102C601.718 460.542 568.638 490.582 579.138 505.042C618.998 560.102 549.108 594.862 522.268 546.892C485.728 481.682 578.608 429.812 562.258 375.172C563.058 373.362 563.858 371.552 564.658 369.752C566.378 368.912 568.108 368.082 569.838 367.242C621.918 384.352 671.478 287.152 733.928 325.392C779.758 353.482 746.408 426.482 693.928 384.902C680.118 373.922 651.418 408.542 672.008 443.022C694.998 481.542 734.058 482.652 777.898 441.632C838.618 500.872 883.268 468.332 891.498 422.722C888.448 373.782 877.018 376.842 851.508 397.002C821.748 420.502 804.208 390.602 805.008 370.022C806.068 340.692 878.878 284.792 932.818 367.382C992.878 459.012 911.298 574.702 761.028 520.202C764.218 556.632 789.988 584.302 896.678 580.962C882.068 596.952 856.158 610.022 814.038 618.782C837.158 642.002 873.828 636.862 910.898 630.882C919.008 751.012 975.868 750.462 1025.83 726.822C984.768 691.082 952.748 643.252 991.018 571.362C1036.99 485.022 1017.86 415.632 970.288 344.302C1067.28 375.862 1067.81 314.542 1043.9 287.572C1067.68 260.592 1067.15 199.272 970.158 230.842Z" fill="#95A5A6" fill-opacity="0.05"/>
</g>
<defs>
<clipPath id="clip0">
<rect width="1920" height="1080" fill="white"/>
</clipPath>
</defs>
</svg>
