<svg width="120" height="40" fill="none" xmlns="http://www.w3.org/2000/svg"><path d="M7.706 39.998c-.31 0-.613-.004-.92-.01a12.579 12.579 0 01-1.903-.172 5.878 5.878 0 01-1.686-.573 5.509 5.509 0 01-1.421-1.063 5.561 5.561 0 01-1.038-1.46 6.099 6.099 0 01-.554-1.733 13.329 13.329 0 01-.169-1.961c-.007-.22-.015-.954-.015-.954V7.915s.01-.723.015-.935c.007-.656.064-1.31.168-1.959a6.138 6.138 0 01.554-1.737A5.608 5.608 0 011.77 1.822c.416-.43.898-.79 1.426-1.07A5.816 5.816 0 014.88.186 12.316 12.316 0 016.788.012L7.706 0h104.583l.929.013c.634.008 1.266.065 1.891.17a5.905 5.905 0 011.701.573 5.775 5.775 0 012.457 2.53c.265.544.449 1.125.545 1.724.106.653.165 1.313.177 1.974.003.296.003.614.003.93.008.393.008.766.008 1.143v21.885c0 .38 0 .75-.008 1.124 0 .34 0 .653-.004.972-.012.65-.07 1.297-.173 1.939a6.123 6.123 0 01-.55 1.746 5.721 5.721 0 01-1.034 1.449 5.524 5.524 0 01-1.424 1.069 5.857 5.857 0 01-1.698.575c-.629.105-1.265.164-1.902.17-.298.008-.61.012-.913.012l-1.103.002-103.485-.002z" fill="#000"/><path d="M24.318 20.313c.023-1.774.927-3.412 2.398-4.342a5.127 5.127 0 00-4.06-2.255c-1.71-.185-3.367 1.05-4.238 1.05-.887 0-2.229-1.032-3.672-1.001-1.9.062-3.628 1.145-4.552 2.852-1.968 3.502-.5 8.647 1.385 11.477.944 1.387 2.046 2.934 3.489 2.88 1.411-.06 1.938-.925 3.643-.925 1.687 0 2.182.925 3.653.89 1.516-.026 2.47-1.392 3.38-2.791a11.598 11.598 0 001.546-3.235c-1.8-.781-2.97-2.592-2.972-4.6zm-2.78-8.46a5.189 5.189 0 001.135-3.65 5.002 5.002 0 00-3.265 1.736 4.933 4.933 0 00-1.164 3.516 4.125 4.125 0 003.294-1.601zm20.623 15.612h-4.815l-1.157 3.51h-2.04l4.563-12.986h2.12l4.562 12.986h-2.075l-1.157-3.51zm-4.318-1.62h3.819l-1.883-5.696h-.052l-1.882 5.697h-.002zm17.403.397c0 2.942-1.532 4.832-3.845 4.832a3.101 3.101 0 01-2.899-1.657h-.043v4.69h-1.893v-12.6h1.832v1.575h.033a3.256 3.256 0 012.934-1.673c2.339 0 3.88 1.899 3.88 4.833h.002zm-1.943 0c0-1.917-.965-3.177-2.435-3.177-1.446 0-2.417 1.286-2.417 3.177 0 1.907.971 3.185 2.416 3.185 1.471 0 2.436-1.251 2.436-3.185zm12.084 0c0 2.942-1.532 4.832-3.845 4.832a3.101 3.101 0 01-2.899-1.657H58.6v4.69h-1.892v-12.6h1.83v1.575h.035a3.256 3.256 0 012.934-1.673c2.339 0 3.88 1.899 3.88 4.833zm-1.943 0c0-1.917-.965-3.177-2.436-3.177-1.445 0-2.416 1.286-2.416 3.177 0 1.907.971 3.185 2.416 3.185 1.471 0 2.435-1.251 2.435-3.185zm8.645 1.115c.14 1.287 1.357 2.133 3.022 2.133 1.594 0 2.74-.846 2.74-2.007 0-1.008-.691-1.612-2.33-2.025l-1.637-.405c-2.32-.576-3.398-1.691-3.398-3.501 0-2.24 1.9-3.78 4.599-3.78 2.67 0 4.5 1.54 4.562 3.78h-1.91c-.113-1.296-1.155-2.078-2.68-2.078-1.523 0-2.565.791-2.565 1.943 0 .918.665 1.459 2.294 1.872l1.393.351c2.593.63 3.67 1.7 3.67 3.6 0 2.43-1.883 3.952-4.878 3.952-2.803 0-4.696-1.487-4.818-3.836h1.936zm11.841-8.09v2.24h1.753v1.54H83.93v5.219c0 .81.351 1.188 1.122 1.188a5.62 5.62 0 00.621-.045v1.53a5.104 5.104 0 01-1.05.09c-1.865 0-2.593-.72-2.593-2.556v-5.428h-1.339v-1.538h1.34v-2.24h1.9zm2.767 6.975c0-2.98 1.708-4.851 4.37-4.851 2.671 0 4.37 1.872 4.37 4.85 0 2.988-1.69 4.852-4.37 4.852s-4.37-1.864-4.37-4.851zm6.813 0c0-2.044-.91-3.25-2.443-3.25s-2.442 1.215-2.442 3.25c0 2.05.91 3.248 2.442 3.248 1.533 0 2.443-1.197 2.443-3.248zm3.487-4.735H98.8v1.612h.044c.251-1.038 1.176-1.752 2.215-1.711.219 0 .436.023.649.072v1.818a2.58 2.58 0 00-.85-.117 1.882 1.882 0 00-1.473.623 1.991 1.991 0 00-.498 1.555v5.615h-1.891v-9.467zm13.431 6.687c-.255 1.718-1.883 2.898-3.967 2.898-2.68 0-4.344-1.845-4.344-4.805 0-2.97 1.673-4.896 4.264-4.896 2.55 0 4.152 1.8 4.152 4.67v.665h-6.507v.119a2.504 2.504 0 00.651 1.915 2.38 2.38 0 001.828.766 2.076 2.076 0 002.127-1.332h1.796zm-6.393-2.826h4.606a2.314 2.314 0 00-.619-1.708 2.19 2.19 0 00-1.64-.694 2.304 2.304 0 00-1.661.699 2.428 2.428 0 00-.686 1.703zM36.498 10.853h.813a1 1 0 00.784-.24c.218-.189.348-.463.36-.755 0-.575-.42-.948-1.135-.948a1.061 1.061 0 00-.814.224 1.12 1.12 0 00-.412.755h-.891c.03-.543.28-1.047.686-1.393a1.865 1.865 0 011.46-.432c1.195 0 2.037.687 2.037 1.677a1.445 1.445 0 01-1.104 1.428v.073c.778.035 1.381.71 1.35 1.51a2.1 2.1 0 01-.753 1.415 1.994 1.994 0 01-1.514.44 1.978 1.978 0 01-1.52-.427 2.091 2.091 0 01-.76-1.42h.906c.054.597.587.981 1.373.981.788 0 1.303-.432 1.303-1.041 0-.62-.484-1-1.33-1h-.839v-.847zm4.165 2.27c0-.847.614-1.337 1.703-1.406l1.242-.074v-.405c0-.498-.32-.779-.938-.779-.505 0-.855.19-.956.524h-.875c.091-.81.834-1.328 1.872-1.328 1.15 0 1.797.588 1.797 1.582v3.217h-.87v-.66h-.072a1.531 1.531 0 01-1.377.738 1.36 1.36 0 01-1.068-.357 1.439 1.439 0 01-.458-1.052zm2.945-.402v-.394l-1.12.073c-.63.043-.916.264-.916.679 0 .424.357.671.85.671.29.03.581-.062.804-.257a1.12 1.12 0 00.382-.772zm3.301-2.194v3.928h-.905V9.746h3.018v.781h-2.113zm7.594 1.57c0 1.497-.737 2.435-1.893 2.435a1.484 1.484 0 01-1.41-.79h-.072v2.278h-.905V9.746h.87v.777h.069c.285-.54.84-.87 1.439-.856 1.165 0 1.902.935 1.902 2.43zm-.93 0c0-.994-.458-1.595-1.224-1.595-.762 0-1.238.614-1.238 1.6 0 .981.475 1.595 1.233 1.595.77 0 1.229-.6 1.229-1.6zm2.134 4.044v-.8c.097.013.196.018.295.017a.786.786 0 00.83-.657l.066-.23-1.658-4.725h.985l1.149 3.74h.07l1.146-3.74h.96l-1.71 4.903c-.391 1.146-.824 1.513-1.759 1.513a3.98 3.98 0 01-.374-.02v-.001zm4.547-3.023h.9c.089.415.467.632.998.632.601 0 .97-.273.97-.697 0-.454-.331-.67-.971-.67h-.686v-.722h.674c.547 0 .825-.216.825-.61 0-.345-.269-.61-.825-.61-.505 0-.875.221-.934.592h-.872c.135-.887.94-1.501 1.806-1.378 1.09 0 1.712.506 1.712 1.3a.965.965 0 01-.722.965v.073c.516.07.901.525.895 1.06 0 .895-.74 1.488-1.872 1.488-1.002 0-1.815-.471-1.898-1.423zm5.073 1.336V9.746h.895v3.238h.072l2.112-3.238h.897v4.708h-.896V11.2h-.068l-2.117 3.255h-.895zm8.914-3.927h-1.443v3.928h-.905v-3.928h-1.444v-.781h3.792v.781zm4.872 2.656c-.255.888-1.091 1.462-1.987 1.362a2.054 2.054 0 01-1.606-.711 2.176 2.176 0 01-.51-1.72 2.215 2.215 0 01.508-1.724 2.092 2.092 0 011.604-.735c1.275 0 2.046.895 2.046 2.373v.325h-3.236v.052c-.03.35.086.695.32.953.231.256.559.4.9.395.442.055.872-.17 1.089-.571l.872.001zm-3.181-1.517h2.313a1.155 1.155 0 00-.3-.867 1.093 1.093 0 00-.827-.353 1.16 1.16 0 00-.844.352 1.22 1.22 0 00-.342.867v.001zm7.014-1.92h2.066c.898 0 1.423.466 1.423 1.197a1.009 1.009 0 01-.773.994v.074c.555.037.986.514.978 1.085 0 .823-.6 1.358-1.606 1.358h-2.087V9.746zm.897.713v1.22h.897c.546 0 .808-.217.808-.615 0-.367-.228-.605-.708-.605h-.997zm0 1.903v1.38h1.072c.535 0 .822-.244.822-.689 0-.47-.325-.691-.934-.691h-.96z" fill="#fff"/></svg>