<svg width="15" height="14" fill="none" xmlns="http://www.w3.org/2000/svg"><path d="M14.905 1.838a.438.438 0 00-.338-.158H3.051L2.73.326A.43.43 0 002.308 0H.433A.427.427 0 000 .42c0 .232.194.42.433.42h1.53l2.186 9.194a.43.43 0 00.422.326h8.67a.426.426 0 00.432-.42.426.426 0 00-.433-.42H4.915l-.333-1.4h8.687a.43.43 0 00.422-.328l1.298-5.6a.41.41 0 00-.084-.354zM12.923 7.28h-8.54L3.25 2.52h10.775l-1.103 4.76zm-6.577 3.64c-.875 0-1.586.69-1.586 1.54 0 .85.711 1.54 1.586 1.54.875 0 1.587-.69 1.587-1.54 0-.85-.712-1.54-1.587-1.54zm0 2.24a.712.712 0 01-.721-.7c0-.386.323-.7.721-.7.398 0 .721.314.721.7 0 .386-.323.7-.72.7zm5.192-2.24c-.874 0-1.586.69-1.586 1.54 0 .85.712 1.54 1.586 1.54.875 0 1.587-.69 1.587-1.54 0-.85-.712-1.54-1.587-1.54zm0 2.24a.712.712 0 01-.72-.7c0-.386.323-.7.72-.7.398 0 .722.314.722.7 0 .386-.324.7-.722.7z" fill="#005FF9"/></svg>