<svg width="20" height="20" fill="none" xmlns="http://www.w3.org/2000/svg"><path d="M9.967 18.333H2.492a.832.832 0 01-.83-.833v-15c0-.46.371-.833.83-.833h7.475a.83.83 0 00.83-.834.831.831 0 00-.83-.833H2.492A2.499 2.499 0 000 2.5v15A2.5 2.5 0 002.492 20h7.475a.83.83 0 00.83-.833.831.831 0 00-.83-.834z" fill="#D62631"/><path d="M19.753 9.407l-5.05-5a.829.829 0 00-1.175.008.834.834 0 00.009 1.178l3.608 3.574h-9.67a.83.83 0 00-.83.833c0 .46.37.833.83.833h9.67l-3.608 3.574a.835.835 0 00.583 1.426c.21 0 .421-.08.583-.24l5.05-5a.837.837 0 000-1.186z" fill="#D62631"/></svg>