<svg width="14" height="33" viewBox="0 0 14 33" fill="none" xmlns="http://www.w3.org/2000/svg">
<path d="M6.99933 5.09833C5.95076 5.09833 5.09766 5.95143 5.09766 7C5.09766 8.04857 5.95076 8.90167 6.99933 8.90167C8.048 8.90167 8.90111 8.04857 8.90111 7C8.90111 5.95143 8.048 5.09833 6.99933 5.09833Z" fill="black"/>
<path d="M12.9838 5.21208L12.3011 5.0963C12.2403 4.92711 12.1716 4.76112 12.0957 4.59973L12.4977 4.03726C12.8475 3.54582 12.7913 2.8821 12.3655 2.4604L11.545 1.63988C11.3132 1.40799 11.0058 1.28024 10.6797 1.28024C10.4227 1.28024 10.177 1.35939 9.97086 1.50775L9.40625 1.9099C9.23161 1.82733 9.05441 1.75427 8.87604 1.69136L8.76314 1.02229C8.6637 0.429916 8.15549 0 7.55467 0H6.39566C5.79485 0 5.28664 0.429916 5.18741 1.02122L5.06874 1.71635C4.90115 1.77756 4.73581 1.8472 4.5741 1.92464L4.01974 1.52548C3.81189 1.37584 3.56526 1.2968 3.30656 1.2968C2.97694 1.2968 2.66943 1.42487 2.44011 1.65739L1.61787 2.47696C1.19319 2.90164 1.13754 3.56473 1.48564 4.05371L1.8942 4.62782C1.819 4.78964 1.75128 4.95638 1.69136 5.12674L1.02229 5.23953C0.429916 5.33897 0 5.84718 0 6.448V7.60712C0 8.20793 0.429916 8.71614 1.02122 8.81537L1.71635 8.93393C1.77756 9.10162 1.8472 9.26707 1.92474 9.42879L1.52698 9.98207C1.17717 10.4735 1.23335 11.1372 1.65921 11.5589L2.47963 12.3793C2.71152 12.6112 3.01892 12.739 3.34512 12.739C3.60201 12.739 3.84778 12.6598 4.05371 12.5116L4.62772 12.103C4.77864 12.1731 4.93491 12.2373 5.09544 12.2951L5.2092 12.9777C5.30864 13.5701 5.81685 14 6.41766 14H7.57945C8.18027 14 8.68848 13.5701 8.78781 12.9785L8.90359 12.2956C9.07278 12.2348 9.23877 12.1662 9.40016 12.0902L9.96092 12.4911C10.1688 12.6407 10.4153 12.7198 10.6741 12.7198C11.0003 12.7198 11.3076 12.5921 11.5395 12.3601L12.36 11.5397C12.7847 11.1149 12.8402 10.4518 12.4921 9.96274L12.0897 9.39771C12.1676 9.23247 12.2365 9.0667 12.2959 8.90167L12.9776 8.78802C13.57 8.68858 13.9999 8.18037 13.9999 7.57956V6.4229C14.0066 5.82133 13.5798 5.31248 12.9838 5.21208V5.21208ZM7 9.72198C5.49908 9.72198 4.27802 8.50092 4.27802 7C4.27802 5.49908 5.49908 4.27802 7 4.27802C8.50092 4.27802 9.72209 5.49908 9.72209 7C9.72209 8.50092 8.50092 9.72198 7 9.72198Z" fill="black"/>
<path d="M6.99933 24.0983C5.95076 24.0983 5.09766 24.9514 5.09766 26C5.09766 27.0486 5.95076 27.9017 6.99933 27.9017C8.048 27.9017 8.90111 27.0486 8.90111 26C8.90111 24.9514 8.048 24.0983 6.99933 24.0983Z" fill="#005FF9"/>
<path d="M12.9838 24.2121L12.3011 24.0963C12.2403 23.9271 12.1716 23.7611 12.0957 23.5997L12.4977 23.0373C12.8475 22.5458 12.7913 21.8821 12.3655 21.4604L11.545 20.6399C11.3132 20.408 11.0058 20.2802 10.6797 20.2802C10.4227 20.2802 10.177 20.3594 9.97086 20.5078L9.40625 20.9099C9.23161 20.8273 9.05441 20.7543 8.87604 20.6914L8.76314 20.0223C8.6637 19.4299 8.15549 19 7.55467 19H6.39566C5.79485 19 5.28664 19.4299 5.18741 20.0212L5.06874 20.7164C4.90115 20.7776 4.73581 20.8472 4.5741 20.9246L4.01974 20.5255C3.81189 20.3758 3.56526 20.2968 3.30656 20.2968C2.97694 20.2968 2.66943 20.4249 2.44011 20.6574L1.61787 21.477C1.19319 21.9016 1.13754 22.5647 1.48564 23.0537L1.8942 23.6278C1.819 23.7896 1.75128 23.9564 1.69136 24.1267L1.02229 24.2395C0.429916 24.339 0 24.8472 0 25.448V26.6071C0 27.2079 0.429916 27.7161 1.02122 27.8154L1.71635 27.9339C1.77756 28.1016 1.8472 28.2671 1.92474 28.4288L1.52698 28.9821C1.17717 29.4735 1.23335 30.1372 1.65921 30.5589L2.47963 31.3793C2.71152 31.6112 3.01892 31.739 3.34512 31.739C3.60201 31.739 3.84778 31.6598 4.05371 31.5116L4.62772 31.103C4.77864 31.1731 4.93491 31.2373 5.09544 31.2951L5.2092 31.9777C5.30864 32.5701 5.81685 33 6.41766 33H7.57945C8.18027 33 8.68848 32.5701 8.78781 31.9785L8.90359 31.2956C9.07278 31.2348 9.23877 31.1662 9.40016 31.0902L9.96092 31.4911C10.1688 31.6407 10.4153 31.7198 10.6741 31.7198C11.0003 31.7198 11.3076 31.5921 11.5395 31.3601L12.36 30.5397C12.7847 30.1149 12.8402 29.4518 12.4921 28.9627L12.0897 28.3977C12.1676 28.2325 12.2365 28.0667 12.2959 27.9017L12.9776 27.788C13.57 27.6886 13.9999 27.1804 13.9999 26.5796V25.4229C14.0066 24.8213 13.5798 24.3125 12.9838 24.2121V24.2121ZM7 28.722C5.49908 28.722 4.27802 27.5009 4.27802 26C4.27802 24.4991 5.49908 23.278 7 23.278C8.50092 23.278 9.72209 24.4991 9.72209 26C9.72209 27.5009 8.50092 28.722 7 28.722Z" fill="#005FF9"/>
</svg>
