<svg width="136" height="40" fill="none" xmlns="http://www.w3.org/2000/svg"><path d="M8.733 39.998c-.351 0-.695-.004-1.043-.01a16.118 16.118 0 01-2.156-.172 7.286 7.286 0 01-1.911-.572 6.248 6.248 0 01-1.61-1.064 5.621 5.621 0 01-1.804-3.193 11.802 11.802 0 01-.192-1.96C.01 32.804 0 32.072 0 32.072V7.916s.01-.725.017-.936c.009-.656.072-1.31.19-1.959a5.672 5.672 0 011.798-3.2A6.43 6.43 0 013.623.754 7.21 7.21 0 015.53.184a15.969 15.969 0 012.163-.17L8.733 0h118.528l1.053.013c.718.008 1.435.065 2.144.17a7.32 7.32 0 011.926.573c1.197.559 2.171 1.445 2.786 2.53.3.544.509 1.125.617 1.724.12.653.186 1.313.201 1.974.003.296.003.614.003.932.009.391.009.765.009 1.141v21.886c0 .38 0 .75-.009 1.124 0 .34 0 .65-.004.972a12.14 12.14 0 01-.198 1.939 5.601 5.601 0 01-.623 1.745 5.807 5.807 0 01-1.171 1.449 6.228 6.228 0 01-1.614 1.07 7.25 7.25 0 01-1.923.574c-.714.106-1.434.164-2.157.17-.337.008-.691.012-1.035.012l-1.249.002-117.284-.002z" fill="#000"/><path d="M68.614 21.75c-2.454 0-4.397 1.883-4.397 4.498 0 2.51 1.943 4.496 4.397 4.496s4.397-1.882 4.397-4.496c0-2.72-1.943-4.497-4.397-4.497zm0 7.112c-1.33 0-2.454-1.151-2.454-2.72 0-1.567 1.125-2.718 2.454-2.718 1.33 0 2.454 1.046 2.454 2.719 0 1.569-1.125 2.719-2.454 2.719zm-9.51-7.111c-2.454 0-4.397 1.882-4.397 4.497 0 2.51 1.943 4.496 4.397 4.496s4.397-1.882 4.397-4.496c0-2.72-1.943-4.497-4.397-4.497zm0 7.11c-1.33 0-2.454-1.15-2.454-2.718s1.125-2.72 2.454-2.72c1.33 0 2.454 1.047 2.454 2.72 0 1.569-1.124 2.719-2.454 2.719zm-11.35-5.751v1.883h4.397c-.103 1.045-.512 1.882-1.023 2.405-.613.627-1.636 1.358-3.374 1.358-2.761 0-4.806-2.195-4.806-5.019 0-2.823 2.147-5.02 4.806-5.02 1.431 0 2.556.63 3.374 1.36l1.33-1.358c-1.125-1.047-2.557-1.884-4.602-1.884-3.681 0-6.851 3.138-6.851 6.902 0 3.765 3.17 6.902 6.851 6.902 2.045 0 3.477-.627 4.704-1.987 1.227-1.254 1.636-3.033 1.636-4.392 0-.418 0-.836-.102-1.15h-6.34zm46.424 1.465c-.41-1.047-1.432-2.824-3.681-2.824-2.25 0-4.09 1.777-4.09 4.497 0 2.51 1.84 4.496 4.294 4.496 1.943 0 3.17-1.255 3.58-1.988l-1.433-1.044c-.51.731-1.124 1.255-2.147 1.255-1.022 0-1.636-.419-2.147-1.36l5.828-2.51-.204-.522zm-5.931 1.463c0-1.674 1.33-2.614 2.25-2.614.715 0 1.431.418 1.636.94l-3.886 1.674zm-4.806 4.288h1.943V17.254H83.44v13.072zm-3.068-7.635c-.511-.522-1.329-1.044-2.352-1.044-2.147 0-4.192 1.986-4.192 4.496 0 2.51 1.943 4.392 4.192 4.392 1.023 0 1.841-.523 2.25-1.046h.102v.627c0 1.674-.92 2.615-2.352 2.615-1.124 0-1.942-.836-2.147-1.569l-1.636.733c.511 1.15 1.738 2.613 3.886 2.613 2.25 0 4.09-1.36 4.09-4.6V21.96h-1.84v.731zm-2.25 6.17c-1.329 0-2.454-1.15-2.454-2.718s1.125-2.72 2.455-2.72c1.329 0 2.352 1.152 2.352 2.72 0 1.569-1.023 2.719-2.352 2.719zm24.951-11.607h-4.601v13.072h1.942V25.41h2.659c2.147 0 4.193-1.569 4.193-4.079s-2.046-4.077-4.193-4.077v-.001zm.102 6.274h-2.761v-4.496h2.761c1.432 0 2.25 1.255 2.25 2.195-.102 1.151-.92 2.301-2.25 2.301zm11.76-1.882c-1.432 0-2.863.628-3.375 1.987l1.739.732c.409-.732 1.022-.941 1.738-.941 1.023 0 1.943.627 2.045 1.673v.104c-.307-.208-1.125-.522-1.943-.522-1.84 0-3.681 1.046-3.681 2.928 0 1.777 1.534 2.928 3.17 2.928 1.329 0 1.943-.628 2.454-1.255h.102v1.046h1.841v-5.02c-.205-2.3-1.943-3.66-4.09-3.66zm-.205 7.216c-.613 0-1.534-.315-1.534-1.151 0-1.045 1.125-1.36 2.045-1.36.819 0 1.228.21 1.739.42-.205 1.254-1.227 2.09-2.25 2.09zm10.737-6.902l-2.147 5.647h-.103l-2.249-5.647h-2.045l3.374 7.947-1.943 4.392h1.943l5.215-12.34h-2.045zm-17.179 8.366h1.943V17.254h-1.943v13.072z" fill="#fff"/><path d="M9.612 6.796c-.307.315-.511.837-.511 1.464v23.111c0 .627.204 1.15.51 1.464l.103.104 12.68-12.967v-.208L9.612 6.796z" fill="url(#paint0_linear)"/><path d="M26.587 24.366l-4.192-4.288v-.313l4.192-4.288.102.105 5.01 2.928c1.432.836 1.432 2.195 0 3.032l-5.112 2.824z" fill="url(#paint1_linear)"/><path d="M26.689 24.26l-4.295-4.392L9.612 32.94c.512.523 1.227.523 2.148.104l14.929-8.784" fill="url(#paint2_linear)"/><path d="M26.689 15.476l-14.93-8.68c-.92-.522-1.635-.418-2.147.106l12.782 12.966 4.295-4.391z" fill="url(#paint3_linear)"/><path opacity=".2" d="M26.586 24.156l-14.827 8.575c-.818.522-1.534.418-2.045 0l-.103.104.103.105c.51.419 1.227.523 2.045 0l14.827-8.784z" fill="#000"/><path opacity=".12" d="M9.612 32.731c-.307-.314-.409-.837-.409-1.464v.104c0 .628.205 1.15.511 1.464v-.104h-.102zm22.087-11.504l-5.113 2.928.102.105 5.01-2.928c.716-.418 1.023-.94 1.023-1.464 0 .524-.409.942-1.022 1.36z" fill="#000"/><path opacity=".25" d="M11.76 6.902L31.7 18.509c.613.418 1.022.836 1.022 1.36 0-.523-.307-1.046-1.023-1.465L11.76 6.797c-1.431-.837-2.556-.104-2.556 1.57v.105c0-1.673 1.125-2.406 2.556-1.57z" fill="#fff"/><path d="M42.027 13.908h-.715v-2.091h.613c.511-.418.818-1.255.818-2.406V6.274h4.09v5.543h.716v2.091h-.716v-1.36H42.13v1.36h-.103v0zm1.432-4.497c0 .941-.205 1.778-.614 2.405h3.068V7.111h-2.556v2.3h.102zm10.123 2.3c-.613.628-1.33.942-2.25.942-.92 0-1.636-.314-2.25-.941-.613-.627-.92-1.36-.92-2.3 0-.941.307-1.674.92-2.301.614-.628 1.33-.942 2.25-.942.92 0 1.637.314 2.25.942.614.627.92 1.36.92 2.3 0 .941-.306 1.674-.92 2.3v0zm-3.886-.522c.41.418 1.023.732 1.637.732.613 0 1.227-.21 1.636-.732a2.551 2.551 0 00.715-1.778c0-.731-.204-1.359-.715-1.777-.41-.418-1.023-.732-1.636-.732-.614 0-1.227.209-1.636.732a2.551 2.551 0 00-.716 1.777c0 .732.204 1.36.715 1.778zm8.794 1.465c-.92 0-1.636-.315-2.25-.942-.613-.627-.92-1.36-.92-2.3 0-.941.307-1.674.92-2.301.614-.628 1.33-.942 2.25-.942.92 0 1.637.314 2.25 1.047l-.511.522a2.164 2.164 0 00-1.739-.836c-.715 0-1.227.209-1.738.732-.511.418-.716 1.046-.716 1.777 0 .732.205 1.36.716 1.778a2.44 2.44 0 001.738.732c.716 0 1.33-.314 1.841-.942l.511.524c-.306.313-.613.627-1.022.836a2.78 2.78 0 01-1.33.315zm5.625-.105h-.818V7.007h-1.739v-.733h4.193v.733h-1.739v5.542h.103zm7.055-6.275l-2.352 5.334c-.306.731-.818 1.15-1.431 1.15-.205 0-.41 0-.614-.104l.205-.733c.102.104.306.104.409.104.204 0 .306 0 .409-.104a1.46 1.46 0 00.306-.418l.205-.524-2.045-4.6h.92l1.534 3.555 1.432-3.556h1.022v-.104 0zm.92 6.275V6.274h4.397v6.275h-.818V7.007h-2.863v5.542h-.715zm5.829 0V6.274h.818v2.72h3.068v-2.72h.818v6.275h-.818V9.725h-3.068v2.824h-.818zm11.146-.837c-.614.627-1.33.94-2.25.94-.92 0-1.636-.313-2.25-.94-.613-.627-.92-1.36-.92-2.3 0-.941.307-1.674.92-2.301.614-.628 1.33-.942 2.25-.942.92 0 1.636.314 2.25.942.613.627.92 1.36.92 2.3-.102.941-.409 1.674-.92 2.3v0zm-3.988-.523c.409.418 1.023.732 1.636.732.614 0 1.227-.21 1.636-.732a2.551 2.551 0 00.716-1.778c0-.731-.205-1.359-.716-1.777-.409-.418-1.022-.732-1.636-.732-.613 0-1.227.209-1.636.732a2.551 2.551 0 00-.716 1.777c0 .732.307 1.36.716 1.778zm8.078 1.36V6.274h2.25c.511 0 .92.21 1.227.524.307.313.511.731.511 1.254 0 .314-.102.523-.204.837a1.05 1.05 0 01-.614.522c.307.104.511.314.716.523.204.209.307.523.307.941 0 .523-.205.941-.512 1.255-.409.314-.818.524-1.329.524h-2.352v-.105 0zm.818-3.556h1.432c.306 0 .511-.104.716-.313.204-.21.306-.418.306-.628 0-.209-.102-.418-.306-.627-.205-.21-.41-.314-.716-.314h-1.432v1.882zm0 2.824h1.636c.307 0 .512-.105.716-.314a.96.96 0 00.307-.733c0-.209-.102-.522-.307-.731-.204-.21-.409-.314-.716-.314h-1.534v2.091h-.102v.001z" fill="#fff" stroke="#fff" stroke-width=".2"/><defs><linearGradient id="paint0_linear" x1="21.269" y1="8.061" x2=".892" y2="13.449" gradientUnits="userSpaceOnUse"><stop stop-color="#00A0FF"/><stop offset=".007" stop-color="#00A1FF"/><stop offset=".26" stop-color="#00BEFF"/><stop offset=".512" stop-color="#00D2FF"/><stop offset=".76" stop-color="#00DFFF"/><stop offset="1" stop-color="#00E3FF"/></linearGradient><linearGradient id="paint1_linear" x1="33.576" y1="19.87" x2="8.833" y2="19.87" gradientUnits="userSpaceOnUse"><stop stop-color="#FFE000"/><stop offset=".409" stop-color="#FFBD00"/><stop offset=".775" stop-color="orange"/><stop offset="1" stop-color="#FF9C00"/></linearGradient><linearGradient id="paint2_linear" x1="24.365" y1="22.27" x2="7.494" y2="49.967" gradientUnits="userSpaceOnUse"><stop stop-color="#FF3A44"/><stop offset="1" stop-color="#C31162"/></linearGradient><linearGradient id="paint3_linear" x1="6.44" y1="-.862" x2="13.915" y2="11.525" gradientUnits="userSpaceOnUse"><stop stop-color="#32A071"/><stop offset=".069" stop-color="#2DA771"/><stop offset=".476" stop-color="#15CF74"/><stop offset=".801" stop-color="#06E775"/><stop offset="1" stop-color="#00F076"/></linearGradient></defs></svg>