<svg width="18" height="4" viewBox="0 0 18 4" fill="none" xmlns="http://www.w3.org/2000/svg">
<path d="M17.4142 0.585785C18.1953 1.36683 18.1953 2.63317 17.4142 3.41421C16.6332 4.19526 15.3668 4.19526 14.5858 3.41421C13.8047 2.63317 13.8047 1.36683 14.5858 0.585785C15.3668 -0.195262 16.6332 -0.195262 17.4142 0.585785Z" fill="#2B3990"/>
<path d="M10.4142 0.585785C11.1953 1.36683 11.1953 2.63317 10.4142 3.41421C9.63317 4.19526 8.36683 4.19526 7.58579 3.41421C6.80474 2.63317 6.80474 1.36683 7.58579 0.585785C8.36683 -0.195262 9.63317 -0.195262 10.4142 0.585785Z" fill="#2B3990"/>
<path d="M3.41421 0.585785C4.19526 1.36683 4.19526 2.63317 3.41421 3.41421C2.63317 4.19526 1.36683 4.19526 0.585785 3.41421C-0.195262 2.63317 -0.195262 1.36683 0.585785 0.585785C1.36683 -0.195262 2.63317 -0.195262 3.41421 0.585785Z" fill="#2B3990"/>
</svg>
