<svg width="14" height="25" viewBox="0 0 14 25" fill="none" xmlns="http://www.w3.org/2000/svg">
<path d="M13.8428 14.1766C13.6279 13.9468 13.2734 13.9404 13.051 14.1624C13.0463 14.1671 13.0417 14.1718 13.0372 14.1766L3.91312 23.6034L0.949035 20.541C0.726567 20.319 0.372061 20.3254 0.157205 20.5552C-0.0524015 20.7795 -0.0524015 21.1349 0.157205 21.3591L3.5172 24.8306C3.7359 25.0565 4.09037 25.0565 4.30903 24.8306L13.829 14.9948C14.0515 14.7728 14.0577 14.4065 13.8428 14.1766Z" fill="#BFBFBF"/>
<path d="M13.8428 0.176644C13.6279 -0.0532042 13.2734 -0.0595775 13.051 0.162406C13.0463 0.16705 13.0417 0.171796 13.0372 0.176644L3.91312 9.60341L0.949035 6.541C0.726567 6.31902 0.372061 6.32539 0.157205 6.55524C-0.0524015 6.77946 -0.0524015 7.13491 0.157205 7.35913L3.5172 10.8306C3.7359 11.0565 4.09037 11.0565 4.30903 10.8306L13.829 0.994775C14.0515 0.772758 14.0577 0.406492 13.8428 0.176644Z" fill="#219653"/>
</svg>
