<svg width="13" height="12" viewBox="0 0 13 12" fill="none" xmlns="http://www.w3.org/2000/svg">
<path d="M12.1636 4.79115C12.0115 4.6728 11.7585 4.4754 11.7268 4.38184C11.6946 4.28468 11.7778 3.97203 11.8278 3.78598C11.9476 3.33689 12.097 2.77822 11.7623 2.33843C11.4292 1.90175 10.8302 1.8635 10.3489 1.83248C10.1496 1.81904 9.81543 1.79784 9.73108 1.73893C9.64567 1.6795 9.51727 1.37511 9.44046 1.19267C9.25082 0.740475 9.03487 0.227802 8.50787 0.0644915C7.98355 -0.100358 7.50435 0.191628 7.08264 0.448465C6.89675 0.561116 6.61687 0.731682 6.49977 0.731682C6.38749 0.731682 6.11084 0.558552 5.92711 0.443824C5.52152 0.190064 5.01439 -0.124149 4.47987 0.0505444C3.95393 0.222648 3.74014 0.732195 3.5505 1.18077C3.47422 1.36165 3.34742 1.66345 3.26041 1.72496C3.17553 1.78541 2.83547 1.80712 2.6324 1.82005C2.12474 1.85312 1.54939 1.89034 1.22599 2.33064C0.908502 2.7632 1.05084 3.29653 1.17655 3.76734C1.22599 3.95442 1.30978 4.26761 1.27969 4.36113C1.24747 4.45053 0.997115 4.64848 0.847768 4.76682C0.470057 5.06662 0 5.43921 0 5.99737C0 6.55188 0.460941 6.92037 0.831061 7.21597C0.991682 7.34413 1.23396 7.53792 1.26674 7.63406C1.29896 7.72915 1.21517 8.03819 1.16467 8.2227C1.04218 8.67592 0.889078 9.24028 1.23665 9.68368C1.57564 10.1147 2.17194 10.1529 2.65167 10.1839C2.85099 10.1974 3.18459 10.218 3.26947 10.2775C3.35436 10.3369 3.48222 10.6408 3.55903 10.8232C3.74921 11.2754 3.96462 11.7881 4.49216 11.9519C4.59799 11.9855 4.70275 12 4.80482 12C5.20881 12 5.58162 11.7726 5.91792 11.569C6.10325 11.4563 6.38262 11.2858 6.49972 11.2858C6.61416 11.2858 6.88919 11.4543 7.07078 11.5659C7.47368 11.8124 7.97652 12.1214 8.50997 11.9457C9.03536 11.7736 9.24917 11.2646 9.43881 10.815C9.51509 10.6346 9.64189 10.3323 9.7289 10.2708C9.81431 10.2103 10.1522 10.1886 10.3542 10.1757C10.8581 10.1426 11.4297 10.106 11.758 9.67235C12.0883 9.23669 11.9465 8.69766 11.8214 8.22272C11.7725 8.03719 11.6908 7.72764 11.7204 7.6346C11.7526 7.5452 12.0029 7.34726 12.1518 7.22891C12.5299 6.92916 13 6.55603 13 5.99788C13 5.44439 12.5359 5.08211 12.1636 4.79115Z" fill="#219653"/>
<path d="M8.94549 4.00453C8.71665 3.82056 8.37872 3.85053 8.18911 4.06914L5.79368 6.8242L4.77458 5.84436C4.56452 5.64228 4.225 5.64228 4.01496 5.84436C3.80491 6.04643 3.80491 6.37305 4.01496 6.5751L5.44933 7.95496C5.54978 8.05264 5.68678 8.10638 5.82915 8.10638C5.83667 8.10638 5.84474 8.10638 5.85226 8.10535C6.00374 8.09915 6.14397 8.03198 6.24066 7.92086L9.01263 4.73218C9.2028 4.51308 9.17327 4.18748 8.94549 4.00453Z" fill="white"/>
</svg>
