<svg width="1440" height="465" viewBox="0 0 1440 465" fill="none" xmlns="http://www.w3.org/2000/svg">
<g clip-path="url(#clip0)">
<path fill-rule="evenodd" clip-rule="evenodd" d="M478.345 -7.91383C695.905 64.28 552.865 152.03 695.905 218.24C838.944 284.451 1040 -7.91383 1040 -7.91383C1040 -7.91383 260.784 -80.1077 478.345 -7.91383Z" fill="#F5F6F7"/>
<path fill-rule="evenodd" clip-rule="evenodd" d="M436 0C452 136.319 684 84.3276 768.5 154.706C853 225.085 822 407.372 1056 424.491C1290 441.61 1290.5 306.815 1444 334.712V0H436Z" fill="url(#paint0_linear)"/>
<path opacity="0.35" d="M34 258C34 241.431 20.5685 228 4 228C-12.5685 228 -26 241.431 -26 258C-26 274.569 -12.5685 288 4 288C20.5685 288 34 274.569 34 258Z" fill="url(#paint1_linear)"/>
<path opacity="0.35" d="M68 198C68 192.477 63.5228 188 58 188C52.4772 188 48 192.477 48 198C48 203.523 52.4772 208 58 208C63.5228 208 68 203.523 68 198Z" fill="url(#paint2_linear)"/>
<path opacity="0.35" d="M196 232C196 226.477 191.523 222 186 222C180.477 222 176 226.477 176 232C176 237.523 180.477 242 186 242C191.523 242 196 237.523 196 232Z" fill="url(#paint3_linear)"/>
<path opacity="0.35" d="M176 455C176 449.477 171.523 445 166 445C160.477 445 156 449.477 156 455C156 460.523 160.477 465 166 465C171.523 465 176 460.523 176 455Z" fill="url(#paint4_linear)"/>
<path opacity="0.35" d="M427 388C427 382.477 422.523 378 417 378C411.477 378 407 382.477 407 388C407 393.523 411.477 398 417 398C422.523 398 427 393.523 427 388Z" fill="url(#paint5_linear)"/>
<path opacity="0.35" fill-rule="evenodd" clip-rule="evenodd" d="M753.941 399.314L742.627 433.255L720 410.627L753.941 399.314Z" fill="url(#paint6_linear)"/>
<path opacity="0.35" fill-rule="evenodd" clip-rule="evenodd" d="M498.782 201.782L518.935 208.5L505.5 221.935L498.782 201.782Z" fill="url(#paint7_linear)"/>
</g>
<defs>
<linearGradient id="paint0_linear" x1="1488.8" y1="333.123" x2="1398.43" y2="-157.223" gradientUnits="userSpaceOnUse">
<stop stop-color="#F0EFF3"/>
<stop offset="1" stop-color="white"/>
</linearGradient>
<linearGradient id="paint1_linear" x1="36.6664" y1="271.667" x2="4" y2="211.667" gradientUnits="userSpaceOnUse">
<stop stop-color="#BF9866"/>
<stop offset="1" stop-color="#FFCB88"/>
</linearGradient>
<linearGradient id="paint2_linear" x1="70.0795" y1="204.86" x2="75.9485" y2="175.22" gradientUnits="userSpaceOnUse">
<stop stop-color="#BF9866"/>
<stop offset="1" stop-color="#FFCB88"/>
</linearGradient>
<linearGradient id="paint3_linear" x1="196.889" y1="236.556" x2="186" y2="216.556" gradientUnits="userSpaceOnUse">
<stop stop-color="#BF9866"/>
<stop offset="1" stop-color="#FFCB88"/>
</linearGradient>
<linearGradient id="paint4_linear" x1="176.889" y1="459.556" x2="166" y2="439.556" gradientUnits="userSpaceOnUse">
<stop stop-color="#BF9866"/>
<stop offset="1" stop-color="#FFCB88"/>
</linearGradient>
<linearGradient id="paint5_linear" x1="427.889" y1="392.556" x2="417" y2="372.556" gradientUnits="userSpaceOnUse">
<stop stop-color="#BF9866"/>
<stop offset="1" stop-color="#FFCB88"/>
</linearGradient>
<linearGradient id="paint6_linear" x1="757.47" y1="427.927" x2="767.43" y2="377.625" gradientUnits="userSpaceOnUse">
<stop stop-color="#BF9866"/>
<stop offset="1" stop-color="#FFCB88"/>
</linearGradient>
<linearGradient id="paint7_linear" x1="519.831" y1="216.449" x2="508.858" y2="196.296" gradientUnits="userSpaceOnUse">
<stop stop-color="#BF9866"/>
<stop offset="1" stop-color="#FFCB88"/>
</linearGradient>
<clipPath id="clip0">
<rect width="1440" height="465" fill="white"/>
</clipPath>
</defs>
</svg>
