<svg width="127" height="30" viewBox="0 0 127 30" fill="none" xmlns="http://www.w3.org/2000/svg">
<path d="M57.4754 23.5897L51.4536 16.891H49.1995V23.5897H44.659V0H49.1995V13.3654H51.4536L57.2822 6.79487H62.7888L54.6738 14.7436L63.304 23.5897H57.4754Z" fill="#333333"/>
<path d="M82.7976 16.0256V16.5385H68.049C68.4784 19.4017 70.3354 20.8333 73.62 20.8333C75.7453 20.8333 77.2481 20.1496 78.1283 18.7821L82.54 19.0064C82.0033 20.5876 80.9728 21.8162 79.4486 22.6923C77.9243 23.547 75.9815 23.9744 73.62 23.9744C70.4857 23.9744 68.0061 23.2479 66.1813 21.7949C64.378 20.3205 63.4763 18.1197 63.4763 15.1923C63.4763 12.2863 64.3673 10.0962 66.1491 8.6218C67.9524 7.14744 70.3676 6.41026 73.3946 6.41026C79.6633 6.41026 82.7976 9.61539 82.7976 16.0256ZM73.3946 9.55128C71.9562 9.55128 70.7647 9.89316 69.8201 10.5769C68.897 11.2607 68.3174 12.297 68.0812 13.6859H78.3215C78.2142 12.4038 77.7311 11.3996 76.8724 10.6731C76.0137 9.92521 74.8544 9.55128 73.3946 9.55128Z" fill="#333333"/>
<path d="M104.496 16.0256V16.5385H89.7477C90.1771 19.4017 92.0341 20.8333 95.3187 20.8333C97.444 20.8333 98.9468 20.1496 99.827 18.7821L104.239 19.0064C103.702 20.5876 102.671 21.8162 101.147 22.6923C99.623 23.547 97.6802 23.9744 95.3187 23.9744C92.1843 23.9744 89.7048 23.2479 87.88 21.7949C86.0767 20.3205 85.175 18.1197 85.175 15.1923C85.175 12.2863 86.0659 10.0962 87.8478 8.6218C89.6511 7.14744 92.0663 6.41026 95.0933 6.41026C101.362 6.41026 104.496 9.61539 104.496 16.0256ZM95.0933 9.55128C93.6549 9.55128 92.4634 9.89316 91.5188 10.5769C90.5957 11.2607 90.0161 12.297 89.7799 13.6859H100.02C99.9128 12.4038 99.4298 11.3996 98.5711 10.6731C97.7124 9.92521 96.5531 9.55128 95.0933 9.55128Z" fill="#333333"/>
<path d="M118.66 6.41026C121.128 6.41026 123.136 7.20086 124.681 8.78205C126.227 10.3419 127 12.4786 127 15.1923C127 17.906 126.227 20.0534 124.681 21.6346C123.136 23.1944 121.139 23.9744 118.692 23.9744C115.815 23.9744 113.668 22.938 112.251 20.8654V30H107.711V6.79487H111.929V9.9359C113.303 7.58547 115.547 6.41026 118.66 6.41026ZM113.443 19.0385C114.387 20 115.665 20.4808 117.275 20.4808C118.885 20.4808 120.162 20 121.107 19.0385C122.052 18.0769 122.524 16.7949 122.524 15.1923C122.524 13.5897 122.052 12.3077 121.107 11.3462C120.162 10.3846 118.885 9.90385 117.275 9.90385C115.665 9.90385 114.387 10.3846 113.443 11.3462C112.52 12.3077 112.058 13.5897 112.058 15.1923C112.058 16.7949 112.52 18.0769 113.443 19.0385Z" fill="#333333"/>
<path d="M13.3961 6.79483H17.9366V23.5897H13.7181V20C12.3871 22.6495 10.0793 23.9743 6.79464 23.9743C4.6049 23.9743 2.91966 23.344 1.73891 22.0833C0.579638 20.8226 0 19.0171 0 16.6666V6.79483H4.54049V15.2884C4.54049 18.6004 5.88225 20.2564 8.56575 20.2564C10.1115 20.2564 11.3029 19.7222 12.1402 18.6538C12.9774 17.5641 13.3961 16.1645 13.3961 14.4551V6.79483Z" fill="#005FF9"/>
<path d="M32.9971 6.41022C35.4659 6.41022 37.4732 7.20082 39.0189 8.78201C40.5646 10.3418 41.3374 12.4786 41.3374 15.1923C41.3374 17.9059 40.5646 20.0534 39.0189 21.6346C37.4732 23.1944 35.4766 23.9743 33.0293 23.9743C30.1526 23.9743 28.0058 22.938 26.5889 20.8653V30H22.0484V6.79483H26.2668V9.93586C27.6408 7.58543 29.8842 6.41022 32.9971 6.41022ZM27.7803 19.0384C28.7249 20 30.0023 20.4807 31.6124 20.4807C33.2225 20.4807 34.4998 20 35.4444 19.0384C36.389 18.0769 36.8613 16.7948 36.8613 15.1923C36.8613 13.5897 36.389 12.3077 35.4444 11.3461C34.4998 10.3846 33.2225 9.90381 31.6124 9.90381C30.0023 9.90381 28.7249 10.3846 27.7803 11.3461C26.8572 12.3077 26.3956 13.5897 26.3956 15.1923C26.3956 16.7948 26.8572 18.0769 27.7803 19.0384Z" fill="#005FF9"/>
</svg>
