<svg width="250" height="35" viewBox="0 0 250 35" fill="none" xmlns="http://www.w3.org/2000/svg">
<path d="M19.1068 17.8064L16.831 13.3048H4.80171L2.5259 17.8064H0L8.97821 0.300106H12.7295L21.7078 17.8064H19.1068ZM5.77706 11.3791H15.8557L10.8039 1.4005L5.77706 11.3791Z" fill="black"/>
<path d="M40.2909 17.8064L33.0884 10.6538H27.2363V17.8064H24.7354V0.300106H27.2363H36.3145C38.2152 0.300106 39.7324 0.758603 40.8662 1.6756C42.0166 2.57592 42.5918 3.86805 42.5918 5.55198C42.5918 7.23592 42.0332 8.51137 40.9162 9.37835C39.7991 10.2287 38.2652 10.6538 36.3145 10.6538H36.0144L43.5421 17.8064H40.2909ZM27.2363 2.32583V8.72812H36.1895C37.3732 8.72812 38.3152 8.45302 39.0155 7.90282C39.7324 7.35263 40.0909 6.56901 40.0909 5.55198C40.0909 4.51828 39.7324 3.72633 39.0155 3.17613C38.3152 2.60926 37.3732 2.32583 36.1895 2.32583H27.2363Z" fill="black"/>
<path d="M44.0378 2.35084V0.300106H62.2443V2.35084H54.3915V17.8064H51.8906V2.35084H44.0378Z" fill="black"/>
<path d="M81.7546 0.300106H84.2555V10.7288C84.2555 13.0797 83.4635 14.897 81.8796 16.1808C80.3124 17.4646 77.9699 18.1065 74.8521 18.1065C71.7177 18.1065 69.3585 17.4646 67.7746 16.1808C66.2074 14.897 65.4238 13.0797 65.4238 10.7288V0.300106H67.9246V10.4787C67.9246 12.2961 68.4998 13.6799 69.6503 14.6302C70.8173 15.5806 72.5513 16.0557 74.8521 16.0557C77.1363 16.0557 78.8536 15.5806 80.004 14.6302C81.171 13.6799 81.7546 12.2961 81.7546 10.4787V0.300106Z" fill="black"/>
<path d="M104.718 17.8064L97.5157 10.6538H91.6636V17.8064H89.1627V0.300106H91.6636H100.742C102.643 0.300106 104.16 0.758603 105.293 1.6756C106.444 2.57592 107.019 3.86805 107.019 5.55198C107.019 7.23592 106.461 8.51137 105.343 9.37835C104.226 10.2287 102.693 10.6538 100.742 10.6538H100.442L107.969 17.8064H104.718ZM91.6636 2.32583V8.72812H100.617C101.801 8.72812 102.743 8.45302 103.443 7.90282C104.16 7.35263 104.518 6.56901 104.518 5.55198C104.518 4.51828 104.16 3.72633 103.443 3.17613C102.743 2.60926 101.801 2.32583 100.617 2.32583H91.6636Z" fill="black"/>
<path d="M138.859 17.8064H132.281L125.629 11.0289H123.053V17.8064H117.851V0.300106H123.053V7.05252H125.529L131.856 0.300106H138.083L129.655 8.70311L138.859 17.8064Z" fill="black"/>
<path d="M141.273 15.7056C139.222 14.105 138.196 11.8876 138.196 9.05323C138.196 6.21889 139.222 4.00143 141.273 2.40086C143.323 0.800285 146.174 0 149.826 0C153.477 0 156.328 0.800285 158.379 2.40086C160.429 4.00143 161.455 6.21889 161.455 9.05323C161.455 11.8876 160.429 14.105 158.379 15.7056C156.328 17.3062 153.477 18.1065 149.826 18.1065C146.174 18.1065 143.323 17.3062 141.273 15.7056ZM145.074 5.55198C143.957 6.41896 143.398 7.58604 143.398 9.05323C143.398 10.5204 143.957 11.6958 145.074 12.5795C146.208 13.4465 147.792 13.88 149.826 13.88C151.86 13.88 153.435 13.4465 154.552 12.5795C155.686 11.6958 156.253 10.5204 156.253 9.05323C156.253 7.58604 155.686 6.41896 154.552 5.55198C153.435 4.66833 151.86 4.22651 149.826 4.22651C147.792 4.22651 146.208 4.66833 145.074 5.55198Z" fill="black"/>
<path d="M170.256 13.5548H182.56V17.8064H162.678V14.2051L174.582 4.55162H163.528V0.300106H182.185V3.90139L170.256 13.5548Z" fill="black"/>
<path d="M185.185 17.8064V0.300106H190.387V13.5548H201.741V17.8064H185.185Z" fill="black"/>
<path d="M206.335 15.7056C204.284 14.105 203.259 11.8876 203.259 9.05323C203.259 6.21889 204.284 4.00143 206.335 2.40086C208.386 0.800285 211.237 0 214.888 0C218.539 0 221.39 0.800285 223.441 2.40086C225.492 4.00143 226.517 6.21889 226.517 9.05323C226.517 11.8876 225.492 14.105 223.441 15.7056C221.39 17.3062 218.539 18.1065 214.888 18.1065C211.237 18.1065 208.386 17.3062 206.335 15.7056ZM210.136 5.55198C209.019 6.41896 208.461 7.58604 208.461 9.05323C208.461 10.5204 209.019 11.6958 210.136 12.5795C211.27 13.4465 212.854 13.88 214.888 13.88C216.922 13.88 218.497 13.4465 219.615 12.5795C220.748 11.6958 221.315 10.5204 221.315 9.05323C221.315 7.58604 220.748 6.41896 219.615 5.55198C218.497 4.66833 216.922 4.22651 214.888 4.22651C212.854 4.22651 211.27 4.66833 210.136 5.55198Z" fill="black"/>
<path d="M244.084 0.300106H249.386L242.059 17.8064H234.231L227.003 0.300106H232.455L238.207 15.2805L244.084 0.300106Z" fill="black"/>
<path d="M63.8958 27.3306C64.8614 27.3306 65.6326 27.5842 66.2092 28.0913C66.7927 28.5984 67.0845 29.2966 67.0845 30.1858C67.0845 31.075 66.7927 31.7732 66.2092 32.2803C65.6326 32.7874 64.8614 33.041 63.8958 33.041C63.2498 33.041 62.6871 32.9229 62.2077 32.6867C61.7353 32.4435 61.3776 32.1031 61.1344 31.6655V35H60.3842V27.4556H61.0615V28.8624C61.2768 28.3761 61.6277 28.001 62.1139 27.737C62.6002 27.4661 63.1942 27.3306 63.8958 27.3306ZM61.8013 31.8426C62.2737 32.2525 62.9128 32.4574 63.7187 32.4574C64.5245 32.4574 65.1636 32.2525 65.636 31.8426C66.1084 31.4258 66.3446 30.8735 66.3446 30.1858C66.3446 29.498 66.1084 28.9492 65.636 28.5394C65.1636 28.1225 64.5245 27.9141 63.7187 27.9141C62.9128 27.9141 62.2737 28.1225 61.8013 28.5394C61.3289 28.9492 61.0927 29.498 61.0927 30.1858C61.0927 30.8735 61.3289 31.4258 61.8013 31.8426Z" fill="black"/>
<path d="M75.0919 27.3306C75.9325 27.3306 76.582 27.5286 77.0405 27.9246C77.5059 28.3205 77.7387 28.918 77.7387 29.7169V32.9159H76.9884V29.9565C76.9884 28.6158 76.2937 27.9454 74.9043 27.9454C74.0915 27.9454 73.4559 28.1642 72.9974 28.6019C72.5458 29.0395 72.3201 29.637 72.3201 30.3942V32.9159H71.5698V25.2465H72.3201V28.8103C72.5493 28.3379 72.9001 27.9732 73.3725 27.7162C73.8449 27.4591 74.418 27.3306 75.0919 27.3306Z" fill="black"/>
<path d="M83.0836 32.2803C82.4584 31.7732 82.1458 31.075 82.1458 30.1858C82.1458 29.2966 82.4584 28.5984 83.0836 28.0913C83.7088 27.5842 84.5424 27.3306 85.5845 27.3306C86.6265 27.3306 87.4601 27.5842 88.0854 28.0913C88.7106 28.5984 89.0232 29.2966 89.0232 30.1858C89.0232 31.075 88.7106 31.7732 88.0854 32.2803C87.4601 32.7874 86.6265 33.041 85.5845 33.041C84.5424 33.041 83.7088 32.7874 83.0836 32.2803ZM83.6254 28.5394C83.1392 28.9492 82.896 29.498 82.896 30.1858C82.896 30.8735 83.1392 31.4258 83.6254 31.8426C84.1117 32.2525 84.7647 32.4574 85.5845 32.4574C86.4042 32.4574 87.0572 32.2525 87.5435 31.8426C88.0367 31.4258 88.2834 30.8735 88.2834 30.1858C88.2834 29.498 88.0367 28.9492 87.5435 28.5394C87.0572 28.1225 86.4042 27.9141 85.5845 27.9141C84.7647 27.9141 84.1117 28.1225 83.6254 28.5394Z" fill="black"/>
<path d="M97.03 28.0392H95.0709V31.1861C95.0709 31.6655 95.1439 31.992 95.2898 32.1657C95.4357 32.3393 95.7135 32.4262 96.1234 32.4262C96.3526 32.4262 96.6548 32.4019 97.03 32.3532V32.9576C96.7243 33.0132 96.3874 33.041 96.0192 33.041C95.3592 33.041 94.9112 32.9125 94.675 32.6554C94.4457 32.3984 94.3311 31.9503 94.3311 31.3112V28.0392H92.6743V27.4765H93.9872C94.1401 27.4765 94.2443 27.4522 94.2998 27.4035C94.3624 27.348 94.3936 27.2507 94.3936 27.1118V26.1844H95.0709V27.4556H97.03V28.0392Z" fill="black"/>
<path d="M101.852 32.2803C101.227 31.7732 100.915 31.075 100.915 30.1858C100.915 29.2966 101.227 28.5984 101.852 28.0913C102.478 27.5842 103.311 27.3306 104.353 27.3306C105.395 27.3306 106.229 27.5842 106.854 28.0913C107.48 28.5984 107.792 29.2966 107.792 30.1858C107.792 31.075 107.48 31.7732 106.854 32.2803C106.229 32.7874 105.395 33.041 104.353 33.041C103.311 33.041 102.478 32.7874 101.852 32.2803ZM102.394 28.5394C101.908 28.9492 101.665 29.498 101.665 30.1858C101.665 30.8735 101.908 31.4258 102.394 31.8426C102.881 32.2525 103.534 32.4574 104.353 32.4574C105.173 32.4574 105.826 32.2525 106.312 31.8426C106.806 31.4258 107.052 30.8735 107.052 30.1858C107.052 29.498 106.806 28.9492 106.312 28.5394C105.826 28.1225 105.173 27.9141 104.353 27.9141C103.534 27.9141 102.881 28.1225 102.394 28.5394Z" fill="black"/>
<path d="M126.082 32.9159H125.207L124.071 31.9573C123.363 32.6797 122.338 33.041 120.997 33.041C120.038 33.041 119.295 32.8742 118.767 32.5408C118.246 32.2004 117.986 31.7488 117.986 31.1861C117.986 30.9916 118.024 30.811 118.1 30.6443C118.177 30.4706 118.257 30.3317 118.34 30.2275C118.43 30.1163 118.583 29.9913 118.798 29.8523C119.014 29.7134 119.184 29.6127 119.309 29.5501C119.441 29.4807 119.656 29.373 119.955 29.2271L120.518 28.9458L120.424 28.8624C119.889 28.4108 119.514 28.0531 119.299 27.7891C119.083 27.5251 118.976 27.2403 118.976 26.9346C118.976 26.4692 119.194 26.1149 119.632 25.8717C120.077 25.6217 120.625 25.4966 121.278 25.4966C122.008 25.4966 122.581 25.639 122.998 25.9238C123.415 26.2087 123.623 26.5803 123.623 27.0388C123.623 27.3723 123.498 27.671 123.248 27.935C123.005 28.199 122.602 28.4734 122.039 28.7582L121.487 29.0395L124.009 31.1653C124.3 30.7346 124.467 30.2309 124.509 29.6543H125.082C125.012 30.3838 124.797 31.0055 124.436 31.5196L126.082 32.9159ZM120.945 28.5706L121.06 28.6748L121.706 28.3518C122.143 28.1295 122.459 27.9211 122.654 27.7266C122.855 27.5251 122.956 27.3063 122.956 27.0701C122.956 26.7505 122.803 26.497 122.498 26.3094C122.199 26.1218 121.793 26.0281 121.278 26.0281C120.834 26.0281 120.452 26.1079 120.132 26.2677C119.82 26.4206 119.663 26.6533 119.663 26.9659C119.663 27.1951 119.757 27.4209 119.945 27.6432C120.139 27.8655 120.473 28.1747 120.945 28.5706ZM121.028 32.4887C122.161 32.4887 123.036 32.19 123.654 31.5925L120.945 29.3105L120.184 29.696C119.906 29.8419 119.705 29.9496 119.58 30.0191C119.462 30.0885 119.319 30.1858 119.153 30.3108C118.986 30.4359 118.871 30.5644 118.809 30.6964C118.746 30.8284 118.715 30.9812 118.715 31.1549C118.715 31.5439 118.917 31.8635 119.319 32.1136C119.722 32.3636 120.292 32.4887 121.028 32.4887Z" fill="black"/>
<path d="M141.482 27.4556H142.305L139.335 32.9159H138.272L135.313 27.4556H136.147L138.814 32.4991L141.482 27.4556Z" fill="black"/>
<path d="M146.543 26.5282V25.4028H147.335V26.5282H146.543ZM146.564 32.9159V27.4556H147.314V32.9159H146.564Z" fill="black"/>
<path d="M157.748 25.2465H158.498V32.9159H157.82V31.53C157.598 32.0094 157.24 32.381 156.747 32.645C156.254 32.909 155.67 33.041 154.997 33.041C154.031 33.041 153.256 32.7874 152.673 32.2803C152.089 31.7732 151.798 31.075 151.798 30.1858C151.798 29.2966 152.086 28.5984 152.662 28.0913C153.246 27.5842 154.021 27.3306 154.986 27.3306C155.653 27.3306 156.223 27.4522 156.695 27.6953C157.167 27.9315 157.518 28.2719 157.748 28.7165V25.2465ZM153.256 31.8426C153.729 32.2525 154.368 32.4574 155.174 32.4574C155.98 32.4574 156.615 32.2525 157.081 31.8426C157.553 31.4258 157.789 30.8735 157.789 30.1858C157.789 29.498 157.553 28.9492 157.081 28.5394C156.615 28.1225 155.98 27.9141 155.174 27.9141C154.368 27.9141 153.729 28.1225 153.256 28.5394C152.784 28.9492 152.548 29.498 152.548 30.1858C152.548 30.8735 152.784 31.4258 153.256 31.8426Z" fill="black"/>
<path d="M169.683 30.29V30.3942H163.733C163.782 31.075 164.053 31.596 164.546 31.9573C165.046 32.3115 165.699 32.4887 166.505 32.4887C167.082 32.4887 167.572 32.3984 167.975 32.2178C168.384 32.0371 168.676 31.7975 168.85 31.4988L169.558 31.53C169.364 32.0024 169.003 32.3741 168.475 32.645C167.954 32.909 167.297 33.041 166.505 33.041C165.422 33.041 164.564 32.7978 163.931 32.3115C163.299 31.8253 162.983 31.1167 162.983 30.1858C162.983 29.2618 163.296 28.5567 163.921 28.0704C164.553 27.5772 165.38 27.3306 166.401 27.3306C167.45 27.3306 168.259 27.5807 168.829 28.0809C169.399 28.5741 169.683 29.3105 169.683 30.29ZM166.401 27.8829C165.658 27.8829 165.043 28.0566 164.557 28.4039C164.077 28.7443 163.806 29.2375 163.744 29.8836H168.944C168.923 29.2723 168.683 28.786 168.225 28.4247C167.766 28.0635 167.158 27.8829 166.401 27.8829Z" fill="black"/>
<path d="M174.7 32.2803C174.074 31.7732 173.762 31.075 173.762 30.1858C173.762 29.2966 174.074 28.5984 174.7 28.0913C175.325 27.5842 176.158 27.3306 177.2 27.3306C178.242 27.3306 179.076 27.5842 179.701 28.0913C180.327 28.5984 180.639 29.2966 180.639 30.1858C180.639 31.075 180.327 31.7732 179.701 32.2803C179.076 32.7874 178.242 33.041 177.2 33.041C176.158 33.041 175.325 32.7874 174.7 32.2803ZM175.241 28.5394C174.755 28.9492 174.512 29.498 174.512 30.1858C174.512 30.8735 174.755 31.4258 175.241 31.8426C175.728 32.2525 176.381 32.4574 177.2 32.4574C178.02 32.4574 178.673 32.2525 179.159 31.8426C179.653 31.4258 179.899 30.8735 179.899 30.1858C179.899 29.498 179.653 28.9492 179.159 28.5394C178.673 28.1225 178.02 27.9141 177.2 27.9141C176.381 27.9141 175.728 28.1225 175.241 28.5394Z" fill="black"/>
</svg>
