<svg width="142" height="20" viewBox="0 0 142 20" fill="none" xmlns="http://www.w3.org/2000/svg">
<path d="M113.261 4.05472C114.164 4.05472 114.996 4.26301 115.756 4.67961C116.531 5.0962 117.14 5.69954 117.584 6.48962C118.043 7.26535 118.273 8.18472 118.273 9.24775C118.273 10.5263 117.986 11.6827 117.412 12.717C116.853 13.7369 116.086 14.5413 115.111 15.1303C114.136 15.7049 113.053 15.9922 111.863 15.9922C110.099 15.9922 108.852 15.4176 108.12 14.2684L106.98 20.0001H103.625L106.765 4.2271H109.949L109.712 5.36914C110.673 4.49286 111.856 4.05472 113.261 4.05472ZM111.476 13.2126C112.135 13.2126 112.723 13.0545 113.24 12.7385C113.756 12.4081 114.157 11.9556 114.444 11.381C114.731 10.8064 114.874 10.1456 114.874 9.39859C114.874 8.6085 114.638 7.98361 114.164 7.52392C113.706 7.06423 113.06 6.83439 112.229 6.83439C111.583 6.83439 111.003 6.99959 110.486 7.32999C109.97 7.64603 109.569 8.09135 109.282 8.66596C108.995 9.24057 108.852 9.90137 108.852 10.6484C108.852 11.4384 109.081 12.0633 109.54 12.523C109.999 12.9827 110.644 13.2126 111.476 13.2126Z" fill="#333333"/>
<path d="M124.52 5.60616C125.022 5.06028 125.624 4.66524 126.327 4.42103C127.044 4.17682 127.882 4.05472 128.843 4.05472L128.241 7.15761C127.839 7.12888 127.581 7.11451 127.467 7.11451C126.449 7.11451 125.631 7.3659 125.015 7.86869C124.412 8.37147 124.004 9.15438 123.788 10.2174L122.67 15.8198H119.315L121.616 4.2271H124.799L124.52 5.60616Z" fill="#333333"/>
<path d="M134.433 15.9922C133.272 15.9922 132.246 15.7768 131.357 15.3458C130.482 14.9148 129.801 14.3115 129.314 13.5358C128.841 12.7457 128.604 11.8335 128.604 10.7992C128.604 9.52069 128.905 8.37147 129.507 7.35154C130.11 6.33161 130.941 5.52715 132.002 4.93818C133.064 4.34921 134.261 4.05472 135.595 4.05472C136.77 4.05472 137.796 4.2702 138.67 4.70115C139.545 5.13211 140.219 5.74263 140.692 6.53272C141.18 7.30844 141.424 8.21345 141.424 9.24775C141.424 10.5263 141.123 11.6755 140.52 12.6954C139.932 13.7153 139.101 14.5198 138.025 15.1088C136.964 15.6977 135.767 15.9922 134.433 15.9922ZM134.648 13.2126C135.293 13.2126 135.874 13.0545 136.39 12.7385C136.907 12.4081 137.308 11.9556 137.595 11.381C137.882 10.8064 138.025 10.1456 138.025 9.39859C138.025 8.6085 137.796 7.98361 137.337 7.52392C136.878 7.06423 136.233 6.83439 135.401 6.83439C134.741 6.83439 134.153 6.99959 133.637 7.32999C133.121 7.64603 132.719 8.09135 132.433 8.66596C132.146 9.24057 132.002 9.90137 132.002 10.6484C132.002 11.4384 132.232 12.0633 132.691 12.523C133.164 12.9827 133.816 13.2126 134.648 13.2126Z" fill="#333333"/>
<path fill-rule="evenodd" clip-rule="evenodd" d="M3.96723 0H61.6498L58.3182 19.9993H7.37713L8.49478 14.3962C9.22612 15.5421 10.4737 16.1151 12.2375 16.1151C13.4277 16.1151 14.5104 15.8286 15.4855 15.2557C16.4606 14.6684 17.2278 13.8662 17.7871 12.8492C18.3607 11.8179 18.6475 10.6648 18.6475 9.38995C18.6475 8.32997 18.418 7.41323 17.9591 6.63973C17.5146 5.85191 16.9052 5.2503 16.1308 4.8349C15.3708 4.41951 14.5391 4.21181 13.6357 4.21181C12.2303 4.21181 11.0473 4.64869 10.0865 5.52246L10.3231 4.3837H7.13966L4.02161 19.9993H0L3.96723 0ZM61.6738 19.9993L65.0054 0H68.1183L64.7867 19.9993H61.6738ZM68.1423 19.9993H99.5665L103.556 0H71.4739L68.1423 19.9993ZM85.4517 4.3837L83.1501 15.9432H79.9667L80.1818 14.8044C79.221 15.6782 78.038 16.1151 76.6326 16.1151C75.7292 16.1151 74.8975 15.9074 74.1375 15.492C73.3775 15.0766 72.768 14.4822 72.3091 13.7087C71.8646 12.9208 71.6423 11.9969 71.6423 10.937C71.6423 9.66211 71.922 8.51619 72.4812 7.49918C73.0548 6.46785 73.8292 5.6657 74.8043 5.09274C75.7794 4.50545 76.8549 4.21181 78.0308 4.21181C79.8089 4.21181 81.0637 4.79193 81.795 5.95218L82.0962 4.3837H85.4517ZM77.6651 13.3434C78.3248 13.3434 78.9127 13.1858 79.4289 12.8707C79.9452 12.5412 80.3467 12.09 80.6335 11.5171C80.9203 10.9441 81.0637 10.2852 81.0637 9.54036C81.0637 8.75253 80.8271 8.12944 80.3539 7.67107C79.895 7.2127 79.2497 6.98351 78.418 6.98351C77.7583 6.98351 77.1704 7.14824 76.6542 7.47769C76.1379 7.79282 75.7364 8.23687 75.4496 8.80983C75.1628 9.38279 75.0194 10.0417 75.0194 10.7865C75.0194 11.5744 75.2488 12.1975 75.7077 12.6558C76.1809 13.1142 76.8334 13.3434 77.6651 13.3434ZM94.0864 10.1635L97.3129 15.9432H93.7638L91.8709 12.398L88.5369 15.9432H84.7081L90.4943 10.0131L87.4184 4.3837H90.903L92.7313 7.7785L95.9578 4.3837H99.6575L94.0864 10.1635ZM13.6141 12.8707C13.0979 13.1858 12.51 13.3434 11.8503 13.3434C11.0186 13.3434 10.3733 13.1142 9.91444 12.6558C9.45556 12.1975 9.22612 11.5744 9.22612 10.7865C9.22612 10.0417 9.36952 9.38279 9.65632 8.80983C9.94312 8.23687 10.3446 7.79282 10.8609 7.47769C11.3771 7.14824 11.9579 6.98351 12.6032 6.98351C13.4349 6.98351 14.0802 7.2127 14.5391 7.67107C15.0123 8.12944 15.2489 8.75253 15.2489 9.54036C15.2489 10.2852 15.1055 10.9441 14.8187 11.5171C14.5319 12.09 14.1304 12.5412 13.6141 12.8707ZM31.4336 15.9432L33.7352 4.3837H30.3796L30.0785 5.95218C29.3471 4.79193 28.0924 4.21181 26.3142 4.21181C25.1384 4.21181 24.0629 4.50545 23.0878 5.09274C22.1126 5.6657 21.3383 6.46785 20.7647 7.49918C20.2054 8.51619 19.9258 9.66211 19.9258 10.937C19.9258 11.9969 20.1481 12.9208 20.5926 13.7087C21.0515 14.4822 21.6609 15.0766 22.4209 15.492C23.181 15.9074 24.0127 16.1151 24.9161 16.1151C26.3214 16.1151 27.5045 15.6782 28.4652 14.8045L28.2501 15.9432H31.4336ZM27.7124 12.8707C27.1961 13.1858 26.6082 13.3434 25.9486 13.3434C25.1169 13.3434 24.4644 13.1142 23.9912 12.6558C23.5323 12.1975 23.3029 11.5744 23.3029 10.7865C23.3029 10.0417 23.4462 9.38279 23.733 8.80983C24.0198 8.23687 24.4214 7.79282 24.9376 7.47769C25.4538 7.14824 26.0418 6.98351 26.7014 6.98351C27.5331 6.98351 28.1784 7.2127 28.6373 7.67107C29.1105 8.12944 29.3471 8.75253 29.3471 9.54036C29.3471 10.2852 29.2037 10.9441 28.9169 11.5171C28.6301 12.09 28.2286 12.5412 27.7124 12.8707ZM39.7457 5.7588C40.2476 5.21449 40.8498 4.82058 41.5525 4.57707C42.2695 4.33356 43.1084 4.21181 44.0692 4.21181L43.4669 7.3058C43.0654 7.27716 42.8073 7.26283 42.6925 7.26283C41.6744 7.26283 40.857 7.5135 40.2404 8.01484C39.6381 8.51619 39.2294 9.29685 39.0143 10.3568L37.8958 15.9432H34.5403L36.8418 4.3837H40.0253L39.7457 5.7588ZM55.3592 15.9432L57.6608 4.3837H54.3052L54.0041 5.95218C53.2727 4.79193 52.018 4.21181 50.2398 4.21181C49.0639 4.21181 47.9885 4.50545 47.0133 5.09274C46.0382 5.6657 45.2639 6.46785 44.6903 7.49918C44.131 8.51619 43.8514 9.66211 43.8514 10.937C43.8514 11.9969 44.0737 12.9208 44.5182 13.7087C44.9771 14.4822 45.5865 15.0766 46.3465 15.492C47.1065 15.9074 47.9383 16.1151 48.8417 16.1151C50.247 16.1151 51.43 15.6782 52.3908 14.8045L52.1757 15.9432H55.3592ZM51.638 12.8707C51.1217 13.1858 50.5338 13.3434 49.8742 13.3434C49.0424 13.3434 48.39 13.1142 47.9168 12.6558C47.4579 12.1975 47.2284 11.5744 47.2284 10.7865C47.2284 10.0417 47.3718 9.38279 47.6586 8.80983C47.9454 8.23687 48.347 7.79282 48.8632 7.47769C49.3794 7.14824 49.9674 6.98351 50.627 6.98351C51.4587 6.98351 52.104 7.2127 52.5629 7.67107C53.0361 8.12944 53.2727 8.75253 53.2727 9.54036C53.2727 10.2852 53.1293 10.9441 52.8425 11.5171C52.5557 12.09 52.1542 12.5412 51.638 12.8707Z" fill="#333333"/>
</svg>
