<svg width="18" height="64" viewBox="0 0 18 64" fill="none" xmlns="http://www.w3.org/2000/svg">
<path d="M7.06288 10.8861L6.76513 15.0741C7.19113 15.0741 7.37563 14.8911 7.59688 14.6713L9.59413 12.7626L13.7326 15.7933C14.4916 16.2163 15.0264 15.9936 15.2311 15.0951L17.9476 2.36605L17.9484 2.3653C18.1891 1.2433 17.5426 0.804554 16.8031 1.0798L0.835633 7.19305C-0.254117 7.61605 -0.237617 8.22355 0.650383 8.4988L4.73263 9.76855L14.2149 3.8353C14.6611 3.5398 15.0669 3.7033 14.7331 3.9988L7.06288 10.8861Z" fill="black"/>
<path d="M16.418 25H1.58201C1.33849 25 1.1105 25.0599 0.904236 25.1586L8.96483 33.2191L10.7715 31.4829C10.7715 31.4829 10.7716 31.4827 10.7716 31.4826C10.7717 31.4826 10.7718 31.4825 10.7718 31.4825L17.096 25.1587C16.8897 25.0599 16.6615 25 16.418 25Z" fill="black"/>
<path d="M17.8417 25.9045L11.8903 31.8556L17.8415 37.8067C17.9401 37.6005 18 37.3725 18 37.1289V26.5821C18 26.3387 17.9403 26.1107 17.8417 25.9045Z" fill="black"/>
<path d="M0.158555 25.9043C0.0598711 26.1106 0 26.3385 0 26.5821V37.1289C0 37.3723 0.0598008 37.6004 0.158414 37.8066L6.10977 31.8555L0.158555 25.9043Z" fill="black"/>
<path d="M11.1446 32.6011L9.33769 34.3376C9.23469 34.4406 9.09976 34.4921 8.96486 34.4921C8.82997 34.4921 8.695 34.4406 8.59203 34.3376L6.85545 32.6011L0.903992 38.5521C1.11029 38.6509 1.33842 38.7108 1.58202 38.7108H16.418C16.6615 38.7108 16.8895 38.651 17.0957 38.5523L11.1446 32.6011Z" fill="black"/>
<path fill-rule="evenodd" clip-rule="evenodd" d="M15.3774 48.6158C13.6853 46.9299 11.435 46.001 9.03764 46C4.09762 46 0.0771637 50.0011 0.0751766 54.9188C0.0745143 56.4908 0.487158 58.0254 1.27149 59.3781L0 64L4.75114 62.7596C6.06027 63.4703 7.53411 63.8449 9.034 63.8453H9.03775C13.9772 63.8453 17.9981 59.8439 18 54.926C18.001 52.5426 17.0696 50.3017 15.3774 48.6158ZM9.03764 62.339H9.03455C7.69793 62.3384 6.38703 61.9809 5.24316 61.3056L4.97126 61.1449L2.15186 61.881L2.9044 59.1453L2.72722 58.8648C1.98153 57.6844 1.58776 56.3201 1.58842 54.9194C1.58997 50.8319 4.93174 47.5064 9.04062 47.5064C11.0303 47.5071 12.9007 48.2792 14.3071 49.6805C15.7135 51.0818 16.4875 52.9445 16.4869 54.9254C16.4851 59.0132 13.1435 62.339 9.03764 62.339V62.339ZM13.1237 56.7866C12.8998 56.675 11.7988 56.136 11.5934 56.0615C11.3883 55.9871 11.2389 55.9501 11.0897 56.1731C10.9404 56.3961 10.5113 56.8982 10.3806 57.0469C10.2499 57.1956 10.1194 57.2143 9.89539 57.1027C9.6714 56.9912 8.94988 56.7557 8.09446 55.9965C7.4288 55.4055 6.97939 54.6757 6.84869 54.4527C6.71821 54.2294 6.84759 54.1204 6.94694 53.9978C7.18936 53.6982 7.43211 53.3841 7.50673 53.2355C7.58147 53.0867 7.54405 52.9565 7.48797 52.845C7.43211 52.7335 6.98425 51.6365 6.79769 51.1902C6.61576 50.7558 6.4313 50.8144 6.29375 50.8076C6.16327 50.8011 6.01391 50.7998 5.86455 50.7998C5.7153 50.7998 5.47266 50.8555 5.26733 51.0788C5.06211 51.3019 4.48366 51.841 4.48366 52.938C4.48366 54.035 5.2861 55.0947 5.39803 55.2435C5.50997 55.3922 6.97719 57.6433 9.22354 58.6086C9.75784 58.8384 10.1749 58.9754 10.5002 59.0781C11.0367 59.2478 11.5248 59.2238 11.9107 59.1665C12.341 59.1024 13.2355 58.6272 13.4223 58.1067C13.6088 57.5861 13.6088 57.1399 13.5528 57.0469C13.4969 56.9539 13.3475 56.8982 13.1237 56.7866V56.7866Z" fill="black"/>
</svg>
