<svg width="21" height="70" fill="none" xmlns="http://www.w3.org/2000/svg"><path fill-rule="evenodd" clip-rule="evenodd" d="M15.2 17.848H5.819c-.513 0-.951-.38-1.035-.9L3.529 9.24h14.13l-1.426 7.732a1.058 1.058 0 01-1.032.876zm2.65-10.76L14.147.538a1.033 1.033 0 00-1.425-.394 1.086 1.086 0 00-.388 1.469l3.09 5.475h-9.85L8.67 1.617A1.09 1.09 0 008.292.152l-.01-.006a1.034 1.034 0 00-1.434.39L3.15 7.088h-2.1C.47 7.088 0 7.57 0 8.164 0 8.758.47 9.24 1.05 9.24h.35l1.457 8.962C3.027 19.24 3.902 20 4.93 20h11.14c1.027 0 1.904-.76 2.072-1.798l1.457-8.962h.351c.58 0 1.05-.482 1.05-1.076 0-.594-.47-1.076-1.05-1.076h-2.1z" fill="#D62631"/><path fill-rule="evenodd" clip-rule="evenodd" d="M15.2 42.848H5.819c-.513 0-.951-.38-1.035-.9L3.529 34.24h14.13l-1.426 7.732a1.058 1.058 0 01-1.032.876zm2.65-10.76l-3.703-6.55a1.033 1.033 0 00-1.425-.394 1.086 1.086 0 00-.388 1.469l3.09 5.475h-9.85l3.096-5.471a1.09 1.09 0 00-.378-1.465l-.01-.006a1.033 1.033 0 00-1.434.39L3.15 32.088h-2.1c-.58 0-1.05.482-1.05 1.076 0 .594.47 1.076 1.05 1.076h.35l1.457 8.962C3.027 44.24 3.902 45 4.93 45h11.14c1.027 0 1.904-.76 2.072-1.798l1.457-8.962h.351c.58 0 1.05-.482 1.05-1.076 0-.594-.47-1.076-1.05-1.076h-2.1z" fill="#fff"/><path fill-rule="evenodd" clip-rule="evenodd" d="M15.2 67.848H5.819c-.513 0-.951-.38-1.035-.9L3.529 59.24h14.13l-1.426 7.732a1.058 1.058 0 01-1.032.876zm2.65-10.76l-3.703-6.55a1.033 1.033 0 00-1.425-.394 1.086 1.086 0 00-.388 1.469l3.09 5.475h-9.85l3.096-5.471a1.09 1.09 0 00-.378-1.465l-.01-.006a1.034 1.034 0 00-1.434.39L3.15 57.088h-2.1c-.58 0-1.05.482-1.05 1.076 0 .594.47 1.076 1.05 1.076h.35l1.457 8.962C3.027 69.24 3.902 70 4.93 70h11.14c1.027 0 1.904-.76 2.072-1.798l1.457-8.962h.351c.58 0 1.05-.482 1.05-1.076 0-.594-.47-1.076-1.05-1.076h-2.1z" fill="#000"/></svg>