<svg width="16" height="45" fill="none" xmlns="http://www.w3.org/2000/svg"><path d="M7.879 9.634c1.269 0 2.368-.475 3.266-1.411.898-.937 1.353-2.082 1.353-3.406 0-1.323-.455-2.47-1.353-3.406C10.247.475 9.148 0 7.879 0 6.609 0 5.51.475 4.613 1.411c-.898.937-1.353 2.082-1.353 3.406 0 1.324.455 2.47 1.353 3.406.898.936 1.997 1.411 3.266 1.411zm8.082 5.745c-.026-.39-.078-.815-.155-1.264-.078-.452-.178-.88-.298-1.27a6.416 6.416 0 00-.501-1.185 4.456 4.456 0 00-.755-1.027 3.314 3.314 0 00-1.085-.71 3.613 3.613 0 00-1.385-.262c-.196 0-.385.084-.751.332-.225.153-.488.33-.782.526-.251.167-.592.323-1.012.465-.41.138-.826.208-1.237.208a3.88 3.88 0 01-1.238-.208c-.42-.142-.76-.298-1.011-.465-.291-.194-.555-.371-.783-.526-.365-.248-.555-.332-.75-.332-.5 0-.965.088-1.386.261a3.312 3.312 0 00-1.085.711 4.49 4.49 0 00-.755 1.027c-.208.382-.376.78-.5 1.185-.12.39-.22.818-.298 1.27-.077.448-.13.874-.156 1.264-.025.383-.038.78-.038 1.182 0 1.044.318 1.889.946 2.512.62.615 1.44.927 2.437.927h9.234c.997 0 1.817-.312 2.437-.927.628-.623.946-1.468.946-2.513 0-.403-.013-.8-.039-1.181z" fill="#D62631"/><path d="M7.879 34.634c1.269 0 2.368-.475 3.266-1.411.898-.937 1.353-2.082 1.353-3.406 0-1.323-.455-2.47-1.353-3.406C10.247 25.475 9.148 25 7.879 25c-1.27 0-2.368.475-3.266 1.411-.898.937-1.353 2.082-1.353 3.406 0 1.324.455 2.47 1.353 3.406.898.936 1.997 1.411 3.266 1.411zm8.082 5.745c-.026-.39-.078-.815-.155-1.264-.078-.452-.178-.88-.298-1.27a6.416 6.416 0 00-.501-1.185 4.456 4.456 0 00-.755-1.027 3.314 3.314 0 00-1.085-.71 3.613 3.613 0 00-1.385-.262c-.196 0-.385.084-.751.332-.225.153-.488.33-.782.526-.251.167-.592.323-1.012.465-.41.138-.826.208-1.237.208a3.88 3.88 0 01-1.238-.208c-.42-.142-.76-.298-1.011-.465-.291-.194-.555-.371-.783-.526-.365-.248-.555-.332-.75-.332-.5 0-.965.088-1.386.261a3.311 3.311 0 00-1.085.711 4.49 4.49 0 00-.755 1.027c-.208.382-.376.78-.5 1.185-.12.39-.22.818-.298 1.27-.077.448-.13.874-.156 1.264-.025.383-.038.78-.038 1.181 0 1.044.318 1.89.946 2.513.62.615 1.44.927 2.437.927h9.234c.997 0 1.817-.312 2.437-.927.628-.623.946-1.468.946-2.513 0-.403-.013-.8-.039-1.181z" fill="#fff"/></svg>