<svg width="91" height="75" viewBox="0 0 91 75" fill="none" xmlns="http://www.w3.org/2000/svg">
<path d="M41.3641 68.2314H20.4111V75H41.3641V68.2314Z" fill="#FFDB46"/>
<path d="M82.4398 52.6411L85.2506 46.3858H90.1694L84.6757 56.6509V62.2327H80.1081V56.5868L74.6463 46.3858H79.5652L82.4398 52.6411ZM74.295 49.9145H69.2484V62.2327H64.6809V49.9145H59.794V46.3858H74.295V49.9145ZM58.0053 55.7848H51.8088V58.6719H59.1551V62.2327H47.2414V46.3858H59.2191V49.9145H51.8088V52.2562H58.0053V55.7848ZM45.2291 56.234H38.841V62.2327H34.2415V46.3858H45.8998V49.9145H38.9048V52.7053H45.2929L45.2291 56.234ZM23.0623 56.234H26.7355L25.0426 51.358V51.0693V51.3258L23.0623 56.234ZM27.6618 59.4418H22.0082L21.082 62.2327H16.4826L22.6151 46.3858H26.991L33.2194 62.2327H28.62L27.6618 59.4418ZM10.9568 56.9717C10.9706 56.6603 10.9113 56.35 10.7837 56.0658C10.6561 55.7816 10.4637 55.5315 10.2222 55.3357C9.43804 54.7794 8.56218 54.3668 7.63499 54.1168C6.54472 53.7816 5.47771 53.3743 4.44094 52.8978C3.35624 52.5184 2.41051 51.8198 1.72685 50.8928C1.04318 49.9659 0.653336 48.8537 0.608128 47.701C0.596391 46.6482 0.933431 45.6213 1.56631 44.7819C2.27356 43.9038 3.19906 43.2287 4.2493 42.825C5.50721 42.3625 6.83858 42.1343 8.17802 42.1514C9.49365 42.1172 10.8011 42.3689 12.0109 42.8892C13.0643 43.3652 13.9694 44.119 14.63 45.0706C15.2502 46.0232 15.5728 47.1403 15.5563 48.2784H10.829C10.8452 47.9289 10.7881 47.5799 10.6616 47.2538C10.535 46.9278 10.3419 46.6321 10.0945 46.3858C9.52602 45.929 8.80893 45.7003 8.08221 45.7442C7.36961 45.6949 6.6611 45.8869 6.06994 46.2896C5.8434 46.4555 5.6589 46.6726 5.53129 46.9233C5.40368 47.1741 5.33649 47.4514 5.33527 47.733C5.34854 48.0104 5.42809 48.2806 5.56706 48.5206C5.70603 48.7607 5.90034 48.9637 6.13378 49.1125C7.02177 49.684 7.99112 50.1166 9.00851 50.3956C10.1749 50.7543 11.2992 51.2382 12.3622 51.8391C13.3223 52.2965 14.1326 53.0192 14.6983 53.9225C15.264 54.8259 15.5617 55.8725 15.5563 56.9396C15.5885 57.727 15.4277 58.5103 15.088 59.2207C14.7483 59.9311 14.2401 60.5468 13.608 61.0137C12.0386 62.0784 10.1647 62.5967 8.27384 62.4893C6.78087 62.5157 5.29955 62.2204 3.92988 61.6232C2.73483 61.1469 1.71074 60.3195 0.991399 59.2493C0.321804 58.2327 -0.0235701 57.0355 0.00124979 55.8169H4.79233C4.76437 56.2409 4.82057 56.6662 4.95765 57.0682C5.09473 57.4702 5.30995 57.8409 5.59085 58.1586C6.36943 58.717 7.32062 58.9786 8.27384 58.8965C8.93093 58.9363 9.58252 58.7557 10.1264 58.3832C10.3881 58.2505 10.6094 58.0494 10.7668 57.801C10.9242 57.5526 11.0119 57.266 11.0207 56.9717H10.9568Z" fill="#3F3F3F"/>
<path fill-rule="evenodd" clip-rule="evenodd" d="M64.2658 26.3366C64.2517 25.9736 64.1404 25.6211 63.9437 25.3163C63.7469 25.0115 63.472 24.7655 63.1479 24.6043C61.7684 23.9861 60.3211 23.5338 58.8359 23.257C57.0218 22.8863 55.2691 22.2599 53.6297 21.3964C52.3514 20.746 51.2539 19.7871 50.4356 18.6056C49.6937 17.4984 49.314 16.1864 49.3495 14.8524C49.3462 13.6383 49.6349 12.4415 50.191 11.3636C50.7471 10.2857 51.5542 9.3586 52.5436 8.6612C54.8846 6.95289 57.7337 6.0933 60.6245 6.22319C63.6855 6.08322 66.7098 6.93821 69.2485 8.6612C70.2614 9.38799 71.082 10.3526 71.6387 11.4708C72.1954 12.5891 72.4714 13.827 72.4426 15.0769H63.9784C63.9784 12.9384 62.8284 11.8691 60.5287 11.8691C59.7128 11.8291 58.9128 12.1046 58.2929 12.6389C58.009 12.8495 57.7795 13.1255 57.6239 13.4437C57.4682 13.7619 57.391 14.113 57.3986 14.4674C57.397 14.8468 57.497 15.2197 57.688 15.547C57.8791 15.8743 58.1542 16.1441 58.4846 16.328C59.5832 16.9342 60.7862 17.326 62.0299 17.4828C63.4678 17.7543 64.8869 18.1186 66.2781 18.5735C68.0106 18.9425 69.5634 19.9002 70.6747 21.2851C71.786 22.67 72.3879 24.3975 72.3787 26.1761C72.3976 27.375 72.1147 28.5594 71.5563 29.6192C70.998 30.6791 70.1823 31.5802 69.1847 32.239C66.6567 33.8981 63.6734 34.7173 60.6565 34.5808C58.4612 34.6433 56.2795 34.2159 54.2684 33.3297C52.5631 32.5883 51.0856 31.4034 49.9884 29.8973C49.0062 28.5822 48.4689 26.986 48.4552 25.3421H56.3765C56.3418 25.8695 56.4374 26.3971 56.6547 26.8784C56.872 27.3597 57.2044 27.7797 57.6222 28.1009C58.5628 28.7351 59.6857 29.0396 60.8163 28.9671C61.7341 29.041 62.649 28.7915 63.4035 28.2613C63.6803 28.0389 63.9021 27.7552 64.0517 27.4324C64.2013 27.1097 64.2746 26.7566 64.2658 26.4007V26.3366ZM86.209 6.83269H90.6168V12.7031H86.1451V25.1817C86.0752 25.9441 86.2792 26.7064 86.72 27.331C87.0215 27.576 87.3697 27.7565 87.7432 27.8613C88.1167 27.9661 88.5077 27.9931 88.892 27.9405C89.5979 27.9456 90.303 27.8919 91 27.7801V33.843C89.4649 34.3501 87.8569 34.5994 86.2409 34.5808C83.9258 34.765 81.6314 34.0276 79.8528 32.5277C79.0908 31.6562 78.5136 30.6378 78.1567 29.5347C77.7997 28.4316 77.6704 27.267 77.7767 26.112V12.6389H74.2952V6.76857H86.209V6.83269Z" fill="#3F3F3F"/>
<path fill-rule="evenodd" clip-rule="evenodd" d="M41.3643 0H35.8386L7.7948 8.98203V23.0004L20.4113 19.151V40.4191H41.3643V0Z" fill="#3F3F3F"/>
<path d="M86.2088 0H77.7445V4.8118H86.2088V0Z" fill="#FFDB46"/>
</svg>
