<svg width="26" height="18" fill="none" xmlns="http://www.w3.org/2000/svg"><path d="M25.496 1.498h-1.714V.934a.488.488 0 00-.362-.487c-1.186-.3-2.408-.45-3.634-.447-2.016 0-4.763.438-6.794 2.432C10.976.418 8.21 0 6.2 0a14.683 14.683 0 00-3.634.447.488.488 0 00-.363.487v.559H.504A.495.495 0 000 1.979v15.533c0 .268.226.486.504.486a.519.519 0 00.247-.063c.05-.024 5.09-2.684 12.126-.973h.121a.52.52 0 00.12 0c7.056-1.726 12.096.93 12.126.973a.52.52 0 00.504 0 .484.484 0 00.252-.418V1.984a.495.495 0 00-.504-.486zM1.008 16.738V2.47h1.204v12.197a.495.495 0 00.58.486 22.83 22.83 0 013.15-.243c1.46-.024 2.916.188 4.304.627a19.145 19.145 0 00-9.238 1.201zm4.934-2.796a22.98 22.98 0 00-2.742.17V1.319c.981-.212 1.984-.32 2.99-.322 1.885 0 4.485.418 6.29 2.383l.014 12.114c-1.048-.662-3.094-1.552-6.551-1.552zm7.56-10.562C15.306 1.435 17.905.997 19.79.997c1.005.003 2.007.11 2.989.32v12.796a22.94 22.94 0 00-2.727-.175c-3.437 0-5.488.89-6.552 1.55V3.38zm11.485 13.358a19.149 19.149 0 00-9.258-1.2 13.542 13.542 0 014.324-.628c1.061.006 2.12.085 3.17.238a.502.502 0 00.58-.486V2.47h1.204l-.02 14.268z" fill="#000"/></svg>