<svg width="212" height="30" viewBox="0 0 212 30" fill="none" xmlns="http://www.w3.org/2000/svg">
<path d="M169.783 6.08203C171.137 6.08203 172.384 6.39447 173.523 7.01936C174.684 7.64424 175.598 8.54924 176.264 9.73437C176.952 10.8979 177.296 12.277 177.296 13.8715C177.296 15.7893 176.866 17.5239 176.006 19.0753C175.168 20.6052 174.018 21.8119 172.556 22.6953C171.094 23.5572 169.471 23.9882 167.687 23.9882C165.043 23.9882 163.173 23.1263 162.077 21.4025L160.368 30H155.338L160.045 6.3406H164.818L164.463 8.05365C165.903 6.73924 167.676 6.08203 169.783 6.08203ZM167.107 19.8187C168.096 19.8187 168.977 19.5817 169.751 19.1076C170.525 18.612 171.127 17.9333 171.556 17.0714C171.986 16.2095 172.201 15.2183 172.201 14.0978C172.201 12.9127 171.847 11.9753 171.137 11.2858C170.449 10.5963 169.482 10.2515 168.235 10.2515C167.268 10.2515 166.397 10.4993 165.624 10.9949C164.85 11.469 164.248 12.1369 163.818 12.9988C163.388 13.8608 163.173 14.8519 163.173 15.9724C163.173 17.1576 163.517 18.0949 164.205 18.7844C164.893 19.4739 165.86 19.8187 167.107 19.8187Z" fill="white"/>
<path d="M186.66 8.40918C187.413 7.59037 188.316 6.99781 189.369 6.6315C190.444 6.26519 191.701 6.08203 193.141 6.08203L192.239 10.7363C191.637 10.6932 191.25 10.6717 191.078 10.6717C189.552 10.6717 188.326 11.0488 187.402 11.8029C186.499 12.5571 185.887 13.7315 185.564 15.326L183.887 23.7296H178.857L182.307 6.3406H187.08L186.66 8.40918Z" fill="white"/>
<path d="M201.521 23.9882C199.78 23.9882 198.243 23.665 196.91 23.0185C195.599 22.3721 194.578 21.4671 193.847 20.3035C193.137 19.1184 192.783 17.7501 192.783 16.1987C192.783 14.2809 193.234 12.5571 194.137 11.0272C195.04 9.49734 196.287 8.29067 197.877 7.40722C199.468 6.52376 201.263 6.08203 203.262 6.08203C205.025 6.08203 206.562 6.40525 207.873 7.05168C209.184 7.69811 210.194 8.61389 210.904 9.79901C211.635 10.9626 212 12.3201 212 13.8715C212 15.7893 211.549 17.5131 210.646 19.043C209.764 20.5729 208.518 21.7795 206.905 22.663C205.315 23.5465 203.52 23.9882 201.521 23.9882ZM201.843 19.8187C202.811 19.8187 203.681 19.5817 204.455 19.1076C205.229 18.612 205.831 17.9333 206.261 17.0714C206.691 16.2095 206.905 15.2183 206.905 14.0978C206.905 12.9127 206.562 11.9753 205.874 11.2858C205.186 10.5963 204.219 10.2515 202.972 10.2515C201.983 10.2515 201.102 10.4993 200.328 10.9949C199.554 11.469 198.952 12.1369 198.522 12.9988C198.092 13.8608 197.877 14.8519 197.877 15.9724C197.877 17.1576 198.221 18.0949 198.909 18.7844C199.618 19.4739 200.596 19.8187 201.843 19.8187Z" fill="white"/>
<path fill-rule="evenodd" clip-rule="evenodd" d="M5.94704 0H92.4157L87.4215 29.9988H11.0586L12.734 21.5944C13.8303 23.3133 15.7005 24.1727 18.3445 24.1727C20.1287 24.1727 21.7516 23.743 23.2134 22.8835C24.6751 22.0026 25.8252 20.7994 26.6635 19.2739C27.5234 17.7269 27.9533 15.9973 27.9533 14.085C27.9533 12.4951 27.6093 11.12 26.9215 9.95974C26.2551 8.77801 25.3415 7.8756 24.1807 7.25251C23.0414 6.62942 21.7946 6.31787 20.4404 6.31787C18.3337 6.31787 16.5603 6.97319 15.1201 8.28384L15.4748 6.5757H10.7026L6.02855 29.9988H0L5.94704 0ZM92.4516 29.9988L97.4458 0H102.112L97.1179 29.9988H92.4516ZM102.148 29.9988H149.254L155.235 0H107.142L102.148 29.9988ZM128.096 6.5757L124.645 23.9149H119.873L120.196 22.2067C118.755 23.5174 116.982 24.1727 114.875 24.1727C113.521 24.1727 112.274 23.8611 111.135 23.2381C109.996 22.615 109.082 21.7233 108.394 20.5631C107.728 19.3813 107.395 17.9955 107.395 16.4055C107.395 14.4933 107.814 12.7744 108.652 11.2489C109.512 9.70191 110.673 8.49869 112.135 7.63926C113.596 6.75833 115.209 6.31787 116.971 6.31787C119.637 6.31787 121.518 7.18805 122.614 8.92841L123.065 6.5757H128.096ZM116.423 20.0152C117.412 20.0152 118.293 19.7788 119.067 19.3061C119.841 18.812 120.443 18.1351 120.873 17.2757C121.303 16.4163 121.518 15.4279 121.518 14.3106C121.518 13.1289 121.163 12.1943 120.454 11.5067C119.766 10.8192 118.798 10.4754 117.552 10.4754C116.563 10.4754 115.681 10.7225 114.908 11.2167C114.134 11.6894 113.532 12.3554 113.102 13.2149C112.672 14.0743 112.457 15.0627 112.457 16.1799C112.457 17.3616 112.801 18.2963 113.489 18.9838C114.198 19.6714 115.176 20.0152 116.423 20.0152ZM141.039 15.2453L145.876 23.9149H140.556L137.718 18.5971L132.72 23.9149H126.981L135.655 15.0197L131.044 6.5757H136.267L139.008 11.6679L143.845 6.5757H149.391L141.039 15.2453ZM20.4081 19.3061C19.6343 19.7788 18.7529 20.0152 17.7641 20.0152C16.5173 20.0152 15.55 19.6714 14.8621 18.9838C14.1742 18.2963 13.8303 17.3616 13.8303 16.1799C13.8303 15.0627 14.0453 14.0743 14.4752 13.2149C14.9051 12.3554 15.507 11.6894 16.2809 11.2167C17.0547 10.7225 17.9253 10.4754 18.8926 10.4754C20.1394 10.4754 21.1068 10.8192 21.7946 11.5067C22.504 12.1943 22.8587 13.1289 22.8587 14.3106C22.8587 15.4279 22.6437 16.4163 22.2138 17.2757C21.7839 18.1351 21.182 18.812 20.4081 19.3061ZM47.1202 23.9149L50.5704 6.5757H45.5403L45.0889 8.92841C43.9925 7.18805 42.1116 6.31787 39.4461 6.31787C37.6834 6.31787 36.0712 6.75833 34.6095 7.63926C33.1477 8.49869 31.9869 9.70191 31.1271 11.2489C30.2887 12.7744 29.8696 14.4933 29.8696 16.4055C29.8696 17.9955 30.2027 19.3813 30.8691 20.5631C31.557 21.7233 32.4706 22.615 33.6099 23.2381C34.7492 23.8611 35.996 24.1727 37.3502 24.1727C39.4569 24.1727 41.2303 23.5174 42.6705 22.2067L42.3481 23.9149H47.1202ZM41.542 19.3061C40.7681 19.7788 39.8868 20.0152 38.898 20.0152C37.6512 20.0152 36.6731 19.6714 35.9637 18.9838C35.2758 18.2963 34.9319 17.3616 34.9319 16.1799C34.9319 15.0627 35.1469 14.0743 35.5768 13.2149C36.0067 12.3554 36.6086 11.6894 37.3825 11.2167C38.1563 10.7225 39.0377 10.4754 40.0265 10.4754C41.2733 10.4754 42.2406 10.8192 42.9285 11.5067C43.6379 12.1943 43.9925 13.1289 43.9925 14.3106C43.9925 15.4279 43.7776 16.4163 43.3477 17.2757C42.9177 18.1351 42.3158 18.812 41.542 19.3061ZM59.5804 8.63835C60.3328 7.82189 61.2356 7.23102 62.2889 6.86576C63.3637 6.5005 64.6212 6.31787 66.0615 6.31787L65.1587 10.9588C64.5568 10.9159 64.1698 10.8944 63.9979 10.8944C62.4716 10.8944 61.2463 11.2704 60.322 12.0224C59.4192 12.7744 58.8065 13.9454 58.4841 15.5353L56.8074 23.9149H51.7773L55.2274 6.5757H59.9996L59.5804 8.63835ZM82.9857 23.9149L86.4358 6.5757H81.4057L80.9543 8.92841C79.858 7.18805 77.9771 6.31787 75.3116 6.31787C73.5489 6.31787 71.9367 6.75833 70.4749 7.63926C69.0132 8.49869 67.8524 9.70191 66.9925 11.2489C66.1542 12.7744 65.735 14.4933 65.735 16.4055C65.735 17.9955 66.0682 19.3813 66.7346 20.5631C67.4225 21.7233 68.3361 22.615 69.4754 23.2381C70.6147 23.8611 71.8614 24.1727 73.2157 24.1727C75.3223 24.1727 77.0957 23.5174 78.536 22.2067L78.2135 23.9149H82.9857ZM77.4074 19.3061C76.6336 19.7788 75.7522 20.0152 74.7634 20.0152C73.5166 20.0152 72.5386 19.6714 71.8292 18.9838C71.1413 18.2963 70.7974 17.3616 70.7974 16.1799C70.7974 15.0627 71.0123 14.0743 71.4423 13.2149C71.8722 12.3554 72.4741 11.6894 73.2479 11.2167C74.0218 10.7225 74.9031 10.4754 75.892 10.4754C77.1387 10.4754 78.1061 10.8192 78.794 11.5067C79.5033 12.1943 79.858 13.1289 79.858 14.3106C79.858 15.4279 79.6431 16.4163 79.2131 17.2757C78.7832 18.1351 78.1813 18.812 77.4074 19.3061Z" fill="white"/>
</svg>
