<svg width="14" height="28" viewBox="0 0 14 28" fill="none" xmlns="http://www.w3.org/2000/svg">
<path d="M7 2L0 4.42241V12H3.28125V6.86893H10.7188V12H14V4.42241L7 2Z" fill="black"/>
<path d="M4.10156 12H9.89844V7.72412H4.10156V12ZM7.41016 8.5793H9.07812V9.43448H7.41016V8.5793ZM7.41016 10.2897H9.07812V11.1448H7.41016V10.2897ZM4.92188 8.5793H6.58984V9.43448H4.92188V8.5793ZM4.92188 10.2897H6.58984V11.1448H4.92188V10.2897Z" fill="black"/>
<path d="M7 16L0 18.4224V26H3.28125V20.8689H10.7188V26H14V18.4224L7 16Z" fill="#005FF9"/>
<path d="M4.10156 26H9.89844V21.7241H4.10156V26ZM7.41016 22.5793H9.07812V23.4345H7.41016V22.5793ZM7.41016 24.2897H9.07812V25.1448H7.41016V24.2897ZM4.92188 22.5793H6.58984V23.4345H4.92188V22.5793ZM4.92188 24.2897H6.58984V25.1448H4.92188V24.2897Z" fill="#005FF9"/>
</svg>
