<svg width="14" height="33" fill="none" xmlns="http://www.w3.org/2000/svg"><g clip-path="url(#clip0)" fill="#000"><path d="M13.364 0h-5.09a.636.636 0 000 1.273h3.554l-6.55 6.55a.636.636 0 00.9.9l6.55-6.55v3.554a.636.636 0 001.273 0V.637A.636.636 0 0013.364 0z"/><path d="M10.818 6.364a.636.636 0 00-.636.636v5.727h-8.91V3.818H7a.636.636 0 000-1.273H.636A.636.636 0 000 3.182v10.182c0 .351.285.636.636.636h10.182a.636.636 0 00.637-.636V7a.637.637 0 00-.637-.636z"/></g><g clip-path="url(#clip1)" fill="#005FF9"><path d="M13.364 19h-5.09a.636.636 0 000 1.273h3.554l-6.55 6.55a.636.636 0 00.9.9l6.55-6.55v3.554a.636.636 0 001.273 0v-5.09a.636.636 0 00-.637-.637z"/><path d="M10.818 25.364a.636.636 0 00-.636.636v5.727h-8.91v-8.909H7a.636.636 0 000-1.273H.636a.636.636 0 00-.636.637v10.182c0 .351.285.636.636.636h10.182a.636.636 0 00.637-.636V26a.637.637 0 00-.637-.636z"/></g><defs><clipPath id="clip0"><path fill="#fff" d="M0 0h14v14H0z"/></clipPath><clipPath id="clip1"><path fill="#fff" transform="translate(0 19)" d="M0 0h14v14H0z"/></clipPath></defs></svg>