<svg width="19" height="16" viewBox="0 0 19 16" fill="none" xmlns="http://www.w3.org/2000/svg">
<g clip-path="url(#clip0)">
<path d="M18.2076 7.20003H2.4146L8.4626 1.38003C8.61531 1.23275 8.7038 1.03118 8.70885 0.819076C8.71391 0.606968 8.63513 0.401421 8.4896 0.24703C8.4182 0.171049 8.3324 0.110032 8.23719 0.0675321C8.14199 0.0250323 8.03928 0.00189901 7.93504 -0.000520704C7.83081 -0.00294042 7.72713 0.0154018 7.63006 0.0534379C7.53298 0.091474 7.44444 0.148444 7.3696 0.22103L0.463597 6.86903C0.315023 7.01937 0.197526 7.1975 0.117818 7.39326C0.0381105 7.58902 -0.00224623 7.79857 -0.000946121 8.00993C0.000353991 8.22129 0.0432855 8.43033 0.125396 8.62509C0.207506 8.81985 0.327185 8.99653 0.477597 9.14503L7.3706 15.779C7.44537 15.8518 7.53393 15.9089 7.63106 15.947C7.7282 15.9851 7.83196 16.0035 7.93627 16.0009C8.04058 15.9984 8.14334 15.9751 8.23853 15.9324C8.33372 15.8896 8.41941 15.8283 8.4906 15.752C8.63539 15.5976 8.71361 15.3924 8.70837 15.1808C8.70313 14.9692 8.61485 14.7681 8.4626 14.621L2.3896 8.80003H18.2076C18.3121 8.79951 18.4155 8.7784 18.5119 8.73791C18.6083 8.69742 18.6957 8.63835 18.7693 8.56406C18.8428 8.48977 18.901 8.40173 18.9405 8.30495C18.9801 8.20817 19.0001 8.10456 18.9996 8.00003C18.9996 7.55803 18.6446 7.20003 18.2076 7.20003Z" fill="black"/>
</g>
<defs>
<clipPath id="clip0">
<rect width="19" height="16" fill="white"/>
</clipPath>
</defs>
</svg>
