<svg width="8" height="5" viewBox="0 0 8 5" fill="none" xmlns="http://www.w3.org/2000/svg">
<path d="M2.93725 2.36281L0.365752 0.0540066C0.280621 -0.019812 0.144964 -0.0176926 0.0627463 0.0587414C-0.0174625 0.133304 -0.0174625 0.251506 0.0627463 0.326058L2.48275 2.49884L0.0627463 4.67161C-0.0209154 4.74674 -0.0209154 4.86854 0.0627463 4.94366C0.146433 5.01878 0.282077 5.01878 0.365752 4.94366L2.93725 2.63486C3.02092 2.55972 3.02092 2.43794 2.93725 2.36281Z" fill="#005FF9"/>
<path d="M7.93725 2.36281L5.36575 0.0540066C5.28062 -0.019812 5.14496 -0.0176926 5.06275 0.0587414C4.98254 0.133304 4.98254 0.251506 5.06275 0.326058L7.48275 2.49884L5.06275 4.67161C4.97908 4.74674 4.97908 4.86854 5.06275 4.94366C5.14643 5.01878 5.28208 5.01878 5.36575 4.94366L7.93725 2.63486C8.02092 2.55972 8.02092 2.43794 7.93725 2.36281Z" fill="black"/>
</svg>
