<svg width="14" height="52" viewBox="0 0 14 52" fill="none" xmlns="http://www.w3.org/2000/svg">
<path d="M13.2999 25.3H7.70002V19.7C7.70002 19.3136 7.38638 19 6.99994 19C6.61362 19 6.29998 19.3136 6.29998 19.7V25.3H0.699955C0.31364 25.3 0 25.6136 0 25.9999C0 26.3864 0.31364 26.7 0.699955 26.7H6.29998V32.2999C6.29998 32.6864 6.61362 33 6.99994 33C7.38638 33 7.70002 32.6864 7.70002 32.2999V26.7H13.2999C13.6864 26.7 14 26.3864 14 25.9999C14 25.6136 13.6864 25.3 13.2999 25.3V25.3Z" fill="#005FF9"/>
<path d="M13.2999 44.3H7.70002V38.7C7.70002 38.3136 7.38638 38 6.99994 38C6.61362 38 6.29998 38.3136 6.29998 38.7V44.3H0.699955C0.31364 44.3 0 44.6136 0 44.9999C0 45.3864 0.31364 45.7 0.699955 45.7H6.29998V51.2999C6.29998 51.6864 6.61362 52 6.99994 52C7.38638 52 7.70002 51.6864 7.70002 51.2999V45.7H13.2999C13.6864 45.7 14 45.3864 14 44.9999C14 44.6136 13.6864 44.3 13.2999 44.3V44.3Z" fill="#D62631"/>
<path d="M13.2999 6.29998H7.70002V0.699955C7.70002 0.31364 7.38638 0 6.99994 0C6.61362 0 6.29998 0.31364 6.29998 0.699955V6.29998H0.699955C0.31364 6.29998 0 6.61362 0 6.99994C0 7.38638 0.31364 7.70002 0.699955 7.70002H6.29998V13.2999C6.29998 13.6864 6.61362 14 6.99994 14C7.38638 14 7.70002 13.6864 7.70002 13.2999V7.70002H13.2999C13.6864 7.70002 14 7.38638 14 6.99994C14 6.61362 13.6864 6.29998 13.2999 6.29998V6.29998Z" fill="white"/>
</svg>
