<svg width="15" height="14" viewBox="0 0 15 14" fill="none" xmlns="http://www.w3.org/2000/svg">
<path d="M14.9052 1.83763C14.8231 1.73801 14.6988 1.68003 14.5673 1.68003H3.05133L2.72929 0.325552C2.68397 0.134993 2.50916 0 2.30768 0H0.432685C0.19374 0 0 0.188057 0 0.420022C0 0.651986 0.19374 0.840015 0.432685 0.840015H1.96347L4.14937 10.0345C4.19466 10.225 4.36951 10.36 4.57098 10.36H13.2404C13.4793 10.36 13.673 10.1719 13.673 9.94001C13.673 9.70805 13.4793 9.52002 13.2404 9.52002H4.91522L4.58241 8.12001H13.2692C13.4716 8.12001 13.647 7.98385 13.6914 7.79221L14.9894 2.19222C15.0183 2.06772 14.9873 1.93728 14.9052 1.83763ZM12.9231 7.28H4.38269L3.25104 2.52002H14.0264L12.9231 7.28Z" fill="#005FF9"/>
<path d="M6.34614 10.92C5.47133 10.92 4.75959 11.6108 4.75959 12.46C4.75959 13.3092 5.4713 14 6.34614 14C7.22094 14 7.93268 13.3092 7.93268 12.46C7.93268 11.6108 7.22097 10.92 6.34614 10.92ZM6.34614 13.16C5.94849 13.16 5.62499 12.846 5.62499 12.46C5.62499 12.074 5.94849 11.76 6.34614 11.76C6.74378 11.76 7.06728 12.074 7.06728 12.46C7.06728 12.846 6.74378 13.16 6.34614 13.16Z" fill="#005FF9"/>
<path d="M11.5384 10.92C10.6636 10.92 9.95191 11.6108 9.95191 12.46C9.95191 13.3092 10.6636 14 11.5384 14C12.4133 14 13.125 13.3092 13.125 12.46C13.125 11.6108 12.4133 10.92 11.5384 10.92ZM11.5384 13.16C11.1408 13.16 10.8173 12.846 10.8173 12.46C10.8173 12.074 11.1408 11.76 11.5384 11.76C11.9361 11.76 12.2596 12.074 12.2596 12.46C12.2596 12.846 11.9361 13.16 11.5384 13.16Z" fill="#005FF9"/>
</svg>
