<svg width="21" height="40" viewBox="0 0 21 40" fill="none" xmlns="http://www.w3.org/2000/svg">
<path fill-rule="evenodd" clip-rule="evenodd" d="M15.2008 17.848H5.81805C5.3046 17.848 4.86675 17.4682 4.78275 16.9485L3.52905 9.24034H17.6599L16.233 16.9721C16.1385 17.48 15.7059 17.848 15.2008 17.848ZM17.85 7.08831L14.1466 0.537884C13.8579 0.0278842 13.2216 -0.148488 12.7218 0.144175C12.2167 0.438986 12.0435 1.09856 12.3344 1.61287L15.4245 7.08831H5.57445L8.66985 1.61699C8.9586 1.10483 8.78955 0.450754 8.29185 0.151628L8.2824 0.146231C7.78155 -0.152885 7.1379 0.0215125 6.8481 0.535828L3.15 7.08831H1.05C0.46935 7.08831 0 7.5704 0 8.16432C0 8.75826 0.46935 9.24034 1.05 9.24034H1.39965L2.85705 18.2021C3.0261 19.2393 3.9018 20 4.9287 20H16.0702C17.0971 20 17.9739 19.2393 18.1419 18.2021L19.5993 9.24034H19.95C20.5296 9.24034 21 8.75826 21 8.16432C21 7.5704 20.5296 7.08831 19.95 7.08831H17.85Z" fill="black"/>
<path fill-rule="evenodd" clip-rule="evenodd" d="M15.2008 37.848H5.81805C5.3046 37.848 4.86675 37.4682 4.78275 36.9485L3.52905 29.2403H17.6599L16.233 36.9721C16.1385 37.48 15.7059 37.848 15.2008 37.848ZM17.85 27.0883L14.1466 20.5379C13.8579 20.0279 13.2216 19.8515 12.7218 20.1442C12.2167 20.439 12.0435 21.0986 12.3344 21.6129L15.4245 27.0883H5.57445L8.66985 21.617C8.9586 21.1048 8.78955 20.4508 8.29185 20.1516L8.2824 20.1462C7.78155 19.8471 7.1379 20.0215 6.8481 20.5358L3.15 27.0883H1.05C0.46935 27.0883 0 27.5704 0 28.1643C0 28.7583 0.46935 29.2403 1.05 29.2403H1.39965L2.85705 38.2021C3.0261 39.2393 3.9018 40 4.9287 40H16.0702C17.0971 40 17.9739 39.2393 18.1419 38.2021L19.5993 29.2403H19.95C20.5296 29.2403 21 28.7583 21 28.1643C21 27.5704 20.5296 27.0883 19.95 27.0883H17.85Z" fill="white"/>
</svg>
