<svg width="22" height="20" viewBox="0 0 22 20" fill="none" xmlns="http://www.w3.org/2000/svg">
<g clip-path="url(#clip0)">
<path fill-rule="evenodd" clip-rule="evenodd" d="M15.2389 17.848H5.83263C5.3179 17.848 4.87895 17.4682 4.79474 16.9485L3.53789 9.24034H17.7042L16.2737 16.9721C16.1789 17.48 15.7453 17.848 15.2389 17.848ZM17.8947 7.08831L14.1821 0.537884C13.8926 0.0278842 13.2547 -0.148488 12.7537 0.144175C12.2474 0.438986 12.0737 1.09856 12.3653 1.61287L15.4632 7.08831H5.58842L8.69158 1.61699C8.98106 1.10483 8.81158 0.450754 8.31264 0.151628L8.30316 0.146231C7.80105 -0.152885 7.15579 0.0215125 6.86527 0.535828L3.15789 7.08831H1.05263C0.470526 7.08831 0 7.5704 0 8.16432C0 8.75826 0.470526 9.24034 1.05263 9.24034H1.40316L2.86421 18.2021C3.03368 19.2393 3.91158 20 4.94105 20H16.1105C17.14 20 18.0189 19.2393 18.1874 18.2021L19.6484 9.24034H20C20.5811 9.24034 21.0526 8.75826 21.0526 8.16432C21.0526 7.5704 20.5811 7.08831 20 7.08831H17.8947Z" fill="black"/>
</g>
<defs>
<clipPath id="clip0">
<rect width="21.0526" height="20" fill="white"/>
</clipPath>
</defs>
</svg>
