<svg width="14" height="34" viewBox="0 0 14 34" fill="none" xmlns="http://www.w3.org/2000/svg">
<path d="M13.3467 0.0297277L0.316767 4.83022C0.110346 4.90772 -0.0206391 5.11551 0.0026776 5.33633C0.0253085 5.55784 0.195383 5.73477 0.41552 5.76563L7.25623 6.74288L8.23347 13.5836C8.26433 13.8037 8.44195 13.9745 8.66208 13.9971C8.81159 14.0136 8.9556 13.9587 9.05641 13.8579C9.1051 13.8092 9.14351 13.7502 9.16819 13.683L13.9687 0.653106C14.0345 0.474802 13.9906 0.275925 13.8569 0.142196C13.7232 0.00846835 13.5243 -0.0354219 13.3467 0.0297277Z" fill="black"/>
<path d="M13.3467 20.0297L0.316767 24.8302C0.110346 24.9077 -0.0206391 25.1155 0.0026776 25.3363C0.0253085 25.5578 0.195383 25.7348 0.41552 25.7656L7.25623 26.7429L8.23347 33.5836C8.26433 33.8037 8.44195 33.9745 8.66208 33.9971C8.81159 34.0136 8.9556 33.9587 9.05641 33.8579C9.1051 33.8092 9.14351 33.7502 9.16819 33.683L13.9687 20.6531C14.0345 20.4748 13.9906 20.2759 13.8569 20.1422C13.7232 20.0085 13.5243 19.9646 13.3467 20.0297Z" fill="#005FF9"/>
</svg>
