<svg width="12" height="29" viewBox="0 0 12 29" fill="none" xmlns="http://www.w3.org/2000/svg">
<path d="M6.66296 6.00003L11.8627 0.800232C12.0458 0.617162 12.0458 0.320349 11.8627 0.137303C11.6797 -0.0457441 11.3828 -0.0457676 11.1998 0.137303L6 5.3371L0.800232 0.137303C0.617162 -0.0457676 0.320349 -0.0457676 0.137303 0.137303C-0.0457441 0.320373 -0.0457676 0.617185 0.137303 0.800232L5.33707 6L0.137303 11.1998C-0.0457676 11.3829 -0.0457676 11.6797 0.137303 11.8627C0.228826 11.9543 0.348803 12 0.468779 12C0.588756 12 0.708709 11.9543 0.800256 11.8627L6 6.66296L11.1998 11.8627C11.2913 11.9543 11.4113 12 11.5313 12C11.6512 12 11.7712 11.9543 11.8627 11.8627C12.0458 11.6797 12.0458 11.3828 11.8627 11.1998L6.66296 6.00003Z" fill="black"/>
<path d="M6.66296 23L11.8627 17.8002C12.0458 17.6172 12.0458 17.3203 11.8627 17.1373C11.6797 16.9543 11.3828 16.9542 11.1998 17.1373L6 22.3371L0.800232 17.1373C0.617162 16.9542 0.320349 16.9542 0.137303 17.1373C-0.0457441 17.3204 -0.0457676 17.6172 0.137303 17.8002L5.33707 23L0.137303 28.1998C-0.0457676 28.3829 -0.0457676 28.6797 0.137303 28.8627C0.228826 28.9543 0.348803 29 0.468779 29C0.588756 29 0.708709 28.9543 0.800256 28.8627L6 23.663L11.1998 28.8627C11.2913 28.9543 11.4113 29 11.5313 29C11.6512 29 11.7712 28.9543 11.8627 28.8627C12.0458 28.6797 12.0458 28.3828 11.8627 28.1998L6.66296 23Z" fill="white"/>
</svg>
