<svg width="12" height="12" viewBox="0 0 12 12" fill="none" xmlns="http://www.w3.org/2000/svg">
<path d="M6.66296 6.00003L11.8627 0.800232C12.0458 0.617162 12.0458 0.320349 11.8627 0.137303C11.6797 -0.0457441 11.3828 -0.0457676 11.1998 0.137303L6 5.3371L0.800232 0.137303C0.617162 -0.0457676 0.320349 -0.0457676 0.137303 0.137303C-0.0457441 0.320373 -0.0457676 0.617185 0.137303 0.800232L5.33707 6L0.137303 11.1998C-0.0457676 11.3829 -0.0457676 11.6797 0.137303 11.8627C0.228826 11.9543 0.348803 12 0.468779 12C0.588756 12 0.708709 11.9543 0.800256 11.8627L6 6.66296L11.1998 11.8627C11.2913 11.9543 11.4113 12 11.5313 12C11.6512 12 11.7712 11.9543 11.8627 11.8627C12.0458 11.6797 12.0458 11.3828 11.8627 11.1998L6.66296 6.00003Z" fill="black"/>
</svg>
