<svg width="33" height="14" viewBox="0 0 33 14" fill="none" xmlns="http://www.w3.org/2000/svg">
<g clip-path="url(#clip0)">
<path d="M13.8768 2.78143L9.63086 7L13.8768 11.2186C13.9535 11.0581 14.0001 10.8808 14.0001 10.6914V3.30859C14.0001 3.11918 13.9535 2.94186 13.8768 2.78143Z" fill="white"/>
<path d="M12.7693 2.07812H1.23029C1.04087 2.07812 0.863551 2.12469 0.703125 2.20145L6.12985 7.60084C6.60968 8.08067 7.38996 8.08067 7.86978 7.60084L13.2965 2.20145C13.1361 2.12469 12.9588 2.07812 12.7693 2.07812Z" fill="white"/>
<path d="M0.12332 2.78143C0.0465664 2.94186 0 3.11918 0 3.30859V10.6914C0 10.8808 0.0465664 11.0582 0.12332 11.2186L4.36923 7L0.12332 2.78143Z" fill="white"/>
<path d="M9.0506 7.57999L8.44977 8.18081C7.65027 8.98031 6.34934 8.98031 5.54983 8.18081L4.94903 7.57999L0.703125 11.7986C0.863551 11.8753 1.04087 11.9219 1.23029 11.9219H12.7693C12.9588 11.9219 13.1361 11.8753 13.2965 11.7986L9.0506 7.57999Z" fill="white"/>
</g>
<g clip-path="url(#clip1)">
<path d="M32.8768 2.78143L28.6309 7L32.8768 11.2186C32.9535 11.0581 33.0001 10.8808 33.0001 10.6914V3.30859C33.0001 3.11918 32.9535 2.94186 32.8768 2.78143Z" fill="black"/>
<path d="M31.7693 2.07812H20.2303C20.0409 2.07812 19.8636 2.12469 19.7031 2.20145L25.1298 7.60084C25.6097 8.08067 26.39 8.08067 26.8698 7.60084L32.2965 2.20145C32.1361 2.12469 31.9588 2.07812 31.7693 2.07812Z" fill="black"/>
<path d="M19.1233 2.78143C19.0466 2.94186 19 3.11918 19 3.30859V10.6914C19 10.8808 19.0466 11.0582 19.1233 11.2186L23.3692 7L19.1233 2.78143Z" fill="black"/>
<path d="M28.0506 7.57999L27.4498 8.18081C26.6503 8.98031 25.3493 8.98031 24.5498 8.18081L23.949 7.57999L19.7031 11.7986C19.8636 11.8753 20.0409 11.9219 20.2303 11.9219H31.7693C31.9588 11.9219 32.1361 11.8753 32.2965 11.7986L28.0506 7.57999Z" fill="black"/>
</g>
<defs>
<clipPath id="clip0">
<rect width="14" height="14" fill="white"/>
</clipPath>
<clipPath id="clip1">
<rect width="14" height="14" fill="white" transform="translate(19)"/>
</clipPath>
</defs>
</svg>
