<svg width="26" height="14" viewBox="0 0 26 14" fill="none" xmlns="http://www.w3.org/2000/svg">
<path d="M25.1875 1.74996H0.812483C0.363962 1.74996 1.90735e-06 1.35793 1.90735e-06 0.874982C1.90735e-06 0.39196 0.364031 0 0.812483 0H25.1875C25.636 0 26 0.392033 26 0.874982C26 1.35793 25.636 1.74996 25.1875 1.74996Z" fill="white"/>
<path d="M0.812483 6.12503H25.1875C25.636 6.12503 26 6.51706 26 7.00001C26 7.48296 25.636 7.87499 25.1875 7.87499H0.812483C0.363962 7.87499 1.90735e-06 7.48296 1.90735e-06 7.00001C1.90735e-06 6.51706 0.363962 6.12503 0.812483 6.12503Z" fill="white"/>
<path d="M1.18186 12H24.8182C25.4706 12 26 12.448 26 13C26 13.552 25.4705 14 24.8182 14H1.18186C0.529467 14 6.86646e-05 13.552 6.86646e-05 13C-3.05176e-05 12.448 0.529467 12 1.18186 12Z" fill="white"/>
</svg>
