<svg width="33" height="14" viewBox="0 0 33 14" fill="none" xmlns="http://www.w3.org/2000/svg">
<path d="M12.8766 9.1894C12.0195 9.1894 11.1779 9.05534 10.3804 8.79178C9.98958 8.65849 9.50917 8.78077 9.27066 9.02573L7.6965 10.2141C5.87092 9.23956 4.7464 8.11541 3.78521 6.30354L4.93857 4.77039C5.23822 4.47114 5.3457 4.03401 5.21693 3.62385C4.95224 2.82213 4.81779 1.98093 4.81779 1.12343C4.81782 0.503964 4.31386 0 3.69443 0H1.12339C0.503964 0 0 0.503964 0 1.12339C0 8.22365 5.77638 14 12.8766 14C13.4961 14 14 13.496 14 12.8766V10.3128C14 9.69336 13.496 9.1894 12.8766 9.1894Z" fill="white"/>
<path d="M31.8766 9.1894C31.0195 9.1894 30.1779 9.05534 29.3804 8.79178C28.9896 8.65849 28.5092 8.78077 28.2707 9.02573L26.6965 10.2141C24.8709 9.23956 23.7464 8.11541 22.7852 6.30354L23.9386 4.77039C24.2382 4.47114 24.3457 4.03401 24.2169 3.62385C23.9522 2.82213 23.8178 1.98093 23.8178 1.12343C23.8178 0.503964 23.3139 0 22.6944 0H20.1234C19.504 0 19 0.503964 19 1.12339C19 8.22365 24.7764 14 31.8766 14C32.4961 14 33 13.496 33 12.8766V10.3128C33 9.69336 32.496 9.1894 31.8766 9.1894Z" fill="black"/>
</svg>
