<svg width="33" height="14" viewBox="0 0 33 14" fill="none" xmlns="http://www.w3.org/2000/svg">
<path fill-rule="evenodd" clip-rule="evenodd" d="M11.9602 2.03455C10.6442 0.723242 8.8939 0.000769042 7.02928 0C3.18704 0 0.0600162 3.11198 0.0584707 6.93685C0.0579556 8.15955 0.378901 9.3531 0.988936 10.4052L0 14L3.69533 13.0353C4.71355 13.588 5.85986 13.8793 7.02645 13.8797H7.02936C10.8712 13.8797 13.9985 10.7675 14 6.94241C14.0008 5.08867 13.2764 3.34576 11.9602 2.03455ZM7.02928 12.7081H7.02687C5.98728 12.7077 4.96769 12.4296 4.07801 11.9044L3.86654 11.7793L1.67367 12.3519L2.25898 10.2241L2.12117 10.0059C1.54119 9.08787 1.23493 8.02676 1.23544 6.93728C1.23664 3.75814 3.8358 1.17168 7.0316 1.17168C8.57914 1.17219 10.0339 1.77273 11.1277 2.86263C12.2216 3.95254 12.8236 5.40125 12.8231 6.94198C12.8217 10.1214 10.2228 12.7081 7.02928 12.7081V12.7081ZM10.2073 8.38958C10.0332 8.30276 9.17681 7.88354 9.01711 7.82561C8.85758 7.76776 8.74133 7.73896 8.62533 7.91243C8.50916 8.08589 8.17542 8.47639 8.07377 8.592C7.97211 8.7077 7.87062 8.72223 7.69641 8.63541C7.5222 8.54868 6.96102 8.36556 6.29569 7.77502C5.77795 7.31539 5.42842 6.74775 5.32676 6.57429C5.22527 6.40066 5.3259 6.31589 5.40317 6.22053C5.59172 5.98751 5.78053 5.74321 5.83857 5.6276C5.8967 5.5119 5.86759 5.41064 5.82397 5.32391C5.78053 5.23718 5.4322 4.38397 5.28709 4.03679C5.14559 3.69893 5.00212 3.74456 4.89514 3.73926C4.79365 3.73422 4.67749 3.73319 4.56132 3.73319C4.44523 3.73319 4.25651 3.77651 4.09681 3.95015C3.9372 4.12369 3.48729 4.54299 3.48729 5.3962C3.48729 6.24941 4.11141 7.07366 4.19847 7.18936C4.28553 7.30505 5.4267 9.05591 7.17387 9.80666C7.58943 9.98542 7.91381 10.092 8.16684 10.1719C8.58412 10.3038 8.96371 10.2852 9.26387 10.2406C9.59856 10.1908 10.2943 9.82119 10.4396 9.41633C10.5847 9.01139 10.5847 8.66438 10.541 8.592C10.4976 8.51971 10.3814 8.47639 10.2073 8.38958V8.38958Z" fill="white"/>
<path fill-rule="evenodd" clip-rule="evenodd" d="M30.9602 2.03455C29.6442 0.723242 27.8939 0.000769042 26.0293 0C22.187 0 19.06 3.11198 19.0585 6.93685C19.058 8.15955 19.3789 9.3531 19.9889 10.4052L19 14L22.6953 13.0353C23.7135 13.588 24.8599 13.8793 26.0264 13.8797H26.0294C29.8712 13.8797 32.9985 10.7675 33 6.94241C33.0008 5.08867 32.2764 3.34576 30.9602 2.03455ZM26.0293 12.7081H26.0269C24.9873 12.7077 23.9677 12.4296 23.078 11.9044L22.8665 11.7793L20.6737 12.3519L21.259 10.2241L21.1212 10.0059C20.5412 9.08787 20.2349 8.02676 20.2354 6.93728C20.2366 3.75814 22.8358 1.17168 26.0316 1.17168C27.5791 1.17219 29.0339 1.77273 30.1277 2.86263C31.2216 3.95254 31.8236 5.40125 31.8231 6.94198C31.8217 10.1214 29.2228 12.7081 26.0293 12.7081V12.7081ZM29.2073 8.38958C29.0332 8.30276 28.1768 7.88354 28.0171 7.82561C27.8576 7.76776 27.7413 7.73896 27.6253 7.91243C27.5092 8.08589 27.1754 8.47639 27.0738 8.592C26.9721 8.7077 26.8706 8.72223 26.6964 8.63541C26.5222 8.54868 25.961 8.36556 25.2957 7.77502C24.778 7.31539 24.4284 6.74775 24.3268 6.57429C24.2253 6.40066 24.3259 6.31589 24.4032 6.22053C24.5917 5.98751 24.7805 5.74321 24.8386 5.6276C24.8967 5.5119 24.8676 5.41064 24.824 5.32391C24.7805 5.23718 24.4322 4.38397 24.2871 4.03679C24.1456 3.69893 24.0021 3.74456 23.8951 3.73926C23.7937 3.73422 23.6775 3.73319 23.5613 3.73319C23.4452 3.73319 23.2565 3.77651 23.0968 3.95015C22.9372 4.12369 22.4873 4.54299 22.4873 5.3962C22.4873 6.24941 23.1114 7.07366 23.1985 7.18936C23.2855 7.30505 24.4267 9.05591 26.1739 9.80666C26.5894 9.98542 26.9138 10.092 27.1668 10.1719C27.5841 10.3038 27.9637 10.2852 28.2639 10.2406C28.5986 10.1908 29.2943 9.82119 29.4396 9.41633C29.5847 9.01139 29.5847 8.66438 29.541 8.592C29.4976 8.51971 29.3814 8.47639 29.2073 8.38958V8.38958Z" fill="black"/>
</svg>
