<svg width="16" height="37" fill="none" xmlns="http://www.w3.org/2000/svg"><path d="M14.492 22.508a5.162 5.162 0 00-7.292 0 5.155 5.155 0 00-1.256 5.233L.137 33.548a.468.468 0 00-.137.331v2.652c0 .26.21.469.469.469H3.12c.124 0 .243-.05.331-.137l.663-.664a.469.469 0 00.134-.385l-.082-.712.986-.093a.468.468 0 00.423-.423l.093-.987.712.083a.47.47 0 00.523-.466v-.872h.857c.124 0 .243-.05.331-.138l1.202-1.186c1.836.595 3.825.154 5.198-1.22a5.162 5.162 0 000-7.292zm-1.326 3.315a1.407 1.407 0 01-1.989 0 1.407 1.407 0 010-1.989 1.407 1.407 0 011.989 0c.548.548.548 1.44 0 1.989z" fill="#000"/><path d="M14.492 1.508a5.162 5.162 0 00-7.292 0A5.155 5.155 0 005.944 6.74L.137 12.548a.468.468 0 00-.137.331v2.652c0 .26.21.469.469.469H3.12c.124 0 .243-.05.331-.137l.663-.664a.469.469 0 00.134-.385l-.082-.712.986-.093a.468.468 0 00.423-.423l.093-.987.712.083a.47.47 0 00.523-.466v-.872h.857c.124 0 .243-.05.331-.138l1.202-1.186c1.836.595 3.825.154 5.198-1.22a5.162 5.162 0 000-7.292zm-1.326 3.315a1.407 1.407 0 01-1.989 0 1.407 1.407 0 010-1.989 1.407 1.407 0 011.989 0c.548.548.548 1.44 0 1.989z" fill="#005FF9"/></svg>