<svg width="16" height="37" fill="none" xmlns="http://www.w3.org/2000/svg"><path d="M3.67 28.333H.334a.334.334 0 00-.334.334v8c0 .183.15.333.334.333H3.67c.184 0 .333-.15.333-.334v-8a.333.333 0 00-.333-.333zM9.662 21H6.326a.334.334 0 00-.334.333v15.334c0 .184.15.333.334.333h3.336c.184 0 .334-.15.334-.333V21.333A.334.334 0 009.662 21zm6.004 3.333H12.33a.334.334 0 00-.334.334v12c0 .184.15.333.334.333h3.336c.184 0 .333-.15.333-.333v-12a.334.334 0 00-.333-.334z" fill="#000"/><path d="M3.67 7.333H.334A.334.334 0 000 7.667v8c0 .184.15.333.334.333H3.67c.184 0 .333-.15.333-.334v-8a.333.333 0 00-.333-.333zM9.662 0H6.326a.334.334 0 00-.334.333v15.334c0 .184.15.333.334.333h3.336c.184 0 .334-.15.334-.333V.333A.334.334 0 009.662 0zm6.004 3.333H12.33a.334.334 0 00-.334.334v12c0 .184.15.333.334.333h3.336c.184 0 .333-.15.333-.333v-12a.334.334 0 00-.333-.334z" fill="#005FF9"/></svg>