<svg width="16" height="37" fill="none" xmlns="http://www.w3.org/2000/svg"><g clip-path="url(#clip0)" fill="#000"><path d="M1.391 23.423a1.392 1.392 0 100 2.783 1.392 1.392 0 000-2.783zm0 4.187a1.391 1.391 0 100 2.781 1.391 1.391 0 000-2.782zm0 4.184a1.391 1.391 0 100 2.783 1.391 1.391 0 000-2.783zm13.563-8.026H5.058a1.046 1.046 0 000 2.093h9.896a1.046 1.046 0 000-2.093zm0 4.186H5.058a1.046 1.046 0 000 2.093h9.896a1.046 1.046 0 000-2.093zm0 4.186H5.058a1.046 1.046 0 000 2.091h9.896a1.046 1.046 0 000-2.092z"/></g><g clip-path="url(#clip1)" fill="#005FF9"><path d="M1.391 2.423a1.392 1.392 0 100 2.783 1.392 1.392 0 000-2.783zm0 4.187a1.391 1.391 0 100 2.781 1.391 1.391 0 000-2.782zm0 4.184a1.391 1.391 0 100 2.783 1.391 1.391 0 000-2.783zm13.563-8.026H5.058a1.046 1.046 0 000 2.093h9.896a1.046 1.046 0 000-2.093zm0 4.186H5.058a1.046 1.046 0 000 2.092h9.896a1.046 1.046 0 000-2.092zm0 4.186H5.058a1.046 1.046 0 000 2.091h9.896a1.046 1.046 0 000-2.092z"/></g><defs><clipPath id="clip0"><path fill="#fff" transform="translate(0 21)" d="M0 0h16v16H0z"/></clipPath><clipPath id="clip1"><path fill="#fff" d="M0 0h16v16H0z"/></clipPath></defs></svg>