<svg width="16" height="16" fill="none" xmlns="http://www.w3.org/2000/svg"><path d="M14.767 10.04a.4.4 0 00-.398.401v3.556a1.2 1.2 0 01-1.196 1.202H1.993a1.2 1.2 0 01-1.196-1.202V3.561a1.2 1.2 0 011.195-1.202H5.53a.4.4 0 00.399-.4.4.4 0 00-.399-.4H1.993A2 2 0 000 3.56v10.436A2 2 0 001.992 16h11.181a2 2 0 001.993-2.002V10.44a.4.4 0 00-.399-.4z" fill="#005FF9"/><path d="M15.008.528a1.787 1.787 0 00-2.536 0l-7.11 7.145a.4.4 0 00-.102.176l-.934 3.393a.402.402 0 00.102.39c.101.102.25.14.388.102l3.375-.94a.399.399 0 00.175-.102l7.11-7.145a1.813 1.813 0 000-2.55l-.468-.47zM6.23 7.933l5.818-5.848 1.877 1.886L8.107 9.82 6.231 7.933zm-.375.756l1.5 1.507-2.074.578.574-2.085zm9.056-5.709l-.423.425-1.876-1.886.423-.425a.993.993 0 011.408 0l.468.47a1.006 1.006 0 010 1.416z" fill="#005FF9"/></svg>