<svg width="18" height="41" fill="none" xmlns="http://www.w3.org/2000/svg"><path d="M9 7.2v3.6h5.092A5.41 5.41 0 019 14.4 5.407 5.407 0 013.6 9c0-2.977 2.423-5.4 5.4-5.4a5.32 5.32 0 013.497 1.303l2.366-2.714A8.92 8.92 0 009 0C4.037 0 0 4.037 0 9s4.037 9 9 9 9-4.037 9-9V7.2H9z" fill="#fff"/><path d="M9 30.2v3.6h5.092A5.41 5.41 0 019 37.4 5.407 5.407 0 013.6 32c0-2.977 2.423-5.4 5.4-5.4a5.32 5.32 0 013.497 1.303l2.366-2.714A8.92 8.92 0 009 23c-4.963 0-9 4.037-9 9s4.037 9 9 9 9-4.037 9-9v-1.8H9z" fill="#F44335"/></svg>