<svg width="14" height="14" fill="none" xmlns="http://www.w3.org/2000/svg"><path d="M6.977 12.833H1.744a.583.583 0 01-.581-.583V1.75c0-.322.26-.583.581-.583h5.233a.582.582 0 00.581-.584A.582.582 0 006.977 0H1.744A1.75 1.75 0 000 1.75v10.5C0 13.215.783 14 1.744 14h5.233c.321 0 .581-.26.581-.583a.582.582 0 00-.581-.584z" fill="#E6C53F"/><path d="M13.827 6.585l-3.535-3.5a.58.58 0 00-.822.006.584.584 0 00.006.824l2.526 2.502h-6.77a.582.582 0 00-.58.583c0 .323.26.583.58.583h6.77l-2.526 2.502a.585.585 0 00.408.998.577.577 0 00.408-.168l3.535-3.5a.585.585 0 000-.83z" fill="#E6C53F"/></svg>