<svg width="16" height="38" fill="none" xmlns="http://www.w3.org/2000/svg"><path d="M12.667 8.03a.666.666 0 00-.667.667v5.334a.667.667 0 01-.667.666H2a.667.667 0 01-.667-.666V4.697c0-.367.299-.666.667-.666h5.333a.666.666 0 100-1.334H2c-1.103 0-2 .898-2 2v9.334c0 1.102.897 2 2 2h9.333c1.103 0 2-.898 2-2V8.697a.666.666 0 00-.666-.666z" fill="#005FF9"/><path d="M6.25 7.424a.337.337 0 00-.09.17L5.687 9.95a.334.334 0 00.393.392l2.357-.471a.332.332 0 00.17-.092l5.275-5.275-2.357-2.356L6.25 7.423zM15.512.519a1.668 1.668 0 00-2.357 0l-.923.922 2.357 2.357.923-.923c.314-.314.488-.732.488-1.178 0-.445-.174-.864-.488-1.178z" fill="#005FF9"/><path d="M12.667 29.03a.666.666 0 00-.667.667v5.334a.667.667 0 01-.667.666H2a.667.667 0 01-.667-.666v-9.334c0-.367.299-.666.667-.666h5.333a.666.666 0 100-1.334H2c-1.103 0-2 .898-2 2v9.334c0 1.102.897 2 2 2h9.333c1.103 0 2-.898 2-2v-5.334a.666.666 0 00-.666-.666z" fill="#000"/><path d="M6.25 28.424a.337.337 0 00-.09.17l-.472 2.357a.334.334 0 00.393.392l2.357-.471a.332.332 0 00.17-.092l5.275-5.274-2.357-2.357-5.275 5.275zm9.262-6.905a1.668 1.668 0 00-2.357 0l-.923.922 2.357 2.357.923-.923c.314-.314.488-.732.488-1.178 0-.445-.174-.864-.488-1.178z" fill="#000"/></svg>